<svg width="24" height="24" viewBox="0 0 24 24" fill="none" xmlns="http://www.w3.org/2000/svg">
<path d="M18.4583 7.46286C18.9623 8.52229 19.3051 9.62971 19.4697 10.7509C19.5589 11.3131 19.6 11.8549 19.6 12.4C19.6 12.9451 19.5554 13.4869 19.4629 14.056C19.2983 15.1737 18.9554 16.2811 18.4514 17.3406C17.4997 19.3524 16.2971 20.5512 16.2184 20.6296L16.216 20.632C16.1063 20.7417 15.9554 20.8034 15.7977 20.8034H7.79886C7.64114 20.8034 7.49371 20.7417 7.38057 20.632L7.37819 20.6296C7.29956 20.5512 6.09688 19.3524 5.14514 17.3371C4.64114 16.2777 4.29829 15.1703 4.13371 14.0491C4.04457 13.4834 4 12.9417 4 12.4C4 11.8549 4.04457 11.3131 4.13714 10.744C4.30171 9.62971 4.64457 8.52229 5.14857 7.46286C6.112 5.42629 7.33257 4.22286 7.384 4.17143C7.49714 4.06171 7.64457 4 7.80229 4H15.8046C15.9623 4 16.1131 4.06171 16.2229 4.17143C16.2743 4.21943 17.4949 5.42286 18.4583 7.46286Z" stroke="#012768" stroke-width="0.9" stroke-miterlimit="10"/>
</svg>
