<svg width="24" height="24" viewBox="0 0 24 24" fill="none" xmlns="http://www.w3.org/2000/svg">
<path d="M5.24997 18.7499C5.24997 18.9488 5.17095 19.1396 5.0303 19.2803C4.88965 19.4209 4.69888 19.4999 4.49997 19.4999C4.30106 19.4999 4.11029 19.4209 3.96964 19.2803C3.82899 19.1396 3.74997 18.9488 3.74997 18.7499V5.56042L2.03097 7.28092C1.96124 7.35065 1.87845 7.40597 1.78735 7.4437C1.69624 7.48144 1.59859 7.50087 1.49997 7.50087C1.40135 7.50087 1.3037 7.48144 1.2126 7.4437C1.12149 7.40597 1.0387 7.35065 0.968971 7.28092C0.899239 7.21119 0.843925 7.1284 0.806186 7.0373C0.768447 6.94619 0.749023 6.84854 0.749023 6.74992C0.749023 6.6513 0.768447 6.55365 0.806186 6.46254C0.843925 6.37144 0.899239 6.28865 0.968971 6.21892L3.96897 3.22042L3.97947 3.20992C4.12047 3.07297 4.30977 2.99712 4.50632 2.99881C4.70287 3.00049 4.89084 3.07958 5.02947 3.21892L8.02947 6.21892C8.0992 6.28855 8.15454 6.37124 8.19231 6.46226C8.23009 6.55328 8.24957 6.65084 8.24964 6.74939C8.24971 6.84794 8.23037 6.94553 8.19272 7.0366C8.15507 7.12767 8.09985 7.21044 8.03022 7.28017C7.96059 7.3499 7.8779 7.40524 7.78688 7.44301C7.69586 7.48079 7.5983 7.50027 7.49975 7.50034C7.4012 7.50041 7.30361 7.48107 7.21254 7.44342C7.12147 7.40577 7.0387 7.35055 6.96897 7.28092L5.24997 5.56042V18.7499ZM10.5 5.24992C10.5 5.05101 10.579 4.86024 10.7196 4.71959C10.8603 4.57894 11.0511 4.49992 11.25 4.49992H21.75C21.9489 4.49992 22.1396 4.57894 22.2803 4.71959C22.421 4.86024 22.5 5.05101 22.5 5.24992C22.5 5.44883 22.421 5.6396 22.2803 5.78025C22.1396 5.9209 21.9489 5.99992 21.75 5.99992H11.25C11.0511 5.99992 10.8603 5.9209 10.7196 5.78025C10.579 5.6396 10.5 5.44883 10.5 5.24992ZM11.25 8.99992C11.0511 8.99992 10.8603 9.07894 10.7196 9.21959C10.579 9.36024 10.5 9.55101 10.5 9.74992C10.5 9.94883 10.579 10.1396 10.7196 10.2802C10.8603 10.4209 11.0511 10.4999 11.25 10.4999H18.75C18.9489 10.4999 19.1396 10.4209 19.2803 10.2802C19.421 10.1396 19.5 9.94883 19.5 9.74992C19.5 9.55101 19.421 9.36024 19.2803 9.21959C19.1396 9.07894 18.9489 8.99992 18.75 8.99992H11.25ZM11.25 13.4999C11.0511 13.4999 10.8603 13.5789 10.7196 13.7196C10.579 13.8602 10.5 14.051 10.5 14.2499C10.5 14.4488 10.579 14.6396 10.7196 14.7803C10.8603 14.9209 11.0511 14.9999 11.25 14.9999H15.75C15.9489 14.9999 16.1396 14.9209 16.2803 14.7803C16.421 14.6396 16.5 14.4488 16.5 14.2499C16.5 14.051 16.421 13.8602 16.2803 13.7196C16.1396 13.5789 15.9489 13.4999 15.75 13.4999H11.25ZM11.25 17.9999C11.0511 17.9999 10.8603 18.0789 10.7196 18.2196C10.579 18.3602 10.5 18.551 10.5 18.7499C10.5 18.9488 10.579 19.1396 10.7196 19.2803C10.8603 19.4209 11.0511 19.4999 11.25 19.4999H12.75C12.9489 19.4999 13.1396 19.4209 13.2803 19.2803C13.421 19.1396 13.5 18.9488 13.5 18.7499C13.5 18.551 13.421 18.3602 13.2803 18.2196C13.1396 18.0789 12.9489 17.9999 12.75 17.9999H11.25Z" fill="#012768"/>
</svg>
