<svg width="24" height="24" viewBox="0 0 24 24" fill="none" xmlns="http://www.w3.org/2000/svg">
<path d="M15.8805 11.5405H8.91032C8.68054 11.5405 8.52734 11.3873 8.52734 11.1575V4.60856C8.52734 4.37878 8.68054 4.22559 8.91032 4.22559H15.9188C16.1486 4.22559 16.3018 4.37878 16.3018 4.60856V11.1575C16.2635 11.3873 16.1103 11.5405 15.8805 11.5405ZM9.2933 10.7745H15.5359V4.99154H9.2933V10.7745Z" fill="#012768"/>
<path d="M12.3957 16.6725C8.87234 16.6725 6 14.2215 6 11.1576C6 10.9278 6.15319 10.7747 6.38298 10.7747H18.3702C18.6 10.7747 18.7532 10.9278 18.7532 11.1576C18.7915 14.2215 15.9191 16.6725 12.3957 16.6725ZM6.80426 11.5406C7.03404 13.9917 9.44681 15.9066 12.3957 15.9066C15.3447 15.9066 17.7574 13.9917 17.9872 11.5406H6.80426Z" fill="#012768"/>
<path d="M14.6564 21.0001H10.1373C10.0224 21.0001 9.90747 20.9618 9.83088 20.8852C9.75428 20.8086 9.71598 20.6937 9.75428 20.5788L10.3288 16.2512C10.367 16.0597 10.5585 15.9065 10.75 15.9065C10.9415 15.9448 11.0947 16.1363 11.0947 16.3278L10.5585 20.2342H14.1968L13.6607 16.3278C13.6224 16.1363 13.7756 15.9065 14.0053 15.9065C14.1968 15.8682 14.4266 16.0214 14.4266 16.2512L15.0011 20.5788C15.0011 20.6937 15.0011 20.8086 14.9245 20.8852C14.8862 20.9618 14.7713 21.0001 14.6564 21.0001Z" fill="#012768"/>
<path d="M10.1359 4.99149C9.90612 4.99149 9.75293 4.8383 9.75293 4.60851V3.38298C9.75293 3.15319 9.90612 3 10.1359 3C10.3657 3 10.5189 3.15319 10.5189 3.38298V4.60851C10.5189 4.8383 10.3274 4.99149 10.1359 4.99149Z" fill="#012768"/>
</svg>
