<svg width="24" height="24" viewBox="0 0 24 24" fill="none" xmlns="http://www.w3.org/2000/svg">
<path fill-rule="evenodd" clip-rule="evenodd" d="M9.20599 4.00024V4.64619H11.4208V6.24089H9.20599V6.88014H8.55028V8.14512H8.69747C9.07032 8.14512 9.39336 8.28641 9.63415 8.48825C9.87509 8.69008 10.0558 8.95124 10.0558 9.2688V9.59183C10.8927 9.87121 11.501 10.6599 11.501 11.5836V19.84C11.501 20.4231 11.0172 20.8964 10.4371 20.8964H5.07064C4.49046 20.8964 4 20.4231 4 19.84V11.5836C4 10.6599 4.61502 9.87123 5.45194 9.59183V9.2688C5.45194 8.95125 5.62712 8.69009 5.86686 8.48825C6.10646 8.28642 6.4335 8.14512 6.80355 8.14512H6.95744V6.88014H6.30172V4.00028H9.20569L9.20599 4.00024ZM8.56368 4.64619H6.94447V6.23417H8.56368V4.64619ZM10.7785 5.29213H9.20616V5.59494H10.7785V5.29213ZM7.90797 6.88011H7.6002V8.14508H7.90797V6.88011ZM8.69747 8.79113H6.80386C6.60497 8.79113 6.41602 8.87336 6.28193 8.98626C6.14786 9.09916 6.09456 9.24314 6.09456 9.26885V9.48421H9.41333V9.26885C9.41333 9.24314 9.36069 9.09903 9.22596 8.98626C9.06123 8.86505 8.86932 8.79367 8.69734 8.79113H8.69747ZM9.39336 10.1302H6.11478C5.30142 10.1302 4.64276 10.7853 4.64276 11.5836V12.1218H10.8588V11.5836C10.8588 10.7854 10.2068 10.1302 9.39347 10.1302H9.39336ZM10.8587 12.7679H4.64265V17.6125H10.8587V12.7679ZM10.8587 18.2584H4.64265V19.8397C4.64265 20.0652 4.83163 20.2502 5.07081 20.2502H10.4372C10.6764 20.2502 10.8587 20.0654 10.8587 19.8397L10.8587 18.2584Z" fill="#012768"/>
<path fill-rule="evenodd" clip-rule="evenodd" d="M19.7448 4.00031V6.02584L19.718 6.34888C19.4532 10.3271 19.1141 14.3001 18.8615 18.2789V20.8965H13.3481V18.2183C13.0745 14.2655 12.7789 10.3038 12.4916 6.34857L12.4648 6.02553V4L19.7448 4.00031ZM19.1025 4.64625H13.1073V5.37966H19.1025V4.64625ZM19.1025 6.0257H13.1073L13.1274 6.3016L13.9772 18.003L13.9973 18.2183H18.2192L18.2393 17.9155L19.0823 6.30157L19.1025 6.0257ZM18.2192 18.8643H13.9904V20.2505H14.8067C14.8698 19.977 15.0086 19.7413 15.1948 19.5777C15.4513 19.3523 15.7814 19.2479 16.1048 19.2479C16.4282 19.2479 16.7516 19.3523 17.0081 19.5777C17.1944 19.7415 17.3399 19.9769 17.4029 20.2505H18.2192L18.2192 18.8643ZM16.1049 19.8938C15.9218 19.8938 15.7398 19.9604 15.6165 20.0688C15.5585 20.1198 15.5117 20.1752 15.476 20.2505H16.7338C16.6981 20.1754 16.6446 20.1198 16.5866 20.0688C16.4633 19.9604 16.288 19.8938 16.1049 19.8938H16.1049Z" fill="#012768"/>
</svg>
