<svg width="24" height="24" viewBox="0 0 24 24" fill="none" xmlns="http://www.w3.org/2000/svg">
<path d="M21.6823 17.1187C21.6166 16.8781 21.376 16.7468 21.1354 16.8124L21.0698 16.8343H21.026V5.43746C21.026 5.19683 20.8291 5 20.5885 5C20.3479 5 20.1511 5.19684 20.1511 5.43746V6.5312H3.54803V5.43746C3.54803 5.19683 3.35119 5 3.11057 5C2.86995 5 2.67311 5.19684 2.67311 5.43746V16.8561H2.62932L2.5637 16.8123C2.32307 16.7467 2.08246 16.878 2.01683 17.1186C1.95122 17.3592 2.08245 17.5998 2.32307 17.6655L2.38869 17.6874C5.49492 18.5623 8.66678 19 11.8605 19C15.0542 19 18.2261 18.5625 21.3323 17.6874L21.3979 17.6656C21.6168 17.5998 21.748 17.3592 21.6824 17.1186L21.6823 17.1187ZM20.1729 15.2812H17.5479V7.40628H20.1729V15.2812ZM14.0479 7.40628H16.6728V15.2812H14.0479V7.40628ZM13.173 15.2812H10.5479V7.40628H13.1728L13.173 15.2812ZM7.048 7.40628H9.67295V15.2812H7.048V7.40628ZM3.54794 7.40628H6.17289V15.2812H3.54794V7.40628ZM3.54794 17.075V16.1561H20.1729V17.0967C14.7041 18.475 9.01666 18.475 3.54794 17.075V17.075Z" fill="#012768"/>
</svg>
