<svg width="24" height="24" viewBox="0 0 24 24" fill="none" xmlns="http://www.w3.org/2000/svg">
<path fill-rule="evenodd" clip-rule="evenodd" d="M4.91377 7.17977C4.63193 6.68854 4.00933 6.52176 3.52316 6.80418L2.83895 7.20166C2.67511 7.29675 2.61737 7.5091 2.71276 7.67621L2.7132 7.6768L6.19159 13.6664L6.64115 13.6657C6.64799 13.6656 6.65469 13.6658 6.66154 13.6663C6.67478 13.667 6.68832 13.667 6.70171 13.6663C6.70826 13.6658 6.71481 13.6657 6.72136 13.6657H19.3239C19.5112 13.6657 19.6666 13.5123 19.6666 13.3187V12.6385C19.6666 12.0692 19.2085 11.6113 18.6477 11.6113H7.64973C7.53039 11.6113 7.42012 11.5474 7.3606 11.4439L4.91377 7.17977ZM3.18835 6.22771C3.99562 5.75869 5.02718 6.03783 5.49205 6.84808L6.72685 9.00013H17.3332C17.5173 9.00013 17.6665 9.14939 17.6665 9.33346C17.6665 9.51739 17.5173 9.66679 17.3332 9.66679H14.956L15.8079 10.9445H18.6476C19.5805 10.9445 20.3331 11.7047 20.3331 12.6383V13.3185C20.3331 13.8764 19.8832 14.3322 19.3238 14.3322H18.9869L21.2693 17.4705C21.3776 17.6195 21.3447 17.8278 21.1958 17.9362C21.047 18.0445 20.8385 18.0116 20.7302 17.8627L18.1625 14.3322H6.73026C6.69782 14.3337 6.66538 14.3337 6.63309 14.3322L6.16986 14.3331L3.60292 17.8626C3.49459 18.0116 3.28611 18.0445 3.13729 17.9362C2.98833 17.8278 2.95545 17.6195 3.06378 17.4705L5.6026 13.9795L2.13495 8.0085C1.85743 7.52504 2.02126 6.9057 2.50415 6.62521L3.18835 6.22771ZM15.0065 10.9446L14.1547 9.66694H7.10948L7.8428 10.9446H15.0065Z" fill="#012768"/>
</svg>
