<svg width="24" height="24" viewBox="0 0 24 24" fill="none" xmlns="http://www.w3.org/2000/svg">
<path d="M14.1336 6C13.056 6.0056 12.0005 6.3069 11.0823 6.8712C10.1643 7.43551 9.41871 8.24109 8.92715 9.20004H4.26668C4.19597 9.20004 4.12811 9.22813 4.07811 9.27813C4.02811 9.32813 4.00002 9.39599 4.00002 9.46671V9.73338C4.00013 10.1276 4.14656 10.5077 4.41084 10.8001H4.26667C4.11953 10.8005 4.00048 10.9196 4 11.0667V11.3334C4.00036 11.7275 4.14667 12.1074 4.41073 12.4001H4.26668C4.11954 12.4005 4.00049 12.5196 4.00001 12.6667V12.9334C4.00037 13.3275 4.14668 13.7075 4.41074 14.0001H4.26669C4.11955 14.0006 4.0005 14.1196 4.00002 14.2668V14.5334C4.00038 14.9275 4.14669 15.3075 4.41076 15.6001H4.26671C4.11956 15.6006 4.00051 15.7196 4.00004 15.8668V16.1334C4.00039 16.5577 4.16909 16.9645 4.4691 17.2644C4.76898 17.5644 5.17579 17.7331 5.60005 17.7335H12.5335C12.721 17.7326 12.9068 17.6993 13.0827 17.6348C14.1545 17.8303 15.2597 17.7233 16.2739 17.3261C17.2885 16.9287 18.1722 16.2567 18.8261 15.3853C19.48 14.5139 19.8782 13.4776 19.9762 12.3924C20.0742 11.3074 19.8681 10.2165 19.3809 9.24208C18.8936 8.26754 18.1446 7.44814 17.2177 6.87552C16.2908 6.3029 15.2228 5.99969 14.1332 6.00002L14.1336 6ZM4.53351 9.73338H13.6003C13.5999 10.0162 13.4875 10.2873 13.2875 10.4873C13.0875 10.6873 12.8164 10.7997 12.5336 10.8001H5.60018C5.31733 10.7997 5.04624 10.6873 4.84626 10.4873C4.64627 10.2873 4.53387 10.0162 4.53351 9.73338ZM13.8669 14.0001H13.7229C13.9869 13.7075 14.1333 13.3275 14.1336 12.9334V12.6667C14.1331 12.5196 14.0141 12.4005 13.867 12.4001H13.7229C13.987 12.1074 14.1333 11.7275 14.1336 11.3334V11.0667C14.1332 10.9196 14.0141 10.8005 13.867 10.8001H13.7228C13.9871 10.5077 14.1335 10.1276 14.1336 9.73338V9.46671C14.1336 9.39599 14.1055 9.32813 14.0555 9.27813C14.0055 9.22813 13.9377 9.20004 13.867 9.20004H12.3702C13.214 8.64195 14.272 8.51587 15.2233 8.86004C16.1746 9.20433 16.907 9.97825 17.1983 10.9472C17.4895 11.916 17.3052 12.9656 16.7014 13.7772C16.0976 14.5889 15.1453 15.0671 14.1336 15.0667C14.1043 15.0667 14.0723 15.0641 14.0429 15.0641C14.1017 14.8933 14.1323 14.714 14.1336 14.5334V14.2667C14.1331 14.1196 14.0141 14.0005 13.867 14.0001L13.8669 14.0001ZM12.5336 17.2001H5.60018C5.3172 17.2002 5.04588 17.0879 4.84589 16.8877C4.64577 16.6877 4.53338 16.4164 4.53351 16.1334H13.6003C13.6004 16.4164 13.488 16.6878 13.2879 16.8877C13.0879 17.0879 12.8166 17.2002 12.5336 17.2001ZM12.5336 15.6001H5.60018C5.3172 15.6002 5.04588 15.4878 4.84589 15.2877C4.64577 15.0877 4.53338 14.8164 4.53351 14.5334H13.6003C13.6004 14.8164 13.488 15.0877 13.2879 15.2877C13.0879 15.4878 12.8166 15.6002 12.5336 15.6001ZM12.5336 14.0001H5.60018C5.3172 14.0002 5.04588 13.8878 4.84589 13.6877C4.64577 13.4877 4.53338 13.2164 4.53351 12.9334H13.6003C13.6004 13.2164 13.488 13.4877 13.2879 13.6877C13.0879 13.8878 12.8166 14.0002 12.5336 14.0001ZM12.5336 12.4001H5.60018C5.3172 12.4002 5.04588 12.2878 4.84589 12.0877C4.64577 11.8877 4.53338 11.6164 4.53351 11.3334H13.6003C13.6004 11.6164 13.488 11.8877 13.2879 12.0877C13.0879 12.2878 12.8166 12.4002 12.5336 12.4001ZM14.1336 17.2001C14.0029 17.2001 13.8723 17.1894 13.7416 17.1814C13.9937 16.8905 14.1329 16.5184 14.1336 16.1334V15.8668C14.1331 15.7196 14.0141 15.6006 13.8669 15.6001H13.7229C13.7316 15.5918 13.7396 15.583 13.7469 15.5734C13.8752 15.5899 14.0043 15.5987 14.1336 15.6001C15.3773 15.6009 16.5398 14.9823 17.234 13.9504C17.9282 12.9184 18.0628 11.6085 17.5932 10.4569C17.1234 9.30523 16.1111 8.4632 14.8931 8.21094C13.6753 7.9588 12.4118 8.32963 11.5233 9.20012H9.5313C10.1596 8.11689 11.1493 7.28961 12.3268 6.86354C13.5043 6.43736 14.7942 6.43962 15.9703 6.86997C17.1463 7.30021 18.1331 8.13094 18.7576 9.21642C19.382 10.3018 19.604 11.5725 19.3849 12.8053C19.1657 14.0382 18.5191 15.1545 17.5589 15.9581C16.5986 16.7618 15.3859 17.2016 14.1336 17.2002L14.1336 17.2001Z" fill="#012768"/>
</svg>
