<svg width="24" height="24" viewBox="0 0 24 24" fill="none" xmlns="http://www.w3.org/2000/svg">
<path d="M6.21058 19.9995C3.88899 19.9995 2 18.1107 2 15.7889C2 13.4672 3.8888 11.5784 6.21058 11.5784C8.53237 11.5784 10.4212 13.4672 10.4212 15.7889C10.4212 18.1107 8.53237 19.9995 6.21058 19.9995ZM6.21058 12.4206C4.35335 12.4206 2.84227 13.9317 2.84227 15.7889C2.84227 17.6462 4.35335 19.1572 6.21058 19.1572C8.06782 19.1572 9.5789 17.6462 9.5789 15.7889C9.5789 13.9317 8.06782 12.4206 6.21058 12.4206Z" fill="#012768"/>
<path d="M13.7897 19.9995C11.4681 19.9995 9.5791 18.1107 9.5791 15.7889C9.5791 13.4672 11.4679 11.5784 13.7897 11.5784C16.1115 11.5784 18.0003 13.4672 18.0003 15.7889C18.0003 18.1107 16.1115 19.9995 13.7897 19.9995ZM13.7897 12.4206C11.9325 12.4206 10.4214 13.9317 10.4214 15.7889C10.4214 17.6462 11.9325 19.1572 13.7897 19.1572C15.6469 19.1572 17.158 17.6462 17.158 15.7889C17.158 13.9317 15.6469 12.4206 13.7897 12.4206Z" fill="#012768"/>
<path d="M17.9992 19.9995H6.21012C5.97765 19.9995 5.78906 19.8109 5.78906 19.5784C5.78906 19.3459 5.97763 19.1574 6.21012 19.1574H17.9992C19.8564 19.1574 21.3675 17.6463 21.3675 15.789C21.3675 13.9318 19.8564 12.4207 17.9992 12.4207H6.21012C5.97765 12.4207 5.78906 12.2322 5.78906 11.9997C5.78906 11.7672 5.97763 11.5786 6.21012 11.5786H17.9992C20.3208 11.5786 22.2098 13.4674 22.2098 15.7892C22.2098 18.111 20.321 19.9998 17.9992 19.9998V19.9995Z" fill="#012768"/>
<path d="M8.73695 12.4212C6.41536 12.4212 4.52637 10.5324 4.52637 8.21059C4.52637 5.8888 6.41516 4 8.73695 4C11.0587 4 12.9475 5.8888 12.9475 8.21059C12.9475 10.5324 11.0587 12.4212 8.73695 12.4212ZM8.73695 4.84227C6.87972 4.84227 5.36864 6.35336 5.36864 8.21059C5.36864 10.0678 6.87972 11.5789 8.73695 11.5789C10.5942 11.5789 12.1053 10.0678 12.1053 8.21059C12.1053 6.35336 10.5942 4.84227 8.73695 4.84227Z" fill="#012768"/>
<path d="M15.052 12.4211H8.73649C8.50401 12.4211 8.31543 12.2325 8.31543 12C8.31543 11.7676 8.50399 11.579 8.73649 11.579H15.052C16.9092 11.579 18.4203 10.0679 18.4203 8.21067C18.4203 6.35344 16.9092 4.84236 15.052 4.84236H8.73649C8.50401 4.84236 8.31543 4.6538 8.31543 4.4213C8.31543 4.18881 8.50399 4.00024 8.73649 4.00024H15.052C17.3736 4.00024 19.2625 5.88904 19.2625 8.21083C19.2625 10.5326 17.3738 12.4214 15.052 12.4214V12.4211Z" fill="#012768"/>
<path d="M15.4734 6.52644H13.7892C13.5567 6.52644 13.3682 6.33788 13.3682 6.10538C13.3682 5.87289 13.5567 5.68433 13.7892 5.68433H15.4734C15.7059 5.68433 15.8944 5.87289 15.8944 6.10538C15.8944 6.33788 15.7059 6.52644 15.4734 6.52644Z" fill="#012768"/>
<path d="M15.4734 10.7369H13.7892C13.5567 10.7369 13.3682 10.5483 13.3682 10.3158C13.3682 10.0833 13.5567 9.89478 13.7892 9.89478H15.4734C15.7059 9.89478 15.8944 10.0833 15.8944 10.3158C15.8944 10.5483 15.7059 10.7369 15.4734 10.7369Z" fill="#012768"/>
<path d="M21.3681 14.4139H19.2629C19.0304 14.4139 18.8418 14.2253 18.8418 13.9928C18.8418 13.7603 19.0304 13.5718 19.2629 13.5718H21.3681C21.6005 13.5718 21.7891 13.7603 21.7891 13.9928C21.7891 14.2253 21.6006 14.4139 21.3681 14.4139Z" fill="#012768"/>
<path d="M19.684 17.8943H18.842C18.6095 17.8943 18.4209 17.7058 18.4209 17.4733C18.4209 17.2408 18.6095 17.0522 18.842 17.0522H19.684C19.9165 17.0522 20.1051 17.2408 20.1051 17.4733C20.1051 17.7058 19.9165 17.8943 19.684 17.8943Z" fill="#012768"/>
</svg>
