<svg width="24" height="24" viewBox="0 0 24 24" fill="none" xmlns="http://www.w3.org/2000/svg">
<path d="M17.0673 16.108C16.6665 16.108 16.3245 15.9928 16.1021 15.8924C15.8804 15.9928 15.5385 16.108 15.1365 16.108C14.7233 16.108 14.3385 15.9872 13.9929 15.7488C13.1893 15.1939 11.5824 13.3639 11.3273 11.4507C11.1845 10.3775 11.4636 9.41717 12.1577 8.59672C12.2189 8.5323 13.2461 7.5016 14.4932 7.63229C14.9936 7.68426 15.186 7.75109 15.3693 7.82716C15.4832 7.8743 15.5736 7.91153 16.1033 7.91354C16.6301 7.91193 16.7205 7.8743 16.835 7.82756C17.0182 7.75202 17.2109 7.68479 17.7114 7.63269C18.9498 7.50144 19.9862 8.53348 20.027 8.57555C20.7406 9.41757 21.0198 10.3784 20.8766 11.4515C20.6215 13.3651 19.0146 15.1949 18.2107 15.7493C17.8653 15.9876 17.4805 16.1081 17.0673 16.1081V16.108ZM16.1017 15.0437C16.1709 15.0437 16.2404 15.0616 16.3024 15.0976C16.3876 15.1472 16.6945 15.308 17.0673 15.308C17.3149 15.308 17.5469 15.2348 17.7565 15.09C18.2729 14.734 19.8473 13.1217 20.0837 11.3453C20.1956 10.5049 19.9777 9.75412 19.4357 9.11287H19.4361C19.4341 9.11287 18.6505 8.33647 17.7946 8.42729C17.3685 8.47176 17.2469 8.52171 17.1398 8.56604C16.9221 8.65604 16.7438 8.71042 16.1026 8.71283C15.4598 8.71042 15.281 8.65564 15.0639 8.56604C14.9567 8.52198 14.8359 8.47202 14.4095 8.42769C13.5411 8.33448 12.7559 9.12695 12.7487 9.13442C12.2258 9.75359 12.0079 10.5048 12.1203 11.3448C12.3567 13.1212 13.9311 14.734 14.447 15.0898C14.6562 15.2346 14.8886 15.3079 15.1362 15.3079C15.5107 15.3079 15.8154 15.1474 15.8999 15.0979C15.9622 15.062 16.0321 15.0436 16.1017 15.0436L16.1017 15.0437Z" fill="#012768"/>
<path d="M16.0917 8.58192C16.0725 8.58192 16.0528 8.58071 16.0333 8.5775C15.8148 8.54549 15.6636 8.34232 15.6956 8.12349C15.9968 6.07142 14.616 4.74796 14.5568 4.69218C14.3964 4.54137 14.3877 4.28853 14.5381 4.12739C14.6881 3.96654 14.9409 3.95623 15.1017 4.10663C15.1737 4.17306 16.8509 5.76146 16.4869 8.23977C16.4577 8.43905 16.2873 8.58182 16.0917 8.58182L16.0917 8.58192Z" fill="#012768"/>
<path d="M18.2934 7.25438C17.8575 7.25438 17.3918 7.14161 16.9102 6.91876C16.7769 6.85715 16.6881 6.72751 16.679 6.58112C16.677 6.55112 16.6378 5.83914 17.1935 5.24665C17.841 4.55586 18.985 4.3291 20.5763 4.58504C20.6906 4.60339 20.7915 4.67022 20.8527 4.76866C20.9135 4.8671 20.929 4.9871 20.8952 5.09786C20.8682 5.18598 20.2086 7.25436 18.2934 7.25436L18.2934 7.25438ZM17.5058 6.30042C17.785 6.40287 18.049 6.45444 18.2938 6.45444C19.1646 6.45444 19.6803 5.77997 19.9342 5.30881C18.9069 5.21319 18.1778 5.37685 17.787 5.78398C17.6173 5.96036 17.5406 6.15402 17.5058 6.30039L17.5058 6.30042Z" fill="#012768"/>
<path d="M5.60357 14.822C4.59951 14.822 3.7832 14.0052 3.7832 13.0013C3.7832 11.9976 4.60003 11.1809 5.60357 11.1809C6.60721 11.1809 7.42393 11.9977 7.42393 13.0013C7.42393 14.0052 6.60711 14.822 5.60357 14.822ZM5.60357 11.9809C5.0408 11.9809 4.58316 12.4389 4.58316 13.0013C4.58316 13.564 5.04118 14.0221 5.60357 14.0221C6.16596 14.0221 6.62398 13.564 6.62398 13.0013C6.62398 12.4388 6.16633 11.9809 5.60357 11.9809Z" fill="#012768"/>
<path d="M8.86724 12.2652C7.8636 12.2652 7.04688 11.4484 7.04688 10.4449C7.04688 9.44082 7.8637 8.62451 8.86724 8.62451C9.8713 8.62451 10.6876 9.44133 10.6876 10.4449C10.6876 11.4488 9.8713 12.2652 8.86724 12.2652ZM8.86724 9.4245C8.30448 9.4245 7.84683 9.88252 7.84683 10.4449C7.84683 11.0073 8.30448 11.4653 8.86724 11.4653C9.43001 11.4653 9.88765 11.0077 9.88765 10.4449C9.88765 9.88214 9.43001 9.4245 8.86724 9.4245Z" fill="#012768"/>
<path d="M9.2807 16.4385C8.27664 16.4385 7.45996 15.6217 7.45996 14.6174C7.45996 13.6133 8.27678 12.7966 9.2807 12.7966C10.2847 12.7966 11.1014 13.6135 11.1014 14.6174C11.1016 15.6217 10.2847 16.4385 9.2807 16.4385ZM9.2807 13.5966C8.71793 13.5966 8.25991 14.0546 8.25991 14.6173C8.25991 15.1801 8.71793 15.6385 9.2807 15.6385C9.84346 15.6385 10.3015 15.1801 10.3015 14.6173C10.3015 14.0544 9.8436 13.5966 9.2807 13.5966Z" fill="#012768"/>
<path d="M6.21611 9.12337C6.12812 9.12337 6.03812 9.09297 5.96687 9.0402C5.92683 9.0098 4.99052 8.28458 5.07692 7.179C5.14937 6.25421 5.90567 5.39817 7.32452 4.63462C7.45416 4.56498 7.61045 4.57221 7.73286 4.65217C7.85567 4.73253 7.92451 4.87382 7.91246 5.01981C7.91166 5.02906 7.8388 5.95825 8.07291 6.877C8.18126 7.30221 8.07733 7.73493 7.7721 8.12816C7.33294 8.69253 6.47703 9.12337 6.21611 9.12337L6.21611 9.12337ZM7.10699 5.69343C6.34026 6.20264 5.91704 6.72896 5.87497 7.2355C5.83653 7.69513 6.121 8.0731 6.3046 8.26595C6.67424 8.09037 7.43377 7.60636 7.2982 7.07439C7.17057 6.57351 7.12209 6.07904 7.10695 5.69346L7.10699 5.69343Z" fill="#012768"/>
<path d="M5.90768 10.4354C5.79009 10.4354 5.67371 10.3838 5.59442 10.2846C4.19608 8.52969 2.64438 9.2726 2.5793 9.30503C2.38296 9.40347 2.14216 9.32418 2.04331 9.12784C1.94407 8.9315 2.02095 8.69272 2.21688 8.59227C2.23845 8.58142 4.40407 7.50743 6.22043 9.78664C6.35797 9.95941 6.32958 10.2111 6.15681 10.3486C6.08315 10.407 5.99516 10.4354 5.90757 10.4354L5.90768 10.4354Z" fill="#012768"/>
<path d="M11.7418 19.9981C6.43921 19.9981 2.28516 18.2749 2.28516 16.0748C2.28516 15.1792 2.94114 14.3497 4.18156 13.6764C4.37522 13.5716 4.61871 13.6432 4.72396 13.8369C4.8295 14.0309 4.75718 14.274 4.56312 14.3793C3.60994 14.8969 3.0851 15.4989 3.0851 16.0744C3.0851 17.5516 6.64018 19.1976 11.7419 19.1976C16.8436 19.198 20.3994 17.5525 20.3994 16.0748C20.3994 15.5288 19.9214 14.9527 19.0534 14.4536C18.8617 14.3437 18.7958 14.0988 18.9062 13.9072C19.0165 13.7155 19.261 13.6504 19.4526 13.76C20.8961 14.5909 21.1993 15.4772 21.1993 16.0748C21.1993 18.2749 17.0449 19.9981 11.742 19.9981L11.7418 19.9981Z" fill="#012768"/>
</svg>
