<svg width="22" height="21" viewBox="0 0 22 21" fill="none" xmlns="http://www.w3.org/2000/svg">
<path d="M18.1541 0H3.13104C1.43488 0 0.142578 1.29231 0.142578 2.98846V18.0115C0.142578 19.7077 1.43488 21 3.13104 21H18.1541C19.8503 21 21.1426 19.7077 21.1426 18.0115V2.98846C21.1426 1.29231 19.8503 0 18.1541 0ZM10.6426 16.8C14.1157 16.8 16.9426 14.0538 16.9426 10.7423C16.9426 10.1769 16.8618 9.53077 16.7003 9.04615H18.4772V17.6077C18.4772 18.0115 18.1541 18.4154 17.6695 18.4154H3.61566C3.21181 18.4154 2.80797 18.0923 2.80797 17.6077V8.96538H4.66566C4.50412 9.53077 4.42335 10.0962 4.42335 10.6615C4.34258 14.0538 7.1695 16.8 10.6426 16.8ZM10.6426 14.3769C8.38104 14.3769 6.60412 12.6 6.60412 10.4192C6.60412 8.23846 8.38104 6.46154 10.6426 6.46154C12.9041 6.46154 14.681 8.23846 14.681 10.4192C14.681 12.6808 12.9041 14.3769 10.6426 14.3769ZM18.3964 5.73461C18.3964 6.21923 17.9926 6.62308 17.508 6.62308H15.2464C14.7618 6.62308 14.358 6.21923 14.358 5.73461V3.55385C14.358 3.06923 14.7618 2.66538 15.2464 2.66538H17.508C17.9926 2.66538 18.3964 3.06923 18.3964 3.55385V5.73461Z" fill="#012768"/>
</svg>
