<svg width="24" height="24" viewBox="0 0 24 24" fill="none" xmlns="http://www.w3.org/2000/svg">
<path d="M20.88 7.31505C20.88 7.12933 20.7299 6.97929 20.5442 6.97929H19.5414V4.89757C19.5414 4.40291 19.1385 4 18.6438 4C18.0843 4 17.6298 4.45433 17.6298 5.01403V5.25356C17.6298 5.43928 17.7799 5.58932 17.9656 5.58932C18.1513 5.58932 18.3013 5.43928 18.3013 5.25356V5.01403C18.3013 4.82607 18.4557 4.67153 18.6438 4.67153C18.7691 4.67153 18.8699 4.77226 18.8699 4.89757V6.97928H4.41416C4.22844 6.97928 4.0784 7.12932 4.0784 7.31504V15.785C4.02908 15.8432 4 15.9193 4 16V18.7577C4 18.9434 4.15004 19.0934 4.33576 19.0934H5.2288V19.6642C5.2288 19.85 5.37885 20 5.56457 20H6.98151C7.16723 20 7.31727 19.85 7.31727 19.6642V19.0934H17.641V19.6642C17.641 19.85 17.7911 20 17.9768 20H19.3937C19.5795 20 19.7295 19.85 19.7295 19.6642V19.0934H20.6225C20.8083 19.0934 20.9583 18.9434 20.9583 18.7577V15.9998C20.9583 15.9192 20.9292 15.8432 20.8799 15.7849L20.88 7.31505ZM12.8148 7.65081H20.2084V15.6642H12.8148V7.65081ZM4.74967 7.65081H12.1433V15.6642H8.44648H4.74967V7.65081ZM6.64566 19.3283H5.90023V19.0933H6.64566V19.3283ZM19.0577 19.3283H18.3122V19.0933H19.0577V19.3283ZM20.2865 18.4218H4.6715V16.3356H20.2865V18.4218Z" fill="#012768"/>
</svg>
