<svg width="24" height="24" viewBox="0 0 24 24" fill="none" xmlns="http://www.w3.org/2000/svg">
<path d="M15.9771 7.03901L17.5991 5.8293C17.6086 5.78352 17.6171 5.73753 17.6242 5.69115C17.715 5.09807 17.6084 4.50981 17.3287 4C17.14 5.1068 16.4066 6.01818 15.3955 6.44873C15.5993 6.62455 15.7937 6.82157 15.9771 7.03902L15.9771 7.03901Z" fill="#012768"/>
<path d="M7.57633 7.53949C7.85759 7.09768 8.18087 6.72523 8.5347 6.41641C7.56166 5.97202 6.85503 5.07254 6.6719 4C6.39202 4.51001 6.28558 5.09832 6.37636 5.69115C6.49272 6.45031 6.93473 7.12346 7.57632 7.53949H7.57633Z" fill="#012768"/>
<path d="M11.3029 10.5257L15.5185 7.38165C15.4936 7.35191 15.469 7.32139 15.4434 7.29245C14.5646 6.30317 13.3194 5.7583 11.9372 5.7583C10.1721 5.7583 8.79769 6.58601 7.95703 8.05105C9.63154 7.90279 10.5832 9.03043 11.3029 10.5258L11.3029 10.5257Z" fill="#012768"/>
<path d="M7.64771 8.67372C7.37735 9.30881 7.19162 10.037 7.09766 10.8467C7.37952 10.6271 7.73255 10.4951 8.11648 10.4951C8.87823 10.4951 9.52023 11.0106 9.71605 11.7105L10.8387 10.8731C10.1371 9.36348 9.26708 8.3532 7.64766 8.67369L7.64771 8.67372Z" fill="#012768"/>
<path d="M8.11713 11.0647C7.51558 11.0647 7.02637 11.5541 7.02637 12.1555C7.02637 12.626 7.32646 13.0266 7.74468 13.1794L9.20469 12.0907C9.1706 11.5194 8.69646 11.0647 8.11708 11.0647H8.11713ZM8.13338 12.6621C7.85351 12.6621 7.62655 12.4351 7.62655 12.1552C7.62655 11.8754 7.85351 11.6484 8.13338 11.6484C8.41326 11.6484 8.64021 11.8754 8.64021 12.1552C8.64021 12.4353 8.41326 12.6621 8.13338 12.6621Z" fill="#012768"/>
<path d="M9.66389 16.7401C9.07442 17.4969 8.84171 18.0733 8.93188 18.55C8.95785 18.6874 9.01454 18.8196 9.09699 18.9482C9.64704 19.1036 12.2339 19.7448 14.9029 18.948C14.9854 18.8194 15.0419 18.687 15.0679 18.5498C15.1582 18.0731 14.9253 17.4967 14.3358 16.7401C12.7854 16.2539 11.2144 16.2539 9.66399 16.7401L9.66389 16.7401ZM11.0171 18.4918C10.9065 18.5685 10.7307 18.5815 10.5584 18.526C10.1507 18.3948 10.0131 17.9619 9.98737 17.6173C10.1273 17.7578 10.3463 17.9043 10.6914 17.9463H10.6916C10.8914 17.9705 11.1271 18.0561 11.115 18.3265C11.1112 18.4095 11.0597 18.4622 11.0171 18.4918L11.0171 18.4918ZM13.3933 18.5992C13.2184 18.647 13.0434 18.6257 12.9366 18.5443C12.8953 18.5128 12.8462 18.4577 12.8462 18.3744C12.8462 18.1039 13.0856 18.0289 13.2862 18.0137C13.6331 17.9875 13.8584 17.8509 14.0045 17.7167C13.9635 18.0602 13.8065 18.4866 13.3932 18.5992L13.3933 18.5992Z" fill="#012768"/>
<path d="M18.6753 9.53554C19.2509 10.2551 19.66 11.1308 19.9328 11.7157L20.0341 11.9325L19.7952 11.9186C19.2342 11.8863 18.348 11.8334 17.5215 11.3872C17.5276 11.4845 17.5328 11.5831 17.5366 11.6828C18.5294 12.4459 19.7823 12.3682 21.0003 12.1886C20.7314 11.2138 20.3268 9.81954 19.645 8.81226L18.6753 9.53554Z" fill="#012768"/>
<path d="M14.3407 12.7705L9.90625 16.0779C11.4654 15.6706 13.04 15.7179 14.5954 16.2228L14.6772 16.2496L14.7309 16.3168C14.8639 16.484 14.9819 16.645 15.0857 16.8008L15.9177 13.8177C15.9066 13.8179 15.8957 13.8195 15.8846 13.8195C15.1845 13.8195 14.5855 13.3842 14.3407 12.7705L14.3407 12.7705Z" fill="#012768"/>
<path d="M16.4284 11.2124L15.8375 11.6532C15.8573 11.6508 15.8773 11.6493 15.898 11.6493C16.1778 11.6493 16.4048 11.8762 16.4048 12.1561C16.4048 12.436 16.1778 12.6629 15.898 12.6629C15.6181 12.6629 15.3911 12.436 15.3911 12.1561C15.3911 12.0847 15.406 12.0168 15.4327 11.9551L14.8242 12.4088C14.9388 12.8885 15.3699 13.2469 15.8841 13.2469C16.4849 13.2469 16.9735 12.7589 16.9749 12.1585C16.9749 12.1561 16.9747 12.1537 16.9747 12.1514C16.9729 11.7502 16.7531 11.4005 16.4284 11.2124L16.4284 11.2124Z" fill="#012768"/>
<path d="M6.46077 11.6873C6.46414 11.5801 6.4691 11.4744 6.47505 11.3704C5.6384 11.8346 4.73412 11.8881 4.16509 11.921L3.92625 11.9349L4.02754 11.7181C4.39661 10.9274 5.01402 9.60372 5.95555 8.85567C6.26258 8.61187 6.66772 8.41722 7.18504 8.26259C7.22012 8.18628 7.2558 8.11115 7.29287 8.03801C7.01696 7.86299 6.77195 7.64832 6.56228 7.40454C5.95276 7.49057 5.44675 7.70166 5.02595 8.05232C3.92113 8.97264 3.34769 10.9322 3 12.1912C4.21665 12.3708 5.46837 12.4479 6.46079 11.6873L6.46077 11.6873Z" fill="#012768"/>
<path d="M10.1387 19.761C10.1333 20.7148 13.805 20.7356 13.8103 19.7816C13.2044 19.8785 12.6195 19.9182 12.0774 19.9182C11.3335 19.9184 10.6713 19.8472 10.1387 19.761V19.761Z" fill="#012768"/>
<line x1="20.9" y1="5.7" x2="5.7" y2="17.1" stroke="#F44336" stroke-linecap="round"/>
</svg>
