<svg width="24" height="24" viewBox="0 0 24 24" fill="none" xmlns="http://www.w3.org/2000/svg">
<path d="M19.7695 14.7656H2.56641C1.71989 14.7656 1.03125 14.077 1.03125 13.2305C1.03125 12.6499 1.35516 12.1436 1.83169 11.8828C1.35516 11.622 1.03125 11.1157 1.03125 10.5352C1.03125 9.68864 1.71989 9 2.56641 9H19.7695C21.3591 9 22.6523 10.2932 22.6523 11.8828C22.6523 13.4724 21.3591 14.7656 19.7695 14.7656ZM2.75391 11.8828C2.75391 11.9864 2.66995 12.0703 2.56641 12.0703C1.9267 12.0703 1.40625 12.5908 1.40625 13.2305C1.40625 13.8702 1.9267 14.3906 2.56641 14.3906H19.7695C21.1523 14.3906 22.2773 13.2656 22.2773 11.8828C22.2773 10.5 21.1523 9.375 19.7695 9.375H2.56641C1.9267 9.375 1.40625 9.89545 1.40625 10.5352C1.40625 11.1749 1.9267 11.6953 2.56641 11.6953C2.66995 11.6953 2.75391 11.7793 2.75391 11.8828Z" fill="black"/>
<path d="M19.7695 12.0703H2.56641C2.46286 12.0703 2.37891 11.9864 2.37891 11.8828C2.37891 11.7793 2.46286 11.6953 2.56641 11.6953H19.582V11.3438C19.582 11.2402 19.666 11.1562 19.7695 11.1562C19.8731 11.1562 19.957 11.2402 19.957 11.3438V11.8828C19.957 11.9864 19.8731 12.0703 19.7695 12.0703Z" fill="black"/>
<path d="M21.1172 9.375H3.91406C2.32448 9.375 1.03125 8.08177 1.03125 6.49219C1.03125 4.90261 2.32448 3.60938 3.91406 3.60938H21.1172C21.9637 3.60938 22.6523 4.29802 22.6523 5.14453C22.6523 5.72503 22.3284 6.23133 21.8519 6.49219C22.3284 6.75305 22.6523 7.25934 22.6523 7.83984C22.6523 8.68636 21.9637 9.375 21.1172 9.375ZM3.91406 3.98438C2.53125 3.98438 1.40625 5.10938 1.40625 6.49219C1.40625 7.875 2.53125 9 3.91406 9H21.1172C21.7569 9 22.2773 8.47955 22.2773 7.83984C22.2773 7.20014 21.7569 6.67969 21.1172 6.67969C21.0136 6.67969 20.9297 6.59573 20.9297 6.49219C20.9297 6.38864 21.0136 6.30469 21.1172 6.30469C21.7569 6.30469 22.2773 5.78423 22.2773 5.14453C22.2773 4.50483 21.7569 3.98438 21.1172 3.98438H3.91406Z" fill="black"/>
<path d="M3.91406 7.21875C3.81052 7.21875 3.72656 7.1348 3.72656 7.03125V6.49219C3.72656 6.38864 3.81052 6.30469 3.91406 6.30469H21.1172C21.2207 6.30469 21.3047 6.38864 21.3047 6.49219C21.3047 6.59573 21.2207 6.67969 21.1172 6.67969H4.10156V7.03125C4.10156 7.1348 4.01761 7.21875 3.91406 7.21875Z" fill="black"/>
<path d="M20.9062 20.3906H17.1562C17.0527 20.3906 16.9688 20.3067 16.9688 20.2031V20.1094C16.9688 19.2306 16.2538 18.5156 15.375 18.5156H8.625C7.74619 18.5156 7.03125 19.2306 7.03125 20.1094V20.2031C7.03125 20.3067 6.9473 20.3906 6.84375 20.3906H3.09375C2.9902 20.3906 2.90625 20.3067 2.90625 20.2031V20.1094C2.90625 19.2306 2.19131 18.5156 1.3125 18.5156H1.21875C1.1152 18.5156 1.03125 18.4317 1.03125 18.3281V16.4531C1.03125 16.3496 1.1152 16.2656 1.21875 16.2656H22.7812C22.8848 16.2656 22.9688 16.3496 22.9688 16.4531V18.3281C22.9688 18.4317 22.8848 18.5156 22.7812 18.5156H22.6875C21.8087 18.5156 21.0938 19.2306 21.0938 20.1094V20.2031C21.0938 20.3067 21.0098 20.3906 20.9062 20.3906ZM17.3415 20.0156H20.721C20.7686 19.0044 21.5826 18.1904 22.5938 18.1428V16.6406H1.40625V18.1428C2.41744 18.1905 3.23147 19.0044 3.27905 20.0156H6.65845C6.70753 18.9734 7.57083 18.1406 8.625 18.1406H15.375C16.4292 18.1406 17.2925 18.9734 17.3415 20.0156Z" fill="black"/>
</svg>
