<svg width="24" height="24" viewBox="0 0 24 24" fill="none" xmlns="http://www.w3.org/2000/svg">
<path d="M20.9062 22.0312H17.1562C17.0527 22.0312 16.9688 21.9473 16.9688 21.8438V21.75C16.9688 20.8712 16.2538 20.1562 15.375 20.1562H8.625C7.74619 20.1562 7.03125 20.8712 7.03125 21.75V21.8438C7.03125 21.9473 6.9473 22.0312 6.84375 22.0312H3.09375C2.9902 22.0312 2.90625 21.9473 2.90625 21.8438V21.75C2.90625 20.8712 2.19131 20.1562 1.3125 20.1562H1.21875C1.1152 20.1562 1.03125 20.0723 1.03125 19.9688V18.0938C1.03125 17.9902 1.1152 17.9062 1.21875 17.9062H22.7812C22.8848 17.9062 22.9688 17.9902 22.9688 18.0938V19.9688C22.9688 20.0723 22.8848 20.1562 22.7812 20.1562H22.6875C21.8087 20.1562 21.0938 20.8712 21.0938 21.75V21.8438C21.0938 21.9473 21.0098 22.0312 20.9062 22.0312ZM17.3415 21.6562H20.721C20.7686 20.6451 21.5826 19.831 22.5938 19.7835V18.2812H1.40625V19.7835C2.41744 19.8311 3.23147 20.6451 3.27905 21.6562H6.65845C6.70753 20.614 7.57083 19.7812 8.625 19.7812H15.375C16.4292 19.7812 17.2925 20.614 17.3415 21.6562Z" fill="black"/>
<path d="M16.2188 18.2812C13.7891 18.2812 11.8125 16.3046 11.8125 13.875C11.8125 11.4454 13.7891 9.46875 16.2188 9.46875C18.6484 9.46875 20.625 11.4454 20.625 13.875C20.625 16.3046 18.6484 18.2812 16.2188 18.2812ZM16.2188 9.84375C13.9959 9.84375 12.1875 11.6522 12.1875 13.875C12.1875 16.0979 13.9959 17.9062 16.2188 17.9062C18.4416 17.9062 20.25 16.0979 20.25 13.875C20.25 11.6522 18.4416 9.84375 16.2188 9.84375Z" fill="black"/>
<path d="M16.2188 16.4062C14.823 16.4062 13.6875 15.2707 13.6875 13.875C13.6875 12.4793 14.823 11.3438 16.2188 11.3438C17.6145 11.3438 18.75 12.4793 18.75 13.875C18.75 15.2707 17.6145 16.4062 16.2188 16.4062ZM16.2188 11.7188C15.0298 11.7188 14.0625 12.6861 14.0625 13.875C14.0625 15.0639 15.0298 16.0312 16.2188 16.0312C17.4077 16.0312 18.375 15.0639 18.375 13.875C18.375 12.6861 17.4077 11.7188 16.2188 11.7188Z" fill="black"/>
<path d="M16.2188 16.4062C15.3399 16.4062 14.625 15.6913 14.625 14.8125C14.625 13.9337 15.3399 13.2188 16.2188 13.2188C16.3223 13.2188 16.4062 13.3027 16.4062 13.4062C16.4062 13.5098 16.3223 13.5938 16.2188 13.5938C15.5467 13.5938 15 14.1405 15 14.8125C15 15.4845 15.5467 16.0312 16.2188 16.0312C16.3223 16.0312 16.4062 16.1152 16.4062 16.2188C16.4062 16.3223 16.3223 16.4062 16.2188 16.4062Z" fill="black"/>
<path d="M7.78125 18.2812C5.35162 18.2812 3.375 16.3046 3.375 13.875C3.375 11.4454 5.35162 9.46875 7.78125 9.46875C10.2109 9.46875 12.1875 11.4454 12.1875 13.875C12.1875 16.3046 10.2109 18.2812 7.78125 18.2812ZM7.78125 9.84375C5.55844 9.84375 3.75 11.6522 3.75 13.875C3.75 16.0979 5.55844 17.9062 7.78125 17.9062C10.0041 17.9062 11.8125 16.0979 11.8125 13.875C11.8125 11.6522 10.0041 9.84375 7.78125 9.84375Z" fill="black"/>
<path d="M7.78125 16.4062C6.3855 16.4062 5.25 15.2707 5.25 13.875C5.25 12.4793 6.3855 11.3438 7.78125 11.3438C9.177 11.3438 10.3125 12.4793 10.3125 13.875C10.3125 15.2707 9.177 16.4062 7.78125 16.4062ZM7.78125 11.7188C6.59231 11.7188 5.625 12.6861 5.625 13.875C5.625 15.0639 6.59231 16.0312 7.78125 16.0312C8.97019 16.0312 9.9375 15.0639 9.9375 13.875C9.9375 12.6861 8.97019 11.7188 7.78125 11.7188Z" fill="black"/>
<path d="M7.78125 16.4062C6.90244 16.4062 6.1875 15.6913 6.1875 14.8125C6.1875 13.9337 6.90244 13.2188 7.78125 13.2188C7.8848 13.2188 7.96875 13.3027 7.96875 13.4062C7.96875 13.5098 7.8848 13.5938 7.78125 13.5938C7.10925 13.5938 6.5625 14.1405 6.5625 14.8125C6.5625 15.4845 7.10925 16.0312 7.78125 16.0312C7.8848 16.0312 7.96875 16.1152 7.96875 16.2188C7.96875 16.3223 7.8848 16.4062 7.78125 16.4062Z" fill="black"/>
<path d="M12 10.7812C9.57037 10.7812 7.59375 8.80463 7.59375 6.375C7.59375 3.94537 9.57037 1.96875 12 1.96875C14.4296 1.96875 16.4062 3.94537 16.4062 6.375C16.4062 8.80463 14.4296 10.7812 12 10.7812ZM12 2.34375C9.77719 2.34375 7.96875 4.15219 7.96875 6.375C7.96875 8.59781 9.77719 10.4062 12 10.4062C14.2229 10.4062 16.0312 8.59781 16.0312 6.375C16.0312 4.15219 14.2229 2.34375 12 2.34375Z" fill="black"/>
<path d="M12 8.90625C10.6043 8.90625 9.46875 7.77075 9.46875 6.375C9.46875 4.97925 10.6043 3.84375 12 3.84375C13.3957 3.84375 14.5312 4.97925 14.5312 6.375C14.5312 7.77075 13.3957 8.90625 12 8.90625ZM12 4.21875C10.8111 4.21875 9.84375 5.18606 9.84375 6.375C9.84375 7.56394 10.8111 8.53125 12 8.53125C13.1889 8.53125 14.1562 7.56394 14.1562 6.375C14.1562 5.18606 13.1889 4.21875 12 4.21875Z" fill="black"/>
<path d="M12 8.90625C11.1212 8.90625 10.4062 8.19131 10.4062 7.3125C10.4062 6.43369 11.1212 5.71875 12 5.71875C12.1035 5.71875 12.1875 5.8027 12.1875 5.90625C12.1875 6.0098 12.1035 6.09375 12 6.09375C11.328 6.09375 10.7812 6.6405 10.7812 7.3125C10.7812 7.9845 11.328 8.53125 12 8.53125C12.1035 8.53125 12.1875 8.6152 12.1875 8.71875C12.1875 8.8223 12.1035 8.90625 12 8.90625Z" fill="black"/>
</svg>
