<svg width="24" height="24" viewBox="0 0 24 24" fill="none" xmlns="http://www.w3.org/2000/svg">
<path d="M16.6875 22.0312H6.84375C6.7402 22.0312 6.65625 21.9473 6.65625 21.8438V10.1484C6.65625 8.7398 7.8023 7.59375 9.21094 7.59375H14.3203C15.729 7.59375 16.875 8.7398 16.875 10.1484V21.8438C16.875 21.9473 16.791 22.0312 16.6875 22.0312ZM7.03125 21.6562H16.5V10.1484C16.5 8.94656 15.5222 7.96875 14.3203 7.96875H9.21094C8.00906 7.96875 7.03125 8.94656 7.03125 10.1484V21.6562Z" fill="black"/>
<path d="M14.8125 7.96875H9.1875C9.08395 7.96875 9 7.8848 9 7.78125V5.90625C9 5.8027 9.08395 5.71875 9.1875 5.71875H14.8125C14.916 5.71875 15 5.8027 15 5.90625V7.78125C15 7.8848 14.916 7.96875 14.8125 7.96875ZM9.375 7.59375H14.625V6.09375H9.375V7.59375Z" fill="black"/>
<path d="M13.4062 6.09375H10.5938C10.4902 6.09375 10.4062 6.0098 10.4062 5.90625V4.03125C10.4062 3.9277 10.4902 3.84375 10.5938 3.84375H13.4062C13.5098 3.84375 13.5938 3.9277 13.5938 4.03125V5.90625C13.5938 6.0098 13.5098 6.09375 13.4062 6.09375ZM10.7812 5.71875H13.2188V4.21875H10.7812V5.71875Z" fill="black"/>
<path d="M11.5312 4.21875C11.4277 4.21875 11.3438 4.1348 11.3438 4.03125V2.15625C11.3438 2.0527 11.4277 1.96875 11.5312 1.96875C11.6348 1.96875 11.7188 2.0527 11.7188 2.15625V4.03125C11.7188 4.1348 11.6348 4.21875 11.5312 4.21875Z" fill="black"/>
<path d="M15.75 2.34375H10.125C10.0215 2.34375 9.9375 2.2598 9.9375 2.15625C9.9375 2.0527 10.0215 1.96875 10.125 1.96875H15.75C15.8535 1.96875 15.9375 2.0527 15.9375 2.15625C15.9375 2.2598 15.8535 2.34375 15.75 2.34375Z" fill="black"/>
<path d="M16.6875 19.2188H6.84375C6.7402 19.2188 6.65625 19.1348 6.65625 19.0312V15.75C6.65625 15.6465 6.7402 15.5625 6.84375 15.5625H16.6875C16.791 15.5625 16.875 15.6465 16.875 15.75V19.0312C16.875 19.1348 16.791 19.2188 16.6875 19.2188ZM7.03125 18.8438H16.5V15.9375H7.03125V18.8438Z" fill="black"/>
<path d="M21.8438 22.0312H2.15625C2.0527 22.0312 1.96875 21.9473 1.96875 21.8438C1.96875 21.7402 2.0527 21.6562 2.15625 21.6562H21.8438C21.9473 21.6562 22.0312 21.7402 22.0312 21.8438C22.0312 21.9473 21.9473 22.0312 21.8438 22.0312Z" fill="black"/>
<path d="M16.6875 6.09375C16.584 6.09375 16.5 6.0098 16.5 5.90625V4.03125C16.5 3.9277 16.584 3.84375 16.6875 3.84375C16.791 3.84375 16.875 3.9277 16.875 4.03125V5.90625C16.875 6.0098 16.791 6.09375 16.6875 6.09375Z" fill="black"/>
<path d="M18.5625 8.4375C18.459 8.4375 18.375 8.35355 18.375 8.25V6.375C18.375 6.27145 18.459 6.1875 18.5625 6.1875C18.666 6.1875 18.75 6.27145 18.75 6.375V8.25C18.75 8.35355 18.666 8.4375 18.5625 8.4375Z" fill="black"/>
<path d="M12.0307 15.9377C12.0306 15.9377 12.0306 15.9377 12.0305 15.9377C11.9554 15.9377 11.8797 15.9344 11.8058 15.9277C11.7155 15.9196 11.6439 15.848 11.6358 15.7577C11.5632 14.9475 11.8963 14.0873 12.527 13.4566C13.0993 12.8843 13.8566 12.5562 14.6048 12.5562C14.6796 12.5562 14.7546 12.5594 14.8281 12.566C14.9185 12.5742 14.9901 12.6457 14.9982 12.7361C15.0708 13.5462 14.7376 14.4065 14.1069 15.0372C13.5346 15.6095 12.7778 15.9377 12.0307 15.9377ZM12.0011 15.5625C12.0109 15.5627 12.0207 15.5627 12.0305 15.5627C12.679 15.5628 13.3392 15.2746 13.8418 14.772C14.3525 14.2613 14.6411 13.5839 14.6328 12.9313C13.9731 12.9217 13.3018 13.2121 12.7921 13.7217C12.2814 14.2325 11.9928 14.9099 12.0011 15.5625Z" fill="black"/>
<path d="M11.5959 15.9377C10.8492 15.9377 10.0925 15.6095 9.51956 15.0372C8.88923 14.4062 8.55633 13.546 8.62898 12.7361C8.63709 12.6457 8.70867 12.5742 8.79895 12.566C8.87241 12.5594 8.94755 12.5562 9.02231 12.5562C9.76988 12.5562 10.5272 12.8843 11.1 13.4565C11.7303 14.0876 12.0632 14.9478 11.9906 15.7577C11.9825 15.848 11.9109 15.9196 11.8206 15.9277C11.7466 15.9344 11.671 15.9377 11.5959 15.9377ZM8.99428 12.9313C8.98598 13.5838 9.27445 14.2612 9.78478 14.7721C10.2953 15.2821 10.9682 15.5726 11.6254 15.5625C11.6337 14.9101 11.3452 14.2326 10.8349 13.7217C10.3247 13.2121 9.65077 12.9212 8.99428 12.9313Z" fill="black"/>
<path d="M3.09375 10.7812C2.47341 10.7812 1.96875 10.2766 1.96875 9.65625C1.96875 9.03591 2.47341 8.53125 3.09375 8.53125C3.71409 8.53125 4.21875 9.03591 4.21875 9.65625C4.21875 10.2766 3.71409 10.7812 3.09375 10.7812ZM3.09375 8.90625C2.68022 8.90625 2.34375 9.24272 2.34375 9.65625C2.34375 10.0698 2.68022 10.4062 3.09375 10.4062C3.50728 10.4062 3.84375 10.0698 3.84375 9.65625C3.84375 9.24272 3.50728 8.90625 3.09375 8.90625Z" fill="black"/>
<path d="M20.4375 18.2812C19.5587 18.2812 18.8438 17.5663 18.8438 16.6875C18.8438 15.8087 19.5587 15.0938 20.4375 15.0938C21.3163 15.0938 22.0312 15.8087 22.0312 16.6875C22.0312 17.5663 21.3163 18.2812 20.4375 18.2812ZM20.4375 15.4688C19.7655 15.4688 19.2188 16.0155 19.2188 16.6875C19.2188 17.3595 19.7655 17.9062 20.4375 17.9062C21.1095 17.9062 21.6562 17.3595 21.6562 16.6875C21.6562 16.0155 21.1095 15.4688 20.4375 15.4688Z" fill="black"/>
</svg>
