<svg width="24" height="24" viewBox="0 0 24 24" fill="none" xmlns="http://www.w3.org/2000/svg">
<g clip-path="url(#clip0_852_32347)">
<path d="M23.8056 15.7378H19.6174C19.5391 15.7378 19.4694 15.7876 19.4445 15.862L19.3524 16.1343C19.1533 15.8628 18.7877 15.5193 18.1436 15.3291C17.1659 15.0403 16.3492 15.3727 16.1232 15.4806C15.972 15.4525 15.828 15.4357 15.6902 15.4278C15.5824 15.0283 15.057 14.0928 12.4997 14.0928C9.94258 14.0928 9.41688 15.0281 9.30887 15.4278C9.17109 15.4357 9.02709 15.4525 8.87572 15.4806C8.64989 15.3727 7.83346 15.0401 6.85515 15.3292C6.2112 15.5194 5.84549 15.8627 5.64635 16.1345L5.55429 15.8621C5.52936 15.788 5.45951 15.7379 5.38135 15.7379H1.19355C1.09286 15.7379 1.01119 15.8194 1.01103 15.9203L1 23.7304C1 23.7789 1.01902 23.8254 1.05322 23.8597C1.08759 23.8941 1.13394 23.9133 1.18253 23.9133H23.8052C23.9062 23.9133 23.9878 23.8318 23.9878 23.7308V15.9202C23.9878 15.8195 23.9061 15.7377 23.8052 15.7377L23.8056 15.7378ZM18.0405 15.6793C18.8542 15.9197 19.1304 16.429 19.1991 16.589L18.916 17.4267C18.7709 17.3524 18.5483 17.2653 18.2351 17.2045C18.226 16.8529 18.0461 16.0908 16.7588 15.6494C17.0874 15.5731 17.5428 15.5321 18.0405 15.6793L18.0405 15.6793ZM15.2695 19.3469C15.158 19.274 14.8274 19.0272 14.8274 18.6614C14.8274 18.2545 15.491 17.6295 16.9667 17.5129C18.036 17.4281 18.5914 17.6604 18.7976 17.7772L18.2671 19.3467L15.2695 19.3466L15.2695 19.3469ZM6.7323 19.3469L6.20182 17.7771C6.40816 17.6604 6.96372 17.4288 8.03266 17.5127C9.50819 17.6294 10.172 18.2543 10.172 18.6612C10.172 19.024 9.84033 19.2734 9.72959 19.3467L6.7323 19.3469ZM8.78021 15.8736C10.199 15.5385 10.9469 16.2436 11.2317 16.6152C10.2578 16.8409 9.80152 17.2977 9.61994 17.5426C9.2242 17.3455 8.70476 17.1996 8.06159 17.1489C7.70181 17.1208 7.39576 17.127 7.13344 17.1519C7.16573 16.8444 7.40404 16.1987 8.78017 15.8736L8.78021 15.8736ZM9.9388 17.7299C10.1587 17.4572 10.8354 16.847 12.4998 16.847C14.1649 16.847 14.8417 17.4575 15.0612 17.7296C14.6659 18.0059 14.4625 18.3422 14.4625 18.6612C14.4625 18.947 14.5862 19.1773 14.727 19.3467L10.2724 19.3469C10.4134 19.1773 10.5371 18.9472 10.5371 18.6614C10.5369 18.3425 10.3335 18.0064 9.9387 17.7299L9.9388 17.7299ZM16.2195 15.8736C17.5961 16.1987 17.8341 16.8451 17.8662 17.1523C17.6038 17.127 17.2977 17.1209 16.9379 17.1487C16.2952 17.1994 15.7758 17.3453 15.38 17.5422C15.1985 17.2977 14.7423 16.8414 13.7698 16.6156C14.0592 16.2454 14.8155 15.5413 16.2195 15.8736V15.8736ZM12.5003 14.4578C14.6092 14.4578 15.16 15.1107 15.3032 15.4307C14.1708 15.5148 13.5692 16.2524 13.3755 16.5422C13.1147 16.5044 12.8246 16.4821 12.5 16.4821C12.1752 16.4821 11.8853 16.5043 11.6246 16.5422C11.4313 16.2525 10.8305 15.5145 9.69764 15.4305C9.84196 15.1086 10.3945 14.4578 12.5003 14.4578ZM6.95893 15.6793C7.45713 15.5319 7.91233 15.573 8.24109 15.6494C6.95398 16.0905 6.77387 16.8524 6.76458 17.2042C6.45132 17.2649 6.22866 17.3521 6.08353 17.4265L5.80063 16.589C5.86967 16.4277 6.14618 15.9195 6.95893 15.6793L6.95893 15.6793ZM23.623 23.5483H1.36525L1.37595 16.1032H5.2507L6.42816 19.5881C6.45309 19.6623 6.52293 19.7123 6.60109 19.7123H18.3981C18.4764 19.7123 18.5461 19.6624 18.5711 19.5881L19.1873 17.7645C19.1873 17.7641 19.1875 17.764 19.1877 17.7635L19.7485 16.1032H23.6231V23.5484L23.623 23.5483Z" fill="#012768"/>
<path d="M23.8875 1.01391C23.8192 0.985622 23.7407 1.00129 23.6885 1.05355L18.5404 6.20166L17.5937 5.06688C17.5611 5.02756 17.5135 5.00391 17.4623 5.00151C17.4096 4.99799 17.3616 5.01829 17.3252 5.0541L14.837 7.51678C14.4994 7.43478 13.4511 7.2847 12.2496 8.16919C11.3193 8.85421 10.6961 10.8534 10.3373 12.4098C10.2064 12.9775 9.70755 13.374 9.1242 13.374H8.35284C7.96558 13.374 7.65039 13.689 7.65039 14.0765C7.65039 14.4637 7.96541 14.7789 8.35284 14.7789H8.90792C9.00893 14.7789 9.09044 14.6974 9.09044 14.5964C9.09044 14.4954 9.00893 14.4139 8.90792 14.4139H8.35284C8.1668 14.4139 8.0156 14.2625 8.0156 14.0766C8.0156 13.8906 8.16696 13.7394 8.35284 13.7394H9.1242C9.87862 13.7394 10.5237 13.2263 10.6931 12.4919C10.9755 11.267 11.5813 9.11456 12.4661 8.46341C13.3404 7.81947 14.1111 7.78494 14.5201 7.8308L13.1693 9.16779C13.1676 9.16955 13.1668 9.17242 13.165 9.17434C13.1633 9.17642 13.1604 9.17722 13.1586 9.17946C12.3425 10.1389 11.9541 11.381 12.0043 12.8711C12.0077 12.9698 12.0887 13.0475 12.1865 13.0475C12.1888 13.0475 12.1907 13.0475 12.1928 13.0474C12.2938 13.0438 12.3724 12.9598 12.3691 12.8589C12.3246 11.536 12.6492 10.4297 13.3255 9.56129L13.6774 9.86097C13.2002 10.5829 13.0512 11.5571 13.231 12.8385C13.2438 12.9297 13.322 12.9956 13.4115 12.9956C13.4199 12.9956 13.4284 12.9951 13.437 12.9938C13.5369 12.9799 13.6066 12.8875 13.5926 12.7878C13.4291 11.6213 13.5507 10.7412 13.9575 10.0993L14.2079 10.3125C14.0743 10.6843 13.7289 11.8058 14.1294 12.534C14.452 13.1207 15.3652 13.2486 16.1003 13.2486C16.1225 13.2486 16.1409 13.2486 16.1674 13.2483C16.2363 13.2483 16.3009 13.275 16.3498 13.3232C16.3997 13.3726 16.4271 13.4386 16.4271 13.5093C16.4271 13.6533 16.31 13.7704 16.166 13.7704H15.682C15.596 13.7704 15.5219 13.8304 15.5035 13.9141C15.4853 13.998 15.5279 14.0834 15.6061 14.1189C15.839 14.2255 16.165 14.4532 16.1706 14.6036C16.1772 14.7785 16.0567 14.8269 16.0226 14.8365C15.9248 14.8608 15.865 14.9597 15.8893 15.0576C15.9098 15.1407 15.9844 15.1963 16.0664 15.1963C16.081 15.1963 16.0957 15.1945 16.1104 15.191C16.2638 15.153 16.5501 14.9786 16.5354 14.5897C16.5287 14.4111 16.4169 14.2531 16.2792 14.1253C16.5707 14.0717 16.7924 13.816 16.7924 13.5093C16.7924 13.3406 16.7267 13.1826 16.607 13.0641C16.489 12.9473 16.3334 12.8834 16.1676 12.8834C16.1428 12.8835 16.1229 12.8837 16.101 12.8837C15.2339 12.8837 14.6336 12.6933 14.4495 12.3583C14.1605 11.8325 14.3745 10.9812 14.5076 10.5677L16.4531 12.2245C16.4875 12.2536 16.5293 12.268 16.5714 12.268C16.6179 12.268 16.6644 12.2501 16.6997 12.2153L20.3365 8.61554C20.4038 8.54889 20.4089 8.44165 20.3482 8.36877L19.8175 7.73264L23.9472 3.60294C23.9816 3.56858 24.0008 3.52238 24.0008 3.47396L24.0004 1.18247C24.0001 1.10879 23.9558 1.04214 23.8876 1.01385L23.8875 1.01391ZM18.3903 10.0274L17.7685 9.39897L18.3987 8.77532L18.9665 9.45731L18.3903 10.0274ZM17.5549 10.8542L16.8788 10.2794L17.5089 9.6558L18.1309 10.2842L17.5549 10.8542ZM17.3895 9.26022C17.3866 9.26278 17.3829 9.26357 17.3802 9.26629C17.3775 9.26901 17.3765 9.27269 17.374 9.2754L15.6068 11.0246L14.9967 10.505L18.6435 6.89537L19.1568 7.51088L17.3895 9.26022ZM15.3742 7.49889L16.4336 8.56926L15.7098 9.28546L14.5582 8.30617L15.3742 7.49889ZM16.4493 6.43457L17.4167 7.59623L16.6931 8.31243L15.6337 7.24205L16.4493 6.43457ZM17.4406 5.45339L18.4087 6.61407L17.677 7.33841L16.7097 6.17675L17.4406 5.45339ZM14.298 8.56398L15.4496 9.54328L14.7179 10.2676L13.5673 9.28755L14.298 8.56398ZM16.5614 11.8375L15.8858 11.2621L16.6183 10.5371L17.2943 11.1119L16.5614 11.8375ZM19.2267 9.19929L18.6588 8.5173L19.3913 7.7923L19.9597 8.47364L19.2267 9.19929ZM23.6351 3.39775L19.5821 7.45073L18.7749 6.48314L23.635 1.62308L23.6351 3.39775Z" fill="#012768"/>
<path d="M10.9348 9.15405C10.9669 9.15405 10.9993 9.14558 11.0287 9.12783C11.1151 9.07605 11.143 8.96385 11.0909 8.87738C11.0885 8.87354 10.8571 8.47477 10.9269 8.09677C10.9576 7.93103 11.0152 7.82442 11.082 7.70087C11.1811 7.51706 11.2933 7.30881 11.3248 6.90189C11.3521 6.54483 11.2391 6.24244 11.1298 5.94964C11.0222 5.66258 10.9207 5.39133 10.9648 5.08957C11.0519 4.49149 11.507 4.03371 11.5114 4.02909C11.583 3.95813 11.5837 3.84273 11.5127 3.77112C11.4421 3.69936 11.3268 3.69872 11.2549 3.76905C11.2327 3.7911 10.7085 4.31471 10.6036 5.03697C10.5462 5.43127 10.669 5.75972 10.7877 6.07715C10.8878 6.34455 10.9821 6.59708 10.9608 6.87343C10.9352 7.20332 10.8505 7.36059 10.7605 7.52716C10.6862 7.66541 10.6092 7.80782 10.5679 8.03015C10.4724 8.54897 10.7657 9.04459 10.7783 9.06554C10.8123 9.1226 10.8726 9.15409 10.9348 9.15409L10.9348 9.15405Z" fill="#012768"/>
<path d="M4.7899 9.48455C5.07472 9.77401 5.32022 10.0242 5.42939 10.4755C5.55789 11.0078 5.50851 11.4893 5.45592 11.9992C5.41437 12.4026 5.37137 12.8196 5.42587 13.2588C5.55406 14.2945 6.62477 14.8331 6.67014 14.8556C6.6962 14.8683 6.72369 14.8745 6.7507 14.8745C6.81799 14.8745 6.88288 14.8371 6.91469 14.7727C6.95928 14.6822 6.92204 14.5726 6.83158 14.5281C6.82215 14.5238 5.89226 14.0563 5.78788 13.214C5.73865 12.8159 5.77765 12.4374 5.81904 12.0366C5.87227 11.5187 5.92741 10.9831 5.7842 10.39C5.65154 9.84033 5.34611 9.52948 5.0504 9.22883C4.76415 8.93793 4.49386 8.66287 4.35274 8.1618C4.0652 7.14257 4.55972 5.61777 4.56483 5.60243C4.59616 5.50685 4.54421 5.4036 4.44831 5.37211C4.3529 5.34031 4.24948 5.39257 4.218 5.48815C4.19594 5.5548 3.68322 7.13328 4.00111 8.26058C4.16813 8.85194 4.49849 9.18791 4.78986 9.48456L4.7899 9.48455Z" fill="#012768"/>
<path d="M8.14386 8.41276C8.14786 8.96018 7.9901 9.41763 7.82292 9.90191C7.69057 10.2853 7.5536 10.6817 7.50693 11.1219C7.396 12.1598 8.31614 12.928 8.35514 12.9601C8.38934 12.9879 8.42994 13.0015 8.47085 13.0015C8.52344 13.0015 8.5757 12.9786 8.61183 12.9348C8.67592 12.857 8.66457 12.7421 8.58705 12.6781C8.57906 12.6714 7.77988 12.0005 7.86974 11.1607C7.91225 10.7618 8.0366 10.402 8.16798 10.021C8.33788 9.52906 8.51354 9.02014 8.50875 8.40991C8.50459 7.84461 8.27763 7.47219 8.05849 7.11225C7.84608 6.76382 7.64548 6.43459 7.62183 5.91451C7.57404 4.85661 8.40244 3.48444 8.41091 3.47069C8.46334 3.3847 8.43633 3.2725 8.35017 3.21992C8.26434 3.16734 8.15198 3.19451 8.0994 3.2805C8.06296 3.34043 7.20417 4.76069 7.25724 5.93077C7.28505 6.54419 7.53024 6.94681 7.74682 7.30213C7.95779 7.64896 8.14032 7.94832 8.14384 8.4128L8.14386 8.41276Z" fill="#012768"/>
</g>
<defs>
<clipPath id="clip0_852_32347">
<rect width="24" height="24" fill="white"/>
</clipPath>
</defs>
</svg>
