<svg width="24" height="24" viewBox="0 0 24 24" fill="none" xmlns="http://www.w3.org/2000/svg">
<path d="M23.8033 19.9345H21.0492V9.11482H22.6231H22.6243C22.733 9.11482 22.821 9.02663 22.821 8.91814C22.821 8.89344 22.8166 8.8702 22.8084 8.84843L22.2238 6.50977C22.2019 6.42213 22.1227 6.36084 22.0326 6.36084H19.6721C19.5815 6.36084 19.5027 6.42213 19.4809 6.50977L18.8906 8.87035C18.876 8.92908 18.889 8.99128 18.927 9.03904C18.9644 9.08698 19.0213 9.11479 19.082 9.11479H20.6559V19.9345H18.6887V19.1476H19.082C19.1907 19.1476 19.2787 19.0594 19.2787 18.9509V15.4098C19.2787 15.3011 19.1905 15.2131 19.082 15.2131H18.0984V14.2295C18.0984 13.7957 17.7453 13.4426 17.3115 13.4426H13.7704C13.5353 13.4426 13.3247 13.5465 13.1801 13.7104C13.0356 13.5465 12.825 13.4426 12.5899 13.4426H9.04879C8.61498 13.4426 8.26185 13.7957 8.26185 14.2295V15.2131H7.27862C7.16994 15.2131 7.08193 15.3013 7.08193 15.4098V18.9509C7.08193 19.0596 7.17012 19.1476 7.27862 19.1476H7.67198V19.9345H5.58968L3.93441 18.2792V16.787H5.50809C5.61677 16.787 5.70478 16.6988 5.70478 16.5903C5.70478 16.4816 5.61659 16.3936 5.50809 16.3936H4.822L5.10687 14.8558C5.11767 14.7984 5.10193 14.7391 5.06461 14.6945C5.02728 14.6493 4.97184 14.6233 4.91348 14.6233H4.2806L4.49119 12.7082C4.5479 12.7219 4.60609 12.7298 4.66463 12.7298C4.9303 12.7298 5.17766 12.5865 5.31012 12.3571C5.75673 11.5839 5.54925 10.7812 5.5401 10.7474C5.51211 10.6427 5.40398 10.5803 5.29932 10.6081C5.26548 10.6173 4.467 10.8392 4.0204 11.6128C3.85335 11.9024 3.90348 12.2583 4.11956 12.4918L3.88446 14.6233H3.58513L3.34692 11.9213C3.5222 11.7932 3.64771 11.611 3.70497 11.3985C3.77084 11.1523 3.73717 10.8945 3.60946 10.6731C3.00679 9.6295 1.93007 9.33072 1.88431 9.31807C1.83399 9.30471 1.7802 9.31185 1.73501 9.33783C1.68982 9.36399 1.65688 9.40681 1.64353 9.45712C1.63145 9.50268 1.35152 10.5842 1.95457 11.6287C2.12454 11.9235 2.44197 12.1064 2.78267 12.1064C2.84451 12.1064 2.90617 12.1004 2.96673 12.0887L3.19013 14.6229H2.55252C2.49397 14.6229 2.43835 14.6496 2.4012 14.694C2.3637 14.7392 2.34814 14.798 2.35894 14.8554L2.64381 16.3932L1.96723 16.3929C1.85855 16.3929 1.77054 16.481 1.77054 16.5895C1.77054 16.6982 1.85855 16.7871 1.96723 16.7871H3.5411V18.279L1.88564 19.9347H0.196684C0.0880048 19.9347 0 20.0229 0 20.1314C0 20.2401 0.0880048 20.3283 0.196684 20.3283H23.8033C23.912 20.3283 24 20.2401 24 20.1316C24 20.0229 23.912 19.9345 23.8033 19.9345L23.8033 19.9345ZM19.8259 6.75415H21.8791L22.3709 8.72138H19.3341L19.8259 6.75415ZM4.36074 11.809C4.59732 11.3993 4.96454 11.1757 5.19321 11.0696C5.21553 11.3214 5.20547 11.751 4.96926 12.1605C4.90651 12.2691 4.78978 12.3363 4.66445 12.3363C4.60334 12.3363 4.54277 12.32 4.48917 12.2891C4.32194 12.1919 4.2643 11.9768 4.36073 11.809L4.36074 11.809ZM2.29545 11.4317C1.92293 10.7864 1.94379 10.1076 1.98624 9.7724C2.29819 9.90322 2.8965 10.2249 3.26882 10.8698C3.34383 10.9999 3.36377 11.1516 3.32499 11.2965C3.2862 11.4418 3.19325 11.5631 3.06298 11.6381C2.97754 11.6875 2.88075 11.7133 2.78286 11.7133C2.58252 11.7129 2.39571 11.6053 2.29546 11.4317L2.29545 11.4317ZM2.78945 15.0163H4.67728L4.42241 16.3933H3.04489L2.78945 15.0163ZM12.9839 17.5738H8.65607V16.7869H12.9839V17.5738ZM13.3772 16.7869H17.705V17.5738H13.3772V16.7869ZM13.7708 13.836H17.3119C17.5289 13.836 17.7052 14.0126 17.7052 14.2294V16.3933H13.3775V14.2294C13.3773 14.0126 13.5538 13.836 13.7708 13.836H13.7708ZM8.65601 14.2294C8.65601 14.0124 8.83257 13.836 9.04938 13.836H12.5905C12.8075 13.836 12.9838 14.0126 12.9838 14.2294V16.3933H8.65605L8.65601 14.2294ZM7.47554 15.6065H8.26248V17.7704C8.26248 17.8791 8.35066 17.9671 8.45916 17.9671H17.9018C18.0105 17.9671 18.0985 17.8789 18.0985 17.7704V15.6065H18.8854V18.7541H7.47556L7.47554 15.6065ZM8.0658 19.1475H18.2953V19.9344H8.0658V19.1475ZM5.03338 19.9344H3.93469V18.8357L5.03338 19.9344ZM3.54115 18.8357V19.9344H2.44246L3.54115 18.8357Z" fill="black"/>
<path d="M4.91836 8.52449H8.45944C8.56812 8.52449 8.65612 8.4363 8.65612 8.32781V4.19669C8.65612 4.08801 8.56794 4 8.45944 4H4.91836C4.80968 4 4.72168 4.08819 4.72168 4.19669V8.32799C4.72168 8.43649 4.80968 8.5245 4.91836 8.5245V8.52449ZM8.26253 8.13112H5.11504V7.30301C5.24403 7.32918 5.37558 7.34418 5.50841 7.34418C6.59318 7.34418 7.47562 6.46174 7.47562 5.37696C7.47562 5.0286 7.38304 4.6903 7.21142 4.39335H8.26238L8.26253 8.13112ZM5.11504 4.39335H6.73682C6.96021 4.67182 7.08225 5.0178 7.08225 5.37696C7.08225 6.24493 6.3764 6.95083 5.50839 6.95083C5.37482 6.95083 5.24327 6.934 5.11502 6.90125L5.11504 4.39335Z" fill="black"/>
<path d="M9.64005 10.8857H16.7221C16.8308 10.8857 16.9188 10.7975 16.9188 10.689V5.37753C16.9188 5.26885 16.8306 5.18085 16.7221 5.18085L9.64005 5.18066C9.53137 5.18066 9.44336 5.26885 9.44336 5.37735V10.6889C9.44318 10.7975 9.53137 10.8857 9.64005 10.8857V10.8857ZM9.83673 9.00009L10.8203 8.01648L13.2962 10.4923L9.83673 10.4921V9.00009ZM16.5253 5.57408V10.4921H13.8527L10.9594 7.5991C10.8825 7.52226 10.7579 7.52226 10.6811 7.5991L9.83671 8.44346V5.57403L16.5253 5.57408Z" fill="black"/>
<path d="M14.3604 9.11476C15.1197 9.11476 15.7373 8.49706 15.7373 7.7378C15.7373 6.9785 15.1196 6.36084 14.3604 6.36084C13.6011 6.36084 12.9834 6.97855 12.9834 7.7378C12.9834 8.4971 13.6011 9.11476 14.3604 9.11476ZM14.3604 6.75419C14.9028 6.75419 15.344 7.19532 15.344 7.7378C15.344 8.28029 14.9028 8.72141 14.3604 8.72141C13.8179 8.72141 13.3767 8.28029 13.3767 7.7378C13.3767 7.19532 13.8181 6.75419 14.3604 6.75419Z" fill="black"/>
</svg>
