<svg width="24" height="24" viewBox="0 0 24 24" fill="none" xmlns="http://www.w3.org/2000/svg">
<path d="M17.2699 10.3125H11.418C11.3459 10.3125 11.2802 10.2712 11.2489 10.2061C11.2177 10.1411 11.2266 10.064 11.2717 10.0078C12.0237 9.06937 13.1436 8.53125 14.344 8.53125C15.5443 8.53125 16.6641 9.06937 17.4162 10.0078C17.4613 10.064 17.4701 10.1412 17.439 10.2061C17.4078 10.2712 17.342 10.3125 17.2699 10.3125ZM11.8382 9.9375H16.8498C16.1854 9.27773 15.2924 8.90625 14.344 8.90625C13.3955 8.90625 12.5025 9.27773 11.8382 9.9375Z" fill="black"/>
<path d="M14.3438 8.90625C13.7235 8.90625 13.2188 8.40159 13.2188 7.78125C13.2188 7.16091 13.7235 6.65625 14.3438 6.65625C14.964 6.65625 15.4688 7.16091 15.4688 7.78125C15.4688 8.40159 14.964 8.90625 14.3438 8.90625ZM14.3438 7.03125C13.9302 7.03125 13.5938 7.36772 13.5938 7.78125C13.5938 8.19478 13.9302 8.53125 14.3438 8.53125C14.7573 8.53125 15.0938 8.19478 15.0938 7.78125C15.0938 7.36772 14.7573 7.03125 14.3438 7.03125Z" fill="black"/>
<path d="M8.55604 18.7853C8.49647 18.7853 8.43843 18.7569 8.40234 18.7053L5.75264 14.92C5.74359 14.9071 5.73618 14.8931 5.7307 14.8783L4.32445 11.1283C4.30284 11.0708 4.31086 11.0062 4.34592 10.9557C4.38084 10.9052 4.43845 10.875 4.49995 10.875C5.43445 10.875 6.30304 11.379 6.76668 12.1905L7.92056 14.2098L8.6414 14.6603C8.71425 14.7058 8.74683 14.795 8.72053 14.8767C8.5327 15.4602 8.43745 16.0695 8.43745 16.6875C8.43745 17.3199 8.5372 17.9429 8.73398 18.539C8.76314 18.6274 8.72315 18.7237 8.64 18.7654C8.61314 18.7788 8.5844 18.7853 8.55604 18.7853ZM6.0734 14.7244L8.14012 17.6769C8.08847 17.351 8.06245 17.0205 8.06245 16.6875C8.06245 16.0797 8.14917 15.4796 8.32031 14.9018L7.68183 14.5027C7.65558 14.4863 7.63378 14.4637 7.6184 14.4367L6.44109 12.3765C6.09032 11.7626 5.46886 11.3542 4.77703 11.2673L6.0734 14.7244Z" fill="black"/>
<path d="M20.0794 18.9377C20.0312 18.9377 19.984 18.9192 19.9482 18.8843C19.8958 18.833 19.8781 18.7558 19.9029 18.6867C20.1334 18.0461 20.2503 17.3734 20.2503 16.6875C20.2503 15.213 19.7037 13.8009 18.7112 12.7116C18.2355 12.1895 17.8645 11.6281 17.6089 11.0431C17.5716 10.9578 17.5299 10.8727 17.4815 10.7829C17.4535 10.7311 17.4515 10.6694 17.476 10.6159C17.5005 10.5624 17.5486 10.5235 17.6059 10.5108C17.9192 10.4414 18.241 10.4062 18.5628 10.4062C20.9924 10.4062 22.969 12.3829 22.969 14.8125C22.969 15.7203 22.6951 16.5921 22.1769 17.3336C21.6705 18.0581 20.9685 18.6085 20.1468 18.9252C20.1249 18.9336 20.1021 18.9377 20.0794 18.9377ZM17.9251 10.8317C17.9345 10.8523 17.9437 10.8727 17.9525 10.893C18.1918 11.4403 18.5403 11.9672 18.9885 12.459C20.044 13.6176 20.6253 15.1193 20.6253 16.6875C20.6253 17.2736 20.545 17.8506 20.3863 18.4083C21.7218 17.7276 22.594 16.3303 22.594 14.8125C22.594 12.5896 20.7857 10.7813 18.5628 10.7813C18.3492 10.7813 18.1356 10.7982 17.9251 10.8317Z" fill="black"/>
<path d="M22.3125 22.9688H1.21875C1.1152 22.9688 1.03125 22.8848 1.03125 22.7812C1.03125 22.6777 1.1152 22.5938 1.21875 22.5938H22.3125C22.416 22.5938 22.5 22.6777 22.5 22.7812C22.5 22.8848 22.416 22.9688 22.3125 22.9688Z" fill="black"/>
<path d="M5.67188 22.9688C4.9223 22.9688 4.3125 22.3589 4.3125 21.6094V19.5C4.3125 19.3965 4.39645 19.3125 4.5 19.3125H6.84375C6.9473 19.3125 7.03125 19.3965 7.03125 19.5V21.6094C7.03125 22.3589 6.42145 22.9688 5.67188 22.9688ZM4.6875 19.6875V21.6094C4.6875 22.1521 5.12906 22.5938 5.67188 22.5938C6.21469 22.5938 6.65625 22.1521 6.65625 21.6094V19.6875H4.6875Z" fill="black"/>
<path d="M3.32812 22.9688C2.57855 22.9688 1.96875 22.3589 1.96875 21.6094V19.5C1.96875 19.3965 2.0527 19.3125 2.15625 19.3125H4.5C4.60355 19.3125 4.6875 19.3965 4.6875 19.5V21.6094C4.6875 22.3589 4.0777 22.9688 3.32812 22.9688ZM2.34375 19.6875V21.6094C2.34375 22.1521 2.78531 22.5938 3.32812 22.5938C3.87094 22.5938 4.3125 22.1521 4.3125 21.6094V19.6875H2.34375Z" fill="black"/>
<path d="M4.96875 9.375C4.8652 9.375 4.78125 9.29105 4.78125 9.1875V7.3125C4.78125 6.69216 5.28591 6.1875 5.90625 6.1875H7.3125C7.72603 6.1875 8.0625 5.85103 8.0625 5.4375C8.0625 5.02397 7.72603 4.6875 7.3125 4.6875H6.375C5.75466 4.6875 5.25 4.18284 5.25 3.5625V1.21875C5.25 1.1152 5.33395 1.03125 5.4375 1.03125C5.54105 1.03125 5.625 1.1152 5.625 1.21875V3.5625C5.625 3.97603 5.96147 4.3125 6.375 4.3125H7.3125C7.93284 4.3125 8.4375 4.81716 8.4375 5.4375C8.4375 6.05784 7.93284 6.5625 7.3125 6.5625H5.90625C5.49272 6.5625 5.15625 6.89897 5.15625 7.3125V9.1875C5.15625 9.29105 5.0723 9.375 4.96875 9.375Z" fill="black"/>
<path d="M18.7468 21.0938H9.94033C9.8861 21.0938 9.83454 21.0703 9.79891 21.0294L9.77838 21.0058C9.75222 20.9756 9.72607 20.9455 9.69921 20.916C9.1 20.2583 8.6554 19.4982 8.37775 18.6566C8.37513 18.6488 8.37269 18.6406 8.37025 18.6325L8.36646 18.62C8.34808 18.563 8.35807 18.5006 8.39336 18.4521C8.42861 18.4037 8.48496 18.375 8.54491 18.375H20.143C20.203 18.375 20.2593 18.4037 20.2946 18.4522C20.3299 18.5006 20.3398 18.5631 20.3214 18.6202C20.0448 19.476 19.5962 20.2484 18.988 20.916C18.961 20.9456 18.9348 20.9758 18.9086 21.006L18.8882 21.0294C18.8526 21.0703 18.8011 21.0938 18.7468 21.0938ZM10.0257 20.7188H18.6615C18.6778 20.7002 18.6941 20.6817 18.7108 20.6634C19.2241 20.1001 19.6165 19.4574 19.8795 18.75H8.80788C9.07113 19.4578 9.46352 20.1005 9.97647 20.6634C9.99307 20.6818 10.0095 20.7002 10.0257 20.7188Z" fill="black"/>
<path d="M17.5908 22.9688H11.0967C11.0297 22.9688 10.9679 22.933 10.9343 22.8751C10.8602 22.747 10.7933 22.6148 10.7353 22.482C10.4961 21.9347 10.1475 21.4078 9.69942 20.916C9.10022 20.2583 8.65561 19.4981 8.37792 18.6565C8.16863 18.0224 8.0625 17.3599 8.0625 16.6875C8.0625 16.0304 8.1638 15.3825 8.36362 14.7618C8.63995 13.9034 9.08934 13.1286 9.69942 12.459C10.1475 11.9672 10.4961 11.4403 10.7353 10.8929C10.8732 10.5773 11.0536 10.2795 11.2715 10.0077C11.307 9.96333 11.3609 9.9375 11.4178 9.9375H17.2697C17.3266 9.9375 17.3805 9.96333 17.416 10.0078C17.6339 10.2795 17.8142 10.5773 17.9522 10.893C18.1914 11.4404 18.54 11.9672 18.9881 12.459C20.0437 13.6176 20.625 15.1193 20.625 16.6875C20.625 18.2557 20.0437 19.7574 18.9881 20.916C18.54 21.4078 18.1915 21.9346 17.9522 22.482C17.8942 22.6148 17.8272 22.747 17.7532 22.8751C17.7197 22.933 17.6578 22.9688 17.5908 22.9688ZM11.2066 22.5938H17.4809C17.5274 22.5075 17.5702 22.4198 17.6086 22.3319C17.8643 21.7469 18.2352 21.1855 18.711 20.6634C19.7034 19.5741 20.25 18.162 20.25 16.6875C20.25 15.213 19.7034 13.8009 18.7109 12.7116C18.2352 12.1895 17.8642 11.6281 17.6086 11.0431C17.4956 10.7847 17.3511 10.5393 17.1783 10.3125H11.5092C11.3364 10.5393 11.1918 10.7847 11.0789 11.0431C10.8232 11.6281 10.4523 12.1895 9.97655 12.7116C9.40289 13.3413 8.98031 14.0697 8.72053 14.8767C8.53275 15.4602 8.4375 16.0695 8.4375 16.6875C8.4375 17.3199 8.53725 17.9429 8.73403 18.539C8.99508 19.3302 9.41316 20.045 9.97664 20.6634C10.4524 21.1855 10.8233 21.7469 11.0789 22.3319C11.1173 22.4198 11.1601 22.5075 11.2066 22.5938Z" fill="black"/>
<path d="M14.3438 16.875C13.2065 16.875 12.2812 15.9498 12.2812 14.8125V14.3438C12.2812 13.2065 13.2065 12.2812 14.3438 12.2812C15.481 12.2812 16.4062 13.2065 16.4062 14.3438V14.8125C16.4062 15.9498 15.481 16.875 14.3438 16.875ZM14.3438 12.6562C13.4132 12.6562 12.6562 13.4132 12.6562 14.3438V14.8125C12.6562 15.743 13.4132 16.5 14.3438 16.5C15.2743 16.5 16.0312 15.743 16.0312 14.8125V14.3438C16.0312 13.4132 15.2743 12.6562 14.3438 12.6562Z" fill="black"/>
<path d="M2.15625 14.5312C2.0527 14.5312 1.96875 14.4473 1.96875 14.3438V12C1.96875 11.8965 2.0527 11.8125 2.15625 11.8125C2.2598 11.8125 2.34375 11.8965 2.34375 12V14.3438C2.34375 14.4473 2.2598 14.5312 2.15625 14.5312Z" fill="black"/>
<path d="M3.5625 17.3438C3.45895 17.3438 3.375 17.2598 3.375 17.1562V15.75C3.375 15.6465 3.45895 15.5625 3.5625 15.5625C3.66605 15.5625 3.75 15.6465 3.75 15.75V17.1562C3.75 17.2598 3.66605 17.3438 3.5625 17.3438Z" fill="black"/>
<path d="M13.6406 4.21875C13.1495 4.21875 12.75 3.81923 12.75 3.32812C12.75 2.83702 13.1495 2.4375 13.6406 2.4375C14.1317 2.4375 14.5312 2.83702 14.5312 3.32812C14.5312 3.81923 14.1317 4.21875 13.6406 4.21875ZM13.6406 2.8125C13.3563 2.8125 13.125 3.04383 13.125 3.32812C13.125 3.61242 13.3563 3.84375 13.6406 3.84375C13.9249 3.84375 14.1562 3.61242 14.1562 3.32812C14.1562 3.04383 13.9249 2.8125 13.6406 2.8125Z" fill="black"/>
<path d="M20.4375 4.6875C19.5587 4.6875 18.8438 3.97256 18.8438 3.09375C18.8438 2.21494 19.5587 1.5 20.4375 1.5C21.3163 1.5 22.0312 2.21494 22.0312 3.09375C22.0312 3.97256 21.3163 4.6875 20.4375 4.6875ZM20.4375 1.875C19.7655 1.875 19.2188 2.42175 19.2188 3.09375C19.2188 3.76575 19.7655 4.3125 20.4375 4.3125C21.1095 4.3125 21.6562 3.76575 21.6562 3.09375C21.6562 2.42175 21.1095 1.875 20.4375 1.875Z" fill="black"/>
</svg>
