<svg width="24" height="24" viewBox="0 0 24 24" fill="none" xmlns="http://www.w3.org/2000/svg">
<path d="M20.9062 22.9233H17.1562C17.0527 22.9233 16.9688 22.8394 16.9688 22.7358V22.6421C16.9688 21.7633 16.2538 21.0483 15.375 21.0483H8.625C7.74619 21.0483 7.03125 21.7633 7.03125 22.6421V22.7358C7.03125 22.8394 6.9473 22.9233 6.84375 22.9233H3.09375C2.9902 22.9233 2.90625 22.8394 2.90625 22.7358V22.6421C2.90625 21.7633 2.19131 21.0483 1.3125 21.0483H1.21875C1.1152 21.0483 1.03125 20.9644 1.03125 20.8608V18.9858C1.03125 18.8823 1.1152 18.7983 1.21875 18.7983H22.7812C22.8848 18.7983 22.9688 18.8823 22.9688 18.9858V20.8608C22.9688 20.9644 22.8848 21.0483 22.7812 21.0483H22.6875C21.8087 21.0483 21.0938 21.7633 21.0938 22.6421V22.7358C21.0938 22.8394 21.0098 22.9233 20.9062 22.9233ZM17.3415 22.5483H20.721C20.7686 21.5372 21.5826 20.7231 22.5938 20.6755V19.1733H1.40625V20.6755C2.41744 20.7232 3.23147 21.5372 3.27905 22.5483H6.65845C6.70753 21.5061 7.57083 20.6733 8.625 20.6733H15.375C16.4292 20.6733 17.2925 21.5061 17.3415 22.5483Z" fill="black"/>
<path d="M19.4577 19.1634C19.415 19.1634 19.3723 19.1489 19.3375 19.1198C18.3931 18.3309 17.8291 17.0523 17.8291 15.6995C17.8291 14.3474 18.393 13.0688 19.3375 12.2792C19.4071 12.2211 19.5084 12.221 19.578 12.2792C20.5229 13.0686 21.087 14.3472 21.087 15.6995C21.087 17.0522 20.5229 18.3308 19.5779 19.1198C19.5431 19.1489 19.5004 19.1634 19.4577 19.1634ZM19.4578 12.6725C18.67 13.3976 18.2041 14.5162 18.2041 15.6996C18.2041 16.8835 18.67 18.0021 19.4578 18.7266C20.2458 18.0021 20.712 16.8834 20.712 15.6996C20.712 14.5161 20.2458 13.3974 19.4578 12.6725Z" fill="black"/>
<path d="M19.458 19.1636C19.3875 19.1636 19.3215 19.1237 19.2896 19.0584C19.2517 18.9809 19.2716 18.8875 19.3379 18.8322C20.1985 18.1136 20.7123 16.9426 20.7123 15.6997C20.7123 15.1886 20.6288 14.693 20.464 14.2269C20.4392 14.1565 20.4584 14.078 20.5131 14.0272C21.0799 13.4995 21.7518 13.1398 22.456 12.9867C22.5448 12.9675 22.6344 13.0144 22.6691 13.0981C23.1406 14.2352 23.0479 15.6296 22.421 16.8281C21.794 18.0266 20.7013 18.8981 19.4978 19.1593C19.4845 19.1622 19.4712 19.1636 19.458 19.1636ZM20.8579 14.2209C21.0102 14.6922 21.0874 15.189 21.0874 15.6997C21.0874 16.7656 20.7371 17.7855 20.1263 18.5561C20.9345 18.1874 21.6399 17.5125 22.0888 16.6544C22.6374 15.6054 22.7428 14.3981 22.3804 13.3909C21.8345 13.5367 21.3128 13.821 20.8579 14.2209Z" fill="black"/>
<path d="M19.4583 19.1634C19.4451 19.1634 19.4318 19.162 19.4185 19.1591C18.2153 18.8979 17.1228 18.0264 16.4959 16.828C16.2931 16.4402 16.1441 16.0309 16.0531 15.6116C16.0448 15.5735 16.0486 15.5339 16.0639 15.4981C16.3533 14.8218 16.5001 14.1027 16.5001 13.3607C16.5001 13.3305 16.4993 13.3005 16.4987 13.2706L16.498 13.2423C16.4968 13.1824 16.5242 13.1255 16.5719 13.0891C16.6196 13.0529 16.6816 13.0415 16.7391 13.0586C17.3406 13.2383 17.9162 13.5732 18.4038 14.027C18.4585 14.0779 18.4777 14.1563 18.4528 14.2267C18.2881 14.6928 18.2046 15.1884 18.2046 15.6996C18.2046 16.9423 18.7182 18.1133 19.5785 18.832C19.6447 18.8874 19.6646 18.9808 19.6266 19.0583C19.5948 19.1236 19.5288 19.1634 19.4583 19.1634ZM16.4325 15.5894C16.5173 15.9559 16.6503 16.3138 16.8283 16.6542C17.2771 17.5123 17.9824 18.1872 18.7904 18.556C18.1798 17.7853 17.8296 16.7654 17.8296 15.6995C17.8296 15.1888 17.9068 14.692 18.0591 14.2207C17.7011 13.9063 17.2967 13.6608 16.8735 13.4999C16.8567 14.2232 16.7085 14.9252 16.4325 15.5894Z" fill="black"/>
<path d="M11.0627 19.1732C11.0148 19.1736 10.9703 19.1727 10.924 19.1716C9.40689 19.1363 7.98245 18.515 6.91309 17.4221C5.84397 16.3293 5.25334 14.8917 5.25001 13.3738C5.24575 11.4274 6.20922 9.61702 7.82739 8.53106C8.73241 7.92366 9.46872 6.55055 9.46872 5.47018V2.67067C9.46872 1.77709 10.2083 1.05259 11.1071 1.07753C11.9613 1.10097 12.6562 1.82875 12.6562 2.69992V5.46394C12.6562 6.5295 13.4075 7.93383 14.2968 8.53055C15.8694 9.5857 16.8324 11.3441 16.8728 13.2343L16.8735 13.2618C16.8743 13.2947 16.875 13.3276 16.875 13.3607C16.875 14.1537 16.718 14.9225 16.4086 15.6456C15.4915 17.7885 13.3931 19.1732 11.0627 19.1732ZM11.0625 1.45192C10.3904 1.45192 9.84372 1.99867 9.84372 2.67067V5.47018C9.84372 6.6608 9.03292 8.1736 8.03636 8.84241C6.52244 9.85842 5.62098 11.5521 5.62501 13.373C5.63144 16.2957 8.01245 18.7288 10.9328 18.7967C10.976 18.7977 11.0194 18.7982 11.0625 18.7982C13.2427 18.7983 15.2059 17.5029 16.0638 15.4981C16.3532 14.8218 16.5 14.1027 16.5 13.3607C16.5 13.3305 16.4993 13.3005 16.4986 13.2705L16.498 13.2423C16.4601 11.4741 15.5592 9.82908 14.088 8.84194C13.0917 8.17355 12.2812 6.65818 12.2812 5.46399V2.69992C12.2812 2.02993 11.7499 1.47029 11.0969 1.45239C11.0854 1.45211 11.0739 1.45192 11.0625 1.45192Z" fill="black"/>
<path d="M8.71569 12.6109C8.6211 12.6109 8.53982 12.5396 8.5295 12.4434C8.42718 11.4895 8.82238 10.5843 9.67227 9.82553C10.3016 9.26374 10.9525 8.98155 10.9798 8.96983C11.0751 8.92895 11.1852 8.97316 11.226 9.06836C11.2668 9.16356 11.2227 9.27377 11.1275 9.31455C11.0964 9.328 8.68663 10.3921 8.90235 12.4034C8.91341 12.5064 8.83888 12.5988 8.73594 12.6099C8.72914 12.6106 8.72239 12.6109 8.71569 12.6109Z" fill="black"/>
<path d="M13.3917 12.6108C13.385 12.6108 13.3783 12.6104 13.3715 12.6097C13.2686 12.5987 13.194 12.5062 13.205 12.4033C13.3779 10.7919 11.8654 9.78843 11.2412 9.44624V11.9546C11.2412 12.0581 11.1573 12.1421 11.0537 12.1421C10.9502 12.1421 10.8662 12.0581 10.8662 11.9546V9.14207C10.8662 9.07907 10.8979 9.02024 10.9505 8.98556C11.0031 8.95087 11.0696 8.94492 11.1275 8.96976C11.1549 8.98148 11.8058 9.26366 12.4351 9.82546C13.2851 10.5842 13.6803 11.4895 13.5779 12.4433C13.5676 12.5395 13.4863 12.6108 13.3917 12.6108Z" fill="black"/>
<path d="M11.0626 17.2982C11.0615 17.2982 11.0604 17.2982 11.0594 17.2981C8.1518 17.2489 7.66448 15.2067 7.59633 14.7977C7.57931 14.6956 7.64831 14.599 7.75045 14.582C7.8525 14.5648 7.9492 14.6339 7.96627 14.7361C8.02584 15.0935 8.45531 16.8789 11.0657 16.9232C11.1692 16.9249 11.2518 17.0103 11.25 17.1138C11.2483 17.2163 11.1647 17.2982 11.0626 17.2982Z" fill="black"/>
<path d="M4.5 19.1733H2.15625C2.0527 19.1733 1.96875 19.0894 1.96875 18.9858V16.8765C1.96875 16.1269 2.57855 15.5171 3.32812 15.5171C4.0777 15.5171 4.6875 16.1269 4.6875 16.8765V18.9858C4.6875 19.0894 4.60355 19.1733 4.5 19.1733ZM2.34375 18.7983H4.3125V16.8765C4.3125 16.3337 3.87094 15.8921 3.32812 15.8921C2.78531 15.8921 2.34375 16.3337 2.34375 16.8765V18.7983Z" fill="black"/>
<path d="M3.5625 8.39209C2.94216 8.39209 2.4375 7.88743 2.4375 7.26709C2.4375 6.64675 2.94216 6.14209 3.5625 6.14209C4.18284 6.14209 4.6875 6.64675 4.6875 7.26709C4.6875 7.88743 4.18284 8.39209 3.5625 8.39209ZM3.5625 6.51709C3.14897 6.51709 2.8125 6.85356 2.8125 7.26709C2.8125 7.68062 3.14897 8.01709 3.5625 8.01709C3.97603 8.01709 4.3125 7.68062 4.3125 7.26709C4.3125 6.85356 3.97603 6.51709 3.5625 6.51709Z" fill="black"/>
<path d="M19.0312 6.51708C18.1524 6.51708 17.4375 5.80215 17.4375 4.92334C17.4375 4.04453 18.1524 3.32959 19.0312 3.32959C19.9101 3.32959 20.625 4.04453 20.625 4.92334C20.625 5.80215 19.9101 6.51708 19.0312 6.51708ZM19.0312 3.70459C18.3592 3.70459 17.8125 4.25134 17.8125 4.92334C17.8125 5.59533 18.3592 6.14208 19.0312 6.14208C19.7033 6.14208 20.25 5.59533 20.25 4.92334C20.25 4.25134 19.7033 3.70459 19.0312 3.70459Z" fill="black"/>
<path d="M12.4688 3.79551C12.4492 3.79551 12.4291 3.79242 12.4095 3.78585L9.59701 2.84835C9.49876 2.81558 9.44569 2.70941 9.47841 2.61116C9.51122 2.51296 9.61735 2.45985 9.7156 2.49257L12.5281 3.43007C12.6263 3.46284 12.6795 3.56901 12.6467 3.66726C12.6205 3.74582 12.5473 3.79551 12.4688 3.79551Z" fill="black"/>
<path d="M12.4688 5.67074C12.4492 5.67074 12.4291 5.66764 12.4095 5.66108L9.59701 4.72358C9.49876 4.69081 9.44569 4.58464 9.47841 4.48639C9.51122 4.38814 9.61735 4.33513 9.7156 4.3678L12.5281 5.3053C12.6263 5.33807 12.6795 5.44424 12.6467 5.54249C12.6205 5.62105 12.5473 5.67074 12.4688 5.67074Z" fill="black"/>
</svg>
