<svg width="24" height="24" viewBox="0 0 24 24" fill="none" xmlns="http://www.w3.org/2000/svg">
<path d="M18.0816 21.5769H5.91864C4.42495 21.5769 3.14986 20.3913 2.81791 18.6936L2.02734 14.6538H21.9727L21.1823 18.6936C20.8501 20.3913 19.575 21.5769 18.0816 21.5769ZM2.58804 15.1153L3.27088 18.6048C3.56002 20.083 4.64874 21.1153 5.91864 21.1153H18.0816C19.3513 21.1153 20.44 20.083 20.7293 18.6048L21.412 15.1153H2.58804Z" fill="black"/>
<path d="M22.6155 14.6538H1.38477V15.1153H22.6155V14.6538Z" fill="black"/>
<path d="M18.2311 21.3462H17.7695V22.7308H18.2311V21.3462Z" fill="black"/>
<path d="M6.69201 21.3462H6.23047V22.7308H6.69201V21.3462Z" fill="black"/>
<path d="M21.9235 14.8847H21.4619V5.11574C21.4619 3.24931 19.9434 1.73083 18.077 1.73083C16.7931 1.73083 15.6359 2.44206 15.0567 3.58712C14.9684 3.762 14.8816 3.89812 14.7836 4.01553L14.448 4.41735L14.0938 4.12123L14.4293 3.71963C14.5041 3.62994 14.5726 3.52177 14.6448 3.37889C15.303 2.07766 16.6182 1.26929 18.077 1.26929C20.1979 1.26929 21.9235 2.99487 21.9235 5.11574V14.8847Z" fill="black"/>
<path d="M15.4569 9.65057L8.79883 5.4992L8.92097 5.30337C10.0656 3.46803 12.4907 2.90621 14.3258 4.04991C16.1614 5.19452 16.7234 7.61917 15.579 9.45473L15.4569 9.65057ZM9.44111 5.35587L15.303 9.01055C16.155 7.41905 15.6354 5.41041 14.0815 4.44159C12.5272 3.47254 10.4953 3.89035 9.44111 5.35587Z" fill="black"/>
<path d="M9.09736 7.774L8.53418 8.17627L8.80236 8.55172L9.36553 8.14945L9.09736 7.774Z" fill="black"/>
<path d="M7.8322 8.67727L7.13086 9.17822L7.39904 9.55367L8.10038 9.05272L7.8322 8.67727Z" fill="black"/>
<path d="M6.42964 9.67909L5.86621 10.0815L6.13439 10.457L6.69782 10.0545L6.42964 9.67909Z" fill="black"/>
<path d="M12.2244 9.27651L11.7764 9.38818L11.9438 10.06L12.3919 9.94831L12.2244 9.27651Z" fill="black"/>
<path d="M12.5877 10.7357L12.1396 10.8474L12.3359 11.6348L12.784 11.5231L12.5877 10.7357Z" fill="black"/>
<path d="M12.9802 12.3111L12.5322 12.4226L12.6994 13.0944L13.1474 12.9829L12.9802 12.3111Z" fill="black"/>
<path d="M10.4199 8.76247L10.0527 9.34937L10.444 9.59411L10.8111 9.00721L10.4199 8.76247Z" fill="black"/>
<path d="M9.52881 10.189L9.00391 11.0281L9.39513 11.2728L9.92004 10.4337L9.52881 10.189Z" fill="black"/>
<path d="M8.47952 11.8676L8.1123 12.4546L8.50353 12.6993L8.87074 12.1123L8.47952 11.8676Z" fill="black"/>
</svg>
