<svg width="24" height="24" viewBox="0 0 24 24" fill="none" xmlns="http://www.w3.org/2000/svg">
<path d="M7.95818 6.05424C8.25514 6.24728 8.59838 6.34926 8.95105 6.34926C9.20608 6.34926 9.46412 6.2943 9.69729 6.19067L9.88793 6.1056L9.88808 5.89699C9.88913 5.27504 9.57898 4.70132 9.05784 4.36272C8.54641 4.03041 7.87401 3.97904 7.31857 4.22659L7.12808 4.31166L7.12793 4.52027C7.12718 5.14206 7.43733 5.71563 7.95817 6.05423L7.95818 6.05424ZM8.70726 4.90262C8.98101 5.08052 9.16493 5.35906 9.22378 5.67339C8.91124 5.74678 8.57848 5.68927 8.30935 5.5145C8.0356 5.33629 7.85167 5.0579 7.79256 4.74357C8.1048 4.66989 8.43786 4.7277 8.70726 4.90261V4.90262Z" fill="#012768"/>
<path d="M10.2111 4.94272C10.2803 4.95649 10.3511 4.96368 10.4215 4.96368C10.7965 4.96368 11.1643 4.76601 11.4307 4.42139L11.5284 4.2953L11.4872 4.1412C11.3515 3.63384 11.0065 3.27783 10.5642 3.18858C10.128 3.10157 9.66147 3.3006 9.34471 3.71005L9.24707 3.8363L9.28825 3.99025C9.42379 4.49761 9.76898 4.85361 10.2111 4.94271L10.2111 4.94272ZM10.4369 3.8203C10.5921 3.8516 10.7245 3.97126 10.8082 4.15052C10.6625 4.2826 10.4943 4.3431 10.3382 4.31135C10.1832 4.28005 10.051 4.1607 9.96727 3.98144C10.1128 3.84935 10.2821 3.7887 10.4369 3.8203H10.4369Z" fill="#012768"/>
<path d="M12.8166 4.69517C12.9111 4.71165 13.0077 4.71988 13.1033 4.71988C13.5638 4.71988 14.008 4.52535 14.3223 4.18615L14.4639 4.03324L14.3822 3.84141C14.1604 3.31994 13.6949 2.95082 13.1373 2.8536C12.5863 2.75715 12.0109 2.95273 11.6319 3.36245L11.4902 3.5155L11.5719 3.70749C11.7935 4.22866 12.2589 4.59796 12.8166 4.69515L12.8166 4.69517ZM13.0269 3.488C13.2929 3.53442 13.5248 3.68208 13.6785 3.89637C13.4621 4.04493 13.1904 4.10618 12.927 4.0608C12.6607 4.01423 12.4289 3.86672 12.2753 3.65243C12.4916 3.50372 12.7632 3.44247 13.0269 3.488H13.0269Z" fill="#012768"/>
<path d="M14.1543 4.9127C13.6118 5.22479 13.268 5.78504 13.2349 6.41086L13.2236 6.61932L13.4092 6.71442C13.6687 6.84771 13.9601 6.91809 14.2516 6.91809C14.5714 6.91809 14.8882 6.83333 15.1666 6.67294C15.7096 6.361 16.0534 5.80091 16.0865 5.17478L16.0974 4.96631L15.9119 4.87122C15.3677 4.59192 14.6874 4.60645 14.1544 4.9127H14.1543ZM14.8458 6.11451C14.5641 6.27685 14.2201 6.31593 13.9104 6.22398C13.9868 5.90845 14.1885 5.63619 14.4759 5.47084C14.7577 5.3088 15.1015 5.26942 15.4112 5.36137C15.3347 5.6769 15.1331 5.94931 14.8458 6.11451Z" fill="#012768"/>
<path d="M16.0833 4.55722C16.1892 4.55722 16.2957 4.54793 16.4001 4.52966L16.6056 4.49387L16.6569 4.29185C16.8115 3.68427 16.6496 3.04721 16.2241 2.58793C15.8054 2.13597 15.165 1.92104 14.5584 2.02636L14.3529 2.06215L14.3015 2.26417C14.147 2.87175 14.3089 3.5088 14.7342 3.96794C15.0809 4.34233 15.5727 4.55692 16.0833 4.55723L16.0833 4.55722ZM14.8909 2.64301C15.2212 2.64736 15.5266 2.78274 15.7515 3.02564C15.9769 3.26885 16.0883 3.58902 16.0675 3.91297C15.7368 3.90863 15.4318 3.7734 15.2065 3.53034C14.9814 3.28698 14.8699 2.96666 14.8908 2.64301H14.8909Z" fill="#012768"/>
<path d="M20.8744 3.15969L16.8447 4.79609L17.0872 5.39271L21.1168 3.7563C21.3096 3.67812 21.4608 3.52897 21.5417 3.33684C21.623 3.14441 21.6248 2.93234 21.5456 2.73782C21.3837 2.33918 20.9275 2.14657 20.5287 2.30817L16.9235 3.77232L17.166 4.36894L20.7712 2.90478C20.8407 2.87707 20.9207 2.91017 20.9499 2.98145C20.978 3.05139 20.9443 3.13136 20.8747 3.15966L20.8744 3.15969Z" fill="#012768"/>
<path d="M11.226 4.99885C10.6356 5.19249 10.1883 5.66723 10.0299 6.26879L9.97656 6.47036L10.1389 6.60125C10.4633 6.86317 10.8708 7.0074 11.286 7.0074C11.4788 7.0074 11.6702 6.9767 11.8545 6.9162C12.4448 6.72271 12.8922 6.24812 13.0508 5.64626L13.1041 5.44484L12.9417 5.31395C12.4667 4.93072 11.8082 4.8085 11.226 4.99886V4.99885ZM11.6538 6.30444C11.3477 6.40508 11.0096 6.37318 10.7294 6.22357C10.867 5.93484 11.1162 5.71276 11.4267 5.61093C11.7332 5.51075 12.0712 5.54249 12.3516 5.6921C12.2135 5.98068 11.9643 6.20276 11.6539 6.30447L11.6538 6.30444Z" fill="#012768"/>
<path d="M21.9953 21.2294L21.5998 15.8537C21.6003 15.8449 21.6019 15.8365 21.6019 15.8275C21.6003 15.3471 20.9893 15.0961 20.3201 14.9646L21.1585 8.04615C21.1743 7.99898 21.1793 7.95016 21.1793 7.89924C21.1793 7.78453 21.1788 7.66442 20.9831 7.54672V6.14992C20.9831 5.59088 20.5285 5.13623 19.9691 5.13623C19.4098 5.13623 18.9551 5.59088 18.9551 6.14992V7.13367C18.5792 7.09608 18.1397 7.06028 17.6257 7.02674C17.6726 6.67915 17.6218 6.32017 17.4653 5.99131L17.3758 5.80307L17.1669 5.80786C16.5404 5.82208 15.9701 6.14915 15.6417 6.68242C15.355 7.14876 15.2952 7.71635 15.4679 8.23119C15.2313 8.23957 14.9897 8.24706 14.7392 8.2535C14.689 7.76274 14.4467 7.35467 14.0633 7.13603C13.5988 6.87066 13.0102 6.92173 12.4889 7.27261L12.3573 7.36216L12.3479 7.5212C12.3317 7.79796 12.3754 8.05881 12.4687 8.28708C12.3186 8.28768 12.1696 8.28857 12.0163 8.28857C11.958 8.28857 11.9025 8.28812 11.8448 8.28797L11.8122 8.15095C11.6904 7.64014 11.3551 7.27516 10.915 7.1741C10.4822 7.07466 10.0085 7.26306 9.68204 7.6623L9.58111 7.78554L9.6181 7.94069C9.6458 8.0569 9.68579 8.16413 9.73431 8.26402C9.21928 8.25279 8.7302 8.23841 8.27134 8.22089C8.69708 8.12534 9.08241 7.87959 9.34568 7.52092L9.46908 7.35304L9.3662 7.17168C9.05934 6.63047 8.50613 6.28543 7.88571 6.24874C7.26376 6.21175 6.67163 6.49479 6.30712 6.99092L6.27432 7.03555C5.81515 7.0667 5.41755 7.0995 5.07327 7.13394V6.15004C5.07327 5.591 4.61832 5.13635 4.05928 5.13635C3.50024 5.13635 3.04529 5.591 3.04529 6.15004V7.54921C2.8536 7.66618 2.85285 7.78553 2.85285 7.89935C2.85285 7.93888 2.85584 7.97692 2.86438 8.01406L3.43975 12.7357L3.24702 12.682C2.88326 12.5804 2.50737 12.7889 2.39025 13.1563L2.03188 14.2767C1.97587 14.452 1.99414 14.6392 2.08294 14.8037C2.17355 14.9719 2.33094 15.0974 2.51424 15.1483L3.77728 15.5004L3.84991 16.0969C3.85051 16.1008 3.85051 16.1044 3.85126 16.1083L4.09446 18.1047C4.31985 19.5719 9.33446 19.9644 12.0162 19.9644C12.9787 19.9644 13.9141 19.9253 14.8024 19.8509C14.9781 20.0241 15.1827 20.1633 15.4119 20.2676L15.3481 21.2127H15.3477C15.3354 21.3355 15.3552 21.5197 15.5179 21.6979C16.1352 22.3751 18.6037 22.3861 18.6754 22.3861H18.677C19.0173 22.384 22.003 22.3336 22 21.2295L21.9952 21.2292L21.9953 21.2294ZM18.6511 16.2168L18.6009 16.2169C17.3903 16.2169 16.6297 16.0019 16.395 15.8536C16.6321 15.6996 17.4087 15.4734 18.6498 15.4669L18.6999 15.4668C19.9105 15.4668 20.6712 15.6818 20.9058 15.8301C20.6689 15.984 19.8923 16.2103 18.6511 16.2168ZM6.48771 13.584L6.39755 12.6302C6.94371 12.7223 7.52583 12.7961 8.1157 12.855L8.17216 14.0534L6.48771 13.584ZM3.8911 11.0826H3.88765L3.79046 10.2844C5.45217 11.1459 9.58674 11.3991 12.0193 11.3991C14.4468 11.3991 18.5693 11.1469 20.2381 10.29L20.1421 11.0823H20.1228C20.1228 11.4768 17.3616 12.401 12.0071 12.401C6.65245 12.4011 3.89137 11.4771 3.89137 11.0826H3.8911ZM5.38792 8.69313C5.4309 9.17637 5.47657 9.67687 5.52314 10.1856C4.35565 9.92923 3.73116 9.63945 3.7105 9.43653L3.68714 9.43668L3.56568 8.43944C3.94247 8.53124 4.51692 8.61525 5.38791 8.69313L5.38792 8.69313ZM7.91897 8.85202C7.94802 9.40297 7.97723 9.97608 8.00598 10.5653C7.31966 10.4953 6.7094 10.4098 6.18179 10.3162C6.13237 9.77994 6.08475 9.25502 6.03922 8.74616C6.61341 8.78854 7.24506 8.82373 7.91896 8.85204L7.91897 8.85202ZM10.4677 10.7286C9.81907 10.7063 9.21406 10.6707 8.65352 10.625C8.62417 10.0243 8.59467 9.43919 8.56502 8.87659C9.1642 8.89725 9.79136 8.91208 10.437 8.92122C10.4473 9.50211 10.4575 10.1072 10.4677 10.7286L10.4677 10.7286ZM15.4673 8.87671C15.437 9.4392 15.4048 10.0246 15.3713 10.6259C14.8129 10.6715 14.2108 10.7067 13.5655 10.7289C13.5755 10.1074 13.5857 9.5024 13.5958 8.92104C14.2411 8.91191 14.8682 8.89693 15.4673 8.87672L15.4673 8.87671ZM20.4619 8.44061L20.3412 9.43651H20.3277C20.3071 9.63958 19.6805 9.93011 18.5092 10.1866C18.5561 9.67969 18.6013 9.1795 18.6445 8.69295C19.512 8.61568 20.0851 8.53211 20.4619 8.44061H20.4619ZM17.8509 10.3174C17.3211 10.4114 16.709 10.4968 16.0195 10.5669C16.0523 9.97726 16.0842 9.40369 16.1136 8.85228C16.7878 8.82367 17.4193 8.78848 17.9936 8.7464C17.948 9.25798 17.9 9.78286 17.8509 10.3174L17.8509 10.3174ZM19.7004 14.4529C19.7004 14.4925 19.5989 14.6441 19.1772 14.835C18.9654 14.8247 18.7949 14.8226 18.6995 14.8226L18.6458 14.8228C18.5716 14.8232 18.3552 14.8262 18.0718 14.8449L18.2933 12.5015C18.9925 12.3531 19.6001 12.1692 20.0375 11.942L19.7331 14.4528L19.7004 14.4529ZM8.82554 14.2351L8.76325 12.9132C9.35748 12.9611 9.94754 12.9944 10.5042 13.0157L10.531 14.7101L8.82554 14.2351ZM11.1784 14.8901L11.149 13.0348C11.4517 13.0417 11.7403 13.0451 12.007 13.0451C12.2797 13.0451 12.5748 13.0417 12.8848 13.0343L12.8487 15.3551L11.1784 14.8901ZM13.5292 13.0146C14.0774 12.9936 14.6572 12.9607 15.2414 12.9137L15.0846 15.6444C14.7737 15.6713 14.4547 15.6936 14.1305 15.7118L13.4904 15.5336L13.5292 13.0146ZM15.7808 15.5754C15.7649 15.5771 15.7491 15.579 15.7329 15.5805L15.8894 12.8557C16.489 12.7963 17.0807 12.7206 17.6348 12.6269L17.4188 14.9105C16.7512 15.002 16.0209 15.1903 15.7808 15.5754H15.7808ZM19.5993 6.1501C19.5993 5.94643 19.7651 5.78035 19.9692 5.78035C20.1733 5.78035 20.3391 5.94613 20.3391 6.1501V7.33136C20.1422 7.28913 19.8994 7.24735 19.5995 7.20766L19.5996 6.15008L19.5993 6.1501ZM16.1909 7.02033C16.3647 6.73774 16.643 6.5444 16.9609 6.47762C17.0445 6.79151 16.9972 7.1271 16.8233 7.40957C16.6514 7.68932 16.3713 7.884 16.0534 7.95186C15.9709 7.63782 16.0185 7.30073 16.1909 7.02037L16.1909 7.02033ZM17.3717 7.74679C17.3894 7.71848 17.4029 7.68853 17.4186 7.65948C18.6419 7.73586 19.4075 7.82451 19.8779 7.90074C19.2634 7.99629 18.2918 8.09078 17.0169 8.16252C17.1533 8.04271 17.275 7.90478 17.3717 7.74678L17.3717 7.74679ZM12.9912 7.72388C13.261 7.58805 13.5343 7.57621 13.7447 7.69572C13.9317 7.80235 14.0536 8.01006 14.0922 8.26899C13.8104 8.27438 13.519 8.27842 13.2217 8.28171C13.0905 8.14843 13.0071 7.95434 12.9912 7.72386L12.9912 7.72388ZM12.9514 8.92852C12.9414 9.51363 12.931 10.1219 12.9209 10.7463C12.6281 10.7521 12.3277 10.7553 12.0192 10.7553C11.7086 10.7553 11.4066 10.752 11.1121 10.7463C11.1018 10.1215 11.0914 9.51287 11.0814 8.92852C11.3899 8.93137 11.7018 8.93287 12.0162 8.93287C12.3307 8.93257 12.6426 8.93122 12.9514 8.92852H12.9514ZM10.2971 7.95015C10.4466 7.8224 10.6184 7.76654 10.7709 7.80203C10.9253 7.83753 11.0541 7.96063 11.1331 8.14183C11.0504 8.21297 10.9608 8.25879 10.8713 8.28231C10.7921 8.28141 10.7104 8.28096 10.6323 8.27976C10.4906 8.23648 10.3712 8.12057 10.2971 7.95015H10.2971ZM4.15275 7.90028C4.64006 7.8224 5.40187 7.73734 6.52401 7.66516C6.73847 7.90267 7.00906 8.08013 7.31262 8.17808C5.88948 8.1047 4.81361 8.00331 4.15275 7.90028V7.90028ZM7.84816 6.89211C8.17433 6.91143 8.47191 7.06253 8.67855 7.3065C8.44478 7.5232 8.13193 7.64076 7.80518 7.62054C7.47901 7.60137 7.18143 7.45027 6.97479 7.20645C7.20856 6.98961 7.52198 6.8725 7.84816 6.89212V6.89211ZM3.69005 6.15008C3.69005 5.94641 3.85598 5.78033 4.05995 5.78033C4.26392 5.78033 4.42985 5.94611 4.42985 6.15008V7.20813C4.13018 7.24811 3.88668 7.28944 3.6902 7.33198V6.1501L3.69005 6.15008ZM3.99361 11.951C4.43346 12.1762 5.04084 12.3586 5.73932 12.5057L5.82363 13.3993L4.11204 12.9226L3.99361 11.951ZM8.34801 17.7342C8.37167 18.2101 8.39518 18.6754 8.41884 19.1261C7.88407 19.0633 7.40485 18.9886 6.98298 18.9068C6.94254 18.4572 6.90076 17.9973 6.85763 17.5277C7.33371 17.6114 7.83793 17.6792 8.34801 17.7342L8.34801 17.7342ZM8.99599 17.797C9.5372 17.8434 10.0744 17.876 10.5824 17.897C10.5903 18.3752 10.5982 18.8417 10.6062 19.2924C10.0564 19.2707 9.54319 19.237 9.06726 19.1934C9.0436 18.7413 9.01979 18.275 8.99598 17.7969L8.99599 17.797ZM4.48786 16.009L4.44862 15.6873L9.98306 17.2297C6.54029 17.041 4.62651 16.3968 4.48773 16.009L4.48786 16.009ZM4.73616 18.0466L4.59209 16.8641C5.00541 17.0794 5.56161 17.2552 6.19882 17.3969C6.2418 17.8607 6.28344 18.3173 6.32357 18.7625C5.34864 18.5217 4.80758 18.2495 4.73616 18.0465L4.73616 18.0466ZM11.2513 19.3117C11.2432 18.8616 11.2351 18.3951 11.2272 17.9178C11.5018 17.9244 11.7639 17.9277 12.0063 17.9277C12.1639 17.9277 12.3198 17.926 12.4752 17.9241L12.806 18.0163C12.799 18.4589 12.7915 18.8923 12.7842 19.3116C12.5303 19.317 12.2745 19.32 12.0164 19.32C11.7543 19.32 11.4998 19.3171 11.2513 19.3117L11.2513 19.3117ZM13.4459 18.2715C13.8356 18.4954 14.1573 18.8291 14.3631 19.2383C14.0561 19.2601 13.745 19.278 13.4283 19.2909C13.4346 18.959 13.4404 18.6185 13.4459 18.2715L13.4459 18.2715ZM14.9471 18.9644C14.5748 18.2123 13.8988 17.6522 13.0927 17.4276L12.5723 17.2825V17.2791H12.5603L2.68679 14.5276C2.67137 14.5232 2.65744 14.5121 2.64951 14.4975C2.64441 14.488 2.64292 14.4795 2.64516 14.4723L3.00353 13.3519C3.01357 13.3207 3.04262 13.294 3.07392 13.3019L15.6452 16.8028L15.4595 19.5613C15.2437 19.416 15.072 19.2169 14.9468 18.9644L14.9471 18.9644ZM15.9908 21.2587L16.3018 16.644L16.3321 16.5357C16.6564 16.6663 17.062 16.7452 17.446 16.7918C17.4314 17.5539 17.4166 18.3556 17.4018 19.1602C17.3864 20.0089 17.3706 20.8547 17.3552 21.6538C16.6899 21.5669 16.0935 21.4224 15.9908 21.2587L15.9908 21.2587ZM18.6734 21.7417C18.4709 21.7447 18.2386 21.7363 17.998 21.7194C18.0138 20.9045 18.0297 20.0398 18.0456 19.1724C18.0601 18.3831 18.0747 17.5963 18.0892 16.8469C18.3168 16.8589 18.501 16.8611 18.6012 16.8611L18.6548 16.861C18.7282 16.8605 18.9404 16.8577 19.2188 16.8395C19.2394 17.5929 19.2598 18.3681 19.2803 19.1447C19.3031 20.0133 19.326 20.8807 19.3491 21.7155C19.1375 21.7303 18.9131 21.7399 18.6734 21.7417L18.6734 21.7417ZM19.9915 21.6478C19.9692 20.8288 19.9466 19.9791 19.9243 19.1277C19.9033 18.3355 19.8827 17.5442 19.8615 16.7764C20.2557 16.7231 20.6735 16.6368 21.0015 16.496L21.3485 21.215C21.2451 21.3453 20.7683 21.5353 19.9915 21.6478L19.9915 21.6478Z" fill="#012768"/>
</svg>
