<svg width="24" height="24" viewBox="0 0 24 24" fill="none" xmlns="http://www.w3.org/2000/svg">
<path d="M16.1511 14.5309C14.2067 14.5309 12.3705 13.6897 11.0968 12.2194L3.27494 11.8275L3.29838 11.3664L11.3194 11.7685L11.3843 11.8453C12.5724 13.2588 14.3099 14.0694 16.1511 14.0694C17.9189 14.0694 19.6095 13.3138 20.7904 11.9965C21.9871 10.6613 22.537 8.93523 22.3395 7.1364C22.0267 4.28987 19.7344 1.98556 16.8881 1.65766C15.5972 1.5096 14.3176 1.75389 13.1922 2.36619C11.5267 3.27169 9.654 3.85425 7.62575 4.09764L2.78546 4.67772L2.73047 4.21933L7.57076 3.63926C9.54087 3.40308 11.3577 2.83832 12.9713 1.96054C14.1806 1.30272 15.5526 1.03882 16.9413 1.19928C19.9989 1.55151 22.4621 4.02733 22.7984 7.08592C23.0107 9.01703 22.4193 10.8702 21.1339 12.3046C19.866 13.7194 18.05 14.5309 16.1511 14.5309Z" fill="black"/>
<path d="M14.7366 20.5703C13.8888 20.5703 13.0937 20.1996 12.5479 19.5476C11.9962 18.8882 11.7753 18.0282 11.9421 17.1881C12.1215 16.2832 12.1711 15.048 12.1075 13.0583L12.569 13.0435C12.6335 15.0704 12.5817 16.3367 12.3946 17.2778C12.2553 17.9804 12.4401 18.6998 12.9021 19.2512C13.3691 19.809 14.0677 20.1254 14.7821 20.1083C15.7574 20.0903 16.6368 19.4707 16.9703 18.5668C17.2967 17.6814 17.3525 17.1806 17.4661 14.1031L17.9277 14.1202C17.8181 17.0801 17.765 17.7456 17.403 18.7264C17.0046 19.8074 15.9549 20.5482 14.7906 20.5698C14.7731 20.5701 14.7546 20.5703 14.7366 20.5703Z" fill="black"/>
<path d="M3.23118 11.8298C2.73088 11.8298 2.24951 11.4476 1.86775 10.7445C1.49861 10.0636 1.25477 9.14552 1.18175 8.15912C1.024 6.02563 1.70909 4.29486 2.74079 4.21846C3.27129 4.17992 3.77655 4.56439 4.17679 5.30109C4.54593 5.98191 4.78977 6.90003 4.86279 7.88643C5.02054 10.0199 4.33544 11.7507 3.30374 11.8271C3.27941 11.8289 3.25507 11.8298 3.23118 11.8298ZM2.81156 4.67729C2.79939 4.67729 2.78722 4.67775 2.77505 4.67865C2.12195 4.7271 1.49635 6.15431 1.64239 8.12486C1.71044 9.04771 1.9349 9.8998 2.27385 10.5243C2.57763 11.0841 2.94272 11.3912 3.26949 11.3669C3.92258 11.3184 4.54818 9.89124 4.40215 7.92068C4.33409 6.99783 4.10963 6.14574 3.77069 5.52127C3.47817 4.98198 3.13067 4.67729 2.81156 4.67729Z" fill="black"/>
<path d="M22.621 22.8461H17.0433C16.3749 22.8461 15.7475 22.5847 15.2765 22.1098C14.8059 21.6352 14.5499 21.0056 14.5558 20.3372L15.0173 20.3412C15.0128 20.8855 15.221 21.3982 15.6046 21.7849C15.9877 22.1716 16.4988 22.3846 17.0433 22.3846H22.621V22.8461V22.8461Z" fill="black"/>
<path d="M12.357 15.4536H10.8457V11.9939H11.3072V14.9921H12.357V15.4536Z" fill="black"/>
<path d="M14.9986 15.6836H14.5371V18.4519H14.9986V15.6836Z" fill="black"/>
<path d="M16.1511 16.8369H13.3828V17.2985H16.1511V16.8369Z" fill="black"/>
<path d="M18.2508 5.43255L15.9443 10.0454L16.3572 10.2518L18.6636 5.63898L18.2508 5.43255Z" fill="black"/>
<path d="M15.9451 4.97137L13.6387 9.58423L14.0515 9.79066L16.358 5.1778L15.9451 4.97137Z" fill="black"/>
<path d="M13.1766 4.97094L10.8701 9.58398L11.283 9.79041L13.5895 5.17737L13.1766 4.97094Z" fill="black"/>
</svg>
