<svg width="24" height="24" viewBox="0 0 24 24" fill="none" xmlns="http://www.w3.org/2000/svg">
<path d="M12 18.3172C11.3379 19.5586 9.6 19.8069 7.61379 19.7241C5.13103 19.6414 2.48276 19.0621 0 19.4759C0.910345 17.5724 1.82069 16.4138 3.88966 16C1.90345 13.6828 2.73103 11.2828 1.65517 9.21379C2.73103 9.21379 3.88966 9.21379 4.88276 9.54483C4.88276 8.38621 5.04828 7.22759 5.29655 6.15172C5.7931 6.64828 6.28966 7.06207 6.78621 7.47586C7.11724 6.4 7.53103 5.65517 8.35862 4.91034C8.93793 5.24138 9.43448 5.65517 9.84828 6.15172C10.3448 5.32414 11.2552 4.66207 12 4C12.7448 4.66207 13.6552 5.32414 14.1517 6.15172C14.5655 5.65517 15.0621 5.24138 15.6414 4.91034C16.3862 5.65517 16.8828 6.4 17.2138 7.3931C17.4621 7.22759 17.7103 6.97931 17.8759 6.89655C18.1241 6.73103 18.2897 6.56552 18.3724 6.48276L18.7034 6.15172L18.7862 6.64828C19.0345 7.72414 19.1172 8.63448 19.1172 9.54483C20.1103 9.21379 21.269 9.21379 22.3448 9.21379C21.1034 11.2828 22.2621 13.5172 20.1103 16C22.1793 16.4138 23.0897 17.5724 24 19.4759C21.3517 18.9793 19.0345 19.6414 16.3862 19.7241C14.4 19.8069 12.6621 19.5586 12 18.3172ZM14.8966 10.5379C14.2345 9.13103 13.2414 8.22069 12 7.22759C10.7586 8.22069 9.76552 9.13103 9.10345 10.5379C10.3448 11.3655 11.3379 12.5241 12 13.8483C12.6621 12.5241 13.6552 11.3655 14.8966 10.5379ZM15.3931 10.2069C15.8897 9.87586 16.469 9.62759 17.0483 9.37931C17.7103 9.71034 18.2069 10.1241 18.5379 10.5379C18.6207 9.37931 18.5379 8.30345 18.3724 7.22759L18.2069 7.31034C17.4621 7.8069 16.1379 8.8 15.3103 10.0414L15.3931 10.2069ZM19.0345 11.2828C20.0276 13.4345 18.2069 16.0828 16.3862 17.2414C17.0483 17.1586 17.6276 17.0759 18.2069 16.8276C21.269 15.4207 20.9379 12.1931 21.4345 9.7931C20.6897 9.7931 19.8621 9.87586 19.1172 10.1241C19.1172 10.4552 19.0345 10.869 19.0345 11.2828ZM15.4759 17.7379C14.5655 18.069 13.5724 18.2345 12.5793 18.1517C13.1586 19.0621 14.6483 19.2276 16.3862 19.2276C18.5379 19.2276 20.8552 18.6483 23.0069 18.8138C22.0966 17.1586 20.9379 16.6621 19.6138 16.4966C18.5379 17.4897 17.131 17.9034 15.4759 17.7379ZM11.5034 17.5724C11.3379 16.5793 11.4207 15.5862 11.669 14.5931C10.9241 12.4414 9.02069 10.9517 6.95172 9.95862C2.73103 12.4414 7.36552 18.3172 11.5034 17.5724ZM12 17.4897C16.3034 18.731 21.4345 12.5241 17.0483 9.95862C14.2345 11.2828 11.3379 14.0966 12 17.4897ZM11.4207 18.1517C10.4276 18.2345 9.43448 18.069 8.52414 17.7379C6.95172 17.9034 5.46207 17.4897 4.38621 16.4966C3.06207 16.6621 1.90345 17.1586 0.993103 18.8138C3.06207 18.6483 5.46207 19.1448 7.61379 19.2276C8.77241 19.2276 10.6759 19.2276 11.4207 18.1517ZM7.61379 17.2414C5.7931 16 3.97241 13.5172 4.96552 11.2828C4.96552 10.869 4.88276 10.4552 4.88276 10.1241C4.13793 9.87586 3.31034 9.7931 2.56552 9.7931C3.06207 12.2759 2.81379 15.4207 5.7931 16.8276C6.37241 17.0759 6.95172 17.1586 7.61379 17.2414ZM5.46207 10.5379C5.87586 10.0414 6.37241 9.71034 6.95172 9.37931C7.53103 9.62759 8.02759 9.87586 8.6069 10.2069L8.68966 10.0414C7.94483 8.88276 6.78621 8.05517 5.62759 7.22759C5.46207 8.30345 5.37931 9.37931 5.46207 10.5379ZM9.02069 9.54483C9.35172 8.96552 9.76552 8.46897 10.2621 8.05517C9.93103 7.06207 9.26897 6.23448 8.44138 5.57241C7.86207 6.31724 7.44828 6.97931 7.28276 7.88966C7.94483 8.38621 8.52414 8.88276 9.02069 9.54483ZM10.6759 7.64138C11.0897 7.22759 11.5034 6.89655 12 6.56552C12.4966 6.89655 12.9103 7.22759 13.3241 7.64138C13.4897 7.22759 13.6552 6.89655 13.8207 6.64828C13.4069 5.90345 12.6621 5.24138 12 4.74483C11.3379 5.24138 10.5931 5.90345 10.1793 6.64828C10.3448 6.89655 10.5103 7.22759 10.6759 7.64138ZM13.7379 8.05517C14.2345 8.46897 14.6483 8.96552 14.9793 9.54483C15.4759 8.88276 16.1379 8.30345 16.7172 7.8069C16.469 6.97931 16.1379 6.23448 15.5586 5.57241C14.731 6.23448 14.069 7.06207 13.7379 8.05517Z" fill="black"/>
</svg>
