<svg width="24" height="24" viewBox="0 0 24 24" fill="none" xmlns="http://www.w3.org/2000/svg">
<path d="M8.60757 13.5776C8.98884 13.3068 9.20488 12.8596 9.17977 12.3925C9.16903 11.8734 9.00833 11.3684 8.71686 10.9388C8.05711 9.93225 6.97529 9.51532 6.25401 9.98515C5.53273 10.455 5.48513 11.6167 6.14562 12.6241H6.14546C6.42197 13.0633 6.82061 13.4125 7.29246 13.6289C7.49731 13.7199 7.71849 13.7685 7.94268 13.7719C8.17868 13.7743 8.40997 13.7067 8.60758 13.5776L8.60757 13.5776ZM7.54827 13.0306C7.19496 12.8639 6.89684 12.5994 6.68913 12.2685C6.24437 11.5898 6.20792 10.7949 6.61022 10.5305C6.70425 10.4712 6.8137 10.441 6.92497 10.4437C7.45061 10.5184 7.9117 10.8332 8.17232 11.2959C8.39349 11.6185 8.51806 11.9973 8.53121 12.3883C8.54784 12.6358 8.44428 12.8761 8.25304 13.0342C8.03157 13.1478 7.7685 13.1465 7.54825 13.0307L7.54827 13.0306ZM14.8183 12.3925H14.8182C14.7931 12.8596 15.0091 13.3068 15.3904 13.5776C15.588 13.7067 15.8193 13.7743 16.0553 13.7718C16.2795 13.7685 16.5007 13.7198 16.7055 13.6288C17.1772 13.4129 17.5757 13.0645 17.8525 12.6258C18.5131 11.6185 18.4645 10.4585 17.7441 9.98679C17.0238 9.51509 15.9409 9.93221 15.2813 10.9404H15.2811C14.9896 11.3695 14.8288 11.8739 14.8182 12.3925L14.8183 12.3925ZM15.8249 11.2959H15.8247C16.0855 10.8326 16.5468 10.5171 17.073 10.442C17.1843 10.4393 17.2937 10.4695 17.3878 10.5286C17.7901 10.7887 17.7536 11.5879 17.3089 12.2667V12.2669C17.1011 12.5977 16.803 12.8622 16.4497 13.0288C16.3105 13.1221 16.14 13.1566 15.9753 13.125C15.8107 13.0934 15.6651 12.998 15.5702 12.8598C15.4754 12.7216 15.4388 12.5516 15.4684 12.3865C15.4813 11.9966 15.6049 11.6184 15.8247 11.2959L15.8249 11.2959ZM13.3976 10.9318H13.3974C13.4806 10.9539 13.5661 10.9651 13.6523 10.9648C14.3736 10.9648 15.1097 10.1966 15.4043 9.08095C15.5528 8.55743 15.5638 8.00443 15.4364 7.47545C15.3951 7.24688 15.2928 7.03372 15.1401 6.85863C14.9874 6.68357 14.7902 6.5531 14.5694 6.48114C13.7745 6.26435 12.8928 7.08798 12.5625 8.332V8.33185C12.4141 8.85521 12.403 9.40779 12.5305 9.9366C12.5714 10.165 12.6735 10.378 12.8256 10.5533C12.9778 10.7283 13.1745 10.8593 13.3947 10.9318L13.3976 10.9318ZM13.1938 8.49758C13.4236 7.63074 13.9429 7.09844 14.3155 7.09844L14.3154 7.09829C14.3445 7.09859 14.3737 7.10207 14.4021 7.10872C14.5755 7.15559 14.7246 7.35151 14.8052 7.64617V7.64632C14.9016 8.06492 14.8906 8.50124 14.7731 8.91457C14.5243 9.85521 13.933 10.4022 13.5595 10.3016C13.3861 10.2548 13.237 10.0597 13.1564 9.76418H13.1563C13.0611 9.34574 13.073 8.91019 13.1911 8.4976L13.1938 8.49758ZM18.3674 18.3467L18.3673 18.3466C20.0532 16.6605 21.0002 14.3739 21 11.9895C20.9998 9.60506 20.0524 7.31819 18.3663 5.63274C16.6803 3.94683 14.3936 2.99985 12.0092 3C9.62482 3.00015 7.33794 3.94741 5.65211 5.63352C5.65211 5.63352 5.64258 5.63352 5.6391 5.63866C5.63563 5.6438 5.6391 5.64818 5.63306 5.65166V5.65181C3.94726 7.33761 3 9.62413 3 12.0081C2.99985 14.3923 3.94699 16.6786 5.63259 18.3649C7.31839 20.0508 9.60491 20.9979 11.9889 20.9979C14.373 20.9981 16.6594 20.0511 18.3456 18.3653C18.3456 18.3653 18.3552 18.3653 18.3587 18.3602C18.362 18.3549 18.3612 18.3505 18.3647 18.347L18.3674 18.3467ZM20.343 11.9989C20.3422 14.0983 19.5461 16.1194 18.115 17.6555L15.9087 15.4483C15.6858 15.0746 15.4012 14.7412 15.0669 14.4626C14.7901 14.2425 14.5532 13.9766 14.3665 13.6764C14.2799 13.4909 14.2096 13.3019 14.1411 13.1164C13.842 12.3137 13.5039 11.4043 11.9989 11.4043C11.9529 11.4043 11.9183 11.4129 11.8749 11.4148L11.0947 10.6345V10.6344C11.2764 10.4385 11.4058 10.2 11.471 9.94093C11.598 9.41045 11.5859 8.85625 11.4354 8.3318C11.1051 7.08337 10.2218 6.2634 9.42857 6.48095V6.4811C9.2077 6.55306 9.01056 6.68352 8.85788 6.85859C8.70519 7.03365 8.60285 7.2468 8.56157 7.47541C8.51607 7.65561 8.48961 7.84005 8.48266 8.02586L6.34227 5.88292C7.936 4.40182 10.046 3.60318 12.221 3.65759C14.396 3.71186 16.4635 4.61499 17.981 6.1738C19.4988 7.73258 20.3466 9.82339 20.343 11.9991L20.343 11.9989ZM15.1129 16.6802C14.8111 17.0115 14.4844 16.9291 13.7718 16.7071C13.2018 16.5041 12.6036 16.3918 11.9989 16.3742C11.3942 16.3918 10.796 16.5041 10.226 16.7071C9.51339 16.9291 9.18578 17.0124 8.88584 16.6802C8.30412 16.0379 8.57109 15.6755 9.3705 14.9464H9.37035C9.71323 14.6726 10.0015 14.3368 10.22 13.9563C10.3145 13.7552 10.3934 13.5489 10.4662 13.3495C10.7167 12.6767 10.8945 12.2034 11.6228 12.089L15.3886 15.8548C15.4804 16.1089 15.4016 16.3594 15.1129 16.6802H15.1129ZM12.5988 12.1374C12.9551 12.2566 13.2348 12.5361 13.3539 12.8924L12.5988 12.1374ZM9.19093 7.64614C9.27151 7.35135 9.418 7.15541 9.59397 7.1087L9.59412 7.10855C9.62254 7.10189 9.65157 7.09842 9.68074 7.09812C10.0535 7.09812 10.5729 7.62949 10.8025 8.49725L10.8026 8.4974C10.9207 8.91058 10.9322 9.34686 10.8363 9.76565C10.7996 9.91547 10.7281 10.0544 10.6274 10.1714L9.19967 8.73929C9.11531 8.38009 9.11244 8.00651 9.1909 7.64612L9.19093 7.64614ZM3.65468 11.9989C3.65543 9.8995 4.45154 7.87835 5.88272 6.34229L8.59001 9.0514C8.59001 9.06183 8.59001 9.07226 8.59606 9.08254C8.89086 10.1982 9.6268 10.9664 10.3481 10.9664H10.3482C10.3945 10.9633 10.4404 10.9573 10.4859 10.9482L11.0928 11.5551H11.0929C10.4622 11.8567 10.006 12.4325 9.85662 13.1155C9.78814 13.301 9.71784 13.49 9.63121 13.6755C9.44451 13.9757 9.20763 14.2418 8.9308 14.4617C8.29358 15.0461 7.33041 15.9286 8.40364 17.1145V17.1146C8.63963 17.3958 8.9902 17.5551 9.35729 17.548C9.72056 17.5252 10.0787 17.4496 10.4202 17.3235C10.9277 17.1429 11.4603 17.0428 11.9988 17.0271C12.5382 17.0451 13.0716 17.1477 13.5792 17.3312C14.3109 17.5592 15.0018 17.7734 15.5947 17.1197C15.7725 16.9293 15.9078 16.7032 15.9919 16.4565L17.6554 18.1193C16.0613 19.6007 13.9508 20.3994 11.7755 20.3447C9.60006 20.2898 7.53228 19.386 6.01479 17.8263C4.49727 16.2666 3.65021 14.1751 3.65489 11.9991L3.65468 11.9989Z" fill="#012768"/>
</svg>
