<svg width="24" height="24" viewBox="0 0 24 24" fill="none" xmlns="http://www.w3.org/2000/svg">
<path d="M18.7969 22.9688H4.73438C2.91197 22.9688 1.73438 21.9752 1.73438 20.4375C1.73438 20.334 1.81833 20.25 1.92188 20.25H21.6094C21.7129 20.25 21.7969 20.334 21.7969 20.4375C21.7969 21.9752 20.6193 22.9688 18.7969 22.9688ZM2.11589 20.625C2.21864 22.0721 3.51656 22.5938 4.73438 22.5938H18.7969C20.0146 22.5938 21.3126 22.0721 21.4153 20.625H2.11589Z" fill="black"/>
<path d="M15.5156 20.625H8.01562C7.91208 20.625 7.82812 20.541 7.82812 20.4375V7.3125C7.82812 7.20895 7.91208 7.125 8.01562 7.125H10.3594C10.4629 7.125 10.5469 7.20895 10.5469 7.3125V9.1875C10.5469 9.60103 10.8833 9.9375 11.2969 9.9375C11.7104 9.9375 12.0469 9.60103 12.0469 9.1875C12.0469 9.08395 12.1308 9 12.2344 9C12.3379 9 12.4219 9.08395 12.4219 9.1875V10.5938C12.4219 11.0073 12.7583 11.3438 13.1719 11.3438C13.5854 11.3438 13.9219 11.0073 13.9219 10.5938C13.9219 10.4902 14.0058 10.4062 14.1094 10.4062C14.2129 10.4062 14.2969 10.4902 14.2969 10.5938V12C14.2969 12.4135 14.6333 12.75 15.0469 12.75C15.1778 12.75 15.3074 12.715 15.4216 12.6488C15.4796 12.6153 15.5512 12.6151 15.6093 12.6486C15.6673 12.6821 15.7031 12.744 15.7031 12.8111V20.4375C15.7031 20.541 15.6192 20.625 15.5156 20.625ZM8.20312 20.25H15.3281V13.0889C15.2365 13.1128 15.1419 13.125 15.0469 13.125C14.4266 13.125 13.9219 12.6203 13.9219 12V11.4316C13.7227 11.6101 13.4597 11.7188 13.1719 11.7188C12.5516 11.7188 12.0469 11.214 12.0469 10.5938V10.0253C11.8477 10.2038 11.5847 10.3125 11.2969 10.3125C10.6766 10.3125 10.1719 9.8078 10.1719 9.1875V7.5H8.20312V20.25Z" fill="black"/>
<path d="M15.0469 13.125C14.4266 13.125 13.9219 12.6203 13.9219 12V7.3125C13.9219 7.20895 14.0058 7.125 14.1094 7.125H15.9844C16.0879 7.125 16.1719 7.20895 16.1719 7.3125V12C16.1719 12.3994 15.9564 12.7724 15.6096 12.9733C15.4383 13.0725 15.2437 13.125 15.0469 13.125ZM14.2969 7.5V12C14.2969 12.4135 14.6333 12.75 15.0469 12.75C15.1778 12.75 15.3074 12.715 15.4216 12.6488C15.6531 12.5147 15.7969 12.2662 15.7969 12V7.5H14.2969Z" fill="black"/>
<path d="M13.1719 11.7188C12.5516 11.7188 12.0469 11.2141 12.0469 10.5938V7.3125C12.0469 7.20895 12.1308 7.125 12.2344 7.125H14.1094C14.2129 7.125 14.2969 7.20895 14.2969 7.3125V10.5938C14.2969 11.2141 13.7922 11.7188 13.1719 11.7188ZM12.4219 7.5V10.5938C12.4219 11.0073 12.7583 11.3438 13.1719 11.3438C13.5854 11.3438 13.9219 11.0073 13.9219 10.5938V7.5H12.4219Z" fill="black"/>
<path d="M11.2969 10.3125C10.6766 10.3125 10.1719 9.8078 10.1719 9.1875V7.3125C10.1719 7.20895 10.2558 7.125 10.3594 7.125H12.2344C12.3379 7.125 12.4219 7.20895 12.4219 7.3125V9.1875C12.4219 9.8078 11.9172 10.3125 11.2969 10.3125ZM10.5469 7.5V9.1875C10.5469 9.60103 10.8833 9.9375 11.2969 9.9375C11.7104 9.9375 12.0469 9.60103 12.0469 9.1875V7.5H10.5469Z" fill="black"/>
<path d="M12.1399 6.03563C11.0547 6.03563 10.1719 5.15218 10.1719 4.06627C10.1719 3.40346 10.73 2.71819 11.2698 2.05552C11.5234 1.74417 11.7856 1.42223 11.9741 1.11961C12.0083 1.06467 12.0685 1.03125 12.1332 1.03125H12.1333C12.198 1.03125 12.2581 1.06463 12.2924 1.11952C12.4868 1.43109 12.7552 1.75655 13.0148 2.07127C13.5529 2.72344 14.1093 3.39783 14.1093 4.06627C14.1092 5.15223 13.2258 6.03563 12.1399 6.03563ZM12.1334 1.55639C11.9597 1.80234 11.7576 2.0505 11.5605 2.29238C11.0622 2.90424 10.5469 3.53686 10.5469 4.06632C10.5469 4.94546 11.2615 5.66068 12.1399 5.66068C13.019 5.66068 13.7342 4.94546 13.7342 4.06632C13.7342 3.5326 13.2215 2.91103 12.7255 2.31C12.522 2.0632 12.3131 1.80999 12.1334 1.55639Z" fill="black"/>
<path d="M12.1397 7.5C12.0361 7.5 11.9521 7.41605 11.9521 7.3125V4.5C11.9521 4.39645 12.0361 4.3125 12.1397 4.3125C12.2432 4.3125 12.3272 4.39645 12.3272 4.5V7.3125C12.3272 7.41605 12.2432 7.5 12.1397 7.5Z" fill="black"/>
<path d="M4.5 10.3125C3.75042 10.3125 3.14062 9.7027 3.14062 8.95312C3.14062 8.20355 3.75042 7.59375 4.5 7.59375C5.24958 7.59375 5.85938 8.20355 5.85938 8.95312C5.85938 9.7027 5.24958 10.3125 4.5 10.3125ZM4.5 7.96875C3.95719 7.96875 3.51562 8.41031 3.51562 8.95312C3.51562 9.49594 3.95719 9.9375 4.5 9.9375C5.04281 9.9375 5.48438 9.49594 5.48438 8.95312C5.48438 8.41031 5.04281 7.96875 4.5 7.96875Z" fill="black"/>
<path d="M20.2031 6.5625C19.0658 6.5625 18.1406 5.63728 18.1406 4.5C18.1406 3.36272 19.0658 2.4375 20.2031 2.4375C21.3404 2.4375 22.2656 3.36272 22.2656 4.5C22.2656 5.63728 21.3404 6.5625 20.2031 6.5625ZM20.2031 2.8125C19.2726 2.8125 18.5156 3.56948 18.5156 4.5C18.5156 5.43052 19.2726 6.1875 20.2031 6.1875C21.1336 6.1875 21.8906 5.43052 21.8906 4.5C21.8906 3.56948 21.1336 2.8125 20.2031 2.8125Z" fill="black"/>
</svg>
