<svg width="24" height="24" viewBox="0 0 24 24" fill="none" xmlns="http://www.w3.org/2000/svg">
<path d="M9.90283 20.087C8.96199 19.5303 8.29006 18.551 8.25163 17.3991C8.19404 15.2487 9.69163 14.1927 10.5749 12.7527C11.8421 10.6791 11.4965 9.39269 11.4965 9.39269C11.4965 9.39269 12.5525 9.98786 13.1668 12.196C13.3589 12.8487 13.3972 13.5015 13.3396 14.116C13.2436 15.6711 12.5717 17.0727 12.5717 17.0727C12.5717 17.0727 13.7429 16.8231 14.0693 14.6919C14.6069 15.2486 15.106 16.0551 15.1637 16.8998C15.2598 18.3591 14.3957 19.7031 13.0901 20.2791C15.3557 19.7606 16.9685 17.8406 17.5253 16.4391C18.2357 14.6727 18.0438 13.0982 17.9286 11.7351C17.775 9.87266 18.4278 8.49022 18.4278 8.49022C18.4278 8.49022 17.1798 8.85506 16.2581 10.3718C15.8357 11.063 15.663 12.0806 15.663 12.0806C15.663 12.0806 15.759 11.1782 15.1638 9.52699C14.5686 7.91422 14.031 7.33819 13.7046 6.14782C13.2822 4.55422 14.2229 2.99902 14.2229 2.99902C14.2229 2.99902 10.4981 3.69022 8.80854 6.93502C7.31094 9.81502 7.92527 11.543 7.92527 11.543C7.92527 11.543 7.29167 10.9479 6.96527 10.1222C6.63888 9.29666 6.71563 8.54772 6.71563 8.54772C6.71563 8.54772 4.06599 11.4662 5.35236 15.1333C6.21646 17.7064 7.88683 19.3957 9.90276 20.0869L9.90283 20.087Z" fill="#A87E5C"/>
</svg>
