<svg width="24" height="24" viewBox="0 0 24 24" fill="none" xmlns="http://www.w3.org/2000/svg">
<path d="M6.37498 22.9688H3.56249C3.50221 22.9688 3.44563 22.9398 3.41038 22.8909C3.37518 22.842 3.36557 22.7791 3.3846 22.722L3.85335 21.3157C3.8789 21.2392 3.95052 21.1875 4.03124 21.1875H6.84373C6.90401 21.1875 6.96059 21.2165 6.99584 21.2654C7.03104 21.3143 7.04065 21.3771 7.02162 21.4343L6.55287 22.8405C6.52733 22.9171 6.4557 22.9688 6.37498 22.9688ZM3.82265 22.5938H6.23984L6.58358 21.5625H4.16638L3.82265 22.5938Z" fill="black"/>
<path d="M19.0322 22.9688C19.0319 22.9688 19.0316 22.9688 19.0312 22.9688H16.2187C16.138 22.9688 16.0664 22.9171 16.0409 22.8405L15.5721 21.4343C15.5531 21.3771 15.5626 21.3143 15.5979 21.2654C15.6331 21.2165 15.6897 21.1875 15.75 21.1875H18.5625C18.6432 21.1875 18.7148 21.2392 18.7404 21.3157L19.2033 22.7045C19.2139 22.7279 19.2197 22.7539 19.2197 22.7812C19.2197 22.8848 19.1357 22.9688 19.0322 22.9688ZM16.3539 22.5938H18.7711L18.4274 21.5625H16.0102L16.3539 22.5938Z" fill="black"/>
<path d="M19.1953 21.5625H3.39844C2.09316 21.5625 1.03125 20.5006 1.03125 19.1953V14.8125C1.03125 14.709 1.1152 14.625 1.21875 14.625H4.5C4.60355 14.625 4.6875 14.709 4.6875 14.8125V17.9062H8.53125V14.8125C8.53125 14.709 8.6152 14.625 8.71875 14.625H21.375C21.4785 14.625 21.5625 14.709 21.5625 14.8125V19.1953C21.5625 20.5006 20.5006 21.5625 19.1953 21.5625ZM1.40625 15V19.1953C1.40625 20.2938 2.29992 21.1875 3.39844 21.1875H19.1953C20.2938 21.1875 21.1875 20.2938 21.1875 19.1953V15H8.90625V18.0938C8.90625 18.1973 8.8223 18.2812 8.71875 18.2812H4.5C4.39645 18.2812 4.3125 18.1973 4.3125 18.0938V15H1.40625Z" fill="black"/>
<path d="M4.5 15H1.21875C1.1152 15 1.03125 14.916 1.03125 14.8125V12.9375C1.03125 12.834 1.1152 12.75 1.21875 12.75H4.5C4.60355 12.75 4.6875 12.834 4.6875 12.9375V14.8125C4.6875 14.916 4.60355 15 4.5 15ZM1.40625 14.625H4.3125V13.125H1.40625V14.625Z" fill="black"/>
<path d="M21.375 15H8.71875C8.6152 15 8.53125 14.916 8.53125 14.8125V12.9375C8.53125 12.834 8.6152 12.75 8.71875 12.75H21.375C21.4785 12.75 21.5625 12.834 21.5625 12.9375V14.8125C21.5625 14.916 21.4785 15 21.375 15ZM8.90625 14.625H21.1875V13.125H8.90625V14.625Z" fill="black"/>
<path d="M8.71875 18.2812H4.5C4.39645 18.2812 4.3125 18.1973 4.3125 18.0938V12.9375C4.3125 12.834 4.39645 12.75 4.5 12.75H8.71875C8.8223 12.75 8.90625 12.834 8.90625 12.9375V18.0938C8.90625 18.1973 8.8223 18.2812 8.71875 18.2812ZM4.6875 17.9062H8.53125V13.125H4.6875V17.9062Z" fill="black"/>
<path d="M20.9062 20.1562H5.4375C5.33395 20.1562 5.25 20.0723 5.25 19.9688C5.25 19.8652 5.33395 19.7812 5.4375 19.7812H20.9062C21.0098 19.7812 21.0938 19.8652 21.0938 19.9688C21.0938 20.0723 21.0098 20.1562 20.9062 20.1562Z" fill="black"/>
<path d="M21.375 16.875H16.2188C16.1152 16.875 16.0312 16.791 16.0312 16.6875C16.0312 16.584 16.1152 16.5 16.2188 16.5H21.375C21.4785 16.5 21.5625 16.584 21.5625 16.6875C21.5625 16.791 21.4785 16.875 21.375 16.875Z" fill="black"/>
<path d="M14.8125 16.875H14.3438C14.2402 16.875 14.1562 16.791 14.1562 16.6875C14.1562 16.584 14.2402 16.5 14.3438 16.5H14.8125C14.916 16.5 15 16.584 15 16.6875C15 16.791 14.916 16.875 14.8125 16.875Z" fill="black"/>
<path d="M12.9375 16.875H12.4688C12.3652 16.875 12.2812 16.791 12.2812 16.6875C12.2812 16.584 12.3652 16.5 12.4688 16.5H12.9375C13.041 16.5 13.125 16.584 13.125 16.6875C13.125 16.791 13.041 16.875 12.9375 16.875Z" fill="black"/>
<path d="M22.7812 4.21875H9.1875C9.08395 4.21875 9 4.1348 9 4.03125V1.21875C9 1.1152 9.08395 1.03125 9.1875 1.03125H22.7812C22.8848 1.03125 22.9688 1.1152 22.9688 1.21875V4.03125C22.9688 4.1348 22.8848 4.21875 22.7812 4.21875ZM9.375 3.84375H22.5938V1.40625H9.375V3.84375Z" fill="black"/>
<path d="M17.1562 6.5625H9.1875C9.08395 6.5625 9 6.47855 9 6.375V4.03125C9 3.9277 9.08395 3.84375 9.1875 3.84375H17.1562C17.2598 3.84375 17.3438 3.9277 17.3438 4.03125V6.375C17.3438 6.47855 17.2598 6.5625 17.1562 6.5625ZM9.375 6.1875H16.9688V4.21875H9.375V6.1875Z" fill="black"/>
<path d="M15.75 10.7812C15.6465 10.7812 15.5625 10.6973 15.5625 10.5938V8.25C15.5625 8.14645 15.6465 8.0625 15.75 8.0625C15.8535 8.0625 15.9375 8.14645 15.9375 8.25V10.5938C15.9375 10.6973 15.8535 10.7812 15.75 10.7812Z" fill="black"/>
<path d="M13.875 10.3125C13.7715 10.3125 13.6875 10.2285 13.6875 10.125V7.78125C13.6875 7.6777 13.7715 7.59375 13.875 7.59375C13.9785 7.59375 14.0625 7.6777 14.0625 7.78125V10.125C14.0625 10.2285 13.9785 10.3125 13.875 10.3125Z" fill="black"/>
<path d="M12.4688 8.90625C12.3652 8.90625 12.2812 8.8223 12.2812 8.71875V7.78125C12.2812 7.6777 12.3652 7.59375 12.4688 7.59375C12.5723 7.59375 12.6562 7.6777 12.6562 7.78125V8.71875C12.6562 8.8223 12.5723 8.90625 12.4688 8.90625Z" fill="black"/>
<path d="M10.5938 9.84375C10.4902 9.84375 10.4062 9.7598 10.4062 9.65625V7.78125C10.4062 7.6777 10.4902 7.59375 10.5938 7.59375C10.6973 7.59375 10.7812 7.6777 10.7812 7.78125V9.65625C10.7812 9.7598 10.6973 9.84375 10.5938 9.84375Z" fill="black"/>
<path d="M10.5938 11.25C10.5445 11.25 10.4962 11.2298 10.4611 11.1952C10.4264 11.16 10.4062 11.1117 10.4062 11.0625C10.4062 11.0133 10.4264 10.965 10.4611 10.9298C10.4962 10.8952 10.5445 10.875 10.5938 10.875C10.643 10.875 10.6913 10.8952 10.7264 10.9298C10.7611 10.965 10.7812 11.0133 10.7812 11.0625C10.7812 11.1117 10.7611 11.16 10.7264 11.1952C10.6913 11.2298 10.643 11.25 10.5938 11.25Z" fill="black"/>
<path d="M12.4688 10.3125C12.4195 10.3125 12.3708 10.2923 12.3361 10.2577C12.3014 10.2225 12.2812 10.1742 12.2812 10.125C12.2812 10.0758 12.3014 10.0275 12.3361 9.99234C12.3708 9.95766 12.4195 9.9375 12.4688 9.9375C12.518 9.9375 12.5662 9.95766 12.6014 9.99234C12.636 10.0275 12.6562 10.0758 12.6562 10.125C12.6562 10.1742 12.636 10.2225 12.6014 10.2577C12.5662 10.2923 12.518 10.3125 12.4688 10.3125Z" fill="black"/>
<path d="M12.4688 11.7188C12.4195 11.7188 12.3713 11.6986 12.3361 11.6639C12.3014 11.6288 12.2812 11.5805 12.2812 11.5312C12.2812 11.482 12.3014 11.4337 12.3361 11.3986C12.3708 11.3639 12.4195 11.3438 12.4688 11.3438C12.518 11.3438 12.5662 11.3639 12.6014 11.3986C12.636 11.4337 12.6562 11.482 12.6562 11.5312C12.6562 11.5805 12.636 11.6288 12.6014 11.6639C12.5662 11.6986 12.518 11.7188 12.4688 11.7188Z" fill="black"/>
<path d="M19.9688 2.8125C19.8652 2.8125 19.7812 2.72855 19.7812 2.625V1.21875C19.7812 1.1152 19.8652 1.03125 19.9688 1.03125C20.0723 1.03125 20.1562 1.1152 20.1562 1.21875V2.625C20.1562 2.72855 20.0723 2.8125 19.9688 2.8125Z" fill="black"/>
</svg>
