<svg width="24" height="24" viewBox="0 0 24 24" fill="none" xmlns="http://www.w3.org/2000/svg">
<path d="M13.4062 20.3906H6.84375C6.09417 20.3906 5.48438 19.7808 5.48438 19.0312C5.48438 18.2817 6.09417 17.6719 6.84375 17.6719H13.4062C13.5098 17.6719 13.5938 17.7558 13.5938 17.8594C13.5938 17.9629 13.5098 18.0469 13.4062 18.0469H6.84375C6.30094 18.0469 5.85938 18.4885 5.85938 19.0312C5.85938 19.574 6.30094 20.0156 6.84375 20.0156H13.4062C13.5098 20.0156 13.5938 20.0996 13.5938 20.2031C13.5938 20.3067 13.5098 20.3906 13.4062 20.3906Z" fill="black"/>
<path d="M21.7279 20.3804H18.2097C17.6547 20.3804 17.2031 19.9288 17.2031 19.3738V19.0014C17.2031 18.5146 17.5507 18.0981 18.0297 18.0111L21.5478 17.3715C21.6079 17.3606 21.669 17.355 21.7296 17.355C22.2836 17.355 22.7344 17.8066 22.7344 18.3618V19.3739C22.7344 19.9288 22.2829 20.3804 21.7279 20.3804ZM21.7296 17.73C21.6915 17.73 21.6529 17.7335 21.6149 17.7404L18.0967 18.3801C17.7962 18.4347 17.5782 18.696 17.5782 19.0014V19.3738C17.5782 19.7221 17.8615 20.0054 18.2097 20.0054H21.7279C22.0762 20.0054 22.3595 19.7221 22.3595 19.3738V18.3617C22.3594 18.0134 22.0769 17.73 21.7296 17.73Z" fill="black"/>
<path d="M18.0342 18.0369C17.209 18.0369 16.4926 17.4771 16.2921 16.6755C16.0518 15.7142 16.6384 14.7367 17.5996 14.4963L19.6814 13.9759C19.8248 13.94 19.9718 13.9219 20.1184 13.9219C20.9437 13.9219 21.6601 14.4817 21.8605 15.2834C21.9769 15.749 21.905 16.2321 21.6581 16.6437C21.4111 17.0552 21.0187 17.346 20.553 17.4624L18.4713 17.9829C18.3278 18.0187 18.1808 18.0369 18.0342 18.0369ZM20.1184 14.2969C20.0024 14.2969 19.886 14.3113 19.7723 14.3397L17.6905 14.8602C16.9299 15.0503 16.4658 15.8239 16.656 16.5845C16.8146 17.2188 17.3814 17.6619 18.0342 17.6619C18.1502 17.6619 18.2666 17.6475 18.3803 17.619L20.4621 17.0985C20.8305 17.0064 21.1411 16.7764 21.3365 16.4507C21.5319 16.125 21.5888 15.7427 21.4966 15.3743C21.338 14.7399 20.7713 14.2969 20.1184 14.2969Z" fill="black"/>
<path d="M13.4062 20.3906H4.5C2.97502 20.3906 1.73438 19.1499 1.73438 17.625C1.73438 16.1001 2.97502 14.8594 4.5 14.8594H4.73438C4.83792 14.8594 4.92188 14.9433 4.92188 15.0469C4.92188 15.4604 5.25834 15.7969 5.67188 15.7969H6.14062C6.55416 15.7969 6.89062 15.4604 6.89062 15.0469C6.89062 14.9433 6.97458 14.8594 7.07812 14.8594H8.01562C8.11917 14.8594 8.20312 14.9433 8.20312 15.0469C8.20312 15.4604 8.53959 15.7969 8.95312 15.7969H9.42188C9.83541 15.7969 10.1719 15.4604 10.1719 15.0469C10.1719 14.9433 10.2558 14.8594 10.3594 14.8594H11.2969C11.4004 14.8594 11.4844 14.9433 11.4844 15.0469C11.4844 15.4604 11.8208 15.7969 12.2344 15.7969H12.7031C13.1116 15.7969 13.4478 15.4644 13.4526 15.0557C13.4532 15.0034 13.4756 14.9538 13.5143 14.9188C13.5531 14.8837 13.6045 14.8665 13.6568 14.8711C14.3417 14.9327 14.9761 15.2465 15.443 15.7545C15.9131 16.2658 16.1719 16.9301 16.1719 17.625C16.1719 19.1499 14.9312 20.3906 13.4062 20.3906ZM4.5 15.2344C3.18178 15.2344 2.10938 16.3068 2.10938 17.625C2.10938 18.9432 3.18178 20.0156 4.5 20.0156H13.4062C14.7244 20.0156 15.7969 18.9432 15.7969 17.625C15.7969 16.4414 14.953 15.4583 13.8057 15.2679C13.7021 15.782 13.245 16.1719 12.7031 16.1719H12.2344C11.6779 16.1719 11.2145 15.7658 11.125 15.2344H10.5312C10.4417 15.7658 9.97833 16.1719 9.42183 16.1719H8.95308C8.39662 16.1719 7.93322 15.7658 7.84369 15.2344H7.24992C7.16039 15.7658 6.69703 16.1719 6.14053 16.1719H5.67178C5.11533 16.1719 4.65192 15.7658 4.56239 15.2344H4.5Z" fill="black"/>
<path d="M12.7031 16.1719H12.2344C11.614 16.1719 11.1094 15.6672 11.1094 15.0469C11.1094 14.4266 11.614 13.9219 12.2344 13.9219H12.7031C13.3234 13.9219 13.8281 14.4266 13.8281 15.0469C13.8281 15.0526 13.8279 15.0583 13.8275 15.064C13.8183 15.6752 13.3147 16.1719 12.7031 16.1719ZM12.2344 14.2969C11.8208 14.2969 11.4844 14.6333 11.4844 15.0469C11.4844 15.4604 11.8208 15.7969 12.2344 15.7969H12.7031C13.1116 15.7969 13.4478 15.4644 13.4526 15.0557C13.4526 15.0512 13.4528 15.0468 13.4531 15.0424C13.4507 14.631 13.1152 14.2969 12.7031 14.2969H12.2344Z" fill="black"/>
<path d="M9.42188 16.1719H8.95312C8.33278 16.1719 7.82812 15.6672 7.82812 15.0469C7.82812 14.4266 8.33278 13.9219 8.95312 13.9219H9.42188C10.0422 13.9219 10.5469 14.4266 10.5469 15.0469C10.5469 15.6672 10.0422 16.1719 9.42188 16.1719ZM8.95312 14.2969C8.53959 14.2969 8.20312 14.6333 8.20312 15.0469C8.20312 15.4604 8.53959 15.7969 8.95312 15.7969H9.42188C9.83541 15.7969 10.1719 15.4604 10.1719 15.0469C10.1719 14.6333 9.83541 14.2969 9.42188 14.2969H8.95312Z" fill="black"/>
<path d="M6.14062 16.1719H5.67188C5.05153 16.1719 4.54688 15.6672 4.54688 15.0469C4.54688 14.4266 5.05153 13.9219 5.67188 13.9219H6.14062C6.76097 13.9219 7.26562 14.4266 7.26562 15.0469C7.26562 15.6672 6.76097 16.1719 6.14062 16.1719ZM5.67188 14.2969C5.25834 14.2969 4.92188 14.6333 4.92188 15.0469C4.92188 15.4604 5.25834 15.7969 5.67188 15.7969H6.14062C6.55416 15.7969 6.89062 15.4604 6.89062 15.0469C6.89062 14.6333 6.55416 14.2969 6.14062 14.2969H5.67188Z" fill="black"/>
<path d="M14.8505 11.5352C14.8001 11.5352 14.7499 11.515 14.713 11.4751C14.1179 10.8329 14.0024 10.0347 14.379 9.16694C14.6314 8.58532 15.0225 8.16419 15.0983 8.08577C16.0037 6.78354 16.2786 5.37058 15.9153 3.886C15.6429 2.77282 15.0989 2.04199 15.0934 2.03472C15.0311 1.95199 15.0477 1.83447 15.1304 1.77213C15.2131 1.70983 15.3307 1.72633 15.393 1.80907C15.4172 1.84122 15.989 2.60955 16.2796 3.79685C16.5486 4.89602 16.6138 6.57175 15.3969 8.31311C15.3906 8.32211 15.3836 8.33055 15.3758 8.33833C15.3113 8.40316 13.8053 9.9438 14.9881 11.2202C15.0585 11.2962 15.0539 11.4148 14.978 11.4852C14.9418 11.5186 14.8961 11.5352 14.8505 11.5352Z" fill="black"/>
<path d="M12.2353 11.5351C12.1849 11.5351 12.1347 11.5149 12.0977 11.475C11.5026 10.8328 11.3872 10.0346 11.7637 9.16684C12.0161 8.58526 12.4072 8.16414 12.483 8.08567C13.3854 6.78779 13.6615 5.37957 13.3035 3.9C13.0333 2.78358 12.4836 2.04183 12.4781 2.03447C12.416 1.95169 12.4326 1.83417 12.5154 1.77202C12.5982 1.70981 12.7155 1.72645 12.7778 1.809C12.802 1.84116 13.3738 2.60949 13.6643 3.79679C13.9333 4.89596 13.9985 6.5717 12.7817 8.31306C12.7754 8.32206 12.7684 8.33049 12.7606 8.33828C12.696 8.4031 11.1901 9.94375 12.3728 11.2202C12.4432 11.2961 12.4387 11.4147 12.3627 11.4851C12.3266 11.5185 12.2809 11.5351 12.2353 11.5351Z" fill="black"/>
<path d="M9.8915 11.5353C9.84111 11.5353 9.79086 11.5151 9.75392 11.4752C9.15889 10.8331 9.04339 10.0349 9.41999 9.16707C9.67236 8.58549 10.0635 8.16436 10.1393 8.08589C11.0417 6.78802 11.3177 5.3798 10.9597 3.90024C10.6895 2.78382 10.1398 2.04207 10.1343 2.03471C10.0723 1.95193 10.0889 1.83441 10.1716 1.77225C10.2543 1.7101 10.3717 1.72664 10.434 1.80924C10.4582 1.84139 11.03 2.60972 11.3206 3.79702C11.5895 4.89619 11.6548 6.57193 10.4379 8.31329C10.4316 8.32229 10.4246 8.33072 10.4168 8.3385C10.3523 8.40333 8.84633 9.94397 10.029 11.2204C10.0994 11.2964 10.0949 11.415 10.019 11.4854C9.98281 11.5187 9.93711 11.5353 9.8915 11.5353Z" fill="black"/>
<path d="M7.54775 11.5353C7.49736 11.5353 7.44711 11.5151 7.41017 11.4752C6.81514 10.8331 6.69964 10.0349 7.07624 9.16707C7.32861 8.58549 7.71974 8.16436 7.79553 8.08589C8.69792 6.78802 8.97397 5.3798 8.61594 3.90024C8.3458 2.78382 7.7961 2.04207 7.79056 2.03471C7.7285 1.95193 7.74514 1.83441 7.82788 1.77225C7.91056 1.7101 8.02794 1.72664 8.09024 1.80924C8.11447 1.84139 8.68625 2.60972 8.97683 3.79702C9.2458 4.89619 9.31105 6.57193 8.09417 8.31329C8.08789 8.32229 8.08081 8.33072 8.07308 8.3385C8.00853 8.40333 6.50258 9.94397 7.68528 11.2204C7.75564 11.2964 7.75114 11.415 7.67521 11.4854C7.63906 11.5187 7.59336 11.5353 7.54775 11.5353Z" fill="black"/>
<path d="M21.7278 22.2654H1.45312C1.34958 22.2654 1.26562 22.1814 1.26562 22.0779C1.26562 21.9743 1.34958 21.8904 1.45312 21.8904H21.5403V20.1929C21.5403 20.0893 21.6243 20.0054 21.7278 20.0054C21.8314 20.0054 21.9153 20.0893 21.9153 20.1929V22.0779C21.9153 22.1814 21.8314 22.2654 21.7278 22.2654Z" fill="black"/>
</svg>
