<svg width="24" height="24" viewBox="0 0 24 24" fill="none" xmlns="http://www.w3.org/2000/svg">
<path d="M21.3749 9.50001L16 9.5V5.75009H16.3751C16.5408 5.75009 16.6998 5.68433 16.8171 5.56709C16.9343 5.44985 17.0001 5.29086 17.0001 5.12513V2.62512C17.0001 2.45923 16.9343 2.30024 16.8171 2.18316C16.6998 2.06592 16.5408 2 16.3751 2H7.6251C7.45936 2 7.30038 2.06592 7.18314 2.18316C7.0659 2.30024 7.00014 2.45923 7.00014 2.62512V5.12513C7.00014 5.29086 7.0659 5.44985 7.18314 5.56709C7.30038 5.68433 7.45936 5.75009 7.6251 5.75009H8V9.50021L2.62512 9.50001C2.45923 9.50001 2.30024 9.56577 2.18316 9.68301C2.06592 9.80025 2 9.95923 2 10.125V21.3749C2 21.5408 2.06592 21.6998 2.18316 21.8168C2.30024 21.9341 2.45923 22 2.62512 22H21.3747C21.5406 22 21.6996 21.9341 21.8166 21.8168C21.9339 21.6998 21.9998 21.5408 21.9998 21.3749V10.125C21.9998 9.95923 21.9339 9.80025 21.8166 9.68301C21.6996 9.56577 21.5408 9.50001 21.3749 9.50001ZM8 3H16V5H8V3ZM9 5.75009H15V9.5H9V5.75009ZM14.5 21H9.5L9.50021 20.1251C9.50084 19.6279 9.69844 19.1514 10.05 18.7998C10.4016 18.4483 10.878 18.2507 11.3753 18.25H12.6252C13.1224 18.2507 13.5988 18.4483 13.9504 18.7998C14.302 19.1514 14.4995 19.6279 14.5002 20.1251L14.5 21ZM21 21H15.7499V20.1251C15.749 19.2966 15.4194 18.5022 14.8337 17.9163C14.2478 17.3306 13.4535 17.001 12.625 17.0001H11.375C10.5465 17.001 9.75221 17.3306 9.16633 17.9163C8.58061 18.5022 8.25103 19.2966 8.25007 20.1251V21H3V10.4032H21V21Z" fill="#012768"/>
</svg>
