<svg width="24" height="24" viewBox="0 0 24 24" fill="none" xmlns="http://www.w3.org/2000/svg">
<path d="M12.2481 4C7.70012 4 4 7.70012 4 12.2481C4 16.7961 7.70012 20.4962 12.2481 20.4962C16.7961 20.4962 20.4962 16.7961 20.4962 12.2481C20.4962 7.70012 16.7961 4 12.2481 4V4ZM12.2481 19.3439C8.33612 19.3439 5.15234 16.1599 5.15234 12.2481C5.15234 8.33612 8.33622 5.15234 12.2481 5.15234C16.16 5.15234 19.3439 8.33622 19.3439 12.2481C19.3439 16.16 16.16 19.3439 12.2481 19.3439Z" fill="#012768"/>
<path d="M13.3638 7.45197H10.2958C9.97982 7.45197 9.71973 7.71193 9.71973 8.02801V17.232C9.71973 17.548 9.97968 17.8081 10.2958 17.8081C10.6117 17.8081 10.8718 17.5481 10.8718 17.232V13.2079H13.3638C14.9518 13.2079 16.2398 11.9159 16.2398 10.3319C16.2398 8.74794 14.9478 7.4519 13.3638 7.4519L13.3638 7.45197ZM13.3638 12.0559H10.8718V8.60397H13.3638C14.3158 8.60397 15.0917 9.37996 15.0917 10.3319C15.0917 11.284 14.3117 12.056 13.3638 12.056V12.0559Z" fill="#012768"/>
</svg>
