<svg width="24" height="24" viewBox="0 0 24 24" fill="none" xmlns="http://www.w3.org/2000/svg">
<path d="M12.1001 15.5203H11.8573C11.7086 15.5203 11.5882 15.6407 11.5882 15.7894C11.5882 15.938 11.7086 16.0585 11.8573 16.0585H12.1001C12.2488 16.0585 12.3692 15.938 12.3692 15.7894C12.3692 15.6407 12.2487 15.5203 12.1001 15.5203ZM11.8879 16.85L11.6779 16.7288C11.5492 16.6559 11.3859 16.7 11.3119 16.8282C11.238 16.9563 11.2812 17.1201 11.4088 17.195L11.6188 17.3166C11.7477 17.3909 11.9124 17.3467 11.9867 17.2178C12.0611 17.089 12.0168 16.9244 11.8879 16.85ZM10.9189 17.6859C10.885 17.6209 10.8259 17.5726 10.7554 17.5522C10.685 17.5316 10.6093 17.5408 10.5458 17.5776C10.4822 17.6144 10.4366 17.6753 10.4191 17.7467C10.4016 17.8179 10.4141 17.8932 10.4534 17.955L10.5745 18.165C10.6518 18.2867 10.8115 18.3258 10.9362 18.2537C11.0611 18.1814 11.1069 18.0237 11.04 17.8959L10.9189 17.6859ZM9.5134 17.8663C9.3647 17.8663 9.2443 17.9867 9.2443 18.1354V18.3777C9.2443 18.5262 9.3647 18.6468 9.5134 18.6468C9.6621 18.6468 9.78268 18.5262 9.78268 18.3777V18.1354C9.78304 18.0633 9.75456 17.9941 9.70355 17.9433C9.65254 17.8923 9.58333 17.864 9.51123 17.8645L9.5134 17.8663ZM8.47179 17.5863C8.3431 17.512 8.17836 17.5562 8.10409 17.6848L7.98297 17.8948C7.90871 18.0235 7.95269 18.1881 8.08156 18.2623C8.1223 18.2861 8.1688 18.2986 8.21602 18.2986C8.31227 18.2986 8.40113 18.2472 8.44926 18.1639L8.57038 17.9539C8.64464 17.8252 8.60048 17.6607 8.47179 17.5863ZM7.34131 16.7281L7.13133 16.8492C7.02571 16.9103 6.97434 17.0345 7.00606 17.1524C7.03779 17.2701 7.14449 17.3517 7.26651 17.3516C7.31373 17.3516 7.36024 17.3391 7.40115 17.3155L7.61114 17.1939C7.73298 17.1165 7.77191 16.9568 7.69964 16.8319C7.62754 16.7072 7.4691 16.6614 7.34131 16.7281ZM7.43071 15.7882C7.43071 15.7168 7.40223 15.6485 7.35177 15.598C7.3013 15.5475 7.23299 15.5191 7.16143 15.5191H6.91865C6.77013 15.5191 6.64955 15.6396 6.64955 15.7883C6.64955 15.937 6.77013 16.0574 6.91865 16.0574H7.16143C7.23353 16.0585 7.30292 16.0306 7.35429 15.9799C7.40566 15.9295 7.4345 15.8602 7.4345 15.7883L7.43071 15.7882ZM7.34077 14.8482C7.38169 14.872 7.42801 14.8846 7.47542 14.8844C7.59726 14.8844 7.70378 14.8026 7.73532 14.6849C7.76687 14.5672 7.7155 14.4432 7.60987 14.3823L7.39989 14.2611C7.2712 14.188 7.1079 14.2323 7.03382 14.3605C6.95992 14.4886 7.00318 14.6524 7.13079 14.7273L7.34077 14.8482ZM21.0062 14.7833C20.9245 14.9075 20.7578 14.9421 20.6336 14.8608L19.6511 14.2148C18.3171 15.1146 17.2133 16.3153 16.4287 17.7204L17.3202 18.5316C17.4301 18.6317 17.4383 18.802 17.3382 18.9119C17.2382 19.0219 17.0679 19.03 16.9579 18.93L15.9125 17.9783C15.8219 17.8963 15.7979 17.7638 15.8538 17.6553C15.9286 17.5084 16.0077 17.3667 16.0879 17.2279L15.218 16.5771C13.9088 16.5034 12.52 15.1499 12.0883 14.4556C11.9537 14.2577 11.7974 14.0752 11.6231 13.9111L11.6193 13.9219C11.5278 14.1164 11.3832 14.281 11.2023 14.3969C11.0213 14.513 10.8115 14.5755 10.5965 14.5777C10.4371 14.5771 10.2796 14.5427 10.1347 14.4764L3.65911 11.5237C3.38748 11.3991 3.17605 11.1718 3.07154 10.8918C2.96682 10.6118 2.97745 10.3016 3.10092 10.0293L4.8197 6.261C4.93993 6.00524 5.15117 5.80355 5.41217 5.69521C5.67334 5.58688 5.96531 5.57985 6.23118 5.67538L7.41177 4.36827C7.61707 4.14514 7.90258 4.01302 8.20537 4.00076C8.4988 3.98994 8.78486 4.09521 9.0015 4.29347L14.2857 9.06269C14.5501 9.30638 14.6827 9.66148 14.6431 10.0189L15.589 10.1696C16.1299 10.2568 16.6016 10.5863 16.8696 11.0643L18.341 13.6902L19.0084 14.004C19.2975 13.7935 19.4929 13.6778 19.5165 13.6621C19.6048 13.6106 19.7148 13.6135 19.8002 13.6697L20.928 14.4099C20.9882 14.4491 21.0302 14.5103 21.0448 14.5805C21.0594 14.6506 21.0455 14.7235 21.0062 14.7833ZM6.752 5.901L12.7934 8.66213C13.0646 8.78488 13.2746 9.01216 13.3754 9.29243C13.4794 9.57072 13.4689 9.87876 13.3462 10.1493L12.9731 10.9654L12.5801 11.8268L13.9636 10.2932C14.1814 10.0515 14.1634 9.67924 13.9233 9.45988L8.6391 4.68835C8.52933 4.58237 8.38009 4.5274 8.22779 4.53695C8.06899 4.54308 7.91903 4.61193 7.81107 4.72873L6.752 5.901ZM5.04817 7.05672L12.5947 10.4983L12.8564 9.92545C12.92 9.78378 12.9249 9.62282 12.8703 9.47755C12.8182 9.33318 12.71 9.21566 12.5703 9.15185L6.0911 6.19102C5.7937 6.06161 5.44746 6.19138 5.30848 6.48446L5.04817 7.05672ZM11.1241 13.7164L11.1908 13.5161C10.906 13.2706 10.5987 13.0316 10.315 12.8314C10.0324 12.6326 9.86427 12.3087 9.86463 11.9632C9.86463 11.695 10.0027 11.4457 10.2302 11.3035C10.4574 11.1613 10.7421 11.1461 10.9832 11.2633L12.0151 11.7673L12.3709 10.9882L4.82481 7.5467L3.59051 10.2539C3.4575 10.5504 3.58835 10.8989 3.88395 11.0346L10.3563 13.9882C10.6438 14.1201 10.9837 13.9997 11.1241 13.7164ZM18.5318 14.3743L18.0348 14.1407C17.9842 14.1163 17.9422 14.077 17.9148 14.028L16.402 11.3278C16.2135 10.9925 15.8823 10.7616 15.5026 10.7007L14.4513 10.5333C14.4242 10.5755 14.3945 10.616 14.3624 10.6544L12.9482 12.223L14.2516 12.8593C14.3853 12.9245 14.4408 13.086 14.3756 13.2198C14.3103 13.3535 14.149 13.409 14.0153 13.3438L12.4187 12.5642C12.4107 12.5608 12.4028 12.5572 12.3954 12.553L10.7476 11.7472C10.6734 11.7109 10.5856 11.7156 10.5157 11.7593C10.4456 11.8031 10.403 11.8798 10.403 11.9626C10.4028 12.1325 10.4854 12.2922 10.6244 12.3905C10.9892 12.6496 11.3401 12.9281 11.6751 13.2248L11.6876 13.2367C12.0133 13.5099 12.3018 13.8244 12.5461 14.1723C12.9595 14.8378 14.238 16.0317 15.3146 16.043C15.3715 16.0438 15.4272 16.0625 15.473 16.0967L16.3715 16.769C16.9674 15.8669 17.6956 15.0597 18.5318 14.3743Z" fill="#012768"/>
</svg>
