<svg width="78" height="19" viewBox="0 0 78 19" fill="none" xmlns="http://www.w3.org/2000/svg">
<path d="M29.3998 8.1001C29.1998 9.6001 27.9998 9.6001 26.8998 9.6001H26.2998L26.7998 6.7001C26.7998 6.5001 26.9998 6.4001 27.1998 6.4001H27.4998C28.2998 6.4001 28.9998 6.4001 29.3998 6.8001C29.3998 7.2001 29.3998 7.6001 29.3998 8.1001ZM28.8998 4.1001H24.5998C24.2998 4.1001 24.0998 4.3001 23.9998 4.6001L22.2998 15.6001C22.2998 15.8001 22.3998 16.0001 22.6998 16.0001H24.6998C24.9998 16.0001 25.1998 15.8001 25.2998 15.5001L25.7998 12.5001C25.7998 12.2001 26.0998 12.0001 26.3998 12.0001H27.7998C30.5998 12.0001 32.1998 10.6001 32.6998 7.9001C32.8998 6.7001 32.6998 5.8001 32.1998 5.1001C31.3998 4.5001 30.2998 4.1001 28.8998 4.1001Z" fill="#263577"/>
<path d="M38.8003 12.0999C38.6003 13.2999 37.7003 14.0999 36.5003 14.0999C35.9003 14.0999 35.4003 13.8999 35.1003 13.4999C34.8003 13.0999 34.7003 12.5999 34.8003 12.0999C35.0003 10.8999 35.9003 10.0999 37.1003 10.0999C37.7003 10.0999 38.2003 10.2999 38.5003 10.6999C38.7003 10.9999 38.9003 11.4999 38.8003 12.0999ZM41.6003 8.0999H39.6003C39.4003 8.0999 39.3003 8.1999 39.2003 8.3999L39.1003 8.9999L39.0003 8.7999C38.6003 8.1999 37.6003 7.8999 36.6003 7.8999C34.3003 7.8999 32.4003 9.5999 32.0003 11.9999C31.8003 13.1999 32.1003 14.2999 32.8003 15.0999C33.4003 15.7999 34.3003 16.0999 35.4003 16.0999C37.2003 16.0999 38.2003 14.8999 38.2003 14.8999L38.1003 15.4999C38.1003 15.6999 38.2003 15.8999 38.5003 15.8999H40.3003C40.6003 15.8999 40.8003 15.6999 40.9003 15.3999L42.0003 8.3999C42.0003 8.2999 41.9003 8.0999 41.6003 8.0999Z" fill="#263577"/>
<path d="M52.5002 8.1001H50.4002C50.2002 8.1001 50.0002 8.2001 49.9002 8.4001L47.1002 12.6001L45.9002 8.6001C45.8002 8.3001 45.6002 8.2001 45.3002 8.2001H43.3002C43.1002 8.2001 42.9002 8.4001 43.0002 8.7001L45.3002 15.3001L43.2002 18.3001C43.0002 18.5001 43.2002 18.9001 43.5002 18.9001H45.6002C45.8002 18.9001 46.0002 18.8001 46.1002 18.6001L52.9002 8.7001C53.0002 8.4001 52.8002 8.1001 52.5002 8.1001Z" fill="#263577"/>
<path d="M59.8002 8.1001C59.6002 9.6001 58.4002 9.6001 57.3002 9.6001H56.7002L57.2002 6.7001C57.2002 6.5001 57.4002 6.4001 57.6002 6.4001H57.9002C58.7002 6.4001 59.4002 6.4001 59.8002 6.8001C59.9002 7.2001 59.9002 7.6001 59.8002 8.1001ZM59.3002 4.1001H55.0002C54.7002 4.1001 54.5002 4.3001 54.4002 4.6001L52.7002 15.6001C52.7002 15.8001 52.8002 16.0001 53.1002 16.0001H55.3002C55.5002 16.0001 55.7002 15.9001 55.7002 15.6001L56.2002 12.5001C56.2002 12.2001 56.5002 12.0001 56.8002 12.0001H58.2002C61.0002 12.0001 62.6002 10.6001 63.1002 7.9001C63.3002 6.7001 63.1002 5.8001 62.6002 5.1001C61.9002 4.5001 60.8002 4.1001 59.3002 4.1001Z" fill="#2199D6"/>
<path d="M69.3003 12.0999C69.1003 13.2999 68.2003 14.0999 67.0003 14.0999C66.4003 14.0999 65.9003 13.8999 65.6003 13.4999C65.3003 13.0999 65.2003 12.5999 65.3003 12.0999C65.5003 10.8999 66.4003 10.0999 67.6003 10.0999C68.2003 10.0999 68.7003 10.2999 69.0003 10.6999C69.2003 10.9999 69.4003 11.4999 69.3003 12.0999ZM72.1003 8.0999H70.1003C69.9003 8.0999 69.8003 8.1999 69.7003 8.3999L69.6003 8.9999L69.5003 8.7999C69.1003 8.1999 68.1003 7.8999 67.1003 7.8999C64.8003 7.8999 62.9003 9.5999 62.5003 11.9999C62.3003 13.1999 62.6003 14.2999 63.3003 15.0999C63.9003 15.7999 64.8003 16.0999 65.9003 16.0999C67.7003 16.0999 68.7003 14.8999 68.7003 14.8999L68.6003 15.4999C68.6003 15.6999 68.7003 15.8999 69.0003 15.8999H70.8003C71.1003 15.8999 71.3003 15.6999 71.4003 15.3999L72.5003 8.3999C72.5003 8.2999 72.3003 8.0999 72.1003 8.0999Z" fill="#2199D6"/>
<path d="M74.5002 4.4001L72.7002 15.6001C72.7002 15.8001 72.8002 16.0001 73.1002 16.0001H74.9002C75.2002 16.0001 75.4002 15.8001 75.5002 15.5001L77.2002 4.5001C77.2002 4.3001 77.1002 4.1001 76.8002 4.1001H74.8002C74.7002 4.1001 74.6002 4.3001 74.5002 4.4001Z" fill="#2199D6"/>
<path d="M4.49962 18.1001L4.79961 16.0001H4.09961H0.599609L2.99962 0.700096C2.99962 0.700096 2.99961 0.600098 3.09961 0.600098H3.19962H9.09961C10.9996 0.600098 12.3996 1.0001 13.0996 1.8001C13.3996 2.2001 13.5996 2.6001 13.6996 3.0001C13.7996 3.5001 13.7996 4.0001 13.6996 4.7001V5.1001L13.9996 5.3001C14.2996 5.4001 14.4996 5.6001 14.6996 5.8001C14.9996 6.1001 15.1996 6.5001 15.1996 7.0001C15.2996 7.5001 15.2996 8.1001 15.0996 8.8001C14.8996 9.6001 14.6996 10.2001 14.3996 10.8001C14.0996 11.3001 13.6996 11.7001 13.2996 12.1001C12.8996 12.4001 12.2996 12.6001 11.7996 12.8001C11.1996 12.9001 10.5996 13.0001 9.89961 13.0001H9.39961C9.09961 13.0001 8.79962 13.1001 8.49962 13.3001C8.29962 13.5001 8.09962 13.8001 7.99962 14.1001V14.3001L7.39961 18.0001V18.1001V18.2001C7.39961 18.2001 7.39961 18.2001 7.29961 18.2001H4.49962V18.1001Z" fill="#263577"/>
<path d="M14.4004 4.69995C14.4004 4.79995 14.4004 4.89995 14.3004 4.99995C13.5004 8.99995 10.9004 10.2999 7.5004 10.2999H5.80038C5.40038 10.2999 5.0004 10.6 5.0004 11L4.10039 16.6L3.90039 18.2C3.90039 18.5 4.10038 18.7 4.30038 18.7H7.40039C7.80039 18.7 8.10039 18.4 8.10039 18.1V17.9L8.70039 14.2999V14.1C8.80039 13.7 9.10039 13.5 9.40039 13.5H9.90039C12.9004 13.5 15.2004 12.3 15.8004 8.79995C16.1004 7.29995 15.9004 6.09995 15.2004 5.29995C15.0004 5.09995 14.7004 4.89995 14.4004 4.69995Z" fill="#2199D6"/>
<path d="M13.6 4.4001C13.5 4.4001 13.4 4.3001 13.2 4.3001C13.1 4.3001 12.9 4.2001 12.8 4.2001C12.3 4.1001 11.8 4.1001 11.3 4.1001H6.7C6.6 4.1001 6.49999 4.1001 6.39999 4.2001C6.19999 4.3001 6 4.5001 6 4.7001L5 10.9001V11.1001C5.1 10.7001 5.39999 10.4001 5.79999 10.4001H7.5C10.9 10.4001 13.5 9.0001 14.3 5.1001C14.3 5.0001 14.3 4.9001 14.4 4.8001C14.2 4.7001 14 4.6001 13.8 4.5001C13.7 4.4001 13.6 4.4001 13.6 4.4001Z" fill="#252C5E"/>
<path d="M6 4.7C6 4.5 6.19999 4.3 6.39999 4.2C6.49999 4.2 6.6 4.1 6.7 4.1H11.3C11.8 4.1 12.4 4.1 12.8 4.2C12.9 4.2 13.1 4.2 13.2 4.3C13.3 4.3 13.4 4.4 13.6 4.4C13.7 4.4 13.7 4.4 13.8 4.5C14 4.6 14.2 4.7 14.4 4.8C14.6 3.3 14.4 2.3 13.6 1.4C12.7 0.399998 11.1 0 9.09999 0H3.2C2.8 0 2.39999 0.299997 2.39999 0.699997L0 16.1C0 16.4 0.2 16.7 0.5 16.7H4.09999L5 10.9L6 4.7Z" fill="#263577"/>
</svg>
