<svg width="24" height="24" viewBox="0 0 24 24" fill="none" xmlns="http://www.w3.org/2000/svg">
<path d="M11.3121 12.0799H6.39211C6.15211 12.0799 5.91211 11.8999 5.91211 11.5999V9.49993C5.91211 7.93993 7.23211 6.67993 8.85211 6.67993C10.4721 6.67993 11.7921 7.93993 11.7921 9.49993V11.5999C11.7921 11.8399 11.5521 12.0799 11.3121 12.0799ZM6.87211 11.1799H10.8921V9.55993C10.8921 8.47993 9.99211 7.63993 8.85211 7.63993C7.71211 7.63993 6.81211 8.47993 6.81211 9.55993V11.1799H6.87211Z" fill="#012768"/>
<path d="M18.9916 21.2C18.7516 21.2 18.5116 21.02 18.5116 20.72V7.16C18.5116 4.82 16.4716 2.9 14.0116 2.9H13.8316C11.3716 2.9 9.33164 4.82 9.33164 7.16C9.33164 7.4 9.15164 7.64 8.85164 7.64C8.55164 7.64 8.43164 7.4 8.43164 7.16C8.43164 4.28 10.8316 2 13.8316 2H14.0116C17.0116 2 19.4116 4.34 19.4116 7.16V20.72C19.4116 21.02 19.2316 21.2 18.9916 21.2Z" fill="#012768"/>
<path d="M6.15209 14.6H6.03209C5.79209 14.54 5.67209 14.3 5.73209 14.06L5.97209 13.16C6.03209 12.92 6.27208 12.8 6.51208 12.86C6.75208 12.92 6.87208 13.16 6.81208 13.4L6.57208 14.3C6.51208 14.48 6.33208 14.6 6.15209 14.6Z" fill="#012768"/>
<path d="M5.49163 17.12H5.37163C5.13163 17 4.95163 16.76 5.01163 16.52L5.25163 15.62C5.31163 15.38 5.55163 15.26 5.79163 15.32C6.03163 15.38 6.15163 15.62 6.09163 15.86L5.85163 16.76C5.85163 16.94 5.67163 17.12 5.49163 17.12Z" fill="#012768"/>
<path d="M11.5513 14.6C11.3713 14.6 11.1913 14.48 11.1313 14.3L10.8913 13.4C10.8313 13.16 10.9513 12.92 11.1913 12.86C11.4313 12.8 11.6713 12.92 11.7313 13.16L11.9713 14.06C12.0313 14.3 11.9113 14.54 11.6713 14.6H11.5513Z" fill="#012768"/>
<path d="M12.272 17.1201C12.092 17.1201 11.912 17.0001 11.852 16.8201L11.612 15.92C11.552 15.68 11.672 15.44 11.912 15.38C12.152 15.32 12.392 15.44 12.452 15.68L12.692 16.5801C12.752 16.8201 12.632 17.0601 12.392 17.1201C12.332 17.0601 12.332 17.1201 12.272 17.1201Z" fill="#012768"/>
<path d="M8.85207 14.6C8.61207 14.6 8.37207 14.42 8.37207 14.12V13.22C8.37207 12.98 8.55207 12.74 8.85207 12.74C9.15207 12.74 9.33207 12.92 9.33207 13.22V14.12C9.33207 14.42 9.09207 14.6 8.85207 14.6Z" fill="#012768"/>
<path d="M8.85207 17.2999C8.61207 17.2999 8.37207 17.1199 8.37207 16.8199V15.9199C8.37207 15.6799 8.55207 15.4399 8.85207 15.4399C9.15207 15.4399 9.33207 15.6199 9.33207 15.9199V16.8199C9.33207 17.1199 9.09207 17.2999 8.85207 17.2999Z" fill="#012768"/>
</svg>
