<svg width="24" height="24" viewBox="0 0 24 24" fill="none" xmlns="http://www.w3.org/2000/svg">
<path d="M11.68 4C10.3231 4 8.96858 4.51696 7.93596 5.5541C7.86123 5.62508 7.81824 5.72325 7.81663 5.82651C7.81503 5.92964 7.85494 6.02901 7.92753 6.10241C8.00012 6.17566 8.09909 6.21678 8.20221 6.21638C8.30534 6.21598 8.40404 6.17406 8.47596 6.1C10.2482 4.32009 13.1117 4.32009 14.884 6.1C14.9559 6.17406 15.0546 6.21598 15.1577 6.21638C15.2608 6.21678 15.3598 6.17566 15.4324 6.10241C15.505 6.02901 15.5449 5.92964 15.5433 5.82651C15.5417 5.72325 15.4987 5.62508 15.424 5.5541C14.3914 4.51696 13.0368 4 11.68 4ZM11.68 6.3581C10.9233 6.3581 10.1667 6.64484 9.59203 7.22207C9.51797 7.29399 9.47605 7.39256 9.47565 7.49582C9.47525 7.59894 9.51636 7.69791 9.58962 7.7705C9.66301 7.84296 9.76239 7.883 9.86551 7.8814C9.96877 7.87979 10.0669 7.8368 10.1379 7.76207C10.9945 6.90184 12.3654 6.90184 13.222 7.76207C13.293 7.8368 13.3912 7.87979 13.4944 7.8814C13.5976 7.883 13.6969 7.84296 13.7703 7.7705C13.8436 7.69791 13.8847 7.59894 13.8843 7.49582C13.8839 7.39256 13.842 7.29399 13.7679 7.22207C13.1932 6.64483 12.4366 6.3581 11.68 6.3581ZM4.38397 8.71603C4.17196 8.71603 4 8.88799 4 9.1V16.624C4 16.836 4.17196 17.008 4.38397 17.008H11.296V17.8599L9.12993 19.018C8.9427 19.1189 8.87292 19.3526 8.9739 19.5399C9.07502 19.7271 9.30872 19.797 9.49597 19.6959L11.6799 18.5259L13.8639 19.6959C14.0511 19.797 14.2848 19.7271 14.386 19.5399C14.4869 19.3527 14.4172 19.119 14.2299 19.018L12.0639 17.8599V17.008H18.9759C19.1879 17.008 19.3599 16.836 19.3599 16.624V9.1C19.3599 8.88799 19.1879 8.71603 18.9759 8.71603H4.38397ZM4.76793 9.4841H18.5919V16.2401H4.76793V9.4841Z" fill="#012768"/>
</svg>
