<svg width="24" height="24" viewBox="0 0 24 24" fill="none" xmlns="http://www.w3.org/2000/svg">
<path d="M19.7441 14.7522C19.7441 14.7013 19.7238 14.6524 19.6878 14.6164C19.6518 14.5804 19.6029 14.5601 19.552 14.5601H14.8158L14.4791 14.3075C14.3202 14.1896 14.2582 13.981 14.3267 13.7955L14.6197 12.9891V12.989C14.708 12.7452 14.6774 12.4742 14.5371 12.2561H16.9653C17.1437 12.2568 17.3186 12.2074 17.4705 12.1135C17.6222 12.0197 17.7446 11.8853 17.8239 11.7255L17.9426 11.4882H19.1679C19.3736 11.4882 19.5638 11.3784 19.6667 11.2001C19.7696 11.022 19.7696 10.8023 19.6667 10.6242C19.5638 10.446 19.3736 10.3361 19.1679 10.3361H18.715C18.4902 8.71775 17.6983 7.23167 16.4803 6.14231C15.2623 5.05319 13.6973 4.43163 12.064 4.38853V4.19205C12.064 4.08598 11.978 4 11.8719 4C11.7659 4 11.6799 4.08598 11.6799 4.19205V4.38853C10.0465 4.43165 8.48155 5.05323 7.26355 6.14231C6.04562 7.23157 5.25369 8.71761 5.02895 10.3361H4.576C4.37028 10.3361 4.1801 10.446 4.07724 10.6242C3.97425 10.8023 3.97425 11.022 4.07724 11.2001C4.1801 11.3784 4.37028 11.4882 4.576 11.4882H5.8013L5.91996 11.7255C5.99925 11.8853 6.12166 12.0198 6.27341 12.1135C6.42529 12.2074 6.6002 12.2568 6.77858 12.2561H8.69871C8.67889 12.2868 8.66121 12.3187 8.64554 12.3516C8.57751 12.4947 8.55219 12.6543 8.57242 12.8114C8.59278 12.9685 8.65787 13.1163 8.75992 13.2376L9.63352 14.286C10.374 15.1747 10.9988 16.1536 11.4931 17.1995C11.7182 17.6726 12.0726 18.0724 12.5152 18.3529C12.9577 18.6333 13.4707 18.7828 13.9946 18.7842H15.712V19.1682C15.712 19.2664 15.7862 19.3489 15.8839 19.3592L19.5319 19.7432C19.5386 19.7438 19.5453 19.7442 19.5522 19.7442C19.6543 19.7441 19.7386 19.6641 19.7439 19.5621C19.7492 19.4602 19.6736 19.3718 19.5721 19.3612L16.0959 18.9954V14.9442H19.5519C19.6028 14.9442 19.6517 14.924 19.6877 14.888C19.7237 14.852 19.7439 14.8031 19.7439 14.7522L19.7441 14.7522ZM11.8721 4.76819C13.4375 4.76618 14.9516 5.32759 16.1372 6.35003C17.3227 7.37243 18.1008 8.7874 18.3291 10.3361H5.41503C5.64324 8.78733 6.42138 7.37239 7.60691 6.35003C8.79258 5.32763 10.3066 4.7662 11.8721 4.76819V4.76819ZM4.38406 10.9122C4.38406 10.8062 4.47004 10.7203 4.57598 10.7201H19.168C19.2741 10.7201 19.3599 10.8061 19.3599 10.9122C19.3599 11.0183 19.2741 11.1042 19.168 11.1042H4.57598C4.47004 11.1041 4.38406 11.0181 4.38406 10.9122V10.9122ZM6.2636 11.5538L6.23065 11.4882H17.5134L17.4806 11.5538C17.433 11.6497 17.3595 11.7304 17.2686 11.7866C17.1775 11.8429 17.0725 11.8726 16.9655 11.8722H6.77852C6.67151 11.8726 6.56651 11.8429 6.47544 11.7866C6.38451 11.7304 6.31098 11.6497 6.26344 11.5538H6.2636ZM13.1379 12.2562C13.1104 12.2982 13.087 12.3425 13.0674 12.3889L12.528 13.7046C12.4711 13.8433 12.3484 13.9445 12.2012 13.9741C12.0541 14.0035 11.902 13.9576 11.7958 13.8515L10.2006 12.2562L13.1379 12.2562ZM11.8402 17.0352C11.3321 15.9601 10.6896 14.9537 9.92854 14.0401L9.05494 12.9918V12.9917C8.94351 12.858 8.9194 12.672 8.99319 12.5144C9.06699 12.3566 9.22543 12.256 9.39941 12.256H9.4716C9.59066 12.2557 9.7049 12.303 9.78888 12.3874L11.5243 14.1228C11.7213 14.3198 12.0038 14.4053 12.2769 14.3504C12.5499 14.2956 12.7775 14.1078 12.8832 13.85L13.4226 12.5343H13.4227C13.5154 12.3086 13.7716 12.1984 13.9993 12.2864C14.2268 12.3744 14.3424 12.6283 14.2591 12.8577L13.9659 13.664C13.9041 13.8317 13.8982 14.0149 13.9492 14.1863C14.0001 14.3576 14.1052 14.5079 14.2487 14.6145L14.5599 14.848V18.4H13.9946C13.5434 18.399 13.1017 18.2701 12.7206 18.0287C12.3393 17.7872 12.0342 17.4427 11.8402 17.0353L11.8402 17.0352ZM14.944 18.4V14.944H15.712V18.4H14.944ZM16.864 18.016C17.0192 18.016 17.1593 18.1096 17.2188 18.2531C17.2781 18.3966 17.2453 18.5618 17.1355 18.6716C17.0257 18.7814 16.8606 18.8142 16.717 18.7548C16.5735 18.6954 16.4799 18.5553 16.4799 18.4C16.4802 18.1881 16.652 18.0163 16.864 18.016L16.864 18.016ZM18.0161 18.2081H18.016C18.1713 18.2081 18.3113 18.3016 18.3707 18.4451C18.4302 18.5886 18.3974 18.7537 18.2876 18.8635C18.1778 18.9733 18.0125 19.0063 17.869 18.9468C17.7256 18.8874 17.632 18.7474 17.632 18.592C17.6323 18.38 17.804 18.2083 18.016 18.2081L18.0161 18.2081Z" fill="#012768"/>
</svg>
