<svg width="24" height="24" viewBox="0 0 24 24" fill="none" xmlns="http://www.w3.org/2000/svg">
<path d="M21.6155 6H2.38455C2.17206 6 2 6.17224 2 6.38455V8.64625C2 8.85856 2.17206 9.0308 2.38455 9.0308H3.73062V16.6669C3.73062 16.8792 3.90286 17.0514 4.11534 17.0514H5.4872C5.6995 17.0514 5.87174 16.8792 5.87174 16.6669V9.0308H18.1283V16.6669C18.1283 16.8792 18.3005 17.0514 18.5128 17.0514H19.8847C20.0971 17.0514 20.2694 16.8792 20.2694 16.6669V9.0308H21.6155C21.8279 9.0308 22 8.85856 22 8.64625V6.38455C22 6.17224 21.8279 6 21.6155 6H21.6155ZM5.10252 16.2822H4.49995V9.03071H5.10252V16.2822ZM19.5001 16.2822H18.8975V9.03071H19.5001V16.2822ZM21.2309 8.26147H2.76921V6.76924H21.2309V8.26147Z" fill="#012768"/>
</svg>
