<svg width="24" height="24" viewBox="0 0 24 24" fill="none" xmlns="http://www.w3.org/2000/svg">
<g clip-path="url(#clip0_1108_37387)">
<path d="M23.3961 8.97926H22.2732C21.9413 8.97926 21.6231 9.10663 21.3866 9.33391L19.3587 11.2708C19.2587 11.3663 19.1269 11.4208 18.9859 11.4208H18.0584C17.6947 10.6524 17.2082 9.9477 16.6081 9.343V8.78826H17.0036C17.19 8.78826 17.3446 8.6337 17.3446 8.44727C17.3446 6.44224 16.1306 4.63264 14.2756 3.86876C14.2801 3.80969 14.2847 3.7505 14.2847 3.69143C14.2983 2.77309 13.5663 2.01826 12.6479 2.00019C11.7296 1.98653 10.9748 2.71858 10.9567 3.63692V3.69143V3.70964C8.86983 4.34619 7.44687 6.26472 7.44241 8.44724C7.44241 8.63367 7.59696 8.78823 7.78339 8.78823H8.0925V9.26555C8.07428 9.27921 8.05607 9.29287 8.03799 9.31095C7.38334 10.0385 6.87402 10.8795 6.53302 11.7979L2.61416 11.798C2.13227 11.798 1.74121 12.1889 1.74121 12.671V17.2447C1.74121 17.8858 2.00036 18.4995 2.45504 18.945H0.340982C0.154553 18.945 0 19.0996 0 19.286C0 20.3591 0.872949 21.232 1.94599 21.232H9.82074C9.95708 21.232 10.0981 21.2183 10.2344 21.1866H17.0816C17.4499 21.1866 17.7499 20.8865 17.7499 20.5183C17.7499 20.3546 17.6909 20.2001 17.5817 20.0773L17.1088 19.5408C16.9315 19.3361 16.9269 19.0316 17.0997 18.8178C17.7498 18.0267 18.2227 17.1084 18.491 16.1263H18.841C19.2684 16.1263 19.6639 15.9035 19.8868 15.5353L22.3465 11.4481C22.4511 11.2753 22.6375 11.1661 22.8375 11.157L23.4194 11.1297C23.7195 11.116 23.9559 10.8706 23.9559 10.5704V9.54748C23.9603 9.22941 23.7057 8.97937 23.3966 8.97937L23.3961 8.97926ZM12.6208 2.70943C13.1437 2.70943 13.5756 3.12312 13.5984 3.64145C12.9618 3.48235 12.2981 3.45047 11.6524 3.55052C11.7206 3.06863 12.1343 2.70945 12.6208 2.70945V2.70943ZM12.3934 4.17796C14.6166 4.18251 16.4672 5.88741 16.649 8.10607H8.14233C8.3242 5.88727 10.1747 4.17796 12.3934 4.17796ZM2.42724 17.2401V12.6664C2.42724 12.5618 2.51362 12.4754 2.61822 12.4754H8.70154C8.80614 12.4754 8.89252 12.5618 8.89252 12.6664V17.2401C8.89252 18.1767 8.13326 18.9405 7.19215 18.9405H4.12317C3.18662 18.9405 2.42723 18.1767 2.42723 17.2401H2.42724ZM9.56999 14.9442C9.59731 14.9396 9.62905 14.9351 9.65637 14.9351C9.96092 14.926 10.2156 15.1669 10.2246 15.4716C10.2337 15.7761 9.99279 16.0309 9.68812 16.0398H9.65624C9.62892 16.0398 9.59718 16.0353 9.56986 16.0307L9.56999 14.9442ZM9.56999 16.7173C9.59731 16.7173 9.62905 16.7218 9.65637 16.7218C10.3383 16.7355 10.9022 16.1944 10.9157 15.5125C10.9293 14.8305 10.3883 14.2667 9.70632 14.2532H9.66092C9.6336 14.2532 9.60186 14.2532 9.57454 14.2577V13.8213H9.66092C10.5838 13.8213 11.3295 14.5668 11.3295 15.4899C11.3295 16.4128 10.584 17.1585 9.66092 17.1585H9.57454V16.7173L9.56999 16.7173ZM1.94553 20.5456C1.37727 20.5456 0.881605 20.1682 0.727045 19.6227H11.0433C10.8887 20.1683 10.3932 20.5456 9.8248 20.5456H1.94553ZM16.5718 18.386C16.1853 18.8544 16.1944 19.5318 16.5991 19.9864L17.0538 20.5001H11.3387C11.6207 20.1546 11.7707 19.7226 11.7707 19.2771C11.7707 19.0906 11.6161 18.9361 11.4297 18.9361H8.85638C9.16549 18.6315 9.38836 18.2496 9.49749 17.8313C9.552 17.8358 9.60664 17.8358 9.66115 17.8358C10.9615 17.8358 12.0117 16.781 12.0117 15.4852C12.0117 14.1849 10.9569 13.1346 9.66115 13.1346C9.63383 13.1346 9.60209 13.1346 9.57477 13.1392V12.6664C9.57477 12.1845 9.18384 11.7935 8.70182 11.7935H7.2697C7.55618 11.0979 7.95621 10.4523 8.44721 9.87938C8.63364 9.87482 8.77909 9.72482 8.77909 9.53839V8.7837H15.9307V9.53839C15.9307 9.68839 16.0308 9.82031 16.1717 9.86572C16.731 10.4431 17.181 11.1161 17.5039 11.848C17.513 11.8753 17.5221 11.907 17.5403 11.9298C18.0495 13.1164 18.1723 14.4349 17.8904 15.6988L17.8858 15.7171C17.6584 16.6992 17.2084 17.6085 16.5719 18.386L16.5718 18.386ZM23.2778 10.4523L22.8049 10.4751C22.3729 10.4933 21.982 10.7251 21.7591 11.098L19.2994 15.1852C19.1994 15.3443 19.0266 15.4443 18.8402 15.4443H18.6355C18.8174 14.3213 18.7128 13.1756 18.3354 12.1027H18.9855C19.2991 12.1027 19.5993 11.9799 19.8265 11.7663L21.8544 9.82938C21.9681 9.72023 22.1181 9.66117 22.2726 9.66117L23.2777 9.66103L23.2778 10.4523Z" fill="#012768"/>
</g>
<defs>
<clipPath id="clip0_1108_37387">
<rect width="24" height="24" fill="white"/>
</clipPath>
</defs>
</svg>
