<svg width="22" height="21" viewBox="0 0 22 21" fill="none" xmlns="http://www.w3.org/2000/svg">
<path d="M0.510814 10.0798L5.33882 12.1436L7.2209 19.0854C7.30273 19.5545 7.79372 19.6483 8.12104 19.3668L10.8214 16.834C11.0669 16.5526 11.4761 16.5526 11.8034 16.834L16.6314 20.8678C16.9587 21.1492 17.4497 20.9616 17.5315 20.4925L21.132 0.79282C21.2139 0.323779 20.8047 -0.145258 20.3956 0.0423587L0.510814 8.86033C0.0198328 9.04795 0.0198328 9.89222 0.510814 10.0798ZM6.97542 11.1117L16.4677 4.45134C16.6314 4.35753 16.795 4.63896 16.6314 4.73277L8.85751 13.0817C8.61202 13.3631 8.36652 13.7384 8.36652 14.2074L8.12104 16.4588C8.12104 16.7402 7.71189 16.834 7.63006 16.4588L6.64808 12.3312C6.40259 11.8622 6.56627 11.2993 6.97542 11.1117Z" fill="#012768"/>
</svg>
