<svg width="30" height="30" viewBox="0 0 30 30" fill="none" xmlns="http://www.w3.org/2000/svg">
<path d="M13.8098 11.4989C13.8098 11.4989 12.7884 9.04401 11.0143 8.811C11.0143 8.811 11.2801 9.1023 11.6956 9.63331C12.9252 11.2048 15.4705 14.8835 16.3544 19.3835C16.3544 19.3835 17.6447 8.70348 23.4505 6.05148C23.4505 6.05148 18.3255 11.7141 17.1786 23.4693H15.5301C15.5301 23.4693 15.1717 16.5165 12.0175 12.5023C12.0175 12.5023 9.58055 12.7174 8.72032 11.0688C7.86009 9.42026 8.07544 7.70008 7 6.05142C14.9803 5.38216 13.8095 11.4987 13.8095 11.4987L13.8098 11.4989Z" fill="#346C04"/>
</svg>
