<svg width="30" height="30" viewBox="0 0 30 30" fill="none" xmlns="http://www.w3.org/2000/svg">
<path d="M12.9028 23.087C11.962 22.5303 11.2901 21.551 11.2516 20.3991C11.194 18.2487 12.6916 17.1927 13.5749 15.7527C14.8421 13.6791 14.4965 12.3927 14.4965 12.3927C14.4965 12.3927 15.5525 12.9879 16.1668 15.196C16.3589 15.8487 16.3972 16.5015 16.3396 17.116C16.2436 18.6711 15.5717 20.0727 15.5717 20.0727C15.5717 20.0727 16.7429 19.8231 17.0693 17.6919C17.6069 18.2486 18.106 19.0551 18.1637 19.8998C18.2598 21.3591 17.3957 22.7031 16.0901 23.2791C18.3557 22.7606 19.9685 20.8406 20.5253 19.4391C21.2357 17.6727 21.0438 16.0982 20.9286 14.7351C20.775 12.8727 21.4278 11.4902 21.4278 11.4902C21.4278 11.4902 20.1798 11.8551 19.2581 13.3718C18.8357 14.063 18.663 15.0806 18.663 15.0806C18.663 15.0806 18.759 14.1782 18.1638 12.527C17.5686 10.9142 17.031 10.3382 16.7046 9.14782C16.2822 7.55422 17.2229 5.99902 17.2229 5.99902C17.2229 5.99902 13.4981 6.69022 11.8085 9.93502C10.3109 12.815 10.9253 14.543 10.9253 14.543C10.9253 14.543 10.2917 13.9479 9.96527 13.1222C9.63888 12.2967 9.71563 11.5477 9.71563 11.5477C9.71563 11.5477 7.06599 14.4662 8.35236 18.1333C9.21646 20.7064 10.8868 22.3957 12.9028 23.0869L12.9028 23.087Z" fill="#A87E5C"/>
</svg>
