<svg width="22" height="21" viewBox="0 0 22 21" fill="none" xmlns="http://www.w3.org/2000/svg">
<path d="M18.0694 3.0625C16.0938 1.09375 13.4596 0 10.6792 0C4.89867 0 0.215748 4.66667 0.215748 10.4271C0.215748 12.25 0.727944 14.0729 1.60599 15.6042L0.142578 21L5.70356 19.5417C7.24014 20.3438 8.92306 20.7812 10.6792 20.7812C16.4596 20.7812 21.1426 16.1146 21.1426 10.3542C21.0694 7.65625 20.045 5.03125 18.0694 3.0625ZM15.7279 14.1458C15.5084 14.7292 14.484 15.3125 13.9718 15.3854C13.5328 15.4583 12.9475 15.4583 12.3621 15.3125C11.9962 15.1667 11.484 15.0208 10.8987 14.7292C8.26453 13.6354 6.5816 11.0104 6.43526 10.7917C6.28892 10.6458 5.3377 9.40625 5.3377 8.09375C5.3377 6.78125 5.99624 6.19792 6.21575 5.90625C6.43526 5.61458 6.72794 5.61458 6.94746 5.61458C7.0938 5.61458 7.31331 5.61458 7.45965 5.61458C7.60599 5.61458 7.8255 5.54167 8.04502 6.05208C8.26453 6.5625 8.77672 7.875 8.84989 7.94792C8.92306 8.09375 8.92306 8.23958 8.84989 8.38542C8.77672 8.53125 8.70355 8.67708 8.55721 8.82292C8.41087 8.96875 8.26453 9.1875 8.19136 9.26042C8.04501 9.40625 7.89867 9.55208 8.04502 9.77083C8.19136 10.0625 8.70355 10.8646 9.50843 11.5937C10.5328 12.4687 11.3377 12.7604 11.6304 12.9063C11.9231 13.0521 12.0694 12.9792 12.2157 12.8333C12.3621 12.6875 12.8743 12.1042 13.0206 11.8125C13.167 11.5208 13.3865 11.5938 13.606 11.6667C13.8255 11.7396 15.1426 12.3958 15.3621 12.5417C15.6548 12.6875 15.8011 12.7604 15.8743 12.8333C15.9475 13.0521 15.9475 13.5625 15.7279 14.1458Z" fill="#012768"/>
</svg>
