<svg width="24" height="24" viewBox="0 0 24 24" fill="none" xmlns="http://www.w3.org/2000/svg">
<path d="M11.6617 14.6533C11.649 14.8826 11.6372 15.0776 11.6274 15.2322C8.20339 14.9351 8.20219 14.4272 8.20219 14.2017C8.20219 13.7178 10.4754 8.8075 11.6894 6.21928C11.7053 6.60794 11.7214 7.03545 11.7361 7.48167C10.4321 10.2852 8.97452 13.5015 8.79466 14.1403C9.10577 14.3267 10.3722 14.5307 11.6617 14.6532L11.6617 14.6533ZM12.2021 15.9551C12.2194 15.9533 13.9582 15.7933 15.6742 15.5572C19.1089 15.0847 19.3819 14.7659 19.3819 14.3984C19.3819 14.3758 19.3792 14.353 19.3738 14.3311C18.4584 10.5257 12.6322 4.3512 12.3847 4.08994C12.3018 4.00235 12.1724 3.97557 12.0617 4.02365C11.9508 4.07146 11.8815 4.18342 11.8881 4.30396C11.89 4.33878 12.0795 7.81412 12.0795 10.3999C12.0796 12.9826 11.8902 15.6206 11.8883 15.647C11.8822 15.7314 11.9135 15.814 11.9738 15.8734C12.0279 15.9264 12.1005 15.9559 12.1755 15.9559C12.1843 15.956 12.1932 15.9556 12.2019 15.9548L12.2021 15.9551ZM18.7801 14.3321C18.2238 14.6499 15.2755 15.0823 12.4856 15.3498C12.5367 14.55 12.6559 12.4585 12.6557 10.4004C12.6557 8.55403 12.56 6.26004 12.5034 5.07067C13.9673 6.69293 17.9724 11.3281 18.7801 14.3319L18.7801 14.3321ZM9.34884 5.11545C9.34965 5.11411 9.44956 4.96813 9.6854 4.96813C9.83286 4.96813 9.92848 5.00898 10.0494 5.06081C10.1895 5.12067 10.3639 5.19527 10.6138 5.19527C11.0938 5.19527 11.3561 4.98045 11.3845 4.95594C11.5025 4.85375 11.5147 4.67884 11.4156 4.55806C11.3166 4.43725 11.1362 4.41998 11.0132 4.5156C11.0077 4.51989 10.8766 4.61926 10.6138 4.61926C10.482 4.61926 10.3955 4.5823 10.2759 4.53113C10.1311 4.46926 9.95085 4.39225 9.6854 4.39225C9.23619 4.39225 8.9536 4.65783 8.85757 4.81479C8.77453 4.95046 8.81712 5.12778 8.95279 5.21082C8.99967 5.23948 9.05163 5.25314 9.10292 5.25314C9.19989 5.25314 9.29444 5.20426 9.34882 5.11546L9.34884 5.11545ZM17.7735 19.0683C17.9281 18.8898 18.2787 18.8907 18.4322 19.0685C18.5985 19.2607 18.8499 19.3709 19.1222 19.3709C19.3942 19.3709 19.6457 19.2607 19.812 19.0682C19.8889 18.9791 20.0089 18.9281 20.1412 18.9281H20.1414C20.2736 18.9281 20.3936 18.9791 20.4703 19.0682C20.5744 19.1887 20.7562 19.2019 20.8766 19.0981C20.997 18.994 21.0103 18.8121 20.9065 18.6917C20.7201 18.4761 20.4414 18.3523 20.1415 18.3522H20.1414C19.8415 18.3522 19.5628 18.476 19.3764 18.6916C19.2647 18.821 18.9799 18.8208 18.8682 18.6917C18.682 18.4762 18.4033 18.3523 18.1032 18.3522C17.8033 18.3522 17.5243 18.476 17.3381 18.6916C17.2822 18.7563 17.1873 18.7948 17.084 18.7948H17.0839C16.9807 18.7947 16.8859 18.7563 16.8299 18.6917C16.6435 18.4761 16.3648 18.3523 16.065 18.3523C15.765 18.3523 15.4861 18.4761 15.2998 18.6916C15.1881 18.821 14.9033 18.8208 14.7916 18.6917C14.6052 18.476 14.3265 18.3522 14.0265 18.3522C13.7266 18.3522 13.4479 18.476 13.2615 18.6917C13.1498 18.8207 12.8649 18.8207 12.7532 18.6917C12.5671 18.4762 12.2884 18.3523 11.9883 18.3522C11.6883 18.3522 11.4093 18.476 11.2233 18.6916C11.1117 18.821 10.8269 18.8208 10.715 18.6917C10.5286 18.476 10.2499 18.3522 9.95005 18.3522C9.65005 18.3522 9.3712 18.476 9.18493 18.6916C9.12908 18.7563 9.03413 18.7948 8.93087 18.7948H8.93073C8.82761 18.7947 8.73279 18.7563 8.67681 18.6917C8.49038 18.476 8.21169 18.3522 7.91182 18.3522C7.61182 18.3522 7.33298 18.476 7.14671 18.6916C7.03514 18.821 6.75029 18.8208 6.63845 18.6917C6.45203 18.476 6.17334 18.3522 5.87347 18.3522C5.57347 18.3522 5.29463 18.476 5.10835 18.6917C4.99639 18.8207 4.71181 18.8206 4.60024 18.6917C4.41381 18.476 4.13512 18.3522 3.83526 18.3522C3.53526 18.3522 3.25642 18.476 3.07014 18.6917C2.96608 18.8121 2.97934 18.994 3.09974 19.0978C3.22014 19.202 3.40242 19.1887 3.50582 19.0682C3.65957 18.8902 4.01061 18.8897 4.16448 19.0683C4.33082 19.2605 4.58208 19.3707 4.85434 19.3707H4.85448C5.12675 19.3706 5.37812 19.2602 5.54406 19.0681C5.69768 18.8903 6.04885 18.8894 6.20272 19.0682C6.36907 19.2604 6.62046 19.3706 6.89259 19.3706C7.16486 19.3706 7.41623 19.2604 7.58259 19.0679C7.7362 18.8902 8.08737 18.8894 8.24125 19.0679C8.40718 19.2601 8.65857 19.3703 8.93083 19.3706H8.93097C9.20298 19.3705 9.45451 19.2604 9.62083 19.0679C9.77445 18.8902 10.1253 18.8893 10.2795 19.0681C10.4458 19.2602 10.6972 19.3705 10.9694 19.3705C11.2416 19.3705 11.493 19.2602 11.6595 19.0677C11.8131 18.8895 12.1643 18.8903 12.3177 19.0681C12.4841 19.2602 12.7355 19.3705 13.0077 19.3705H13.0079C13.2801 19.3703 13.5315 19.26 13.6975 19.0678C13.8516 18.8893 14.2026 18.8898 14.3561 19.0679C14.5225 19.2601 14.7739 19.3703 15.046 19.3703C15.3183 19.3703 15.5696 19.2601 15.736 19.0677C15.8897 18.8901 16.2409 18.8897 16.3946 19.0677C16.5606 19.2598 16.812 19.3701 17.0842 19.3703H17.0844C17.3561 19.3707 17.6075 19.2606 17.7738 19.0683L17.7735 19.0683ZM6.78256 18.566C6.79127 18.576 6.8293 18.5966 6.89185 18.5966C6.95412 18.5966 6.99189 18.5762 7.0006 18.5661C7.09984 18.4512 7.22171 18.3596 7.35672 18.2917C6.64999 18.0595 6.33216 17.5686 6.21631 17.2864C7.90838 17.0112 17.9146 16.5439 19.7434 16.6503C19.5828 17.0494 19.1648 17.8086 18.5301 18.2368C18.7167 18.3049 18.8837 18.4162 19.0132 18.5661C19.0167 18.5701 19.0263 18.5759 19.0393 18.5814C19.9274 17.8776 20.3928 16.7103 20.3928 16.424C20.3928 16.117 20.0656 16.0974 19.827 16.0829C19.6358 16.0715 19.3562 16.0657 18.9955 16.0657C17.4083 16.0657 14.2607 16.1776 11.163 16.3441C5.58435 16.6441 5.58435 16.7471 5.58435 17.0883C5.58435 17.299 5.7377 17.7677 6.13532 18.1879C6.38831 18.2418 6.61587 18.3731 6.78233 18.5659L6.78256 18.566Z" fill="#012768"/>
</svg>
