<svg width="24" height="24" viewBox="0 0 24 24" fill="none" xmlns="http://www.w3.org/2000/svg">
<path d="M17.7939 6.1889L18.1648 3.40785C18.1648 3.2966 18.1648 3.18536 18.0907 3.11124C18.0164 3.03712 17.9052 3 17.794 3H4.37085C4.25961 3 4.14837 3.03712 4.11124 3.11124C4.03712 3.22248 4 3.2966 4 3.40785L6.00236 18.2031L5.70575 20.3909C5.70575 20.5021 5.70575 20.6134 5.77987 20.6875C5.85399 20.7616 5.96523 20.7987 6.07648 20.7987H16.1254C16.3479 20.7987 16.4963 20.6504 16.4963 20.4279C16.4963 20.3908 16.4963 20.3538 16.4592 20.3167L16.1626 18.2031L16.9413 12.4556C17.4604 12.641 17.9796 12.7523 18.3874 12.7523H18.4987C18.9807 12.7151 19.3886 12.5298 19.6482 12.2332C20.6492 10.9724 19.3515 8.3025 17.7941 6.1889H17.7939ZM6.48444 20.0573L6.70693 18.574H15.4579L15.6803 20.0573H6.48444ZM15.4579 17.8325H6.70693L4.77869 3.74157H17.349L16.3107 11.3432C15.1242 10.7129 13.7151 9.63747 12.3801 8.33969C12.4542 8.26557 12.4913 8.15433 12.5654 8.08008C12.862 7.48675 12.7879 6.7823 12.3801 6.18896C12.343 6.11484 12.2688 6.0406 12.1947 6.0036C11.861 5.74399 11.4532 5.63275 11.0823 5.63275C10.452 5.63275 9.85864 5.96648 9.56204 6.55981C9.26543 7.15315 9.33955 7.8576 9.7474 8.45093C9.78452 8.52505 9.85864 8.5993 9.93276 8.63629C10.2665 8.8959 10.6743 9.00714 11.0452 9.00714C11.3048 9.00714 11.5643 8.93302 11.7867 8.82178C13.307 10.3051 14.8644 11.4916 16.1992 12.1219L15.4579 17.8325ZM11.0822 8.26563C10.8598 8.26563 10.6001 8.19151 10.3777 8.00603C10.1181 7.63518 10.0811 7.22733 10.2293 6.8936C10.4148 6.55988 10.7485 6.33739 11.0822 6.33739C11.3047 6.33739 11.5643 6.41151 11.7868 6.597C12.0464 6.96785 12.0834 7.3757 11.9352 7.70942C11.7868 8.04315 11.4531 8.26563 11.0822 8.26563ZM19.0917 11.751C18.9804 11.8994 18.7579 12.0106 18.4613 12.0106H18.3872C18.0164 12.0106 17.5714 11.8994 17.0523 11.6769L17.6456 7.26439C19.1659 9.52623 19.5366 11.1947 19.0917 11.7509V11.751Z" fill="#012768"/>
</svg>
