<svg width="24" height="24" viewBox="0 0 24 24" fill="none" xmlns="http://www.w3.org/2000/svg">
<path d="M15.8496 21.6371H9.14339C4.65314 21.6371 1 17.9842 1 13.4937C1 13.2289 1.21423 13.0146 1.47905 13.0146H23.5135C23.7783 13.0146 23.9926 13.2289 23.9926 13.4937C23.9926 17.9839 20.3397 21.6371 15.8492 21.6371H15.8496ZM1.97411 13.9727C2.22153 17.7122 5.34258 20.679 9.14339 20.679H15.8496C19.6504 20.679 22.7716 17.7122 23.0189 13.9727H1.97411Z" fill="#012768"/>
<path d="M8.66558 23.0742C8.40078 23.0742 8.18652 22.86 8.18652 22.5951V21.158C8.18652 20.8932 8.40076 20.679 8.66558 20.679C8.9304 20.679 9.14464 20.8932 9.14464 21.158V22.5951C9.14464 22.8599 8.93023 23.0742 8.66558 23.0742V23.0742Z" fill="#012768"/>
<path d="M16.2984 23.0742C16.0336 23.0742 15.8193 22.86 15.8193 22.5951V21.158C15.8193 20.8932 16.0336 20.679 16.2984 20.679C16.5632 20.679 16.7775 20.8932 16.7775 21.158V22.5951C16.7775 22.8599 16.5632 23.0742 16.2984 23.0742V23.0742Z" fill="#012768"/>
<path d="M14.033 9.66183C13.155 9.66183 12.4668 8.758 12.4668 7.6041C12.4668 6.57549 13.5558 5.35821 13.6798 5.22303C13.8613 5.02461 14.2047 5.02461 14.3861 5.22303C14.51 5.35821 15.5995 6.57532 15.5995 7.6041C15.5995 8.75813 14.9115 9.66183 14.033 9.66183ZM14.033 6.30497C13.7256 6.72405 13.4249 7.24897 13.4249 7.6041C13.4249 8.23376 13.7458 8.70395 14.033 8.70395C14.3202 8.70395 14.6416 8.2338 14.6416 7.6041C14.6416 7.24912 14.3407 6.72424 14.033 6.30497V6.30497Z" fill="#012768"/>
<path d="M9.1136 12.0566C8.23511 12.0566 7.54688 11.1527 7.54688 9.99881C7.54688 8.97021 8.63628 7.75291 8.76034 7.61774C8.85103 7.51852 8.97926 7.4624 9.11357 7.4624C9.24788 7.4624 9.37593 7.51852 9.4668 7.61774C9.59069 7.75292 10.6798 8.97003 10.6798 9.99881C10.6796 11.1529 9.99153 12.0566 9.11359 12.0566H9.1136ZM9.11255 8.70105C8.80519 9.1198 8.50496 9.64417 8.50496 9.99864C8.50496 10.6283 8.8264 11.0985 9.11362 11.0985C9.40083 11.0985 9.72175 10.6283 9.72175 9.99864C9.72175 9.63862 9.40865 9.10658 9.1126 8.70105H9.11255Z" fill="#012768"/>
</svg>
