<svg width="24" height="24" viewBox="0 0 24 24" fill="none" xmlns="http://www.w3.org/2000/svg">
<path d="M21 11.4773C21 11.3582 20.9527 11.244 20.8686 11.16C20.7844 11.0757 20.6703 11.0285 20.5511 11.0285H7.2419V5.14815C7.30154 4.66597 7.59399 4.24358 8.02451 4.01798C8.45503 3.79254 8.96883 3.79254 9.39923 4.01798C9.82976 4.24357 10.1222 4.66597 10.182 5.14815V6.13572H11.0797V5.14815C11.0027 4.35676 10.5352 3.65631 9.83413 3.28122C9.13291 2.90626 8.29079 2.90626 7.58974 3.28122C6.88852 3.65633 6.42121 4.35676 6.34402 5.14815V11.0285H3.44884C3.20085 11.0285 3 11.2293 3 11.4773V12.824C3.00094 14.1742 3.50879 15.4748 4.42342 16.4683C5.33785 17.4617 6.59202 18.0756 7.93766 18.1881C8.04302 18.7846 8.35471 19.325 8.81846 19.7149C9.282 20.1047 9.86803 20.3188 10.4739 20.3202H13.5261C14.132 20.3188 14.718 20.1047 15.1815 19.7149C15.6452 19.325 15.957 18.7846 16.0623 18.1881C17.4079 18.0755 18.6621 17.4617 19.5766 16.4683C20.4912 15.4748 20.999 14.1742 21 12.824L21 11.4773ZM13.5262 19.4225H10.4739C10.1096 19.4225 9.75518 19.3044 9.46385 19.0859C9.17252 18.8673 8.9599 18.5601 8.85798 18.2105H15.1423C15.0404 18.5601 14.8277 18.8673 14.5364 19.0859C14.2451 19.3044 13.8906 19.4225 13.5263 19.4225H13.5262ZM20.1022 12.8239C20.1022 14.0144 19.6292 15.1561 18.7874 15.998C17.9456 16.8398 16.8039 17.3127 15.6134 17.3127H8.3865C7.19605 17.3127 6.0543 16.8398 5.21249 15.998C4.37069 15.1561 3.89772 14.0144 3.89772 12.8239V11.9263L20.1022 11.9261V12.8239Z" fill="#012768"/>
</svg>
