<svg width="24" height="24" viewBox="0 0 24 24" fill="none" xmlns="http://www.w3.org/2000/svg">
<g clip-path="url(#clip0_163_1528)">
<path d="M2.64706 21.8026C2.4347 21.8034 2.22976 21.7245 2.07282 21.5814C1.91587 21.4383 1.81835 21.2416 1.79956 21.0301L-0.000442255 2.1788C-0.0186085 1.99464 0.00204106 1.80871 0.0601737 1.63302C0.118306 1.45733 0.21263 1.29578 0.337058 1.1588C0.463084 1.02212 0.616199 0.91318 0.786648 0.838931C0.957096 0.764683 1.14114 0.726751 1.32706 0.727551H9.97831C10.1647 0.727528 10.349 0.766744 10.5192 0.84265C10.6894 0.918556 10.8417 1.02945 10.9662 1.16812C11.0907 1.30678 11.1846 1.47011 11.2419 1.64747C11.2991 1.82484 11.3183 2.01226 11.2983 2.19755L9.25456 21.0188C9.2306 21.2256 9.13135 21.4164 8.97573 21.5547C8.82011 21.6931 8.61902 21.7693 8.41081 21.7688L2.65081 21.7951L2.64706 21.8026ZM1.32706 1.08005C1.19281 1.08202 1.06042 1.11179 0.938263 1.1675C0.816103 1.22321 0.706819 1.30364 0.617314 1.40372C0.527808 1.5038 0.460023 1.62135 0.41824 1.74894C0.376457 1.87654 0.361584 2.01142 0.374558 2.14505L2.15206 21.0001C2.16414 21.1231 2.22147 21.2372 2.31292 21.3203C2.40438 21.4035 2.52346 21.4497 2.64706 21.4501V21.4501L8.41081 21.4238C8.53307 21.4244 8.65117 21.3794 8.74201 21.2976C8.83286 21.2157 8.88993 21.103 8.90206 20.9813L10.9421 2.16005C10.9571 2.02519 10.9435 1.88867 10.9022 1.75942C10.8608 1.63018 10.7926 1.51112 10.7021 1.41005C10.6111 1.30795 10.4996 1.22614 10.3749 1.16993C10.2502 1.11372 10.1151 1.08438 9.97831 1.0838L1.32706 1.08005Z" fill="black"/>
<path d="M10.9423 4.04253H0.37479C0.331991 4.0363 0.292865 4.01488 0.26457 3.98217C0.236275 3.94946 0.220703 3.90765 0.220703 3.8644C0.220703 3.82116 0.236275 3.77935 0.26457 3.74664C0.292865 3.71393 0.331991 3.69251 0.37479 3.68628H10.9423C10.9851 3.69251 11.0242 3.71393 11.0525 3.74664C11.0808 3.77935 11.0964 3.82116 11.0964 3.8644C11.0964 3.90765 11.0808 3.94946 11.0525 3.98217C11.0242 4.01488 10.9851 4.0363 10.9423 4.04253ZM9.37479 18.315H1.81104C1.76131 18.315 1.71362 18.2953 1.67846 18.2601C1.64329 18.2249 1.62354 18.1773 1.62354 18.1275C1.62354 18.0778 1.64329 18.0301 1.67846 17.9949C1.71362 17.9598 1.76131 17.94 1.81104 17.94H9.37479C9.42452 17.94 9.47221 17.9598 9.50737 17.9949C9.54254 18.0301 9.56229 18.0778 9.56229 18.1275C9.56229 18.1773 9.54254 18.2249 9.50737 18.2601C9.47221 18.2953 9.42452 18.315 9.37479 18.315ZM5.65104 12.5325C5.08572 12.5325 4.5331 12.3648 4.06311 12.0507C3.59311 11.7365 3.22686 11.29 3.0107 10.7677C2.79453 10.2453 2.73816 9.67058 2.84872 9.11618C2.95929 8.56178 3.23181 8.05262 3.63181 7.65315C4.03182 7.25367 4.54132 6.98181 5.09587 6.87198C5.65042 6.76215 6.22508 6.81927 6.74716 7.03612C7.26923 7.25297 7.71525 7.61981 8.02879 8.09022C8.34232 8.56062 8.50928 9.11346 8.50854 9.67878C8.50854 10.0539 8.4346 10.4253 8.29095 10.7717C8.1473 11.1182 7.93676 11.433 7.67137 11.698C7.40598 11.9631 7.09094 12.1732 6.74427 12.3164C6.39761 12.4596 6.02612 12.533 5.65104 12.5325V12.5325ZM5.65104 7.17753C5.15634 7.17753 4.67275 7.32422 4.26142 7.59907C3.85009 7.87391 3.5295 8.26455 3.34019 8.72159C3.15087 9.17864 3.10134 9.68155 3.19785 10.1667C3.29436 10.6519 3.53258 11.0976 3.88239 11.4474C4.2322 11.7972 4.67788 12.0355 5.16307 12.132C5.64827 12.2285 6.15118 12.1789 6.60823 11.9896C7.06527 11.8003 7.45591 11.4797 7.73075 11.0684C8.00559 10.6571 8.15229 10.1735 8.15229 9.67878C8.15229 9.35031 8.08759 9.02506 7.96189 8.72159C7.83619 8.41813 7.65195 8.14239 7.41969 7.91013C7.18743 7.67787 6.91169 7.49363 6.60823 7.36793C6.30476 7.24223 5.97951 7.17753 5.65104 7.17753V7.17753ZM7.12479 23.5688H4.18479C4.09386 23.5688 4.00383 23.5508 3.91987 23.5159C3.83591 23.481 3.75968 23.4298 3.69556 23.3654C3.63143 23.3009 3.58069 23.2244 3.54623 23.1402C3.51178 23.0561 3.4943 22.966 3.49479 22.875V21.615C3.49107 21.5895 3.4929 21.5634 3.50014 21.5386C3.50739 21.5138 3.51988 21.4909 3.53678 21.4714C3.55368 21.4518 3.57458 21.4362 3.59807 21.4254C3.62156 21.4147 3.64709 21.4091 3.67291 21.4091C3.69874 21.4091 3.72427 21.4147 3.74776 21.4254C3.77125 21.4362 3.79215 21.4518 3.80905 21.4714C3.82595 21.4909 3.83844 21.5138 3.84569 21.5386C3.85293 21.5634 3.85476 21.5895 3.85104 21.615V22.875C3.85203 22.9629 3.88763 23.0468 3.95011 23.1086C4.01259 23.1704 4.09692 23.205 4.18479 23.205H7.12479C7.21231 23.205 7.29625 23.1703 7.35813 23.1084C7.42002 23.0465 7.45479 22.9626 7.45479 22.875V21.6038C7.45479 21.556 7.47375 21.5103 7.50751 21.4765C7.54127 21.4427 7.58705 21.4238 7.63479 21.4238C7.65825 21.4238 7.68148 21.4285 7.70312 21.4375C7.72475 21.4466 7.74435 21.46 7.76076 21.4767C7.77718 21.4935 7.79008 21.5134 7.79872 21.5352C7.80735 21.557 7.81154 21.5803 7.81104 21.6038V22.875C7.81203 22.9658 7.79501 23.0558 7.76097 23.14C7.72693 23.2241 7.67654 23.3006 7.61271 23.3651C7.54889 23.4297 7.4729 23.4809 7.38915 23.5158C7.3054 23.5508 7.21554 23.5688 7.12479 23.5688V23.5688ZM23.7035 22.0238H13.5598C13.4812 22.0238 13.4059 21.9926 13.3503 21.937C13.2948 21.8815 13.2635 21.8061 13.2635 21.7275V5.71503C13.2635 5.64872 13.2767 5.58307 13.3021 5.52186C13.3276 5.46065 13.365 5.40509 13.412 5.35838C13.4591 5.31167 13.5149 5.27473 13.5763 5.2497C13.6377 5.22467 13.7035 5.21203 13.7698 5.21253H23.4935C23.5598 5.21203 23.6256 5.22467 23.687 5.2497C23.7484 5.27473 23.8042 5.31167 23.8513 5.35838C23.8983 5.40509 23.9357 5.46065 23.9612 5.52186C23.9867 5.58307 23.9998 5.64872 23.9998 5.71503V21.7275C23.9998 21.8061 23.9686 21.8815 23.913 21.937C23.8575 21.9926 23.7821 22.0238 23.7035 22.0238V22.0238ZM13.6198 21.6675H23.6435V5.71503C23.6435 5.6955 23.6396 5.67617 23.6321 5.65818C23.6245 5.64019 23.6134 5.6239 23.5994 5.61027C23.5854 5.59664 23.5688 5.58594 23.5507 5.57882C23.5325 5.57169 23.5131 5.56828 23.4935 5.56878H13.7698C13.7503 5.56828 13.7308 5.57169 13.7127 5.57882C13.6945 5.58594 13.6779 5.59664 13.6639 5.61027C13.65 5.6239 13.6389 5.64019 13.6313 5.65818C13.6237 5.67617 13.6198 5.6955 13.6198 5.71503V21.6675Z" fill="black"/>
<path d="M22.1251 20.2686H15.1313C15.0846 20.2686 15.0398 20.25 15.0067 20.217C14.9736 20.1839 14.9551 20.1391 14.9551 20.0924V8.50486C14.9551 8.45812 14.9736 8.41329 15.0067 8.38024C15.0398 8.34718 15.0846 8.32861 15.1313 8.32861H22.1251C22.1718 8.32861 22.2167 8.34718 22.2497 8.38024C22.2828 8.41329 22.3013 8.45812 22.3013 8.50486V20.0924C22.3013 20.1391 22.2828 20.1839 22.2497 20.217C22.2167 20.25 22.1718 20.2686 22.1251 20.2686V20.2686ZM15.3001 19.9124H21.9563V8.68486H15.3076L15.3001 19.9124ZM21.0001 5.58736C20.9533 5.58736 20.9085 5.56879 20.8755 5.53574C20.8424 5.50269 20.8238 5.45786 20.8238 5.41111V4.01986H16.4513V5.41111C16.4451 5.45391 16.4237 5.49304 16.391 5.52133C16.3583 5.54963 16.3165 5.5652 16.2732 5.5652C16.23 5.5652 16.1881 5.54963 16.1554 5.52133C16.1227 5.49304 16.1013 5.45391 16.0951 5.41111V3.83986C16.0951 3.8164 16.0998 3.79317 16.1088 3.77154C16.1179 3.74991 16.1313 3.73031 16.148 3.71389C16.1648 3.69748 16.1847 3.68457 16.2065 3.67594C16.2283 3.6673 16.2516 3.66311 16.2751 3.66361H21.0001C21.0472 3.6636 21.0924 3.68205 21.126 3.715C21.1597 3.74795 21.1791 3.79278 21.1801 3.83986V5.41111C21.1791 5.4582 21.1597 5.50303 21.126 5.53598C21.0924 5.56893 21.0472 5.58737 21.0001 5.58736V5.58736Z" fill="black"/>
<path d="M20.329 4.02016C20.2815 4.0192 20.2363 3.99993 20.2028 3.96637C20.1692 3.93282 20.1499 3.88759 20.149 3.84016V2.69266C20.149 2.64655 20.1309 2.60228 20.0987 2.56934C20.0664 2.53639 20.0226 2.51739 19.9765 2.51641H17.3215C17.2747 2.51641 17.2299 2.53498 17.1969 2.56803C17.1638 2.60108 17.1452 2.64591 17.1452 2.69266V3.84016C17.149 3.86571 17.1471 3.89177 17.1399 3.91657C17.1326 3.94136 17.1201 3.9643 17.1032 3.98383C17.0863 4.00336 17.0654 4.01903 17.042 4.02977C17.0185 4.04051 16.9929 4.04607 16.9671 4.04607C16.9413 4.04607 16.9158 4.04051 16.8923 4.02977C16.8688 4.01903 16.8479 4.00336 16.831 3.98383C16.8141 3.9643 16.8016 3.94136 16.7943 3.91657C16.7871 3.89177 16.7853 3.86571 16.789 3.84016V2.69266C16.79 2.55173 16.8464 2.41686 16.946 2.31721C17.0457 2.21756 17.1806 2.16114 17.3215 2.16016H19.9765C20.1171 2.16115 20.2515 2.21769 20.3506 2.31744C20.4496 2.4172 20.5052 2.55208 20.5052 2.69266V3.84016C20.5052 3.88725 20.4868 3.93248 20.4538 3.96613C20.4209 3.99978 20.3761 4.01917 20.329 4.02016V4.02016Z" fill="black"/>
<path d="M18.6632 2.5164C18.6397 2.5169 18.6164 2.51271 18.5946 2.50408C18.5727 2.49544 18.5529 2.48254 18.5361 2.46612C18.5193 2.44971 18.506 2.43011 18.4969 2.40848C18.4878 2.38684 18.4831 2.36362 18.4832 2.34015V0.787651H16.0157L14.6244 1.80015C14.6057 1.81404 14.5845 1.82409 14.5619 1.82972C14.5393 1.83535 14.5158 1.83646 14.4928 1.83297C14.4698 1.82949 14.4477 1.82148 14.4278 1.80941C14.4079 1.79734 14.3906 1.78145 14.3769 1.76265C14.3487 1.72433 14.3367 1.67637 14.3438 1.62928C14.3508 1.58219 14.3762 1.53981 14.4144 1.5114L15.8732 0.465151C15.9036 0.442958 15.9404 0.431129 15.9782 0.431401H18.6819C18.7286 0.431401 18.7735 0.44997 18.8065 0.483024C18.8396 0.516077 18.8582 0.560907 18.8582 0.607651V2.34015C18.8583 2.36496 18.8532 2.38952 18.8432 2.41223C18.8332 2.43493 18.8185 2.45527 18.8001 2.47191C18.7817 2.48854 18.76 2.50111 18.7364 2.50878C18.7128 2.51644 18.6878 2.51904 18.6632 2.5164V2.5164Z" fill="black"/>
<path d="M20.7746 0.787442H18.6634C18.6157 0.787442 18.5699 0.768478 18.5361 0.734721C18.5024 0.700965 18.4834 0.655181 18.4834 0.607442C18.4834 0.583978 18.4881 0.560749 18.4972 0.539117C18.5063 0.517485 18.5196 0.497886 18.5363 0.48147C18.5531 0.465054 18.573 0.45215 18.5948 0.443517C18.6166 0.434883 18.6399 0.430693 18.6634 0.431192H20.7746C20.8217 0.431182 20.867 0.449631 20.9006 0.48258C20.9343 0.51553 20.9537 0.560356 20.9546 0.607442C20.9537 0.654881 20.9344 0.70011 20.9009 0.733661C20.8673 0.767212 20.8221 0.786484 20.7746 0.787442V0.787442Z" fill="black"/>
</g>
<defs>
<clipPath id="clip0_163_1528">
<rect width="24" height="24" fill="white"/>
</clipPath>
</defs>
</svg>
