<svg width="24" height="24" viewBox="0 0 24 24" fill="none" xmlns="http://www.w3.org/2000/svg">
<path d="M20.0489 10.6522V5.6521C20.0486 5.35383 19.93 5.06787 19.7191 4.85696C19.5082 4.64606 19.2222 4.52743 18.9239 4.5271H5.07715C4.77888 4.52743 4.49292 4.64606 4.28201 4.85696C4.07111 5.06787 3.95247 5.35383 3.95215 5.6521V10.6523C3.57345 10.7715 3.24247 11.008 3.00706 11.3277C2.77164 11.6474 2.644 12.0337 2.64258 12.4307V16.5593C2.64284 16.7582 2.72194 16.9488 2.86253 17.0894C3.00313 17.23 3.19375 17.3091 3.39258 17.3093H3.84485V18.7233C3.84511 18.9221 3.92421 19.1127 4.06481 19.2533C4.2054 19.3939 4.39602 19.473 4.59485 19.4733H5.71765C5.91649 19.473 6.1071 19.3939 6.2477 19.2533C6.38829 19.1127 6.46739 18.9221 6.46765 18.7233V17.3093H17.5334V18.7233C17.5337 18.9221 17.6128 19.1127 17.7534 19.2533C17.894 19.3939 18.0846 19.473 18.2834 19.4733H19.4063C19.6051 19.473 19.7957 19.3939 19.9363 19.2533C20.0769 19.1127 20.156 18.9221 20.1563 18.7233V17.3093H20.6089C20.8077 17.3091 20.9983 17.23 21.1389 17.0894C21.2795 16.9488 21.3586 16.7582 21.3589 16.5593V12.4307C21.3575 12.0336 21.2298 11.6473 20.9943 11.3276C20.7588 11.0078 20.4277 10.7713 20.0489 10.6522ZM4.70215 5.6521C4.70222 5.55266 4.74175 5.45732 4.81206 5.38701C4.88237 5.3167 4.97771 5.27717 5.07715 5.2771H18.9239C19.0234 5.27717 19.1187 5.3167 19.189 5.38701C19.2594 5.45732 19.2989 5.55266 19.2989 5.6521V10.5557H18.2546C18.2991 10.4356 18.3225 10.3087 18.3237 10.1807V9.07507C18.3234 8.7768 18.2048 8.49085 17.9939 8.27994C17.783 8.06903 17.497 7.9504 17.1987 7.95007H13.352C13.0538 7.9504 12.7678 8.06903 12.5569 8.27994C12.346 8.49085 12.2274 8.7768 12.227 9.07507V10.1807C12.2283 10.3087 12.2517 10.4356 12.2962 10.5557H11.7053C11.7498 10.4356 11.7731 10.3087 11.7744 10.1807V9.07507C11.7741 8.7768 11.6555 8.49085 11.4445 8.27994C11.2336 8.06903 10.9477 7.9504 10.6494 7.95007H6.80238C6.50411 7.9504 6.21815 8.06903 6.00724 8.27994C5.79633 8.49085 5.6777 8.7768 5.67738 9.07507V10.1807C5.67865 10.3087 5.70204 10.4356 5.7465 10.5557H4.70215V5.6521ZM12.977 10.1807V9.07507C12.9771 8.97564 13.0166 8.88029 13.087 8.80998C13.1573 8.73967 13.2526 8.70014 13.352 8.70007H17.1987C17.2982 8.70014 17.3935 8.73967 17.4638 8.80998C17.5341 8.88029 17.5737 8.97564 17.5737 9.07507V10.1807C17.5737 10.2801 17.5341 10.3754 17.4638 10.4457C17.3935 10.5161 17.2982 10.5556 17.1987 10.5557H13.352C13.2526 10.5556 13.1573 10.5161 13.087 10.4457C13.0166 10.3754 12.9771 10.2801 12.977 10.1807ZM6.42737 10.1807V9.07507C6.42743 8.97564 6.46696 8.88029 6.53728 8.80998C6.60759 8.73967 6.70293 8.70014 6.80237 8.70007H10.6494C10.7488 8.70014 10.8442 8.73967 10.9145 8.80998C10.9848 8.88029 11.0243 8.97564 11.0244 9.07507V10.1807C11.0243 10.2801 10.9848 10.3754 10.9145 10.4457C10.8442 10.5161 10.7488 10.5556 10.6494 10.5557H6.80238C6.70294 10.5556 6.6076 10.5161 6.53729 10.4457C6.46698 10.3754 6.42745 10.2801 6.42738 10.1807H6.42737ZM5.71838 18.7233H4.59485V17.3093H5.71765L5.71838 18.7233ZM19.407 18.7233H18.2834V17.3093H19.4063L19.407 18.7233ZM20.6093 16.5593H3.39258V14.9531H20.6089L20.6093 16.5593ZM3.39258 14.2031V12.4307C3.3929 12.1324 3.51153 11.8464 3.72244 11.6355C3.93335 11.4246 4.21931 11.306 4.51758 11.3057H19.4839C19.7822 11.306 20.0681 11.4246 20.279 11.6355C20.4899 11.8464 20.6086 12.1324 20.6089 12.4307V14.2031L3.39258 14.2031Z" fill="#012768"/>
</svg>
