<svg width="24" height="24" viewBox="0 0 24 24" fill="none" xmlns="http://www.w3.org/2000/svg">
<path d="M20.0608 7.62592H17.415C16.7535 7.62592 16.1901 8.1649 16.1901 8.85087V9.12036H16.8026V8.85087C16.8026 8.50789 17.0721 8.2384 17.415 8.2384H20.0609C20.7224 8.2384 21.2859 7.69942 21.2859 7.01345C21.2859 6.32748 20.7469 5.78851 20.0609 5.78851H16.9495C16.631 5.78851 16.3615 5.51901 16.3615 5.20049C16.3615 4.88197 16.631 4.61247 16.9495 4.61247H17.8559V4H16.9495C16.288 4 15.749 4.53898 15.749 5.20049C15.749 5.862 16.288 6.40098 16.9495 6.40098H20.0609C20.4039 6.40098 20.6734 6.67048 20.6734 7.01345C20.6732 7.35643 20.4037 7.62592 20.0607 7.62592H20.0608Z" fill="#012768"/>
<path d="M21.3833 11.1293H20.7953V10.3943C20.7953 10.2228 20.6483 10.0758 20.4767 10.0758L13.0781 10.076V9.58604C13.0781 9.41446 13.176 9.2675 13.2985 9.19402C14.1314 8.77756 14.5479 8.23856 14.5479 7.57705C14.5479 6.03358 11.51 4.78418 7.7862 4.78418C4.06232 4.78418 1 6.08262 1 7.62609C1 8.2876 1.41646 8.82658 2.2494 9.24306C2.37193 9.31654 2.46985 9.46351 2.46985 9.63508V17.0827C2.46985 17.8177 3.05787 18.4302 3.7683 18.4302H5.58126V18.4547H6.19373V18.4302H10.3831C10.6526 18.7976 10.9712 19.1406 11.363 19.3857H8.52126V19.9981H21.9957V19.3857H19.1536C20.1335 18.7242 20.795 17.5973 20.795 16.3233H21.383C22.265 16.3233 23 15.6129 23 14.7063V12.7464C23 11.84 22.265 11.1294 21.383 11.1294L21.3833 11.1293ZM6.19395 17.793V15.3922H5.58148V17.793H3.76852C3.4011 17.793 3.08254 17.4745 3.08254 17.058V9.61038C3.08254 9.21836 2.86209 8.85096 2.51911 8.67938C1.90664 8.38544 1.6127 8.01786 1.6127 7.62601C1.6127 6.74405 4.01355 5.44561 7.76193 5.44561C8.27649 5.44561 8.76643 5.47005 9.23195 5.5191V7.5525H9.84442V5.59255C12.3922 5.95996 13.9357 6.9154 13.9357 7.62596C13.9357 8.04241 13.6172 8.38538 13.0293 8.67932C12.6864 8.85089 12.4659 9.21829 12.4659 9.61032V10.1003H10.0403C9.86871 10.1003 9.72175 10.2472 9.72175 10.4188V16.323C9.72175 16.4455 9.72175 16.5435 9.74618 16.666V16.7639C9.77062 16.8618 9.77062 16.9844 9.79523 17.0825V17.1069C9.81967 17.2294 9.84428 17.3273 9.89315 17.4254C9.89315 17.4499 9.91759 17.4745 9.91759 17.4989C9.94203 17.5968 9.99107 17.6949 10.0401 17.7928V17.8173L6.19405 17.8175L6.19395 17.793ZM20.1828 16.2986C20.1828 17.9891 18.8109 19.361 17.1205 19.361H13.3968C12.3434 19.361 11.3878 18.822 10.8243 17.94C10.5058 17.4501 10.3344 16.8867 10.3344 16.2986V12.5259H16.5571V11.9134H10.3344V10.6885H20.183L20.1828 16.2986ZM22.3878 14.6818C22.3878 15.2208 21.9469 15.6863 21.3833 15.6863H20.7953V11.7418H21.3833C21.9223 11.7418 22.3878 12.1827 22.3878 12.7463V14.6818Z" fill="#012768"/>
</svg>
