<svg width="24" height="24" viewBox="0 0 24 24" fill="none" xmlns="http://www.w3.org/2000/svg">
<path d="M20.9498 17.1499H3.0498C2.7498 17.1499 2.5498 16.9499 2.5498 16.6499C2.5498 11.45 6.7998 7.19995 11.9998 7.19995C17.1998 7.19995 21.4498 11.45 21.4498 16.6499C21.4498 16.9499 21.1998 17.1499 20.9498 17.1499ZM3.5998 16.1499H20.4498C20.1498 11.75 16.4998 8.24995 11.9998 8.24995C7.4998 8.24995 3.8498 11.75 3.5998 16.1499Z" fill="#012768"/>
<path d="M23.25 19.25H0.75C0.45 19.25 0.25 19.05 0.25 18.75C0.25 18.45 0.45 18.25 0.75 18.25H23.25C23.55 18.25 23.75 18.45 23.75 18.75C23.75 19.05 23.55 19.25 23.25 19.25Z" fill="#012768"/>
<path d="M11.9502 7.65005C11.6502 7.65005 11.4502 7.45005 11.4502 7.15005V5.55005C11.4502 5.25005 11.6502 5.05005 11.9502 5.05005C12.2502 5.05005 12.4502 5.25005 12.4502 5.55005V7.15005C12.4502 7.40005 12.2002 7.65005 11.9502 7.65005Z" fill="#012768"/>
<path d="M13.1996 5.75H10.5996C10.2996 5.75 10.0996 5.55 10.0996 5.25C10.0996 4.95 10.2996 4.75 10.5996 4.75H13.1996C13.4996 4.75 13.6996 4.95 13.6996 5.25C13.6996 5.55 13.4996 5.75 13.1996 5.75Z" fill="#012768"/>
</svg>
