<svg width="24" height="24" viewBox="0 0 24 24" fill="none" xmlns="http://www.w3.org/2000/svg">
<path d="M21.5452 7.45996H11.4123C11.2846 7.45996 11.1629 7.51363 11.0766 7.60765C10.9904 7.70182 10.9477 7.82777 10.9588 7.95491L11.8758 18.4552C11.8962 18.7029 12.0091 18.9335 12.1921 19.1013C12.3753 19.2691 12.6149 19.3615 12.8633 19.3603H20.0941C20.3425 19.3615 20.5821 19.2691 20.7651 19.1013C20.9481 18.9335 21.0612 18.7027 21.0815 18.4552L21.9987 7.95491C22.0097 7.82777 21.967 7.70182 21.8807 7.60765C21.7945 7.51362 21.6727 7.45996 21.5451 7.45996H21.5452ZM21.0484 8.37061L20.9741 9.22127H11.9834L11.9092 8.37091L21.0484 8.37061ZM20.1744 18.3763C20.171 18.4181 20.136 18.4501 20.0942 18.4499H12.8633C12.8215 18.4501 12.7865 18.4181 12.783 18.3763L12.063 10.132H20.8947L20.1744 18.3763Z" fill="#012768"/>
<path d="M10.89 19.1923C10.9765 19.0858 11.0104 18.946 10.9823 18.8117L10.1716 14.9408V14.941C10.3391 14.8693 10.4477 14.7046 10.4477 14.5223V13.7094C10.4473 13.3443 10.3021 12.9942 10.0438 12.7359C9.78556 12.4778 9.43549 12.3325 9.07032 12.332H7.70432V5.20869C7.70432 4.77687 7.47399 4.37786 7.09996 4.16188C6.72593 3.94604 6.26527 3.94604 5.89124 4.16188C5.51722 4.37786 5.28688 4.77687 5.28688 5.20869V12.332H3.96716C3.60201 12.3325 3.25195 12.4778 2.99365 12.7359C2.73553 12.9942 2.59022 13.3442 2.58976 13.7094V14.5223C2.58976 14.6879 2.6798 14.8405 2.82467 14.9206L2.00966 18.8119C1.98158 18.9461 2.01543 19.086 2.10191 19.1924C2.1884 19.2989 2.31819 19.3607 2.45539 19.3607H10.5366C10.6738 19.3607 10.8036 19.2989 10.8901 19.1924L10.89 19.1923ZM6.19793 5.20862C6.19793 5.04393 6.33142 4.91058 6.49596 4.91058C6.6605 4.91058 6.794 5.04393 6.794 5.20862V12.3319H6.19793V5.20862ZM3.50039 13.7095C3.50069 13.452 3.70958 13.2431 3.96711 13.2428H9.07023C9.32776 13.2433 9.53649 13.452 9.53679 13.7095V14.067L3.50039 14.0671V13.7095ZM8.44002 18.4501V17.1444C8.44002 16.893 8.23616 16.6891 7.9847 16.6891C7.73324 16.6891 7.52938 16.893 7.52938 17.1444V18.4501H3.01589L3.7431 14.9779H9.24852L9.97558 18.4501H8.44002Z" fill="#012768"/>
</svg>
