<svg width="24" height="24" viewBox="0 0 24 24" fill="none" xmlns="http://www.w3.org/2000/svg">
<path d="M16.8313 14.6267C15.8748 14.6267 15.0967 15.4048 15.0967 16.3614C15.0967 17.3179 15.8748 18.096 16.8313 18.096C17.7878 18.096 18.566 17.3179 18.566 16.3614C18.5661 15.4049 17.7879 14.6267 16.8313 14.6267ZM16.8313 17.6692C16.1101 17.6692 15.5234 17.0826 15.5234 16.3612C15.5234 15.64 16.1101 15.0533 16.8313 15.0533C17.5525 15.0533 18.1394 15.6399 18.1394 16.3612C18.1394 17.0826 17.5527 17.6692 16.8313 17.6692Z" fill="#012768"/>
<path d="M18.1167 13.8099L17.1038 9.6041H18.6666C18.7845 9.6041 18.8799 9.50875 18.8799 9.39075V8.09554C18.8799 7.99215 18.806 7.90389 18.7044 7.88554L15.4708 7.3055C15.4583 7.30322 15.4458 7.30215 15.433 7.30215H14.1093C13.9914 7.30215 13.8959 7.3975 13.8959 7.5155V8.39647C13.8959 8.5012 13.972 8.5904 14.0753 8.60714L15.2197 8.79156V14.005C14.5239 14.483 14.0475 15.2585 13.9815 16.1479H6.07181L7.50403 12.5805H12.7871C12.905 12.5805 13.0005 12.4851 13.0005 12.3671C13.0005 12.2493 12.905 12.1538 12.7871 12.1538H11.5088C12.5076 11.5883 13.1844 10.5176 13.1844 9.29023C13.1844 7.47603 11.7085 6 9.89412 6C8.07979 6 6.60389 7.47603 6.60389 9.29023C6.60389 10.5176 7.28062 11.5883 8.27947 12.1538H7.35979C7.2726 12.1538 7.19425 12.2067 7.16171 12.2877L5.5583 16.282C5.53192 16.3476 5.53995 16.4222 5.57959 16.481C5.61924 16.5395 5.68553 16.5748 5.75638 16.5748H6.73983C6.8455 17.4307 7.57596 18.096 8.46002 18.096C9.34408 18.096 10.0744 17.4308 10.1801 16.5748H14.1874C14.3052 16.5748 14.4007 16.4794 14.4007 16.3614C14.4007 15.02 15.492 13.9287 16.8333 13.9287C18.1746 13.9287 19.2658 15.02 19.2658 16.3614C19.2658 16.4793 19.3613 16.5748 19.4792 16.5748C19.597 16.5748 19.6925 16.4794 19.6925 16.3614C19.6925 15.2467 19.0495 14.2814 18.1167 13.8099ZM7.03038 9.29039C7.03038 7.71136 8.31503 6.42685 9.89393 6.42685C11.473 6.42685 12.7575 7.7115 12.7575 9.29039C12.7576 10.8694 11.473 12.1539 9.89406 12.1539C8.31503 12.1539 7.03038 10.8694 7.03038 9.29039ZM8.45979 17.6695C7.81117 17.6695 7.2713 17.1948 7.1691 16.5749H9.7503C9.64811 17.1948 9.1084 17.6695 8.45979 17.6695ZM16.8327 13.502C16.4091 13.502 16.0081 13.5974 15.6461 13.7635L15.6463 8.60999C15.6463 8.50526 15.5702 8.41606 15.4669 8.39932L14.3225 8.2149V7.72887H15.414L18.4531 8.27408V9.17744H16.8329C16.7675 9.17744 16.7058 9.20744 16.6653 9.25873C16.6249 9.31016 16.6103 9.37726 16.6255 9.44088L17.6315 13.6179C17.3776 13.5437 17.1101 13.502 16.8327 13.502Z" fill="#012768"/>
<path d="M6.97591 6.99876C6.97591 6.8809 6.88042 6.7854 6.76256 6.7854H4.21335C4.09549 6.7854 4 6.88076 4 6.99876C4 7.11662 4.09549 7.21211 4.21335 7.21211H6.76256C6.88042 7.21198 6.97591 7.11662 6.97591 6.99876Z" fill="#012768"/>
<path d="M6.11183 8.11911C6.11183 8.00125 6.01633 7.90576 5.89847 7.90576H4.87058C4.75272 7.90576 4.65723 8.00112 4.65723 8.11911C4.65723 8.23697 4.75272 8.33246 4.87058 8.33246H5.89847C6.01633 8.33246 6.11183 8.23711 6.11183 8.11911Z" fill="#012768"/>
<path d="M6.11299 9.23972C6.11299 9.12186 6.0175 9.02637 5.89964 9.02637H5.22116C5.10331 9.02637 5.00781 9.12172 5.00781 9.23972C5.00781 9.35757 5.10331 9.45307 5.22116 9.45307H5.89964C6.0175 9.45307 6.11299 9.35771 6.11299 9.23972Z" fill="#012768"/>
<path d="M10.4992 9.29025C10.4992 9.0315 10.3354 8.81173 10.1067 8.72495V7.32712C10.1067 7.20926 10.0112 7.11377 9.89335 7.11377C9.77549 7.11377 9.68 7.20913 9.68 7.32712V8.72495C9.45124 8.8116 9.28746 9.03138 9.28746 9.29025C9.28746 9.33605 9.29362 9.38038 9.30326 9.42338L8.51026 9.98347C8.41397 10.0514 8.39106 10.1845 8.45897 10.2808C8.50048 10.3396 8.56651 10.3711 8.63348 10.3711C8.67593 10.3711 8.71906 10.3583 8.75629 10.332L9.53869 9.77937C9.6386 9.85209 9.76061 9.89629 9.89335 9.89629C10.2274 9.89615 10.4992 9.62428 10.4992 9.29025L10.4992 9.29025ZM9.71402 9.29025C9.71402 9.19128 9.79438 9.11092 9.89335 9.11092C9.99219 9.11092 10.0726 9.19128 10.0726 9.29025C10.0726 9.38896 9.99219 9.46945 9.89322 9.46945C9.79438 9.46945 9.71402 9.38896 9.71402 9.29025Z" fill="#012768"/>
</svg>
