<svg width="24" height="24" viewBox="0 0 24 24" fill="none" xmlns="http://www.w3.org/2000/svg">
<g clip-path="url(#clip0_163_1521)">
<path d="M10.8224 17.002C10.6733 17.0031 10.5246 16.9855 10.3799 16.9496C10.1041 16.866 9.84917 16.7249 9.63196 16.5354C9.41476 16.346 9.24023 16.1127 9.11992 15.8508C9.10709 15.8259 9.1004 15.7982 9.1004 15.7702C9.1004 15.7421 9.10709 15.7145 9.11992 15.6895C9.13113 15.6637 9.14812 15.6409 9.16958 15.6226C9.19103 15.6044 9.21638 15.5914 9.24367 15.5845C10.5787 15.2696 11.7824 12.442 11.7974 12.412C12.5137 10.8745 12.5999 8.57205 12.5887 7.34205C12.5811 6.85981 12.6264 6.37819 12.7237 5.9058C13.1774 3.8058 12.6599 0.247049 12.6524 0.209549C12.6494 0.182802 12.6518 0.155715 12.6595 0.12993C12.6673 0.104145 12.6802 0.0802006 12.6974 0.0595489C12.7158 0.0392948 12.7385 0.023398 12.7638 0.0130179C12.7891 0.00263777 12.8164 -0.00196376 12.8437 -0.00045111L17.6849 0.194549C17.7302 0.19713 17.773 0.216028 17.8054 0.247744C17.8378 0.27946 17.8576 0.321845 17.8612 0.367049L17.9699 1.75455C17.9939 2.03345 18.1085 2.29685 18.2962 2.50455L20.0812 4.49955C20.4885 4.94016 20.7617 5.48785 20.8687 6.0783C21.0037 6.90705 20.8274 8.0808 19.2187 8.94705C19.1924 8.94705 16.5412 10.4208 16.2824 13.1958C16.2562 13.3083 15.7574 15.4121 13.0462 16.1546C12.7952 16.2265 12.5572 16.3379 12.3412 16.4845C11.8931 16.7952 11.367 16.9745 10.8224 17.002ZM9.55867 15.877C9.75932 16.2246 10.0854 16.4822 10.4699 16.597C11.0588 16.6858 11.6589 16.5375 12.1387 16.1845C12.3885 16.0199 12.6615 15.8935 12.9487 15.8095C15.4462 15.1233 15.9112 13.1845 15.9187 13.1508C16.1924 10.1958 18.9187 8.6958 19.0462 8.6508C20.1712 8.03955 20.6737 7.2033 20.5049 6.1683C20.4111 5.64635 20.1674 5.16296 19.8037 4.77705L18.0187 2.78955C17.7769 2.51743 17.6307 2.17372 17.6024 1.8108L17.5049 0.584549L13.0499 0.374549C13.1587 1.19955 13.4924 4.0983 13.0837 5.97705C12.9904 6.42329 12.9489 6.8788 12.9599 7.33455C12.9599 8.59455 12.8774 10.9495 12.1312 12.5583C12.0824 12.6746 10.9649 15.292 9.55867 15.8695V15.877ZM18.9487 23.9995H5.05117C3.99789 23.9986 2.98798 23.58 2.24284 22.8355C1.49771 22.0911 1.07816 21.0816 1.07617 20.0283V18.9033C1.07617 18.8789 1.08104 18.8546 1.09051 18.8321C1.09998 18.8096 1.11385 18.7891 1.13131 18.772C1.14877 18.7549 1.16947 18.7415 1.1922 18.7324C1.21493 18.7234 1.23923 18.719 1.26367 18.7195H22.7362C22.7606 18.719 22.7849 18.7234 22.8076 18.7324C22.8304 18.7415 22.8511 18.7549 22.8685 18.772C22.886 18.7891 22.8999 18.8096 22.9093 18.8321C22.9188 18.8546 22.9237 18.8789 22.9237 18.9033V20.0283C22.9217 21.0816 22.5021 22.0911 21.757 22.8355C21.0119 23.58 20.002 23.9986 18.9487 23.9995ZM1.44742 19.1245V20.047C1.45533 20.998 1.83838 21.9073 2.51325 22.5772C3.18812 23.2472 4.10023 23.6236 5.05117 23.6245H18.9487C19.9041 23.6236 20.8202 23.2436 21.4958 22.5679C22.1714 21.8923 22.5514 20.9763 22.5524 20.0208V19.1245H1.44742ZM10.1662 6.04455C10.0123 6.04606 9.85964 6.0168 9.71721 5.95849C9.57479 5.90018 9.44545 5.814 9.33681 5.705C9.22816 5.596 9.14239 5.46639 9.08454 5.32378C9.02668 5.18117 8.99792 5.02843 8.99992 4.87455C8.99992 4.2858 9.91117 3.2058 10.0162 3.0858C10.0337 3.06646 10.0552 3.05102 10.0791 3.04044C10.103 3.02987 10.1288 3.02441 10.1549 3.02441C10.181 3.02441 10.2069 3.02987 10.2308 3.04044C10.2547 3.05102 10.2761 3.06646 10.2937 3.0858C10.3987 3.2058 11.3099 4.2858 11.3099 4.87455C11.3119 5.02654 11.2839 5.17743 11.2274 5.31856C11.171 5.4597 11.0872 5.5883 10.9809 5.69699C10.8747 5.80569 10.748 5.89234 10.6082 5.95198C10.4684 6.01162 10.3182 6.04308 10.1662 6.04455ZM10.1662 3.50955C9.81742 3.94455 9.37492 4.58955 9.37492 4.87455C9.37492 5.08341 9.45789 5.28371 9.60558 5.4314C9.75326 5.57908 9.95356 5.66205 10.1624 5.66205C10.3713 5.66205 10.5716 5.57908 10.7193 5.4314C10.867 5.28371 10.9499 5.08341 10.9499 4.87455C10.9537 4.58955 10.4999 3.94455 10.1662 3.50955ZM8.22367 8.68455C7.91735 8.68455 7.62357 8.56286 7.40696 8.34626C7.19036 8.12965 7.06867 7.83587 7.06867 7.52955C7.06867 6.9408 7.97992 5.8608 8.08492 5.7408C8.10196 5.72065 8.12322 5.7045 8.1472 5.69348C8.17118 5.68247 8.19729 5.67686 8.22367 5.67705C8.25006 5.67686 8.27616 5.68247 8.30014 5.69348C8.32412 5.7045 8.34538 5.72065 8.36242 5.7408C8.46742 5.8608 9.37867 6.9408 9.37867 7.52955C9.37867 7.68123 9.3488 7.83142 9.29075 7.97155C9.23271 8.11168 9.14763 8.23901 9.04038 8.34626C8.93313 8.45351 8.8058 8.53859 8.66567 8.59663C8.52554 8.65467 8.37535 8.68455 8.22367 8.68455ZM8.22367 6.14955C7.87492 6.58455 7.43617 7.22955 7.43617 7.52955C7.43617 7.73841 7.51914 7.93871 7.66683 8.0864C7.81451 8.23408 8.01481 8.31705 8.22367 8.31705C8.43253 8.31705 8.63283 8.23408 8.78052 8.0864C8.9282 7.93871 9.01117 7.73841 9.01117 7.52955C8.99992 7.22955 8.57242 6.58455 8.22367 6.14955Z" fill="black"/>
<path d="M10.823 9.77997C10.5166 9.77997 10.2229 9.65828 10.0063 9.44168C9.78966 9.22507 9.66797 8.9313 9.66797 8.62497C9.66797 8.03622 10.5792 6.95622 10.6842 6.83247C10.7027 6.81399 10.7246 6.79933 10.7487 6.78932C10.7729 6.77932 10.7987 6.77417 10.8248 6.77417C10.851 6.77417 10.8768 6.77932 10.901 6.78932C10.9251 6.79933 10.947 6.81399 10.9655 6.83247C11.0667 6.95622 12.0005 8.03622 12.0005 8.62497C12 8.77841 11.969 8.93024 11.9094 9.07162C11.8498 9.21301 11.7627 9.34115 11.6531 9.4486C11.5436 9.55605 11.4138 9.64067 11.2713 9.69756C11.1288 9.75444 10.9764 9.78245 10.823 9.77997ZM10.823 7.24497C10.4742 7.67997 10.0355 8.32497 10.0355 8.62497C10.0355 8.83582 10.1192 9.03803 10.2683 9.18712C10.4174 9.33621 10.6196 9.41997 10.8305 9.41997C11.0413 9.41997 11.2435 9.33621 11.3926 9.18712C11.5417 9.03803 11.6255 8.83582 11.6255 8.62497C11.6255 8.32497 11.1717 7.67997 10.823 7.24497Z" fill="black"/>
</g>
<defs>
<clipPath id="clip0_163_1521">
<rect width="24" height="24" fill="white"/>
</clipPath>
</defs>
</svg>
