<svg width="24" height="24" viewBox="0 0 24 24" fill="none" xmlns="http://www.w3.org/2000/svg">
<path d="M7.04459 23.4105C6.91279 23.3467 6.76648 23.2735 6.60831 23.1911C5.89873 22.8216 4.95409 22.2679 4.01101 21.5311C2.11653 20.051 0.277778 17.8726 0.277778 15C0.277778 13.5941 0.95149 12.3437 1.95302 11.147C2.72569 10.2238 3.67043 9.35791 4.6174 8.48997C4.90294 8.22826 5.18869 7.96636 5.46998 7.70265C6.66822 6.5793 7.78848 5.42004 8.35396 4.14378C8.83989 3.04707 8.91145 1.87545 8.32246 0.592873C8.45242 0.655956 8.59633 0.727953 8.75169 0.808865C9.46127 1.17844 10.4059 1.73212 11.349 2.4689C13.2435 3.94896 15.0822 6.12737 15.0822 9C15.0822 10.4067 14.4126 11.6611 13.4169 12.8624C12.6435 13.7955 11.6962 14.6713 10.7471 15.5487C10.4695 15.8054 10.1917 16.0621 9.91808 16.3205C8.72475 17.4475 7.60767 18.6083 7.03881 19.8807C6.55036 20.9733 6.4702 22.1385 7.04459 23.4105ZM17.0198 9.72214C17.0571 9.74577 17.0954 9.77029 17.1347 9.79569C17.7028 10.1634 18.4601 10.7149 19.2165 11.4493C20.7313 12.92 22.2222 15.1027 22.2222 18C22.2222 20.1561 21.2774 21.5791 20.1535 22.4698C19.0166 23.3708 17.7017 23.7222 17 23.7222H8.92657C9.00861 22.4284 9.65793 21.2643 10.593 20.147C11.3657 19.2238 12.3104 18.3579 13.2574 17.49C13.5429 17.2283 13.8287 16.9664 14.11 16.7027C15.3082 15.5793 16.4285 14.42 16.994 13.1438C17.4635 12.084 17.5462 10.9543 17.0198 9.72214Z" stroke="#012768" stroke-width="0.555556"/>
<path d="M0.277778 15C0.277778 13.5941 0.95149 12.3437 1.95302 11.147C2.72569 10.2238 3.67043 9.35791 4.6174 8.48997C4.90294 8.22826 5.18869 7.96636 5.46998 7.70265C6.66822 6.5793 7.78848 5.42004 8.35397 4.14378C8.83989 3.04707 8.91146 1.87545 8.32246 0.592873C8.45242 0.655956 8.59634 0.727953 8.75169 0.808865C9.46127 1.17844 10.4059 1.73212 11.349 2.4689C13.2435 3.94896 15.0822 6.12737 15.0822 9C15.0822 10.4067 14.4126 11.6611 13.4169 12.8624C12.6435 13.7955 11.6962 14.6713 10.7471 15.5487C10.4695 15.8054 10.1917 16.0621 9.91808 16.3205C8.72475 17.4475 7.60767 18.6083 7.03881 19.8807C6.55036 20.9733 6.4702 22.1385 7.04459 23.4105C6.91278 23.3466 6.76648 23.2735 6.60832 23.1911C5.89873 22.8216 4.95409 22.2679 4.01101 21.5311C2.11653 20.051 0.277778 17.8726 0.277778 15Z" stroke="#8D6141" stroke-width="0.555556"/>
</svg>
