<svg width="64" height="38" viewBox="0 0 64 38" fill="none" xmlns="http://www.w3.org/2000/svg">
<path d="M31.7 33.0001C35.5 29.5001 37.9 24.5001 37.9 19.0001C37.9 13.4001 35.5 8.4001 31.7 5.0001C28.3 2.0001 23.9 0.100098 19 0.100098C8.5 0.100098 0 8.6001 0 19.0001C0 29.5001 8.5 38.0001 19 38.0001C23.9 37.9001 28.3 36.0001 31.7 33.0001Z" fill="#3362AB"/>
<path d="M31.7002 33C35.5002 29.5 37.9002 24.5 37.9002 19C37.9002 13.4 35.5002 8.4 31.7002 5" fill="#3362AB"/>
<path d="M31.7002 33C35.5002 29.5 37.9002 24.5 37.9002 19C37.9002 13.4 35.5002 8.4 31.7002 5" stroke="#3362AB" stroke-width="0.3097"/>
<path d="M44.3998 0C39.4998 0 34.9998 1.89999 31.6998 4.89999C30.9998 5.49999 30.3998 6.19999 29.7998 6.89999H33.5998C34.0998 7.49999 34.5998 8.19999 34.9998 8.89999H28.2998C27.8998 9.49999 27.4998 10.2 27.1998 10.9H36.0998C36.3998 11.6 36.6998 12.2 36.8998 12.9H26.3998C26.1998 13.6 25.9998 14.2 25.7998 14.9H37.3998C37.6998 16.2 37.7998 17.5 37.7998 18.9C37.7998 21 37.4998 23 36.7998 24.9H26.2998C26.4998 25.6 26.7998 26.3 27.0998 26.9H35.9998C35.6998 27.6 35.2998 28.3 34.8998 28.9H28.1998C28.5998 29.6 29.0998 30.3 29.5998 30.9H33.3998C32.7998 31.6 32.1998 32.3 31.4998 32.9C34.8998 35.9 39.2998 37.8 44.1998 37.8C54.6998 37.8 63.0998 29.3 63.0998 18.8C63.3998 8.5 54.8998 0 44.3998 0Z" fill="#C9191B"/>
<path d="M16.6004 23.6H14.2004L15.6004 16.2L12.4004 23.6H10.3004L9.90039 16.3L8.50037 23.6H6.40039L8.20038 14H11.9004L12.1004 20L14.7004 14H18.5004L16.6004 23.6Z" fill="white"/>
<path d="M43.0004 23.6001C42.4004 23.8001 41.8004 23.9001 41.3004 23.9001C40.1004 23.9001 39.4004 23.3001 39.4004 22.2001C39.4004 22.0001 39.4004 21.7001 39.5004 21.5001L39.6004 20.7001L39.7004 20.1001L40.8004 14.1001H43.1004L42.8004 15.9001H44.0004L43.7004 17.8001H42.5004L41.9004 21.1001C41.9004 21.2001 41.9004 21.4001 41.9004 21.4001C41.9004 21.8001 42.2004 22.0001 42.7004 22.0001C43.0004 22.0001 43.2004 22.0001 43.3004 21.9001L43.0004 23.6001Z" fill="white"/>
<path d="M49.7998 15.9C49.5998 15.8 49.5998 15.8 49.4998 15.8C49.3998 15.8 49.2998 15.8 49.2998 15.8C49.1998 15.8 49.0998 15.8 48.9998 15.8C48.1998 15.8 47.6998 16.1 46.8998 17.1L47.0998 15.9H45.1998L43.7998 23.7H46.1998C46.9998 18.9 47.3998 18.1 48.4998 18.1C48.5998 18.1 48.6998 18.1 48.7998 18.1L49.0998 18.2L49.7998 15.9Z" fill="white"/>
<path d="M33.6002 18.3C33.6002 19.3 34.2002 20 35.4002 20.5C36.4002 20.9 36.5002 20.9999 36.5002 21.3999C36.5002 21.8999 36.1002 22.0999 35.1002 22.0999C34.4002 22.0999 33.7002 22 33.0002 21.8L32.7002 23.5999H32.8002L33.2002 23.7C33.3002 23.7 33.6002 23.8 33.8002 23.8C34.4002 23.8 34.8002 23.8999 35.1002 23.8999C37.6002 23.8999 38.8002 23.1 38.8002 21.3C38.8002 20.2 38.3002 19.5999 37.1002 19.0999C36.1002 18.6999 36.0002 18.6 36.0002 18.2C36.0002 17.8 36.4002 17.5999 37.2002 17.5999C37.7002 17.5999 38.3002 17.6 38.9002 17.7L39.2002 15.8999C38.6002 15.7999 37.7002 15.7 37.1002 15.7C34.5002 15.7 33.6002 16.9 33.6002 18.3Z" fill="white"/>
<path d="M22.5998 20.2C22.2998 20.2 22.1998 20.2 22.0998 20.2C20.7998 20.2 20.0998 20.5999 20.0998 21.3999C20.0998 21.8999 20.3998 22.2 20.8998 22.2C21.7998 22.1 22.4998 21.3 22.5998 20.2ZM24.2998 23.5999H22.2998L22.3998 22.8C21.7998 23.4 20.9998 23.7 19.8998 23.7C18.5998 23.7 17.7998 22.7999 17.7998 21.5999C17.7998 19.6999 19.2998 18.5999 21.8998 18.5999C22.1998 18.5999 22.4998 18.6 22.8998 18.7C22.9998 18.4 22.9998 18.3 22.9998 18.2C22.9998 17.7 22.5998 17.5 21.4998 17.5C20.7998 17.5 20.0998 17.6 19.5998 17.7L19.2998 17.8L19.0998 17.8999L19.3998 16.0999C20.5998 15.7999 21.2998 15.7 22.1998 15.7C24.1998 15.7 25.2998 16.5 25.2998 18C25.2998 18.4 25.2998 18.7 25.0998 19.5L24.5998 22.3L24.4998 22.8L24.3998 23.2V23.5L24.2998 23.5999Z" fill="white"/>
<path d="M30.7996 18.8001C30.7996 18.6001 30.7996 18.5001 30.7996 18.4001C30.7996 17.8001 30.3996 17.4001 29.6996 17.4001C28.8996 17.4001 28.3996 17.9001 28.1996 18.8001H30.7996ZM31.9996 23.5001C31.1996 23.7001 30.3996 23.8001 29.5996 23.8001C26.9996 23.8001 25.5996 22.6001 25.5996 20.3001C25.5996 17.6001 27.2996 15.6001 29.6996 15.6001C31.5996 15.6001 32.8996 16.7001 32.8996 18.4001C32.8996 19.0001 32.7996 19.5001 32.5996 20.3001H27.8996C27.8996 20.4001 27.8996 20.5001 27.8996 20.5001C27.8996 21.4001 28.5996 21.9001 29.9996 21.9001C30.7996 21.9001 31.5996 21.7001 32.4996 21.4001L31.9996 23.5001Z" fill="white"/>
<path d="M54.7004 19.0999C54.7004 18.2999 54.4004 17.5 53.4004 17.5C52.2004 17.5 51.5004 18.9 51.5004 20.2C51.5004 21.3 52.0004 22 52.9004 22C53.4004 22 54.5004 21.2999 54.7004 20.0999C54.7004 19.7999 54.7004 19.3999 54.7004 19.0999ZM57.2004 20.0999C56.8004 22.6999 55.0004 23.8999 52.6004 23.8999C49.9004 23.8999 48.9004 22.3 48.9004 20.3C48.9004 17.5 50.7004 15.7 53.5004 15.7C56.0004 15.7 57.2004 17.2 57.2004 19.2C57.3004 19.6 57.3004 19.5999 57.2004 20.0999Z" fill="white"/>
</svg>
