<svg width="24" height="24" viewBox="0 0 24 24" fill="none" xmlns="http://www.w3.org/2000/svg">
<g clip-path="url(#clip0_163_1529)">
<path d="M7.54894 9.375C7.50871 9.37586 7.46931 9.36348 7.43679 9.33977C7.40427 9.31606 7.38043 9.28232 7.36894 9.24375C5.65894 3.585 11.9702 1.58625 12.0339 1.5675C12.0571 1.56059 12.0814 1.55831 12.1054 1.56078C12.1294 1.56326 12.1527 1.57045 12.174 1.58195C12.1952 1.59344 12.214 1.60901 12.2292 1.62777C12.2444 1.64652 12.2558 1.6681 12.2627 1.69125C12.2702 1.71414 12.273 1.7383 12.2711 1.76231C12.2691 1.78632 12.2623 1.80968 12.2511 1.83101C12.2399 1.85234 12.2245 1.87121 12.2059 1.88649C12.1873 1.90178 12.1658 1.91318 12.1427 1.92C11.8952 1.99875 6.12019 3.8325 7.7252 9.15C7.73211 9.17315 7.73439 9.19743 7.73192 9.22146C7.72944 9.24549 7.72225 9.26879 7.71075 9.29004C7.69926 9.31129 7.68369 9.33006 7.66493 9.34528C7.64618 9.3605 7.6246 9.37188 7.60145 9.37875C7.58387 9.38096 7.56603 9.37969 7.54894 9.375V9.375ZM16.5002 10.1738H16.4552C16.4077 10.1614 16.367 10.1309 16.3418 10.0888C16.3165 10.0467 16.3088 9.99646 16.3202 9.94875C17.1714 6.31875 15.4877 4.48125 15.4727 4.46625C15.4383 4.43121 15.4191 4.38408 15.4191 4.335C15.4191 4.28593 15.4383 4.2388 15.4727 4.20375C15.4898 4.18629 15.5102 4.17242 15.5328 4.16295C15.5553 4.15348 15.5795 4.1486 15.6039 4.1486C15.6284 4.1486 15.6526 4.15348 15.6751 4.16295C15.6977 4.17242 15.7181 4.18629 15.7352 4.20375C15.8102 4.2825 17.5764 6.1875 16.6764 10.0275C16.6674 10.0679 16.6451 10.1042 16.6132 10.1307C16.5814 10.1571 16.5416 10.1723 16.5002 10.1738Z" fill="black"/>
<path d="M11.6703 16.638C9.51406 16.638 8.04031 13.8593 7.63906 13.008C7.32346 12.3341 7.1524 11.6015 7.1369 10.8575C7.1214 10.1135 7.2618 9.3745 7.54906 8.68801C8.27222 7.06497 9.60015 5.78817 11.2503 5.12926C11.2834 5.10189 11.3239 5.08493 11.3666 5.08051C12.6852 4.53829 14.0864 4.22382 15.5103 4.15051C15.7617 3.81399 15.9106 3.41209 15.9392 2.99303C15.9678 2.57397 15.8749 2.15556 15.6716 1.78801C15.4257 1.3662 15.0492 1.03583 14.5991 0.846758C13.3166 0.280508 12.2628 0.216758 11.4491 0.655508C10.2153 1.32301 9.94906 2.95426 9.94906 2.97301C9.94111 3.02274 9.91372 3.06727 9.87293 3.0968C9.83214 3.12634 9.78129 3.13846 9.73156 3.13051C9.68184 3.12255 9.6373 3.09517 9.60777 3.05438C9.57823 3.01359 9.56611 2.96274 9.57406 2.91301C9.57406 2.83801 9.88156 1.09051 11.2766 0.333008C12.1953 -0.165742 13.3578 -0.105742 14.7378 0.509258C15.2598 0.732748 15.6962 1.11789 15.9828 1.60801C16.3278 2.22301 16.5678 3.20926 15.7541 4.43551C15.7381 4.46087 15.716 4.48176 15.6898 4.49619C15.6635 4.51063 15.634 4.51814 15.6041 4.51801C14.346 4.56858 13.1035 4.8153 11.9216 5.24926C12.9341 5.60176 15.1803 6.57301 16.1816 8.45551C16.4741 9.02029 16.6422 9.64121 16.6745 10.2764C16.7069 10.9117 16.6027 11.5464 16.3691 12.138C16.3616 12.1718 15.1091 16.638 11.6703 16.638ZM11.3891 5.46301C9.82458 6.08858 8.56548 7.29924 7.87906 8.83801C7.61195 9.47684 7.48131 10.1644 7.49551 10.8567C7.50972 11.549 7.66846 12.2307 7.96156 12.858C8.33656 13.6605 9.72031 16.2705 11.6591 16.278C14.8166 16.278 15.9941 12.078 16.0053 12.0368C16.2261 11.4905 16.3272 10.9033 16.302 10.3147C16.2768 9.72603 16.1257 9.14963 15.8591 8.62426C14.7453 6.53926 11.8803 5.62426 11.3891 5.46301V5.46301Z" fill="black"/>
<path d="M21.4348 24H2.56476C2.54017 24.0003 2.51579 23.9954 2.49318 23.9857C2.47058 23.9761 2.45025 23.9617 2.43351 23.9437C2.41599 23.9268 2.40225 23.9064 2.3932 23.8837C2.38415 23.8611 2.37999 23.8368 2.38101 23.8125C2.46726 18.84 8.40351 18.09 8.46351 18.0825C8.74587 18.0583 9.01396 17.9479 9.23133 17.766C9.44871 17.5842 9.60484 17.3399 9.67851 17.0662C9.78882 16.6608 9.81436 16.237 9.75351 15.8212C9.74982 15.7973 9.751 15.7728 9.75699 15.7493C9.76298 15.7259 9.77364 15.7038 9.78835 15.6846C9.80306 15.6653 9.8215 15.6492 9.84258 15.6373C9.86366 15.6253 9.88693 15.6177 9.91101 15.615C9.95923 15.6086 10.008 15.6216 10.0467 15.6511C10.0854 15.6806 10.1107 15.7243 10.1173 15.7725C10.1878 16.2421 10.1584 16.7213 10.031 17.1787C9.93621 17.5194 9.74029 17.8233 9.46912 18.0503C9.19795 18.2773 8.86431 18.4166 8.51226 18.45C8.27976 18.4762 2.97726 19.1512 2.75601 23.625H21.2435C21.0148 19.125 15.5473 18.45 15.491 18.4425C15.2495 18.4182 15.0158 18.3428 14.8057 18.2212C14.5956 18.0997 14.4137 17.9348 14.2723 17.7375C13.6535 16.8637 13.8973 15.5362 13.9235 15.4875C13.9335 15.4395 13.9618 15.3974 14.0025 15.37C14.0431 15.3427 14.0928 15.3324 14.141 15.3412C14.165 15.3457 14.1878 15.3549 14.2082 15.3683C14.2286 15.3817 14.2461 15.3991 14.2597 15.4193C14.2733 15.4396 14.2828 15.4623 14.2875 15.4863C14.2922 15.5102 14.2922 15.5348 14.2873 15.5587C14.2873 15.5587 14.0473 16.7925 14.5723 17.535C14.6858 17.6893 14.8306 17.8179 14.9974 17.9123C15.1641 18.0067 15.349 18.0647 15.5398 18.0825C15.596 18.0825 21.5398 18.8325 21.6185 23.8125C21.6195 23.8368 21.6154 23.8611 21.6063 23.8837C21.5973 23.9064 21.5835 23.9268 21.566 23.9437C21.5493 23.9617 21.5289 23.9761 21.5063 23.9857C21.4837 23.9954 21.4593 24.0003 21.4348 24V24Z" fill="black"/>
</g>
<defs>
<clipPath id="clip0_163_1529">
<rect width="24" height="24" fill="white"/>
</clipPath>
</defs>
</svg>
