<svg width="30" height="29" viewBox="0 0 30 29" fill="none" xmlns="http://www.w3.org/2000/svg">
<g filter="url(#filter0_d_844_32438)">
<path d="M24.2527 16.4641C24.2528 16.0725 24.1022 15.696 23.832 15.4128C23.5618 15.1295 23.1928 14.9611 22.8017 14.9429L10.9761 14.3884C10.871 14.3833 10.7685 14.423 10.6942 14.4975L7.47672 17.718L5.87694 17.2916C5.75356 17.261 5.627 17.2451 5.49976 17.2441C5.01042 17.2441 4.55189 17.4828 4.2713 17.8838C3.99055 18.2846 3.92308 18.7971 4.09049 19.257C4.25774 19.7169 4.63894 20.0661 5.1117 20.1929L8.09114 20.9876C8.12278 20.9956 8.15525 20.9998 8.18773 21C8.28717 21 8.3826 20.9605 8.45291 20.8901L10.1352 19.2063C10.1526 19.1943 10.1689 19.1805 10.1836 19.1653L11.3474 17.9941H22.7243C23.1298 17.9934 23.5185 17.8321 23.8052 17.5453C24.0916 17.2583 24.2528 16.8696 24.253 16.4641L24.2527 16.4641ZM11.1915 17.2441C11.0915 17.2439 10.9959 17.2837 10.9256 17.3546L9.69216 18.5961C9.67542 18.6078 9.65968 18.6212 9.64528 18.6356L8.07563 20.2068L5.30713 19.4684C5.11561 19.4152 4.95289 19.289 4.85345 19.1171C4.75417 18.945 4.72638 18.7409 4.7761 18.5485C4.81879 18.3893 4.91288 18.2487 5.04379 18.1484C5.17471 18.0483 5.33492 17.9939 5.49967 17.994C5.56546 17.9949 5.63075 18.0033 5.69454 18.019L7.49188 18.4986C7.62129 18.5324 7.75874 18.4953 7.85383 18.4012L11.1073 15.1449L22.7662 15.6913H22.766C23.0387 15.7054 23.2838 15.8616 23.4119 16.1026C23.54 16.3437 23.5323 16.6342 23.3913 16.868C23.2505 17.1017 22.9974 17.2445 22.7243 17.244L11.1915 17.2441Z" fill="#012768"/>
<path d="M15.2647 7.49847C15.8613 7.4983 16.4332 7.26108 16.8549 6.8392C17.2766 6.41732 17.5133 5.84529 17.5133 5.24881C17.5131 4.65215 17.2761 4.08026 16.8542 3.65859C16.4323 3.23688 15.8603 3 15.2638 3C14.6671 3 14.0951 3.23705 13.6734 3.65893C13.2517 4.08064 13.0146 4.6527 13.0146 5.24932C13.0155 5.84564 13.2529 6.41735 13.6747 6.83907C14.0964 7.26077 14.6683 7.49783 15.2647 7.49851V7.49847ZM15.2647 3.74996C15.6623 3.75013 16.0436 3.90833 16.3245 4.18959C16.6056 4.47084 16.7633 4.8522 16.7633 5.24979C16.7631 5.64722 16.6051 6.02859 16.3238 6.30965C16.0426 6.59057 15.6612 6.74842 15.2638 6.74842C14.8662 6.74842 14.4848 6.59039 14.2038 6.30931C13.9227 6.02806 13.7647 5.64669 13.7647 5.24928C13.7653 4.85168 13.9235 4.47048 14.2048 4.18942C14.4859 3.90833 14.8672 3.7503 15.2647 3.74996Z" fill="#012768"/>
<path d="M7.01558 16.4944C7.61207 16.4941 8.18396 16.2569 8.6055 15.835C9.02704 15.4131 9.26374 14.8411 9.26344 14.2446C9.26327 13.6483 9.02622 13.0764 8.60434 12.6547C8.18246 12.2331 7.61044 11.9964 7.01395 11.9966C6.41764 11.9967 5.84558 12.2338 5.42404 12.6557C5.00233 13.0776 4.76562 13.6495 4.76562 14.2459C4.76663 14.8422 5.00385 15.4139 5.42571 15.8355C5.84759 16.257 6.41931 16.4939 7.01563 16.4944H7.01558ZM7.01558 12.7466C7.41318 12.7469 7.79421 12.905 8.07514 13.1862C8.35589 13.4675 8.51357 13.8487 8.51344 14.2461C8.51327 14.6435 8.35541 15.0247 8.07416 15.3056C7.79307 15.5867 7.41188 15.7444 7.01443 15.7444C6.61697 15.7444 6.2358 15.5865 5.9547 15.3055C5.67361 15.0244 5.51575 14.6434 5.51558 14.2459C5.51625 13.8483 5.67445 13.4671 5.95573 13.186C6.23681 12.905 6.61817 12.7469 7.01558 12.7466Z" fill="#012768"/>
<path d="M24.6272 18.7439H11.8965C11.6894 18.7439 11.5215 18.9118 11.5215 19.1189C11.5215 19.326 11.6894 19.4939 11.8965 19.4939H24.6272C24.8343 19.4939 25.0022 19.326 25.0022 19.1189C25.0022 18.9118 24.8343 18.7439 24.6272 18.7439Z" fill="#012768"/>
<path d="M17.4292 11.5373C17.3006 11.5028 17.1634 11.5386 17.0681 11.6317L14.9785 13.6853V13.6855C14.9062 13.755 14.8647 13.8504 14.8633 13.9507C14.8618 14.051 14.9005 14.1476 14.9708 14.219C15.0411 14.2905 15.1372 14.3309 15.2373 14.331C15.3376 14.3312 15.4339 14.2914 15.5043 14.2202L17.1369 12.6154L17.5558 14.1564H17.5559C17.6001 14.3198 17.7485 14.4333 17.9177 14.4333C17.9509 14.4332 17.9838 14.4288 18.0158 14.4201C18.1119 14.3942 18.1936 14.331 18.243 14.2448C18.2924 14.1584 18.3056 14.0562 18.2795 13.9602L17.6929 11.801C17.658 11.6724 17.5578 11.5721 17.4292 11.5373L17.4292 11.5373Z" fill="#012768"/>
<path d="M12.6397 13.6599C12.7393 13.6599 12.8347 13.6204 12.905 13.5501C12.9753 13.4798 13.0148 13.3843 13.0147 13.2849V12.896C13.0128 12.6204 13.1136 12.3541 13.2974 12.1488C15.8404 11.089 17.4415 8.28228 17.6911 7.82109C17.9021 7.64464 18.1884 7.58772 18.4507 7.67025C18.7778 7.75881 19.0351 8.01143 19.1297 8.33673L20.5045 13.3742L20.5043 13.3743C20.5557 13.5655 20.5549 13.7671 20.5022 13.9579C20.4739 14.0542 20.4853 14.1578 20.5338 14.2457C20.5824 14.3336 20.6642 14.3982 20.7608 14.4252C20.8574 14.4523 20.9609 14.4396 21.0481 14.3897C21.1351 14.3398 21.1988 14.2571 21.2244 14.1602C21.3129 13.8394 21.3144 13.5009 21.2287 13.1794L19.8533 8.13901C19.6884 7.56009 19.2337 7.10876 18.6536 6.94805C18.1236 6.79152 17.5505 6.92662 17.1462 7.30329C17.1097 7.33477 17.0794 7.37277 17.0568 7.41546C17.0414 7.44626 15.4412 10.4843 12.9429 11.4841C12.8967 11.5023 12.8545 11.5298 12.8192 11.5646C12.4619 11.9152 12.2618 12.3956 12.2647 12.8962V13.2851C12.2645 13.3845 12.304 13.4799 12.3743 13.5502C12.4446 13.6206 12.5401 13.6601 12.6395 13.6601L12.6397 13.6599Z" fill="#012768"/>
</g>
<defs>
<filter id="filter0_d_844_32438" x="-1" y="0" width="32" height="32" filterUnits="userSpaceOnUse" color-interpolation-filters="sRGB">
<feFlood flood-opacity="0" result="BackgroundImageFix"/>
<feColorMatrix in="SourceAlpha" type="matrix" values="0 0 0 0 0 0 0 0 0 0 0 0 0 0 0 0 0 0 127 0" result="hardAlpha"/>
<feOffset dy="4"/>
<feGaussianBlur stdDeviation="2"/>
<feComposite in2="hardAlpha" operator="out"/>
<feColorMatrix type="matrix" values="0 0 0 0 0 0 0 0 0 0 0 0 0 0 0 0 0 0 0.25 0"/>
<feBlend mode="normal" in2="BackgroundImageFix" result="effect1_dropShadow_844_32438"/>
<feBlend mode="normal" in="SourceGraphic" in2="effect1_dropShadow_844_32438" result="shape"/>
</filter>
</defs>
</svg>
