<svg width="30" height="30" viewBox="0 0 30 30" fill="none" xmlns="http://www.w3.org/2000/svg">
<path d="M18.9771 10.039L20.5991 8.8293C20.6086 8.78352 20.6171 8.73753 20.6242 8.69115C20.715 8.09807 20.6084 7.50981 20.3287 7C20.14 8.1068 19.4066 9.01818 18.3955 9.44873C18.5993 9.62455 18.7937 9.82157 18.9771 10.039L18.9771 10.039Z" fill="#012768"/>
<path d="M10.5763 10.5395C10.8576 10.0977 11.1809 9.72523 11.5347 9.41641C10.5617 8.97202 9.85503 8.07254 9.6719 7C9.39202 7.51001 9.28558 8.09832 9.37636 8.69115C9.49272 9.45031 9.93473 10.1235 10.5763 10.5395H10.5763Z" fill="#012768"/>
<path d="M14.3029 13.5257L18.5185 10.3816C18.4936 10.3519 18.469 10.3214 18.4434 10.2925C17.5646 9.30317 16.3194 8.7583 14.9372 8.7583C13.1721 8.7583 11.7977 9.58601 10.957 11.0511C12.6315 10.9028 13.5832 12.0304 14.3029 13.5258L14.3029 13.5257Z" fill="#012768"/>
<path d="M10.6477 11.6737C10.3773 12.3088 10.1916 13.037 10.0977 13.8467C10.3795 13.6271 10.7326 13.4951 11.1165 13.4951C11.8782 13.4951 12.5202 14.0106 12.7161 14.7105L13.8387 13.8731C13.1371 12.3635 12.2671 11.3532 10.6477 11.6737L10.6477 11.6737Z" fill="#012768"/>
<path d="M11.1171 14.0647C10.5156 14.0647 10.0264 14.5541 10.0264 15.1555C10.0264 15.626 10.3265 16.0266 10.7447 16.1794L12.2047 15.0907C12.1706 14.5194 11.6965 14.0647 11.1171 14.0647H11.1171ZM11.1334 15.6621C10.8535 15.6621 10.6266 15.4351 10.6266 15.1552C10.6266 14.8754 10.8535 14.6484 11.1334 14.6484C11.4133 14.6484 11.6402 14.8754 11.6402 15.1552C11.6402 15.4353 11.4133 15.6621 11.1334 15.6621Z" fill="#012768"/>
<path d="M12.6639 19.7401C12.0744 20.4969 11.8417 21.0733 11.9319 21.55C11.9578 21.6874 12.0145 21.8196 12.097 21.9482C12.647 22.1036 15.2339 22.7448 17.9029 21.948C17.9854 21.8194 18.0419 21.687 18.0679 21.5498C18.1582 21.0731 17.9253 20.4967 17.3358 19.7401C15.7854 19.2539 14.2144 19.2539 12.664 19.7401L12.6639 19.7401ZM14.0171 21.4918C13.9065 21.5685 13.7307 21.5815 13.5584 21.526C13.1507 21.3948 13.0131 20.9619 12.9874 20.6173C13.1273 20.7578 13.3463 20.9043 13.6914 20.9463H13.6916C13.8914 20.9705 14.1271 21.0561 14.115 21.3265C14.1112 21.4095 14.0597 21.4622 14.0171 21.4918L14.0171 21.4918ZM16.3933 21.5992C16.2184 21.647 16.0434 21.6257 15.9366 21.5443C15.8953 21.5128 15.8462 21.4577 15.8462 21.3744C15.8462 21.1039 16.0856 21.0289 16.2862 21.0137C16.6331 20.9875 16.8584 20.8509 17.0045 20.7167C16.9635 21.0602 16.8065 21.4866 16.3932 21.5992L16.3933 21.5992Z" fill="#012768"/>
<path d="M21.6753 12.5355C22.2509 13.2551 22.66 14.1308 22.9328 14.7157L23.0341 14.9325L22.7952 14.9186C22.2342 14.8863 21.348 14.8334 20.5215 14.3872C20.5276 14.4845 20.5328 14.5831 20.5366 14.6828C21.5294 15.4459 22.7823 15.3682 24.0003 15.1886C23.7314 14.2138 23.3268 12.8195 22.645 11.8123L21.6753 12.5355Z" fill="#012768"/>
<path d="M17.3407 15.7705L12.9062 19.0779C14.4654 18.6706 16.04 18.7179 17.5954 19.2228L17.6772 19.2496L17.7309 19.3168C17.8639 19.484 17.9819 19.645 18.0857 19.8008L18.9177 16.8177C18.9066 16.8179 18.8957 16.8195 18.8846 16.8195C18.1845 16.8195 17.5855 16.3842 17.3407 15.7705L17.3407 15.7705Z" fill="#012768"/>
<path d="M19.4284 14.2124L18.8375 14.6532C18.8573 14.6508 18.8773 14.6493 18.898 14.6493C19.1778 14.6493 19.4048 14.8762 19.4048 15.1561C19.4048 15.436 19.1778 15.6629 18.898 15.6629C18.6181 15.6629 18.3911 15.436 18.3911 15.1561C18.3911 15.0847 18.406 15.0168 18.4327 14.9551L17.8242 15.4088C17.9388 15.8885 18.3699 16.2469 18.8841 16.2469C19.4849 16.2469 19.9735 15.7589 19.9749 15.1585C19.9749 15.1561 19.9747 15.1537 19.9747 15.1514C19.9729 14.7502 19.7531 14.4005 19.4284 14.2124L19.4284 14.2124Z" fill="#012768"/>
<path d="M9.46077 14.6873C9.46414 14.5801 9.4691 14.4744 9.47505 14.3704C8.6384 14.8346 7.73412 14.8881 7.16509 14.921L6.92625 14.9349L7.02754 14.7181C7.39661 13.9274 8.01402 12.6037 8.95555 11.8557C9.26258 11.6119 9.66772 11.4172 10.185 11.2626C10.2201 11.1863 10.2558 11.1112 10.2929 11.038C10.017 10.863 9.77195 10.6483 9.56228 10.4045C8.95276 10.4906 8.44675 10.7017 8.02595 11.0523C6.92113 11.9726 6.34769 13.9322 6 15.1912C7.21665 15.3708 8.46837 15.4479 9.46079 14.6873L9.46077 14.6873Z" fill="#012768"/>
<path d="M13.1387 22.761C13.1333 23.7148 16.805 23.7356 16.8103 22.7816C16.2044 22.8785 15.6195 22.9182 15.0774 22.9182C14.3335 22.9184 13.6713 22.8472 13.1387 22.761V22.761Z" fill="#012768"/>
<line x1="23.9" y1="8.7" x2="8.7" y2="20.1" stroke="#F44336" stroke-linecap="round"/>
</svg>
