<svg width="50" height="52" viewBox="0 0 50 52" fill="none" xmlns="http://www.w3.org/2000/svg">
<g filter="url(#filter0_dddd_610_20444)">
<circle cx="25" cy="23" r="15" fill="white"/>
</g>
<path d="M28.9771 18.039L30.5991 16.8293C30.6086 16.7835 30.6171 16.7375 30.6242 16.6911C30.715 16.0981 30.6084 15.5098 30.3287 15C30.14 16.1068 29.4066 17.0182 28.3955 17.4487C28.5993 17.6245 28.7937 17.8216 28.9771 18.039L28.9771 18.039Z" fill="#012768"/>
<path d="M20.5763 18.5395C20.8576 18.0977 21.1809 17.7252 21.5347 17.4164C20.5617 16.972 19.855 16.0725 19.6719 15C19.392 15.51 19.2856 16.0983 19.3764 16.6911C19.4927 17.4503 19.9347 18.1235 20.5763 18.5395H20.5763Z" fill="#012768"/>
<path d="M24.3029 21.5257L28.5185 18.3816C28.4936 18.3519 28.469 18.3214 28.4434 18.2925C27.5646 17.3032 26.3194 16.7583 24.9372 16.7583C23.1721 16.7583 21.7977 17.586 20.957 19.0511C22.6315 18.9028 23.5832 20.0304 24.3029 21.5258L24.3029 21.5257Z" fill="#012768"/>
<path d="M20.6477 19.6737C20.3773 20.3088 20.1916 21.037 20.0977 21.8467C20.3795 21.6271 20.7326 21.4951 21.1165 21.4951C21.8782 21.4951 22.5202 22.0106 22.7161 22.7105L23.8387 21.8731C23.1371 20.3635 22.2671 19.3532 20.6477 19.6737L20.6477 19.6737Z" fill="#012768"/>
<path d="M21.1171 22.0647C20.5156 22.0647 20.0264 22.5541 20.0264 23.1555C20.0264 23.626 20.3265 24.0266 20.7447 24.1794L22.2047 23.0907C22.1706 22.5194 21.6965 22.0647 21.1171 22.0647H21.1171ZM21.1334 23.6621C20.8535 23.6621 20.6266 23.4351 20.6266 23.1552C20.6266 22.8754 20.8535 22.6484 21.1334 22.6484C21.4133 22.6484 21.6402 22.8754 21.6402 23.1552C21.6402 23.4353 21.4133 23.6621 21.1334 23.6621Z" fill="#012768"/>
<path d="M22.6639 27.7401C22.0744 28.4969 21.8417 29.0733 21.9319 29.55C21.9578 29.6874 22.0145 29.8196 22.097 29.9482C22.647 30.1036 25.2339 30.7448 27.9029 29.948C27.9854 29.8194 28.0419 29.687 28.0679 29.5498C28.1582 29.0731 27.9253 28.4967 27.3358 27.7401C25.7854 27.2539 24.2144 27.2539 22.664 27.7401L22.6639 27.7401ZM24.0171 29.4918C23.9065 29.5685 23.7307 29.5815 23.5584 29.526C23.1507 29.3948 23.0131 28.9619 22.9874 28.6173C23.1273 28.7578 23.3463 28.9043 23.6914 28.9463H23.6916C23.8914 28.9705 24.1271 29.0561 24.115 29.3265C24.1112 29.4095 24.0597 29.4622 24.0171 29.4918L24.0171 29.4918ZM26.3933 29.5992C26.2184 29.647 26.0434 29.6257 25.9366 29.5443C25.8953 29.5128 25.8462 29.4577 25.8462 29.3744C25.8462 29.1039 26.0856 29.0289 26.2862 29.0137C26.6331 28.9875 26.8584 28.8509 27.0045 28.7167C26.9635 29.0602 26.8065 29.4866 26.3932 29.5992L26.3933 29.5992Z" fill="#012768"/>
<path d="M31.6753 20.5355C32.2509 21.2551 32.66 22.1308 32.9328 22.7157L33.0341 22.9325L32.7952 22.9186C32.2342 22.8863 31.348 22.8334 30.5215 22.3872C30.5276 22.4845 30.5328 22.5831 30.5366 22.6828C31.5294 23.4459 32.7823 23.3682 34.0003 23.1886C33.7314 22.2138 33.3268 20.8195 32.645 19.8123L31.6753 20.5355Z" fill="#012768"/>
<path d="M27.3407 23.7705L22.9062 27.0779C24.4654 26.6706 26.04 26.7179 27.5954 27.2228L27.6772 27.2496L27.7309 27.3168C27.8639 27.484 27.9819 27.645 28.0857 27.8008L28.9177 24.8177C28.9066 24.8179 28.8957 24.8195 28.8846 24.8195C28.1845 24.8195 27.5855 24.3842 27.3407 23.7705L27.3407 23.7705Z" fill="#012768"/>
<path d="M29.4284 22.2124L28.8375 22.6532C28.8573 22.6508 28.8773 22.6493 28.898 22.6493C29.1778 22.6493 29.4048 22.8762 29.4048 23.1561C29.4048 23.436 29.1778 23.6629 28.898 23.6629C28.6181 23.6629 28.3911 23.436 28.3911 23.1561C28.3911 23.0847 28.406 23.0168 28.4327 22.9551L27.8242 23.4088C27.9388 23.8885 28.3699 24.2469 28.8841 24.2469C29.4849 24.2469 29.9735 23.7589 29.9749 23.1585C29.9749 23.1561 29.9747 23.1537 29.9747 23.1514C29.9729 22.7502 29.7531 22.4005 29.4284 22.2124L29.4284 22.2124Z" fill="#012768"/>
<path d="M19.4608 22.6873C19.4641 22.5801 19.4691 22.4744 19.475 22.3704C18.6384 22.8346 17.7341 22.8881 17.1651 22.921L16.9262 22.9349L17.0275 22.7181C17.3966 21.9274 18.014 20.6037 18.9555 19.8557C19.2626 19.6119 19.6677 19.4172 20.185 19.2626C20.2201 19.1863 20.2558 19.1112 20.2929 19.038C20.017 18.863 19.7719 18.6483 19.5623 18.4045C18.9528 18.4906 18.4468 18.7017 18.0259 19.0523C16.9211 19.9726 16.3477 21.9322 16 23.1912C17.2167 23.3708 18.4684 23.4479 19.4608 22.6873L19.4608 22.6873Z" fill="#012768"/>
<path d="M23.1387 30.761C23.1333 31.7148 26.805 31.7356 26.8103 30.7816C26.2044 30.8785 25.6195 30.9182 25.0774 30.9182C24.3335 30.9184 23.6713 30.8472 23.1387 30.761V30.761Z" fill="#012768"/>
<line x1="33.9" y1="16.7" x2="18.7" y2="28.1" stroke="#F44336" stroke-linecap="round"/>
<defs>
<filter id="filter0_dddd_610_20444" x="0" y="0" width="50" height="52" filterUnits="userSpaceOnUse" color-interpolation-filters="sRGB">
<feFlood flood-opacity="0" result="BackgroundImageFix"/>
<feColorMatrix in="SourceAlpha" type="matrix" values="0 0 0 0 0 0 0 0 0 0 0 0 0 0 0 0 0 0 127 0" result="hardAlpha"/>
<feOffset dy="2"/>
<feGaussianBlur stdDeviation="3"/>
<feColorMatrix type="matrix" values="0 0 0 0 0.333333 0 0 0 0 0.372549 0 0 0 0 0.439216 0 0 0 0.12 0"/>
<feBlend mode="normal" in2="BackgroundImageFix" result="effect1_dropShadow_610_20444"/>
<feColorMatrix in="SourceAlpha" type="matrix" values="0 0 0 0 0 0 0 0 0 0 0 0 0 0 0 0 0 0 127 0" result="hardAlpha"/>
<feOffset/>
<feGaussianBlur stdDeviation="1"/>
<feColorMatrix type="matrix" values="0 0 0 0 0.333333 0 0 0 0 0.372549 0 0 0 0 0.439216 0 0 0 0.06 0"/>
<feBlend mode="normal" in2="effect1_dropShadow_610_20444" result="effect2_dropShadow_610_20444"/>
<feColorMatrix in="SourceAlpha" type="matrix" values="0 0 0 0 0 0 0 0 0 0 0 0 0 0 0 0 0 0 127 0" result="hardAlpha"/>
<feOffset dy="4"/>
<feGaussianBlur stdDeviation="5"/>
<feComposite in2="hardAlpha" operator="out"/>
<feColorMatrix type="matrix" values="0 0 0 0 0.333333 0 0 0 0 0.372549 0 0 0 0 0.439216 0 0 0 0.03 0"/>
<feBlend mode="normal" in2="effect2_dropShadow_610_20444" result="effect3_dropShadow_610_20444"/>
<feColorMatrix in="SourceAlpha" type="matrix" values="0 0 0 0 0 0 0 0 0 0 0 0 0 0 0 0 0 0 127 0" result="hardAlpha"/>
<feOffset dy="-2"/>
<feGaussianBlur stdDeviation="3"/>
<feComposite in2="hardAlpha" operator="out"/>
<feColorMatrix type="matrix" values="0 0 0 0 0.333333 0 0 0 0 0.372549 0 0 0 0 0.439216 0 0 0 0.1 0"/>
<feBlend mode="normal" in2="effect3_dropShadow_610_20444" result="effect4_dropShadow_610_20444"/>
<feBlend mode="normal" in="SourceGraphic" in2="effect4_dropShadow_610_20444" result="shape"/>
</filter>
</defs>
</svg>
