<svg width="24" height="24" viewBox="0 0 24 24" fill="none" xmlns="http://www.w3.org/2000/svg">
<g clip-path="url(#clip0_850_33802)">
<path d="M23.6863 16.5756V15.6889C23.6863 14.7036 22.9916 13.8762 22.0683 13.673V9.96305C22.0683 9.61012 21.7831 9.32495 21.4302 9.32495L8.98735 9.32515C8.63442 9.32515 8.34925 9.61033 8.34925 9.96325V13.6734C7.42598 13.8766 6.73131 14.704 6.73131 15.6893V16.576C6.55622 16.5872 6.41797 16.7341 6.41797 16.912V19.8625C6.41797 20.0488 6.56765 20.1985 6.75397 20.1985H7.07873C7.26505 20.1985 7.41473 20.0488 7.41473 19.8625V18.6739H23.0027V19.8625C23.0027 20.0488 23.1524 20.1985 23.3387 20.1985H23.6635C23.8498 20.1985 23.9995 20.0488 23.9995 19.8625L23.9997 16.9116C23.9997 16.7338 23.8614 16.5871 23.6863 16.5756L23.6863 16.5756ZM8.72195 9.96315C8.72195 9.81642 8.84051 9.69767 8.98743 9.69767L21.4303 9.69787C21.577 9.69787 21.6958 9.81643 21.6958 9.96335V13.6254C21.6704 13.6254 21.6477 13.6227 21.6223 13.6227H20.9927V13.1908C20.9927 12.6431 20.5466 12.197 19.9989 12.197L16.6277 12.1966C16.08 12.1966 15.6339 12.6427 15.6339 13.1904V13.6223H14.7813V13.1904C14.7813 12.6427 14.3353 12.1966 13.7875 12.1966H10.4162C9.86848 12.1966 9.42238 12.6427 9.42238 13.1904V13.6223H8.79275C8.76734 13.6223 8.74469 13.6223 8.71929 13.625V9.96316L8.72195 9.96315ZM20.6228 13.1933V13.6252H16.0065V13.1933C16.0065 12.8516 16.286 12.5721 16.6277 12.5721H20.0018C20.3433 12.5721 20.6228 12.8516 20.6228 13.1933H20.6228ZM14.4112 13.1933V13.6252H9.79768V13.1933C9.79768 12.8516 10.0772 12.5721 10.4188 12.5721H13.793C14.1317 12.5721 14.4112 12.8516 14.4112 13.1933ZM8.79556 13.998H21.6226C22.111 13.998 22.5516 14.207 22.8622 14.5373H7.55909C7.86672 14.204 8.3073 13.998 8.79571 13.998H8.79556ZM7.38086 18.298C7.19454 18.298 7.0421 18.4477 7.0421 18.634V19.8226H6.78804V16.9456H7.37809V18.298L7.38086 18.298ZM22.6643 18.298H7.75396V16.9456H22.6643V18.298ZM22.8506 16.5757H7.10433V15.692C7.10433 15.4096 7.17208 15.1443 7.29635 14.9127H23.1248C23.2462 15.147 23.3169 15.4123 23.3169 15.692V16.5757H22.8506ZM23.6272 19.8228H23.3731V18.6342C23.3731 18.4479 23.2234 18.2982 23.0371 18.2982V16.9458H23.6272L23.6272 19.8228Z" fill="black"/>
<path d="M11.4441 7.63619H18.9742C19.2058 7.63619 19.3949 7.44692 19.3949 7.2155V3.42068C19.3949 3.18907 19.2056 3 18.9742 3H11.4441C11.2125 3 11.0234 3.18927 11.0234 3.42068V7.21253C11.0234 7.44689 11.2125 7.63616 11.4441 7.63616V7.63619ZM11.7321 7.26337L13.3301 5.96448L14.2252 6.72963L14.8521 7.26614L11.7321 7.26634V7.26337ZM15.4252 7.26337L14.6235 6.57722L15.9563 5.29255L18.6442 7.26044L15.4252 7.26064V7.26337ZM11.3961 3.4207C11.3961 3.39254 11.4187 3.36989 11.4469 3.36989H18.9744C19.0026 3.36989 19.0252 3.39254 19.0252 3.4207V7.08277L16.0494 4.90316H16.0466C16.0438 4.9004 16.0381 4.89745 16.0354 4.89469L16.0326 4.89194C16.0299 4.88918 16.0241 4.88622 16.0214 4.88622C16.0186 4.88622 16.0186 4.88347 16.0157 4.88347C16.0129 4.88071 16.0072 4.88071 16.0045 4.87776C16.0017 4.87776 16.0017 4.87776 15.9987 4.875C15.996 4.875 15.9903 4.87224 15.9875 4.87224C15.9848 4.87224 15.9848 4.87224 15.9818 4.86948C15.979 4.86948 15.9733 4.86673 15.9706 4.86673H15.9649H15.9536H15.9479H15.9337H15.931C15.9253 4.86673 15.9225 4.86673 15.9168 4.86948H15.9141C15.9083 4.86948 15.9028 4.87224 15.8999 4.87224H15.8971C15.8914 4.87224 15.8886 4.875 15.8829 4.87795H15.8802C15.8745 4.88071 15.8717 4.88071 15.866 4.88366C15.866 4.88366 15.8632 4.88366 15.8632 4.88642C15.8605 4.88918 15.8548 4.88918 15.852 4.89213C15.8493 4.89213 15.8493 4.89489 15.8463 4.89489C15.8435 4.89765 15.8406 4.89765 15.8378 4.9006C15.8351 4.9006 15.8351 4.90336 15.8321 4.90336C15.8294 4.90612 15.8264 4.90907 15.8237 4.90907C15.8209 4.91183 15.8179 4.91183 15.8179 4.91478C15.8179 4.91478 15.8152 4.91478 15.8152 4.91754L14.3442 6.33496L13.4605 5.58105C13.4577 5.57829 13.452 5.57534 13.4492 5.57258L13.4465 5.56982C13.4437 5.56707 13.438 5.56411 13.4353 5.56411C13.4325 5.56411 13.4325 5.56136 13.4296 5.56136C13.4268 5.5586 13.4238 5.5586 13.4183 5.55564C13.4156 5.55564 13.4126 5.55289 13.4126 5.55289C13.4099 5.55289 13.4069 5.55013 13.4041 5.55013C13.4014 5.55013 13.3984 5.54737 13.3957 5.54737C13.3929 5.54737 13.39 5.54737 13.3872 5.54461C13.3845 5.54461 13.3815 5.54186 13.3787 5.54186H13.3703C13.3675 5.54186 13.3646 5.54186 13.3618 5.5391H13.3533H13.3449H13.3336H13.3252C13.3224 5.5391 13.3167 5.5391 13.3139 5.54186H13.3082C13.3055 5.54186 13.2998 5.54461 13.297 5.54461C13.2942 5.54461 13.2942 5.54461 13.2913 5.54737C13.2885 5.54737 13.2856 5.55013 13.2801 5.55013C13.2773 5.55013 13.2744 5.55289 13.2716 5.55289C13.2688 5.55289 13.2659 5.55564 13.2631 5.55564C13.2604 5.55564 13.2574 5.5584 13.2547 5.5584C13.2519 5.5584 13.2519 5.56116 13.2489 5.56116C13.2462 5.56392 13.2432 5.56392 13.2377 5.56687C13.235 5.56687 13.235 5.56963 13.232 5.56963C13.2293 5.57238 13.2263 5.57534 13.2208 5.5781L11.3996 7.06031L11.399 3.42068L11.3961 3.4207Z" fill="black"/>
<path d="M14.2841 5.47938C14.7979 5.47938 15.2186 5.06145 15.2186 4.54487C15.2186 4.02827 14.8007 3.61035 14.2841 3.61035C13.7675 3.61035 13.3496 4.02828 13.3496 4.54487C13.3496 5.06146 13.7703 5.47938 14.2841 5.47938ZM14.2841 3.98572C14.5947 3.98572 14.846 4.23703 14.846 4.54764C14.846 4.85823 14.5947 5.10956 14.2841 5.10956C13.9735 5.10956 13.7222 4.85825 13.7222 4.54764C13.7222 4.23705 13.9735 3.98572 14.2841 3.98572Z" fill="black"/>
<path d="M0.434903 20.195H0.790593C1.03067 20.195 1.22546 20.0002 1.22546 19.7601V19.3422H4.51468V19.7601C4.51468 20.0002 4.70947 20.195 4.94955 20.195H5.30524C5.54532 20.195 5.7401 20.0002 5.7401 19.7601V12.772C5.7401 12.5885 5.59042 12.436 5.4041 12.436H0.335997C0.152442 12.436 0 12.5857 0 12.772V19.7632C0 20.0003 0.194783 20.1951 0.434863 20.1951L0.434903 20.195ZM5.36179 19.7631C5.36179 19.797 5.33362 19.8251 5.29975 19.8251H4.94406C4.91018 19.8251 4.88202 19.797 4.88202 19.7631V19.3452H5.35922L5.35902 19.7631H5.36179ZM0.372686 12.8088H5.36456V14.6412H0.372686V12.8088ZM0.372686 15.014H5.36456V16.7702H0.372686V15.014ZM0.372686 17.1401H5.36456V18.9725H0.372686V17.1401ZM0.372686 19.3451H0.849891V19.763C0.849891 19.7969 0.821728 19.8251 0.787851 19.8251H0.434918C0.401043 19.8251 0.372878 19.7969 0.372878 19.763L0.372686 19.3451Z" fill="black"/>
<path d="M3.51007 13.6731H2.22538C2.12375 13.6731 2.03906 13.7578 2.03906 13.8594C2.03906 13.961 2.12375 14.0457 2.22538 14.0457H3.51007C3.61169 14.0457 3.69638 13.961 3.69638 13.8594C3.69638 13.755 3.61445 13.6731 3.51007 13.6731Z" fill="black"/>
<path d="M3.51007 15.7058H2.22538C2.12375 15.7058 2.03906 15.7905 2.03906 15.8921C2.03906 15.9937 2.12375 16.0784 2.22538 16.0784H3.51007C3.61169 16.0784 3.69638 15.9937 3.69638 15.8921C3.69638 15.7877 3.61445 15.7058 3.51007 15.7058Z" fill="black"/>
<path d="M2.22538 18.1088H3.51007C3.61169 18.1088 3.69638 18.0241 3.69638 17.9224C3.69638 17.8208 3.61169 17.7361 3.51007 17.7361H2.22538C2.12375 17.7361 2.03906 17.8208 2.03906 17.9224C2.03906 18.0241 2.1208 18.1088 2.22538 18.1088Z" fill="black"/>
<path d="M0.994201 9.20061V9.20632C0.994201 9.20908 0.994201 9.21479 0.996958 9.21755V9.22602C0.996958 9.22878 0.999714 9.23173 0.999714 9.23449C0.999714 9.23725 1.00247 9.2402 1.00247 9.24296C1.00247 9.24572 1.00523 9.24572 1.00523 9.24867C1.00523 9.25143 1.00799 9.25714 1.01094 9.2599C1.01094 9.26265 1.0137 9.26265 1.0137 9.26561C1.01646 9.26836 1.01646 9.27408 1.01941 9.27683C1.01941 9.27959 1.02217 9.27959 1.02217 9.28254C1.02492 9.2853 1.02492 9.28826 1.02788 9.29377C1.03064 9.29653 1.03064 9.29948 1.03359 9.29948C1.03635 9.30224 1.03635 9.30519 1.0393 9.30795C1.04206 9.31071 1.04501 9.31366 1.04777 9.31642C1.05053 9.31918 1.05053 9.31918 1.05053 9.32213C1.05328 9.32489 1.05624 9.32784 1.059 9.3306L1.06175 9.33336C1.06451 9.33612 1.06746 9.33907 1.07022 9.33907C1.07298 9.33907 1.07298 9.34183 1.07593 9.34183C1.07869 9.34458 1.08165 9.34458 1.0844 9.34754C1.08716 9.3503 1.09011 9.3503 1.09287 9.35325C1.09563 9.35325 1.09858 9.35601 1.09858 9.35601C1.10134 9.35876 1.10429 9.35876 1.10981 9.36172C1.11257 9.36172 1.11257 9.36172 1.11552 9.36448C1.11828 9.36723 1.12399 9.36723 1.12675 9.36723H1.13246C1.13522 9.36723 1.14093 9.36999 1.14368 9.36999H1.15215H1.16062H1.17185H1.17756H2.68266V12.0522H2.26198C2.16036 12.0522 2.07567 12.1369 2.07567 12.2385C2.07567 12.3402 2.16036 12.4249 2.26198 12.4249H3.47319C3.57482 12.4249 3.65951 12.3402 3.65951 12.2385C3.65951 12.1369 3.57482 12.0522 3.47319 12.0522H3.05251V9.36999H3.6595V10.1832C3.54369 10.2482 3.46472 10.3725 3.46472 10.5135C3.46472 10.7224 3.63409 10.8946 3.84581 10.8946C4.05477 10.8946 4.22691 10.7252 4.22691 10.5135C4.22691 10.3723 4.14793 10.248 4.03213 10.1832V9.36999H4.55442H4.55717C4.56564 9.36999 4.57135 9.36999 4.57687 9.36723H4.58258C4.58829 9.36723 4.59676 9.36448 4.60227 9.36448H4.60503C4.60779 9.36448 4.6135 9.36172 4.61626 9.36172C4.61901 9.36172 4.61901 9.36172 4.62197 9.35896C4.62473 9.3562 4.62768 9.3562 4.6332 9.35325C4.63595 9.35325 4.63891 9.35049 4.63891 9.35049C4.64166 9.34773 4.64462 9.34773 4.64738 9.34478C4.65013 9.34202 4.65309 9.34202 4.65584 9.33907C4.6586 9.33907 4.6586 9.33631 4.66156 9.33631C4.66431 9.33355 4.66727 9.3306 4.67003 9.3306L4.67278 9.32784C4.67554 9.32509 4.67849 9.32213 4.68125 9.31937C4.68401 9.31662 4.68401 9.31662 4.68401 9.31366L4.69248 9.30519C4.69523 9.30244 4.69523 9.29948 4.69819 9.29673C4.70095 9.29397 4.70095 9.29101 4.7039 9.29101C4.70666 9.28826 4.70961 9.2853 4.70961 9.27979C4.70961 9.27703 4.71237 9.27703 4.71237 9.27408C4.71513 9.27132 4.71513 9.26561 4.71808 9.26285C4.71808 9.26009 4.72084 9.26009 4.72084 9.25714C4.72359 9.25438 4.72359 9.24867 4.72359 9.24591C4.72359 9.24316 4.72635 9.24316 4.72635 9.2402C4.72635 9.23744 4.72911 9.23449 4.72911 9.23173C4.72911 9.22897 4.73187 9.22602 4.73187 9.22326V9.21479C4.73187 9.21204 4.73187 9.20633 4.73462 9.20357V9.19786V9.18368V9.18092V9.17521V9.16398V9.15551V9.14704C4.73462 9.14429 4.73187 9.13857 4.73187 9.13582V9.13011V9.12735L3.89048 6.18531C3.86783 6.10633 3.79456 6.0498 3.71263 6.0498H2.02421C1.94228 6.0498 1.86901 6.10337 1.84636 6.18531L1.00497 9.12735V9.13011V9.13582C1.00497 9.13857 1.00222 9.14429 1.00222 9.14704V9.15551V9.16398V9.17521V9.18092V9.18368C0.99414 9.19215 0.994141 9.1949 0.994141 9.20061H0.994201ZM3.84599 10.5219C3.84028 10.5219 3.83752 10.5192 3.83752 10.5135C3.83752 10.5078 3.84028 10.505 3.84599 10.505C3.85171 10.505 3.85446 10.5078 3.85446 10.5135C3.85446 10.5192 3.85151 10.5219 3.84599 10.5219ZM2.16306 6.42798H3.56909L4.30607 9.00015H1.42609L2.16306 6.42798Z" fill="black"/>
</g>
<defs>
<clipPath id="clip0_850_33802">
<rect width="24" height="24" fill="white"/>
</clipPath>
</defs>
</svg>
