<svg width="24" height="24" viewBox="0 0 24 24" fill="none" xmlns="http://www.w3.org/2000/svg">
<path d="M10.8098 8.49894C10.8098 8.49894 9.78836 6.04401 8.01435 5.811C8.01435 5.811 8.28006 6.1023 8.69564 6.63331C9.92523 8.20483 12.4705 11.8835 13.3544 16.3835C13.3544 16.3835 14.6447 5.70348 20.4505 3.05148C20.4505 3.05148 15.3255 8.71411 14.1786 20.4693H12.5301C12.5301 20.4693 12.1717 13.5165 9.01751 9.50234C9.01751 9.50234 6.58055 9.71743 5.72032 8.06879C4.86009 6.42026 5.07544 4.70008 4 3.05142C11.9803 2.38216 10.8095 8.49873 10.8095 8.49873L10.8098 8.49894Z" fill="#346C04"/>
</svg>
