<svg width="24" height="24" viewBox="0 0 24 24" fill="none" xmlns="http://www.w3.org/2000/svg">
<path d="M12 3C7.03429 3 3 7.0343 3 12C3 16.9657 7.03429 21 12 21C16.9657 21 21 16.9657 21 12C21 7.0343 16.9657 3 12 3V3ZM12 3.81811C16.5234 3.81811 20.1818 7.47656 20.1818 11.9999C20.1818 14.1139 19.385 16.0401 18.0724 17.4905L14.0137 13.4318H17.5229C17.7489 13.4318 17.9319 13.2486 17.9319 13.0227V10.9772C17.9319 10.7514 17.7489 10.5682 17.5229 10.5682H11.1502L6.50956 5.92756C7.96019 4.61503 9.88635 3.81818 12.0001 3.81818L12 3.81811ZM5.93413 6.5092L9.9929 10.568H6.47727C6.46443 10.5674 6.45173 10.5674 6.43889 10.568C6.22801 10.5878 6.0672 10.7653 6.06823 10.977V13.0225C6.06823 13.2483 6.25128 13.4315 6.47728 13.4315H10.9773C11.0867 13.4331 11.1923 13.3907 11.2703 13.3138C11.3482 13.2369 11.3922 13.1321 11.3922 13.0225C11.3922 12.9129 11.3482 12.808 11.2703 12.7311C11.1923 12.6542 11.0867 12.6118 10.9773 12.6134H8.93183V11.3861H10.811L17.4909 18.0659C16.04 19.38 14.1156 20.1817 12.0003 20.1817C7.47696 20.1817 3.81852 16.5233 3.81852 11.9999C3.81852 9.88455 4.62023 7.96014 5.93432 6.50932L5.93413 6.5092ZM15.6435 6.87987C15.5791 6.88871 15.5178 6.91283 15.4645 6.95021C15.135 7.15966 14.8636 7.50694 14.8636 7.90902C14.8636 8.11918 14.9356 8.32779 15.0491 8.4843C15.1624 8.64082 15.3013 8.7514 15.4453 8.85497C15.5616 8.93872 15.6238 8.99808 15.6499 9.03403C15.676 9.06998 15.6819 9.07641 15.6819 9.13633C15.6819 9.25633 15.6831 9.26574 15.4646 9.40471C15.3635 9.45779 15.2894 9.55053 15.2598 9.66068C15.2301 9.77083 15.248 9.8884 15.3086 9.98485C15.3694 10.0814 15.4677 10.1481 15.5798 10.169C15.692 10.19 15.8077 10.1632 15.8992 10.0951C16.2286 9.88569 16.5 9.53841 16.5 9.13633C16.5 8.92617 16.4281 8.71113 16.3146 8.55462C16.2012 8.3981 16.0624 8.2938 15.9183 8.19022C15.802 8.1066 15.7399 8.04083 15.7138 8.00488C15.6877 7.96892 15.6818 7.96892 15.6818 7.90899C15.6818 7.789 15.6804 7.77958 15.8991 7.64047C16.0684 7.54345 16.1454 7.34027 16.0833 7.15537C16.0211 6.97031 15.8369 6.85502 15.6435 6.87985L15.6435 6.87987ZM17.2799 6.87987C17.2154 6.88871 17.154 6.91283 17.1008 6.95021C16.7714 7.15966 16.5 7.50694 16.5 7.90902C16.5 8.11918 16.572 8.32779 16.6853 8.4843C16.7988 8.64082 16.9376 8.7514 17.0817 8.85497C17.198 8.93872 17.2602 8.99808 17.2863 9.03403C17.3123 9.06998 17.3183 9.07641 17.3183 9.13633C17.3183 9.25633 17.3196 9.26574 17.1008 9.40471C17 9.45779 16.9258 9.55053 16.8961 9.66068C16.8665 9.77083 16.8842 9.8884 16.945 9.98485C17.0058 10.0814 17.1041 10.1481 17.2163 10.169C17.3283 10.19 17.4441 10.1632 17.5356 10.0951C17.865 9.88569 18.1364 9.53841 18.1364 9.13633C18.1364 8.92617 18.0643 8.71113 17.951 8.55462C17.8376 8.3981 17.6988 8.2938 17.5547 8.19022C17.4384 8.1066 17.3762 8.04083 17.3502 8.00488C17.3241 7.96892 17.3182 7.96892 17.3182 7.90899C17.3182 7.789 17.3168 7.77958 17.5355 7.64047C17.7048 7.54345 17.7818 7.34027 17.7196 7.15537C17.6575 6.97031 17.4733 6.85502 17.2799 6.87985L17.2799 6.87987ZM6.8864 11.3864H8.11375V12.6138H6.8864V11.3864ZM11.9679 11.3864H17.1137V12.6138H13.1955L11.9679 11.3864Z" fill="#012768"/>
</svg>
