<svg width="24" height="24" viewBox="0 0 24 24" fill="none" xmlns="http://www.w3.org/2000/svg">
<path d="M14.9483 22.7344H7.91699C7.81345 22.7344 7.72949 22.6504 7.72949 22.5469V15.0313C7.72949 14.1611 8.43745 13.4531 9.30764 13.4531H13.5576C14.4278 13.4531 15.1358 14.1611 15.1358 15.0313V22.5469C15.1358 22.6504 15.0518 22.7344 14.9483 22.7344ZM8.10445 22.3594H14.7607V15.0313C14.7607 14.3679 14.2209 13.8281 13.5575 13.8281H9.30754C8.64417 13.8281 8.1044 14.3679 8.1044 15.0313V22.3594H8.10445Z" fill="black"/>
<path d="M14.0108 13.8281H8.85449C8.75095 13.8281 8.66699 13.7442 8.66699 13.6406V11.7656C8.66699 11.6621 8.75095 11.5781 8.85449 11.5781H14.0108C14.1143 11.5781 14.1983 11.6621 14.1983 11.7656V13.6406C14.1983 13.7442 14.1143 13.8281 14.0108 13.8281ZM9.04195 13.4531H13.8232V11.9531H9.04195V13.4531Z" fill="black"/>
<path d="M14.0097 11.9533H8.85349C8.7641 11.9533 8.68718 11.8902 8.66965 11.8026L8.2009 9.45887L7.26424 5.24401C7.25032 5.18143 7.26935 5.11609 7.31468 5.07076L8.69369 3.69174L9.6169 1.38376C9.64535 1.31256 9.7143 1.26587 9.79099 1.26587H13.0722C13.1489 1.26587 13.2178 1.31256 13.2463 1.38376L14.1695 3.69174L15.5486 5.07076C15.5939 5.11609 15.6129 5.18143 15.599 5.24401L14.6615 9.46276L14.1936 11.8026C14.1761 11.8902 14.0991 11.9533 14.0097 11.9533ZM9.00719 11.5783H13.856L14.2946 9.38527L15.2106 5.26313L13.8772 3.92968C13.8592 3.91173 13.8451 3.89031 13.8356 3.86673L12.9453 1.64082H9.91793L9.02759 3.86668C9.01816 3.89026 9.00405 3.91168 8.9861 3.92963L7.6526 5.26309L8.56779 9.38134L9.00719 11.5783Z" fill="black"/>
<path d="M12.8361 4.96252C12.7853 4.96252 12.7347 4.94199 12.6979 4.90172L11.2221 3.2918C11.1543 3.21778 11.1568 3.1035 11.2278 3.03249L12.9397 1.32056C12.9843 1.27599 13.0481 1.25677 13.11 1.26947C13.1717 1.28217 13.223 1.32502 13.2464 1.38352L14.1839 3.72727C14.2141 3.80264 14.1922 3.88894 14.1298 3.94092L12.9561 4.91902C12.9211 4.94822 12.8785 4.96252 12.8361 4.96252ZM11.6198 3.17077L12.8534 4.5165L13.7851 3.74011L13.0038 1.78683L11.6198 3.17077Z" fill="black"/>
<path d="M14.4795 9.6094C14.4305 9.6094 14.3826 9.59018 14.3469 9.55451L8.72189 3.92951C8.66887 3.87645 8.65256 3.7969 8.6804 3.72729L9.61791 1.38354C9.64186 1.32368 9.69487 1.28032 9.7583 1.2687C9.82167 1.25707 9.88664 1.27891 9.93019 1.32645L15.0864 6.95145C15.1269 6.99555 15.1439 7.05626 15.1321 7.11495L14.6634 9.4587C14.6498 9.52648 14.6 9.58132 14.5338 9.60138C14.5159 9.60677 14.4977 9.6094 14.4795 9.6094ZM9.07448 3.75176L14.3644 9.0416L14.7458 7.13473L9.85528 1.7997L9.07448 3.75176Z" fill="black"/>
<path d="M14.947 17.5779C14.8539 17.578 14.7731 17.5086 14.7612 17.4137C14.7484 17.3109 14.8212 17.2172 14.924 17.2044L18.4581 16.7626L15.2355 5.25347C15.2076 5.15376 15.2658 5.05026 15.3655 5.02233C15.4653 4.99453 15.5687 5.05265 15.5966 5.15231L18.8778 16.8711C18.8926 16.9236 18.8836 16.98 18.8534 17.0254C18.8232 17.0709 18.7747 17.1009 18.7205 17.1076L14.9705 17.5764C14.9627 17.5775 14.9548 17.5779 14.947 17.5779Z" fill="black"/>
<path d="M14.9471 16.1719C14.8552 16.1719 14.775 16.1044 14.7617 16.0108C14.747 15.9083 14.8183 15.8134 14.9208 15.7987L18.2021 15.33C18.3043 15.3155 18.3996 15.3866 18.4142 15.4891C18.4288 15.5916 18.3576 15.6866 18.2551 15.7012L14.9738 16.17C14.9648 16.1712 14.9559 16.1719 14.9471 16.1719Z" fill="black"/>
<path d="M3.48384 6.94582C3.14297 6.94582 2.85797 6.65393 2.75241 6.23787C2.57475 6.34352 2.38495 6.40113 2.20387 6.40113C2.01628 6.40113 1.85452 6.33841 1.73616 6.21968C1.49498 5.97851 1.49986 5.5706 1.71956 5.20198C1.30467 5.0959 1.01367 4.81118 1.01367 4.4711C1.01367 4.13018 1.30566 3.84513 1.72181 3.73962C1.50309 3.37104 1.49873 2.96379 1.73977 2.72346C1.85808 2.6051 2.01989 2.54243 2.20748 2.54243C2.38622 2.54243 2.57859 2.60168 2.75728 2.70771C2.86317 2.2924 3.14808 2.00098 3.48839 2.00098C3.82978 2.00098 4.11483 2.29282 4.22011 2.70874C4.39772 2.60323 4.58747 2.54566 4.7685 2.54566C4.95609 2.54566 5.11795 2.60834 5.2365 2.72693C5.47767 2.96815 5.47261 3.3761 5.25267 3.74487C5.66752 3.85095 5.95852 4.13566 5.95852 4.47574C5.95852 4.81723 5.66658 5.10232 5.25052 5.20751C5.46891 5.5759 5.47327 5.9832 5.23261 6.22385C5.1142 6.34226 4.95258 6.40484 4.76527 6.40484C4.58639 6.40484 4.39383 6.34545 4.21491 6.23918C4.10902 6.65445 3.82416 6.94582 3.48384 6.94582ZM2.89622 5.70368C2.92041 5.70368 2.94483 5.70837 2.96803 5.71798C3.03745 5.74676 3.08297 5.81426 3.08367 5.8894C3.08752 6.29098 3.29766 6.57082 3.48389 6.57082C3.67355 6.57082 3.87966 6.29768 3.88411 5.89109C3.88495 5.8159 3.93056 5.74849 4.00008 5.71985C4.06955 5.69116 4.14947 5.70677 4.20305 5.75941C4.37273 5.9262 4.58822 6.02984 4.76536 6.02984C4.82513 6.02984 4.9087 6.01751 4.96753 5.95868C5.09911 5.8271 5.05036 5.48098 4.77 5.19462C4.71741 5.1409 4.70198 5.06088 4.73086 4.99151C4.75973 4.92209 4.82728 4.87657 4.90247 4.87596C5.30391 4.87268 5.58366 4.6624 5.58366 4.47574C5.58366 4.28609 5.31052 4.07998 4.90392 4.07552C4.82873 4.07468 4.76133 4.02907 4.73269 3.95955C4.704 3.89009 4.71956 3.81016 4.77225 3.75659C5.05378 3.47018 5.10319 3.12382 4.97147 2.9921C4.91245 2.93309 4.82859 2.92066 4.76864 2.92066C4.59192 2.92066 4.37686 3.02374 4.20741 3.18963C4.15369 3.24227 4.07377 3.25765 4.0043 3.22877C3.93488 3.1999 3.88936 3.13235 3.88875 3.05716C3.88547 2.65573 3.67519 2.37598 3.48853 2.37598C3.30277 2.37598 3.09272 2.65516 3.08831 3.05571C3.08747 3.1309 3.04186 3.1983 2.97234 3.22695C2.90278 3.25559 2.82295 3.23998 2.76937 3.18738C2.59997 3.02088 2.38467 2.91743 2.20763 2.91743C2.14772 2.91743 2.06391 2.9298 2.00489 2.98877C1.87317 3.12012 1.92206 3.46582 2.20242 3.75223C2.25502 3.80595 2.27044 3.88587 2.24161 3.95524C2.21278 4.02466 2.14533 4.07018 2.07019 4.07088C1.66861 4.07473 1.38877 4.28487 1.38877 4.4711C1.38877 4.65687 1.66795 4.86691 2.0685 4.87132C2.14369 4.87216 2.21109 4.91777 2.23973 4.98729C2.26842 5.05676 2.25286 5.13668 2.20017 5.19026C1.91888 5.47648 1.8697 5.82288 2.00156 5.95474C2.06048 6.0138 2.14411 6.02618 2.20392 6.02618C2.38055 6.02618 2.59552 5.9231 2.76497 5.75721C2.80073 5.7222 2.84808 5.70368 2.89622 5.70368Z" fill="black"/>
<path d="M20.5121 22.7341C20.171 22.7341 19.8858 22.4418 19.7805 22.0252C19.6021 22.1306 19.4103 22.1895 19.2322 22.1895C19.0446 22.1895 18.8828 22.1267 18.7645 22.0081C18.5233 21.7668 18.5281 21.3589 18.7479 20.9903C18.333 20.8842 18.042 20.5995 18.042 20.2594C18.042 19.9186 18.334 19.6335 18.7501 19.528C18.5314 19.1595 18.527 18.7521 18.7681 18.5118C18.8864 18.3934 19.0482 18.3308 19.2358 18.3308C19.4145 18.3308 19.6069 18.3901 19.7856 18.496C19.8915 18.0807 20.1764 17.7893 20.5167 17.7893C20.8581 17.7893 21.1432 18.0812 21.2485 18.4971C21.426 18.3916 21.6158 18.334 21.7968 18.334C21.9844 18.334 22.1462 18.3967 22.2648 18.5153C22.506 18.7564 22.5009 19.1644 22.281 19.5332C22.6959 19.6392 22.9869 19.9239 22.9869 20.264C22.9869 20.6055 22.6949 20.8906 22.2788 20.9958C22.4972 21.3642 22.5015 21.7715 22.2609 22.0121C22.1425 22.1305 21.9809 22.1932 21.7935 22.1932C21.6147 22.1932 21.4221 22.1337 21.2432 22.0275C21.1373 22.4428 20.8524 22.7341 20.5121 22.7341ZM19.9245 21.492C19.9487 21.492 19.9731 21.4967 19.9963 21.5064C20.0657 21.5351 20.1112 21.6026 20.1119 21.6777C20.1157 22.0793 20.3259 22.3591 20.5121 22.3591C20.7018 22.3591 20.9079 22.086 20.9123 21.6794C20.9131 21.6042 20.9587 21.5369 21.0283 21.5082C21.0976 21.4794 21.1776 21.4951 21.2312 21.5478C21.4009 21.7146 21.6164 21.8182 21.7935 21.8182C21.8533 21.8182 21.9369 21.8058 21.9957 21.747C22.1301 21.6127 22.0828 21.2736 21.7982 20.9829C21.7456 20.9292 21.7302 20.8492 21.7591 20.7798C21.7879 20.7104 21.8555 20.6649 21.9306 20.6642C22.3321 20.661 22.6119 20.4507 22.6119 20.264C22.6119 20.0743 22.3387 19.8683 21.9321 19.8639C21.857 19.863 21.7896 19.8174 21.7609 19.7479C21.7322 19.6785 21.7478 19.5985 21.8005 19.5449C22.082 19.2585 22.1314 18.9121 21.9997 18.7804C21.9406 18.7214 21.8568 18.709 21.7968 18.709C21.6201 18.709 21.4051 18.812 21.2357 18.9779C21.182 19.0305 21.102 19.046 21.0325 19.0171C20.9631 18.9882 20.9176 18.9206 20.917 18.8455C20.9137 18.4441 20.7034 18.1643 20.5167 18.1643C20.3309 18.1643 20.1209 18.4434 20.1165 18.844C20.1157 18.9192 20.0701 18.9866 20.0006 19.0153C19.9311 19.044 19.8511 19.0283 19.7976 18.9757C19.6282 18.8092 19.4129 18.7058 19.2359 18.7058C19.1759 18.7058 19.0921 18.7181 19.0331 18.7771C18.9014 18.9084 18.9502 19.2541 19.2306 19.5405C19.2832 19.5942 19.2986 19.6741 19.2698 19.7435C19.2411 19.8129 19.1736 19.8584 19.0985 19.8592C18.6969 19.863 18.4171 20.0731 18.4171 20.2594C18.4171 20.4451 18.6962 20.6552 19.0968 20.6596C19.172 20.6604 19.2394 20.7061 19.2681 20.7756C19.2967 20.845 19.2811 20.925 19.2284 20.9785C18.9471 21.2647 18.898 21.6112 19.0299 21.7431C19.0888 21.8021 19.1724 21.8145 19.2322 21.8145C19.4088 21.8145 19.6238 21.7114 19.7933 21.5455C19.829 21.5105 19.8764 21.492 19.9245 21.492Z" fill="black"/>
<path d="M7.91625 17.5784C7.90847 17.5784 7.90064 17.5779 7.89277 17.5769L4.14278 17.1082C4.08864 17.1014 4.04012 17.0714 4.00989 17.0259C3.97965 16.9805 3.97075 16.9241 3.98546 16.8716L7.26671 5.15283C7.29465 5.05313 7.39791 4.99496 7.49785 5.02285C7.59755 5.05079 7.65577 5.15424 7.62783 5.25399L4.40528 16.763L7.93927 17.2048C8.04202 17.2176 8.11491 17.3113 8.10207 17.4141C8.09025 17.509 8.00944 17.5784 7.91625 17.5784Z" fill="black"/>
<path d="M7.91629 16.172C7.90748 16.172 7.89857 16.1713 7.88952 16.1701L4.60827 15.7013C4.50576 15.6866 4.43451 15.5917 4.44918 15.4892C4.46385 15.3866 4.55835 15.3153 4.66134 15.3301L7.94259 15.7988C8.0451 15.8135 8.11635 15.9085 8.10168 16.0109C8.08832 16.1045 8.00812 16.172 7.91629 16.172Z" fill="black"/>
<path d="M13.0734 17.1092C13.0025 17.1092 12.9347 17.0689 12.903 17.0002L10.0905 10.9065C10.0471 10.8124 10.0882 10.7011 10.1822 10.6577C10.2763 10.6143 10.3876 10.6553 10.431 10.7494L13.2435 16.8431C13.287 16.9371 13.2459 17.0485 13.1519 17.0919C13.1265 17.1037 13.0997 17.1092 13.0734 17.1092Z" fill="black"/>
<path d="M9.79096 17.1092C9.76466 17.1092 9.73794 17.1037 9.71249 17.0919C9.61846 17.0485 9.57744 16.9371 9.6208 16.8431L12.4333 10.7494C12.4766 10.6554 12.5881 10.6143 12.6821 10.6577C12.7761 10.7011 12.8172 10.8125 12.7738 10.9065L9.9613 17.0003C9.92966 17.0689 9.86183 17.1092 9.79096 17.1092Z" fill="black"/>
<path d="M19.6348 8.67188C18.756 8.67188 18.041 7.95694 18.041 7.07812C18.041 6.19931 18.756 5.48438 19.6348 5.48438C20.5136 5.48438 21.2285 6.19931 21.2285 7.07812C21.2285 7.95694 20.5136 8.67188 19.6348 8.67188ZM19.6348 5.85938C18.9627 5.85938 18.416 6.40612 18.416 7.07812C18.416 7.75012 18.9627 8.29688 19.6348 8.29688C20.3068 8.29688 20.8535 7.75012 20.8535 7.07812C20.8535 6.40612 20.3068 5.85938 19.6348 5.85938Z" fill="black"/>
<path d="M3.69824 21.7969C3.0779 21.7969 2.57324 21.2922 2.57324 20.6719C2.57324 20.0516 3.0779 19.5469 3.69824 19.5469C4.31859 19.5469 4.82325 20.0516 4.82325 20.6719C4.82325 21.2922 4.31859 21.7969 3.69824 21.7969ZM3.69824 19.9219C3.28471 19.9219 2.94824 20.2583 2.94824 20.6719C2.94824 21.0854 3.28471 21.4219 3.69824 21.4219C4.11178 21.4219 4.44825 21.0854 4.44825 20.6719C4.44825 20.2583 4.11182 19.9219 3.69824 19.9219Z" fill="black"/>
</svg>
