<svg width="24" height="24" viewBox="0 0 24 24" fill="none" xmlns="http://www.w3.org/2000/svg">
<path d="M17.5543 11.7979H18.6125C18.7477 12.3212 19.2211 12.7079 19.7864 12.708C20.4567 12.7079 20.9997 12.1647 21 11.4945C20.9999 10.8242 20.4567 10.2812 19.7864 10.2809C19.2211 10.281 18.7477 10.6677 18.6125 11.191H17.5543C17.4784 9.85735 16.9063 8.65693 16.0188 7.7718L17.0866 6.5725C17.3885 6.75209 17.7284 6.84309 18.067 6.84267C18.5805 6.84309 19.0955 6.63641 19.4736 6.23068C19.8174 5.86121 19.9887 5.38958 19.9886 4.92177C19.989 4.40809 19.7823 3.89275 19.3766 3.51509C19.0071 3.17114 18.5355 2.9996 18.0678 3C17.5539 2.99958 17.0388 3.20626 16.661 3.61227C16.3172 3.98134 16.1456 4.45295 16.1459 4.92104C16.1455 5.37249 16.3055 5.82506 16.6198 6.18467L15.5647 7.3696C14.6684 6.66068 13.5371 6.23617 12.3053 6.23603C11.071 6.23617 9.93722 6.66237 9.0401 7.37426L7.87648 6.06718C8.11519 5.74708 8.25794 5.35137 8.25808 4.92148C8.25794 3.86014 7.39795 3.00029 6.33675 3C5.27556 3.00014 4.41556 3.86014 4.41542 4.92133C4.41556 5.98253 5.27556 6.84252 6.33675 6.84267C6.74855 6.84267 7.12932 6.71203 7.44208 6.49138L8.58638 7.77689C7.70197 8.66159 7.13199 9.86035 7.0564 11.1911H6.20641C6.0642 10.4428 5.40778 9.87667 4.61803 9.87656C3.72431 9.87671 3.00029 10.601 3 11.4946C3.00014 12.3883 3.72431 13.1123 4.61803 13.1126C5.40778 13.1125 6.06437 12.5463 6.20641 11.7981H7.0564C7.13202 13.1279 7.70114 14.3256 8.58443 15.2101L7.02635 16.9601C6.7923 16.8289 6.52311 16.753 6.23559 16.753C5.34187 16.7532 4.61785 17.4773 4.61756 18.3711C4.6177 19.2648 5.34187 19.9888 6.23559 19.9891C7.12932 19.9889 7.85333 19.2648 7.85362 18.3711C7.85348 17.9839 7.71706 17.629 7.49062 17.3505L9.03768 15.613C9.93524 16.3261 11.07 16.753 12.3053 16.753C13.5382 16.753 14.6706 16.3275 15.5675 15.6174L16.353 16.4998C15.9744 16.9135 15.7418 17.4627 15.7416 18.0676C15.7416 19.3525 16.7823 20.3933 18.0672 20.3935C19.3522 20.3934 20.3929 19.3525 20.393 18.0678C20.3929 16.783 19.3522 15.742 18.0672 15.7418C17.6065 15.742 17.1782 15.8777 16.8167 16.1088L16.0211 15.215C16.9073 14.33 17.4785 13.1303 17.5543 11.798V11.7979ZM17.1051 4.02578C17.3645 3.74701 17.7142 3.60734 18.0678 3.60691C18.3893 3.60705 18.709 3.72273 18.9632 3.95918C19.242 4.21891 19.3815 4.56849 19.3819 4.92189C19.3818 5.2434 19.2658 5.56324 19.0294 5.81746C18.7699 6.09623 18.4202 6.23575 18.0671 6.23618C17.7453 6.23604 17.4256 6.12008 17.1715 5.88391C16.8926 5.62419 16.7531 5.2746 16.7526 4.92121C16.7528 4.59955 16.8686 4.27986 17.105 4.02578H17.1051ZM19.2829 16.852C19.5944 17.1641 19.7861 17.5918 19.7863 18.0675C19.7861 18.5434 19.5944 18.9711 19.2829 19.2832C18.9708 19.5948 18.5431 19.7866 18.0672 19.7867C17.5914 19.7865 17.1636 19.5948 16.8516 19.2833C16.5401 18.9712 16.3483 18.5435 16.3482 18.0676C16.3483 17.5919 16.5401 17.1642 16.8516 16.8521C17.1636 16.5403 17.5914 16.3486 18.0672 16.3485C18.5431 16.3486 18.9709 16.5403 19.2829 16.852V16.852ZM19.7864 10.8878C20.1213 10.8884 20.3925 11.1597 20.3932 11.4946C20.3926 11.8295 20.1213 12.1007 19.7864 12.1014C19.4516 12.1008 19.1803 11.8294 19.1796 11.4946C19.1802 11.1595 19.4516 10.8884 19.7864 10.8878ZM5.4072 5.85108C5.1692 5.61196 5.02249 5.28536 5.02235 4.92124C5.02249 4.55727 5.16921 4.23053 5.4072 3.99169C5.64619 3.75355 5.97292 3.60684 6.3369 3.60669C6.70087 3.60684 7.02761 3.75356 7.26659 3.99184C7.50487 4.23068 7.6513 4.55727 7.65144 4.92139C7.6513 5.28536 7.50458 5.6121 7.26659 5.85108C7.02761 6.08923 6.70102 6.23565 6.3369 6.23594C5.97292 6.23565 5.64618 6.08921 5.4072 5.85108ZM5.33271 12.2093C5.14889 12.3927 4.8982 12.5054 4.61787 12.5056C4.33755 12.5054 4.08671 12.3927 3.90274 12.2093C3.71948 12.0255 3.60676 11.7746 3.60661 11.4943C3.60676 11.2141 3.71948 10.9634 3.90274 10.7793C4.08684 10.5959 4.33754 10.4832 4.61787 10.4831C4.89805 10.4832 5.14902 10.5959 5.33285 10.7793C5.51626 10.9634 5.62898 11.2141 5.62912 11.4943C5.62884 11.7745 5.51626 12.0255 5.33271 12.2093H5.33271ZM6.95074 19.0858C6.76692 19.2692 6.51609 19.3818 6.23575 19.382C5.95543 19.3819 5.7046 19.2692 5.52062 19.0859C5.33736 18.9018 5.22478 18.6511 5.2245 18.3708C5.22464 18.0905 5.33736 17.8396 5.52062 17.6558C5.70473 17.4724 5.95542 17.3597 6.23575 17.3595C6.51607 17.3597 6.76691 17.4724 6.95074 17.6558C7.13414 17.8396 7.24686 18.0905 7.247 18.3708C7.24686 18.6511 7.13414 18.9018 6.95074 19.0858V19.0858ZM9.01614 14.7836C8.17392 13.9408 7.65403 12.7799 7.65374 11.4943C7.65388 10.2089 8.17388 9.04771 9.01614 8.2049C9.85908 7.36268 11.02 6.84279 12.3055 6.8425C13.5909 6.84264 14.7519 7.36264 15.5949 8.2049C16.4371 9.04771 16.957 10.2088 16.9573 11.4943C16.9571 12.7798 16.4371 13.9408 15.5949 14.7836C14.7519 15.6259 13.591 16.1458 12.3055 16.146C11.02 16.1459 9.85894 15.6259 9.01614 14.7836Z" fill="#012768"/>
<path d="M11.6979 12.5059C11.0277 12.506 10.4847 13.0492 10.4844 13.7194C10.4845 14.3897 11.0277 14.9327 11.6979 14.933C12.3682 14.9329 12.9112 14.3897 12.9115 13.7194C12.9113 13.0492 12.3682 12.5061 11.6979 12.5059ZM11.6979 14.3262C11.363 14.3256 11.0919 14.0543 11.0912 13.7194C11.0917 13.3845 11.363 13.1133 11.6979 13.1126C12.0328 13.1132 12.304 13.3845 12.3047 13.7194C12.3041 14.0542 12.0329 14.3255 11.6979 14.3262Z" fill="#012768"/>
<path d="M11.294 10.4832C11.2938 9.92449 10.8414 9.47207 10.2827 9.47192C9.72405 9.47206 9.27163 9.92449 9.27148 10.4832C9.27163 11.0418 9.72405 11.4943 10.2827 11.4944C10.8411 11.4943 11.2938 11.0418 11.294 10.4832ZM10.2827 10.8878C10.0594 10.8873 9.87867 10.7065 9.87827 10.4833C9.87869 10.26 10.0596 10.0792 10.2827 10.0788C10.5061 10.0793 10.6868 10.2601 10.6872 10.4833C10.6869 10.7065 10.5058 10.8874 10.2827 10.8878Z" fill="#012768"/>
<path d="M14.1249 9.06738C13.2309 9.06752 12.5071 9.79169 12.5068 10.6854C12.507 11.579 13.2309 12.3032 14.1249 12.3034C15.0184 12.3033 15.7425 11.579 15.7429 10.6854C15.7426 9.79169 15.0183 9.06767 14.1249 9.06738ZM14.8397 11.4004C14.6556 11.5838 14.4049 11.6965 14.1247 11.6967C13.8444 11.6965 13.5936 11.5838 13.4097 11.4004C13.2261 11.2166 13.1136 10.9656 13.1135 10.6854C13.1136 10.4051 13.2262 10.1543 13.4097 9.97043C13.5936 9.78703 13.8444 9.6743 14.1247 9.67416C14.4049 9.6743 14.6556 9.78703 14.8397 9.97043C15.0231 10.1542 15.1358 10.4052 15.136 10.6854C15.1358 10.9656 15.0233 11.2166 14.8397 11.4004Z" fill="#012768"/>
</svg>
