<svg width="24" height="24" viewBox="0 0 24 24" fill="none" xmlns="http://www.w3.org/2000/svg">
<path d="M19.9453 22.0312H4.52344C3.5025 22.0312 2.67188 21.2006 2.67188 20.1797V12.2578C2.67188 11.2369 3.5025 10.4062 4.52344 10.4062H19.9453C20.9662 10.4062 21.7969 11.2369 21.7969 12.2578V20.1797C21.7969 21.2006 20.9662 22.0312 19.9453 22.0312ZM4.52344 10.7812C3.70927 10.7812 3.04688 11.4436 3.04688 12.2578V20.1797C3.04688 20.9939 3.70927 21.6562 4.52344 21.6562H19.9453C20.7595 21.6562 21.4219 20.9939 21.4219 20.1797V12.2578C21.4219 11.4436 20.7595 10.7812 19.9453 10.7812H4.52344Z" fill="black"/>
<path d="M19.7344 10.7812H4.73438C4.63083 10.7812 4.54688 10.6973 4.54688 10.5938V8.25C4.54688 8.14645 4.63083 8.0625 4.73438 8.0625H19.7344C19.8379 8.0625 19.9219 8.14645 19.9219 8.25V10.5938C19.9219 10.6973 19.8379 10.7812 19.7344 10.7812ZM4.92188 10.4062H19.5469V8.4375H4.92188V10.4062Z" fill="black"/>
<path d="M6.04099 8.43737C5.98849 8.43737 5.93637 8.41544 5.89933 8.37259C5.87529 8.34475 5.31335 7.6832 5.57346 6.9992C5.79912 6.4059 6.56112 6.01956 7.83832 5.85085C9.17811 5.67395 10.2949 5.12031 11.1576 4.20535C11.8039 3.52009 12.0575 2.8771 12.06 2.87068C12.0973 2.77426 12.2057 2.72602 12.3023 2.76338C12.3989 2.8006 12.447 2.90884 12.41 3.0054C12.399 3.0339 12.1338 3.71209 11.4427 4.44967C10.8068 5.12828 9.67386 5.9867 7.8875 6.22262C6.77477 6.36953 6.09602 6.68364 5.92465 7.13087C5.74301 7.60483 6.17899 8.12251 6.18344 8.12767C6.25062 8.20623 6.24171 8.3245 6.16334 8.39191C6.1278 8.42242 6.0843 8.43737 6.04099 8.43737Z" fill="black"/>
<path d="M18.428 8.43758C18.3845 8.43758 18.3409 8.42258 18.3055 8.39193C18.2271 8.32424 18.2185 8.20579 18.2862 8.12746C18.2903 8.12263 18.7264 7.60499 18.5447 7.13099C18.3733 6.68371 17.6946 6.36965 16.5819 6.22274C14.7955 5.98682 13.6626 5.1284 13.0267 4.44979C12.3355 3.71221 12.0704 3.03407 12.0594 3.00553C12.0223 2.90887 12.0705 2.8004 12.1672 2.76328C12.2639 2.72611 12.3722 2.77434 12.4094 2.8709C12.4135 2.8814 12.6676 3.52242 13.3117 4.20548C14.1744 5.12043 15.2912 5.67402 16.631 5.85098C17.9082 6.01968 18.6702 6.40602 18.8958 6.99932C19.1559 7.68332 18.594 8.34486 18.5699 8.37271C18.5328 8.4156 18.4805 8.43758 18.428 8.43758Z" fill="black"/>
<path d="M15.9844 19.6875H2.85938C2.75583 19.6875 2.67188 19.6035 2.67188 19.5V12.9375C2.67188 12.834 2.75583 12.75 2.85938 12.75H15.9844C16.0879 12.75 16.1719 12.834 16.1719 12.9375V19.5C16.1719 19.6035 16.0879 19.6875 15.9844 19.6875ZM3.04688 19.3125H15.7969V13.125H3.04688V19.3125Z" fill="black"/>
<path d="M8.79927 19.6875C8.79922 19.6875 8.79922 19.6875 8.79917 19.6875C8.69277 19.6875 8.58566 19.6827 8.48089 19.6734C8.39057 19.6653 8.31894 19.5937 8.31088 19.5034C8.20733 18.3492 8.68269 17.123 9.58246 16.2232C10.3996 15.4061 11.4794 14.9375 12.5451 14.9375C12.6514 14.9375 12.7582 14.9423 12.8626 14.9516C12.9529 14.9597 13.0245 15.0313 13.0326 15.1216C13.1361 16.2752 12.6607 17.5014 11.7611 18.4017C10.9433 19.2189 9.8638 19.6875 8.79927 19.6875ZM8.67411 19.31C9.68136 19.3502 10.7157 18.9162 11.4958 18.1365C12.276 17.3558 12.7075 16.312 12.6692 15.3149C11.6626 15.2768 10.6269 15.7091 9.84758 16.4884C9.06725 17.2687 8.63582 18.3126 8.67411 19.31Z" fill="black"/>
<path d="M6.14062 17.8125C5.26181 17.8125 4.54688 17.0976 4.54688 16.2188C4.54688 15.3399 5.26181 14.625 6.14062 14.625C7.01944 14.625 7.73438 15.3399 7.73438 16.2188C7.73438 17.0976 7.01944 17.8125 6.14062 17.8125ZM6.14062 15C5.46862 15 4.92188 15.5467 4.92188 16.2188C4.92188 16.8908 5.46862 17.4375 6.14062 17.4375C6.81262 17.4375 7.35938 16.8908 7.35938 16.2188C7.35938 15.5467 6.81262 15 6.14062 15Z" fill="black"/>
<path d="M19.7344 4.03125H18.7969V4.96875H19.7344V4.03125Z" fill="black"/>
<path d="M20.6719 3.09375H19.7344V4.03125H20.6719V3.09375Z" fill="black"/>
<path d="M18.7969 3.09375H17.8594V4.03125H18.7969V3.09375Z" fill="black"/>
<path d="M19.7344 2.15625H18.7969V3.09375H19.7344V2.15625Z" fill="black"/>
<path d="M19.7344 4.03125H18.7969V4.96875H19.7344V4.03125Z" fill="black"/>
<path d="M20.6719 3.09375H19.7344V4.03125H20.6719V3.09375Z" fill="black"/>
<path d="M3.32812 4.96875H2.39062V5.90625H3.32812V4.96875Z" fill="black"/>
<path d="M4.26562 4.03125H3.32812V4.96875H4.26562V4.03125Z" fill="black"/>
<path d="M3.32812 4.96875H2.39062V5.90625H3.32812V4.96875Z" fill="black"/>
<path d="M4.26562 4.03125H3.32812V4.96875H4.26562V4.03125Z" fill="black"/>
<path d="M18.7969 3.09375H17.8594V4.03125H18.7969V3.09375Z" fill="black"/>
<path d="M19.7344 2.15625H18.7969V3.09375H19.7344V2.15625Z" fill="black"/>
</svg>
