<svg width="24" height="24" viewBox="0 0 24 24" fill="none" xmlns="http://www.w3.org/2000/svg">
<path d="M3.0973 22.5C3.00345 22.5 2.92241 22.4297 2.9113 22.3342L1.49736 10.1907C1.49652 10.1835 1.49609 10.1762 1.49609 10.169C1.49609 9.38902 1.73708 8.64403 2.19303 8.01459C2.6525 7.38019 3.28695 6.92419 4.02777 6.69581C4.28248 6.6173 4.51541 6.57745 4.72011 6.57745C6.73784 6.57745 8.37936 4.93589 8.37936 2.91816V1.6875C8.37936 1.58395 8.46331 1.5 8.56686 1.5C8.67041 1.5 8.75436 1.58395 8.75436 1.6875V2.91811C8.75436 5.14266 6.94461 6.95241 4.72011 6.95241C4.55291 6.95241 4.35711 6.98663 4.1382 7.05408C2.80672 7.46456 1.87578 8.74003 1.87114 10.1582L3.28381 22.2908C3.29577 22.3936 3.22212 22.4868 3.11923 22.4987C3.11187 22.4996 3.10452 22.5 3.0973 22.5Z" fill="black"/>
<path d="M20.9099 22.5C20.9027 22.5 20.8954 22.4996 20.8881 22.4988C20.7852 22.4869 20.7114 22.3938 20.7234 22.2909L22.1284 10.1583C22.1237 8.74013 21.1928 7.46461 19.8613 7.05408C19.6424 6.98663 19.4466 6.95241 19.2794 6.95241C17.0549 6.95241 15.2451 5.14266 15.2451 2.91811V1.6875C15.2451 1.58395 15.3291 1.5 15.4326 1.5C15.5362 1.5 15.6201 1.58395 15.6201 1.6875V2.91811C15.6201 4.93584 17.2617 6.57741 19.2794 6.57741C19.4841 6.57741 19.717 6.61725 19.9718 6.69577C20.7126 6.92414 21.347 7.38019 21.8065 8.01455C22.2624 8.64403 22.5034 9.38902 22.5034 10.169C22.5034 10.1762 22.503 10.1834 22.5022 10.1905L21.096 22.3341C21.0848 22.4296 21.0038 22.5 20.9099 22.5Z" fill="black"/>
<path d="M6.16212 10.791C6.14004 10.791 6.11759 10.7871 6.09574 10.7788C5.9989 10.7422 5.95015 10.634 5.98681 10.5371L6.47956 9.23591C6.51622 9.13901 6.6245 9.09026 6.7213 9.12697C6.81814 9.16362 6.86689 9.27186 6.83023 9.3687L6.33748 10.6699C6.30912 10.7449 6.23782 10.791 6.16212 10.791Z" fill="black"/>
<path d="M7.70509 10.3835C7.68301 10.3835 7.66056 10.3797 7.63871 10.3714C7.54187 10.3347 7.49312 10.2265 7.52978 10.1296L8.02253 8.82841C8.05918 8.73157 8.16756 8.68282 8.26426 8.71947C8.36111 8.75613 8.40986 8.86436 8.3732 8.96121L7.88045 10.2624C7.85209 10.3374 7.78079 10.3835 7.70509 10.3835Z" fill="black"/>
<path d="M8.8545 11.0166C8.83242 11.0166 8.80997 11.0127 8.78813 11.0044C8.69128 10.9678 8.64253 10.8595 8.67919 10.7627L9.17194 9.46149C9.2086 9.36464 9.31697 9.31585 9.41368 9.35255C9.51052 9.3892 9.55927 9.49744 9.52262 9.59428L9.02986 10.8955C9.0015 10.9704 8.93016 11.0166 8.8545 11.0166Z" fill="black"/>
<path d="M7.31568 22.5C7.28507 22.5 7.25404 22.4925 7.22536 22.4766C7.13465 22.4267 7.10165 22.3127 7.15162 22.2219C8.35406 20.0396 6.77986 17.0607 6.76382 17.0309C6.73814 16.983 6.73439 16.9264 6.75361 16.8756L7.1429 15.8476C7.16962 15.777 7.23614 15.7293 7.31156 15.7267C7.69767 15.7129 8.14247 15.4503 8.3932 15.0881C8.40272 15.0743 8.41401 15.0619 8.42681 15.0512L10.8074 13.0531C10.8206 13.042 10.8352 13.0328 10.8509 13.0258C11.083 12.9212 11.1868 12.6471 11.0822 12.415C11.0315 12.3026 10.9401 12.2166 10.8247 12.1728C10.7142 12.1309 10.5942 12.1328 10.4855 12.1777L9.68986 12.7232C9.62222 12.7696 9.5324 12.7667 9.468 12.716C9.40359 12.6654 9.37945 12.5788 9.40847 12.5021L10.3857 9.92158C10.4294 9.80622 10.4256 9.68074 10.3748 9.56828C10.3242 9.45583 10.2327 9.36982 10.1174 9.32613C9.87933 9.23589 9.61209 9.35632 9.5219 9.59449C9.4852 9.69128 9.37701 9.74008 9.28017 9.70343C9.18333 9.66677 9.13458 9.55853 9.17123 9.46169L9.49973 8.59422C9.54342 8.47886 9.53957 8.35338 9.4889 8.24093C9.43823 8.12847 9.34678 8.0425 9.23142 7.99877C8.99329 7.90863 8.72615 8.02896 8.63597 8.26713L8.37347 8.96032C8.37337 8.9606 8.37323 8.96088 8.37314 8.96116C8.33643 9.05805 8.22825 9.1068 8.13136 9.0701C8.03456 9.03344 7.98576 8.92521 8.02242 8.82836C8.06611 8.713 8.06226 8.58757 8.01159 8.47511C7.96092 8.36266 7.86947 8.27664 7.75406 8.23296C7.51593 8.14282 7.24879 8.26319 7.15865 8.50132L6.83043 9.36813C6.83034 9.36832 6.83029 9.36855 6.8302 9.36878C6.79354 9.46568 6.68526 9.51438 6.58847 9.47772C6.49162 9.44107 6.44287 9.33283 6.47953 9.23599L6.47995 9.23491C6.56934 8.99702 6.44897 8.73063 6.21122 8.64058C5.97318 8.55039 5.706 8.67082 5.61576 8.90894L4.01493 13.1364C3.83048 13.6234 3.96567 14.264 4.32262 14.5947C4.37859 14.6466 4.39758 14.7273 4.37053 14.7987L3.98147 15.8261C3.94481 15.9228 3.83658 15.9716 3.73973 15.935C3.64289 15.8983 3.59414 15.7901 3.63079 15.6933L3.97748 14.7777C3.57778 14.3289 3.4417 13.5911 3.66417 13.0036L5.265 8.77614C5.42845 8.34461 5.91248 8.1265 6.34397 8.28991C6.49992 8.34897 6.63173 8.45064 6.72675 8.58311L6.80798 8.36857C6.88711 8.15955 7.04297 7.99385 7.24673 7.90197C7.45045 7.81014 7.67784 7.80311 7.8869 7.88233C8.04286 7.94139 8.17467 8.04311 8.26973 8.17553L8.28529 8.13452C8.44865 7.70299 8.93273 7.48483 9.36426 7.64828C9.57328 7.72746 9.73898 7.88327 9.83081 8.08703C9.92264 8.29085 9.92962 8.51819 9.85045 8.72721L9.76898 8.94232C9.92404 8.90688 10.0907 8.91522 10.2502 8.9756C10.4592 9.05472 10.6249 9.21058 10.7168 9.41435C10.8086 9.61811 10.8156 9.84546 10.7364 10.0545L9.97092 12.076L10.2884 11.8583C10.2975 11.852 10.3072 11.8466 10.3174 11.842C10.5211 11.7501 10.7485 11.7431 10.9575 11.8223C11.1666 11.9014 11.3323 12.0573 11.4241 12.261C11.6099 12.6733 11.433 13.1584 11.0299 13.356L8.68668 15.3228C8.39292 15.7339 7.91226 16.0301 7.45186 16.0908L7.13395 16.9303C7.38951 17.4375 8.68261 20.2206 7.48012 22.403C7.44586 22.4649 7.38178 22.5 7.31568 22.5Z" fill="black"/>
<path d="M17.483 14.1559C17.4073 14.1559 17.336 14.1098 17.3076 14.0348L16.8003 12.6951C16.7636 12.5982 16.8124 12.49 16.9092 12.4533C17.0062 12.4168 17.1143 12.4654 17.151 12.5622L17.6583 13.9019C17.695 13.9988 17.6462 14.107 17.5494 14.1437C17.5275 14.1519 17.505 14.1559 17.483 14.1559Z" fill="black"/>
<path d="M15.8941 13.7361C15.8184 13.7361 15.7471 13.69 15.7187 13.615L15.2114 12.2753C15.1748 12.1784 15.2236 12.0702 15.3203 12.0335C15.4173 11.9967 15.5254 12.0456 15.5621 12.1424L16.0695 13.4821C16.1061 13.579 16.0573 13.6872 15.9605 13.7239C15.9386 13.7322 15.9162 13.7361 15.8941 13.7361Z" fill="black"/>
<path d="M14.7125 14.3883C14.6368 14.3883 14.5655 14.3422 14.5371 14.2672L14.0298 12.9275C13.9931 12.8307 14.0419 12.7224 14.1387 12.6857C14.2356 12.6492 14.3438 12.6979 14.3805 12.7947L14.8878 14.1344C14.9245 14.2312 14.8757 14.3394 14.7789 14.3761C14.757 14.3844 14.7345 14.3883 14.7125 14.3883Z" fill="black"/>
<path d="M16.6933 22.4998C16.5897 22.4998 16.5058 22.4158 16.5058 22.3123V20.5287L16.159 19.6128C15.6852 19.5514 15.1899 19.2466 14.8877 18.8233L12.4741 16.7974C12.2778 16.7014 12.1278 16.537 12.0501 16.3318C11.9691 16.1179 11.9763 15.8854 12.0702 15.6769C12.1642 15.4684 12.3337 15.309 12.5475 15.228C12.7613 15.1471 12.9939 15.1542 13.2024 15.2482C13.2125 15.2527 13.2222 15.2582 13.2314 15.2645L13.5728 15.4986L12.7784 13.4008C12.6113 12.9593 12.8344 12.4643 13.2758 12.297C13.4386 12.2355 13.6123 12.2249 13.778 12.2648L13.6906 12.0341C13.6096 11.8203 13.6168 11.5878 13.7107 11.3793C13.8047 11.1708 13.9742 11.0114 14.188 10.9305C14.4019 10.8495 14.6344 10.8566 14.8429 10.9506C15.0514 11.0445 15.2108 11.214 15.2918 11.4278L15.3117 11.4805C15.4068 11.3444 15.5424 11.2346 15.7091 11.1715C16.1507 11.0044 16.6456 11.2275 16.8128 11.6688L16.9003 11.9001C16.9955 11.7641 17.1311 11.6542 17.2977 11.5911C17.5116 11.5102 17.7442 11.5173 17.9526 11.6112C18.1611 11.7052 18.3205 11.8747 18.4015 12.0885L20.0497 16.4411C20.2785 17.0453 20.1379 17.8041 19.726 18.2645L20.0842 19.2104C20.1208 19.3072 20.072 19.4154 19.9752 19.4521C19.8783 19.4886 19.7702 19.44 19.7335 19.3432L19.3329 18.2854C19.3059 18.214 19.3248 18.1333 19.3808 18.0814C19.7499 17.7394 19.8896 17.0772 19.699 16.5739L18.0507 12.2213C18.0053 12.1012 17.9157 12.0059 17.7986 11.9531C17.6814 11.9003 17.5507 11.8962 17.4305 11.9418C17.1825 12.0357 17.0571 12.3139 17.151 12.562C17.1877 12.6588 17.1389 12.7671 17.042 12.8037C16.9452 12.8402 16.837 12.7916 16.8003 12.6947C16.8002 12.6945 16.8001 12.6942 16.8 12.6939L16.4621 11.8016C16.3682 11.5536 16.0901 11.4282 15.8419 11.5221C15.5939 11.616 15.4685 11.8943 15.5624 12.1423C15.5991 12.2391 15.5503 12.3473 15.4535 12.384C15.3566 12.4206 15.2484 12.3719 15.2117 12.2751V12.2751C15.2117 12.2749 15.2116 12.2748 15.2116 12.2747L14.9411 11.5606C14.8956 11.4404 14.8061 11.3452 14.6889 11.2924C14.5718 11.2396 14.4411 11.2355 14.3209 11.2811C14.2008 11.3266 14.1055 11.4162 14.0527 11.5333C13.9999 11.6505 13.9959 11.7811 14.0414 11.9013L14.3795 12.7943C14.3795 12.7943 14.3796 12.7944 14.3796 12.7945C14.4163 12.8913 14.3675 12.9996 14.2706 13.0363C14.1739 13.0728 14.0656 13.0242 14.0289 12.9273C13.9834 12.8071 13.8939 12.7118 13.7767 12.6591C13.6596 12.6063 13.5288 12.6023 13.4087 12.6478C13.2886 12.6933 13.1933 12.7829 13.1405 12.9C13.0877 13.0171 13.0837 13.1479 13.1292 13.2681L14.1354 15.925C14.1643 16.0016 14.1402 16.0882 14.0758 16.1389C14.0113 16.1895 13.9215 16.1924 13.854 16.146L13.0343 15.5841C12.9209 15.5371 12.7958 15.5352 12.6804 15.5789C12.5603 15.6244 12.465 15.714 12.4122 15.8311C12.3594 15.9482 12.3554 16.0789 12.4009 16.1991C12.4464 16.3193 12.536 16.4145 12.6531 16.4673C12.6688 16.4744 12.6834 16.4836 12.6966 16.4947L15.1477 18.5519C15.1605 18.5626 15.1718 18.5751 15.1813 18.5888C15.4404 18.9631 15.9002 19.2344 16.2993 19.2487C16.3748 19.2514 16.4412 19.299 16.4681 19.3696L16.8689 20.4281C16.8769 20.4493 16.881 20.4718 16.881 20.4945V22.3123C16.8808 22.4158 16.7968 22.4998 16.6933 22.4998Z" fill="black"/>
<path d="M18.2254 12.3424C18.1417 12.3424 18.0654 12.2859 18.0438 12.201C18.0223 12.116 17.5313 10.1031 18.8954 8.59282C18.9649 8.51599 19.0835 8.50994 19.1602 8.57937C19.2371 8.64874 19.2431 8.76734 19.1737 8.84416C17.9427 10.207 18.4025 12.0898 18.4073 12.1087C18.4328 12.2091 18.3721 12.311 18.2717 12.3365C18.2563 12.3405 18.2407 12.3424 18.2254 12.3424Z" fill="black"/>
</svg>
