<svg width="24" height="24" viewBox="0 0 24 24" fill="none" xmlns="http://www.w3.org/2000/svg">
<path d="M8.80078 7.40029C8.50078 7.40029 8.30078 7.20029 8.30078 6.90029V3.80029C8.30078 3.50029 8.50078 3.30029 8.80078 3.30029C9.10078 3.30029 9.30078 3.50029 9.30078 3.80029V6.90029C9.30078 7.20029 9.05078 7.40029 8.80078 7.40029Z" fill="#012768"/>
<path d="M11.8008 7.40015C11.5008 7.40015 11.3008 7.20015 11.3008 6.90015V1.65015C11.3008 1.35015 11.5008 1.15015 11.8008 1.15015C12.1008 1.15015 12.3008 1.35015 12.3008 1.65015V6.90015C12.3008 7.20015 12.0508 7.40015 11.8008 7.40015Z" fill="#012768"/>
<path d="M14.8008 7.40029C14.5008 7.40029 14.3008 7.20029 14.3008 6.90029V3.80029C14.3008 3.50029 14.5008 3.30029 14.8008 3.30029C15.1008 3.30029 15.3008 3.50029 15.3008 3.80029V6.90029C15.3008 7.20029 15.0508 7.40029 14.8008 7.40029Z" fill="#012768"/>
<path d="M17.1001 21.1H6.50012C6.35012 21.1 6.15012 21 6.05012 20.85C3.80012 17.25 2.90012 12.9 3.45012 8.7C3.50012 8.45 3.70012 8.25 3.95012 8.25H19.6501C19.9001 8.25 20.1001 8.45 20.1501 8.7C20.7001 12.95 19.7501 17.25 17.5501 20.85C17.4501 21 17.2501 21.1 17.1001 21.1ZM6.75012 20.1H16.8001C18.7501 16.85 19.5501 13.05 19.2001 9.25H4.35012C4.00012 13 4.80012 16.85 6.75012 20.1Z" fill="#012768"/>
<path d="M21.9004 22.8501H1.65039C1.35039 22.8501 1.15039 22.6501 1.15039 22.3501C1.15039 22.0501 1.35039 21.8501 1.65039 21.8501H21.9004C22.2004 21.8501 22.4004 22.0501 22.4004 22.3501C22.4004 22.6501 22.2004 22.8501 21.9004 22.8501Z" fill="#012768"/>
<path d="M19.5508 15C19.2508 15 19.0508 14.8 19.0508 14.5C19.0508 14.2 19.2508 14 19.5508 14C19.9508 14 20.4508 13.8 20.9508 13.4C21.5508 12.95 21.8508 12.3 21.8508 11.65C21.8008 11.05 21.4508 10.5 20.8508 10.2C20.6008 10.05 20.3508 10 20.1508 10C19.8508 10 19.6508 9.8 19.6508 9.5C19.6508 9.2 19.8508 9 20.1508 9C20.5508 9 20.9508 9.1 21.3508 9.3C22.2508 9.8 22.8008 10.6 22.8508 11.55C22.9008 12.55 22.4508 13.55 21.5508 14.2C20.8508 14.75 20.1508 15 19.5508 15Z" fill="#012768"/>
</svg>
