<svg width="24" height="24" viewBox="0 0 24 24" fill="none" xmlns="http://www.w3.org/2000/svg">
<path d="M12.7499 15.75H4.70745C4.28564 15.7482 3.87479 15.8843 3.53745 16.1375C3.50897 16.1593 3.48551 16.187 3.46868 16.2187C3.45185 16.2504 3.44203 16.2853 3.4399 16.3211C3.43776 16.3569 3.44336 16.3928 3.45631 16.4262C3.46926 16.4597 3.48926 16.49 3.51495 16.515V16.515C3.55749 16.557 3.61366 16.5823 3.67328 16.5865C3.7329 16.5906 3.79203 16.5732 3.83995 16.5375C4.08988 16.3494 4.39462 16.2484 4.70745 16.25H12.7499C12.8163 16.25 12.8798 16.2237 12.9267 16.1768C12.9736 16.1299 12.9999 16.0663 12.9999 16C12.9999 15.9337 12.9736 15.8701 12.9267 15.8232C12.8798 15.7764 12.8163 15.75 12.7499 15.75Z" fill="black"/>
<path d="M13.4625 18.6375C13.123 18.3884 12.7136 18.2528 12.2925 18.25H4.25C4.1837 18.25 4.12011 18.2763 4.07322 18.3232C4.02634 18.3701 4 18.4337 4 18.5C4 18.5663 4.02634 18.6299 4.07322 18.6768C4.12011 18.7237 4.1837 18.75 4.25 18.75H12.2925C12.6057 18.7507 12.9105 18.8514 13.1625 19.0375C13.2102 19.0725 13.2688 19.0895 13.3279 19.0854C13.3869 19.0813 13.4426 19.0563 13.485 19.015C13.5107 18.99 13.5307 18.9597 13.5436 18.9262C13.5566 18.8928 13.5622 18.8569 13.56 18.8211C13.5579 18.7853 13.5481 18.7504 13.5313 18.7187C13.5144 18.687 13.491 18.6593 13.4625 18.6375V18.6375Z" fill="black"/>
<path d="M21.75 19.5H20.2325C20.1779 19.0594 19.9782 18.6496 19.665 18.335C19.5701 18.2428 19.4672 18.1591 19.3575 18.085C20.1233 17.8483 20.793 17.3725 21.2686 16.7273C21.7442 16.0821 22.0005 15.3015 22 14.5C22 14.4337 21.9737 14.3701 21.9268 14.3232C21.8799 14.2763 21.8163 14.25 21.75 14.25H20.285L20.535 13.28C20.6012 13.0266 20.5653 12.7573 20.435 12.53C20.3471 12.3778 20.2206 12.2514 20.0683 12.1636C19.916 12.0758 19.7433 12.0297 19.5675 12.03C19.3459 12.0302 19.1307 12.1039 18.9556 12.2397C18.7805 12.3754 18.6554 12.5655 18.6 12.78L18.5 13.1875V6.75C18.5 6.6837 18.4737 6.62011 18.4268 6.57322C18.3799 6.52634 18.3163 6.5 18.25 6.5H17V4.5C17 4.16848 16.8683 3.85054 16.6339 3.61612C16.3995 3.3817 16.0815 3.25 15.75 3.25C15.4185 3.25 15.1005 3.3817 14.8661 3.61612C14.6317 3.85054 14.5 4.16848 14.5 4.5V6.5H13.25C13.1837 6.5 13.1201 6.52634 13.0732 6.57322C13.0263 6.62011 13 6.6837 13 6.75V14.5H10.14C10.2267 14.4549 10.3102 14.4039 10.39 14.3475C11.605 13.49 11.89 11.555 11.905 11.4725C11.9106 11.4341 11.9072 11.3949 11.8951 11.358C11.8829 11.3211 11.8624 11.2875 11.835 11.26C11.8075 11.2326 11.7739 11.2121 11.737 11.1999C11.7001 11.1878 11.6609 11.1844 11.6225 11.19C10.9176 11.3021 10.2395 11.5437 9.6225 11.9025C9.45457 11.1638 9.14095 10.466 8.7 9.85C8.67671 9.81895 8.64652 9.79375 8.6118 9.77639C8.57709 9.75904 8.53881 9.75 8.5 9.75C8.46119 9.75 8.42291 9.75904 8.3882 9.77639C8.35348 9.79375 8.32329 9.81895 8.3 9.85C7.85462 10.465 7.53672 11.1628 7.365 11.9025C6.75182 11.5451 6.0781 11.3036 5.3775 11.19C5.33908 11.1844 5.29987 11.1878 5.26298 11.1999C5.2261 11.2121 5.19255 11.2326 5.165 11.26C5.13763 11.2875 5.11705 11.3211 5.1049 11.358C5.09275 11.3949 5.08936 11.4341 5.095 11.4725C5.1075 11.555 5.395 13.49 6.61 14.3475C6.68978 14.4039 6.77331 14.4549 6.86 14.5H3.5C3.17791 14.5004 2.86448 14.6044 2.6061 14.7967C2.34771 14.989 2.15809 15.2593 2.06528 15.5678C1.97247 15.8762 1.9814 16.2063 2.09076 16.5093C2.20012 16.8122 2.40409 17.072 2.6725 17.25C2.4931 17.3689 2.34138 17.5249 2.22763 17.7076C2.11388 17.8903 2.04077 18.0953 2.01326 18.3087C1.98575 18.5222 2.00449 18.739 2.0682 18.9446C2.13191 19.1501 2.2391 19.3395 2.3825 19.5H2.25C2.1837 19.5 2.12011 19.5263 2.07322 19.5732C2.02634 19.6201 2 19.6837 2 19.75C2 19.8163 2.02634 19.8799 2.07322 19.9268C2.12011 19.9737 2.1837 20 2.25 20H21.75C21.8163 20 21.8799 19.9737 21.9268 19.9268C21.9737 19.8799 22 19.8163 22 19.75C22 19.6837 21.9737 19.6201 21.9268 19.5732C21.8799 19.5263 21.8163 19.5 21.75 19.5ZM20.5475 16.7975C20.1085 17.2398 19.5515 17.5465 18.9431 17.6811C18.3346 17.8158 17.7003 17.7726 17.1156 17.5568C16.531 17.341 16.0207 16.9617 15.6456 16.4641C15.2705 15.9664 15.0464 15.3714 15 14.75H21.5C21.4399 15.525 21.1016 16.2522 20.5475 16.7975ZM19.0975 12.8925C19.1261 12.7864 19.1888 12.6926 19.276 12.6257C19.3633 12.5588 19.4701 12.5226 19.58 12.5225C19.624 12.522 19.6677 12.5279 19.71 12.54C19.8374 12.5746 19.9459 12.6581 20.0119 12.7724C20.078 12.8866 20.0961 13.0224 20.0625 13.15L19.7675 14.25H18.7325L19.0975 12.8925ZM15 4.5C15 4.30109 15.079 4.11032 15.2197 3.96967C15.3603 3.82902 15.5511 3.75 15.75 3.75C15.9489 3.75 16.1397 3.82902 16.2803 3.96967C16.421 4.11032 16.5 4.30109 16.5 4.5V6.5H15V4.5ZM13.5 7H18V14.25H14.75C14.6837 14.25 14.6201 14.2763 14.5732 14.3232C14.5263 14.3701 14.5 14.4337 14.5 14.5C14.5 14.6325 14.5 14.765 14.52 14.8925L14.5 14.8725L14.4475 14.8275L14.3875 14.785L14.32 14.75L14.25 14.7075L14.195 14.675L14.125 14.64L14.065 14.6125L14 14.585L13.9425 14.565L13.8575 14.5425L13.8025 14.53L13.705 14.515H13.6575C13.6075 14.515 13.5575 14.515 13.5075 14.515L13.5 7ZM10.1025 13.94C9.74041 14.1979 9.29141 14.3029 8.8525 14.2325C8.85126 14.21 8.85126 14.1875 8.8525 14.165C8.84584 14.0818 8.84584 13.9982 8.8525 13.915C8.8525 13.915 8.8525 13.9025 8.8525 13.895C8.85934 13.6685 8.9118 13.4457 9.00673 13.24C9.10166 13.0342 9.23712 12.8497 9.405 12.6975C9.4675 12.6375 9.5325 12.5825 9.6025 12.5275C10.1258 12.1501 10.7217 11.8854 11.3525 11.75C11.2025 12.32 10.855 13.4075 10.1025 13.94ZM8.5 10.45C8.84582 10.9909 9.07803 11.5965 9.1825 12.23L9.1125 12.2975L9.005 12.3975L8.8975 12.515L8.8075 12.6225C8.7775 12.6625 8.7475 12.705 8.72 12.7475C8.6925 12.79 8.6675 12.8225 8.645 12.86C8.6225 12.8975 8.5975 12.9475 8.575 12.99C8.5525 13.0325 8.535 13.07 8.5175 13.11L8.5 13.1475L8.4825 13.11C8.465 13.07 8.445 13.03 8.425 12.9925C8.405 12.955 8.38 12.9025 8.355 12.86C8.33 12.8175 8.305 12.785 8.28 12.7475C8.255 12.71 8.2225 12.6625 8.1925 12.6225L8.1025 12.515L8 12.3975L7.8925 12.2975C7.87039 12.2738 7.84702 12.2512 7.8225 12.23C7.92544 11.5969 8.15594 10.9913 8.5 10.45V10.45ZM5.6625 11.75C6.29379 11.8853 6.88986 12.151 7.4125 12.53C7.67259 12.7085 7.8796 12.954 8.01162 13.2405C8.14365 13.527 8.19578 13.8438 8.1625 14.1575C8.16374 14.18 8.16374 14.2025 8.1625 14.225C7.72353 14.2971 7.2739 14.1919 6.9125 13.9325C6.145 13.4075 5.7975 12.32 5.6625 11.75ZM2.5 16C2.5 15.7348 2.60536 15.4804 2.79289 15.2929C2.98043 15.1054 3.23478 15 3.5 15H13.5C13.6981 14.9993 13.8919 15.0576 14.0569 15.1672C14.2219 15.2769 14.3506 15.4331 14.4266 15.6161C14.5027 15.799 14.5227 16.0004 14.4842 16.1947C14.4456 16.389 14.3502 16.5675 14.21 16.7075C14.1168 16.8006 14.006 16.8744 13.8842 16.9246C13.7623 16.9748 13.6318 17.0004 13.5 17H3.5C3.23478 17 2.98043 16.8946 2.79289 16.7071C2.60536 16.5196 2.5 16.2652 2.5 16ZM2.7925 19.21C2.69937 19.1168 2.62558 19.006 2.57538 18.8842C2.52519 18.7623 2.49957 18.6318 2.5 18.5C2.5 18.2348 2.60536 17.9804 2.79289 17.7929C2.98043 17.6054 3.23478 17.5 3.5 17.5H13.5C13.7652 17.5 14.0196 17.6054 14.2071 17.7929C14.3946 17.9804 14.5 18.2348 14.5 18.5C14.5 18.7652 14.3946 19.0196 14.2071 19.2071C14.0196 19.3946 13.7652 19.5 13.5 19.5H3.5C3.23506 19.5009 2.98061 19.3966 2.7925 19.21V19.21ZM14.6275 19.485C14.6791 19.4272 14.7259 19.3653 14.7675 19.3L14.7875 19.2675C14.828 19.1995 14.8631 19.1284 14.8925 19.055C14.8925 19.055 14.8925 19.035 14.8925 19.025C14.9222 18.9479 14.9456 18.8684 14.9625 18.7875C14.9625 18.7875 14.9625 18.7725 14.9625 18.765C14.9827 18.6779 14.9952 18.5893 15 18.5C15.0002 18.3027 14.9614 18.1072 14.8859 17.9249C14.8104 17.7426 14.6996 17.577 14.56 17.4375C14.49 17.3682 14.4139 17.3054 14.3325 17.25V17.25C14.4161 17.1945 14.494 17.1309 14.565 17.06C14.6114 17.0144 14.6541 16.965 14.6925 16.9125L14.7225 16.8725C14.755 16.825 14.7875 16.775 14.8175 16.7225C14.8469 16.6667 14.8728 16.6091 14.895 16.55L14.91 16.505C14.9296 16.4529 14.9455 16.3994 14.9575 16.345C14.9564 16.3384 14.9564 16.3316 14.9575 16.325C14.9875 16.3775 15.0225 16.4275 15.055 16.48C15.0875 16.5325 15.11 16.5725 15.14 16.6175C15.1755 16.6712 15.2139 16.723 15.255 16.7725C15.2875 16.8175 15.32 16.8625 15.355 16.905C15.39 16.9475 15.44 16.9975 15.4825 17.045C15.525 17.0925 15.5575 17.13 15.5975 17.17C15.6375 17.21 15.6875 17.25 15.73 17.2925L15.865 17.4125C15.9075 17.4475 15.955 17.48 16 17.515C16.045 17.55 16.1 17.59 16.1525 17.625C16.205 17.66 16.2475 17.6825 16.2925 17.7125C16.3375 17.7425 16.405 17.7825 16.4625 17.8125L16.6075 17.885C16.6675 17.9125 16.7275 17.945 16.7875 17.97C16.8475 17.995 16.8925 18.0075 16.945 18.0275C16.9975 18.0475 17.0675 18.075 17.1325 18.095C17.0765 18.1322 17.023 18.1731 16.9725 18.2175C16.9606 18.2253 16.9497 18.2345 16.94 18.245C16.9 18.28 16.86 18.315 16.8225 18.355C16.785 18.395 16.79 18.39 16.7725 18.4075L16.6875 18.505L16.64 18.57C16.615 18.6025 16.59 18.6375 16.5675 18.6725L16.525 18.7425L16.465 18.85C16.465 18.875 16.44 18.9 16.43 18.925C16.42 18.95 16.395 19 16.38 19.0375C16.365 19.075 16.36 19.09 16.3525 19.1175C16.345 19.145 16.3275 19.1975 16.315 19.2375C16.3025 19.2775 16.3 19.2925 16.295 19.32C16.2851 19.362 16.2776 19.4046 16.2725 19.4475C16.2713 19.4675 16.2713 19.4875 16.2725 19.5075H14.6175L14.6275 19.485ZM16.7725 19.5C16.7725 19.5 16.7725 19.5 16.7725 19.4825C16.7863 19.4079 16.8056 19.3344 16.83 19.2625L16.845 19.2225C16.8715 19.1511 16.9033 19.0817 16.94 19.015L16.9575 18.9875C16.9973 18.9198 17.0425 18.8555 17.0925 18.795V18.795C17.143 18.7349 17.1982 18.6789 17.2575 18.6275L17.2775 18.61C17.3354 18.5608 17.3973 18.5165 17.4625 18.4775L17.495 18.4575C17.5605 18.4187 17.6291 18.3853 17.7 18.3575H17.735C17.8081 18.3303 17.8833 18.3093 17.96 18.295H17.99C18.0754 18.2733 18.1623 18.2582 18.25 18.25C18.6046 18.2498 18.9479 18.3752 19.2189 18.604C19.4898 18.8329 19.6709 19.1503 19.73 19.5H16.7725Z" fill="black"/>
</svg>
