<svg width="24" height="24" viewBox="0 0 24 24" fill="none" xmlns="http://www.w3.org/2000/svg">
<path d="M22.3125 21.0938H1.6875C1.58395 21.0938 1.5 21.0098 1.5 20.9062V18.5625C1.5 18.459 1.58395 18.375 1.6875 18.375H22.3125C22.416 18.375 22.5 18.459 22.5 18.5625V20.9062C22.5 21.0098 22.416 21.0938 22.3125 21.0938ZM1.875 20.7188H22.125V18.75H1.875V20.7188Z" fill="black"/>
<path d="M8.25 22.5H3.5625C3.45895 22.5 3.375 22.416 3.375 22.3125V20.9062C3.375 20.8027 3.45895 20.7188 3.5625 20.7188H8.25C8.35355 20.7188 8.4375 20.8027 8.4375 20.9062V22.3125C8.4375 22.416 8.35355 22.5 8.25 22.5ZM3.75 22.125H8.0625V21.0938H3.75V22.125Z" fill="black"/>
<path d="M20.4375 22.5H15.75C15.6465 22.5 15.5625 22.416 15.5625 22.3125V20.9062C15.5625 20.8027 15.6465 20.7188 15.75 20.7188H20.4375C20.541 20.7188 20.625 20.8027 20.625 20.9062V22.3125C20.625 22.416 20.541 22.5 20.4375 22.5ZM15.9375 22.125H20.25V21.0938H15.9375V22.125Z" fill="black"/>
<path d="M12 18.75C9.60389 18.75 7.34883 18.4792 5.65022 17.9875C3.85509 17.4678 2.90625 16.7752 2.90625 15.9844C2.90625 15.1935 3.85509 14.5009 5.65022 13.9813C7.34883 13.4895 9.60389 13.2188 12 13.2188C14.3961 13.2188 16.6512 13.4895 18.3498 13.9813C20.1449 14.5009 21.0938 15.1935 21.0938 15.9844C21.0938 16.7752 20.1449 17.4678 18.3498 17.9875C16.6512 18.4792 14.3961 18.75 12 18.75ZM12 13.5938C9.6382 13.5938 7.42017 13.8593 5.75447 14.3415C4.20581 14.7898 3.28125 15.4039 3.28125 15.9844C3.28125 16.5648 4.20581 17.179 5.75447 17.6273C7.42017 18.1095 9.6382 18.375 12 18.375C14.3618 18.375 16.5798 18.1095 18.2455 17.6273C19.7941 17.179 20.7188 16.5648 20.7188 15.9844C20.7188 15.4039 19.7941 14.7898 18.2455 14.3415C16.5798 13.8593 14.3618 13.5938 12 13.5938Z" fill="black"/>
<path d="M16.4574 16.1719C16.3565 16.1719 16.2741 16.0921 16.27 15.9922C16.2409 15.939 16.0221 15.7837 15.3217 15.6507C14.7042 15.5333 13.8998 15.4688 13.0569 15.4688C12.2139 15.4688 11.4095 15.5333 10.792 15.6507C10.0916 15.7837 9.87281 15.939 9.84366 15.9922C9.83953 16.0921 9.75722 16.1719 9.65625 16.1719C9.5527 16.1719 9.46875 16.0879 9.46875 15.9844C9.46875 15.6815 9.83278 15.4652 10.6143 15.3036C11.2687 15.1683 12.1361 15.0938 13.0568 15.0938C13.9776 15.0938 14.8449 15.1683 15.4994 15.3036C16.2809 15.4652 16.6449 15.6816 16.6449 15.9844C16.6449 16.0879 16.5609 16.1719 16.4574 16.1719Z" fill="black"/>
<path d="M11.0625 13.5937C9.16725 13.5937 7.383 13.3794 6.03853 12.9901C4.6027 12.5745 3.84375 12.0146 3.84375 11.3708C3.84375 10.7271 4.6027 10.1671 6.03853 9.75147C7.38305 9.36226 9.16725 9.14795 11.0625 9.14795C12.9578 9.14795 14.742 9.36231 16.0865 9.75147C17.5223 10.1671 18.2812 10.7271 18.2812 11.3708C18.2812 12.0146 17.5223 12.5745 16.0865 12.9901C14.742 13.3794 12.9578 13.5937 11.0625 13.5937ZM11.0625 9.52295C7.02938 9.52295 4.21875 10.4968 4.21875 11.3708C4.21875 12.2448 7.02938 13.2187 11.0625 13.2187C15.0956 13.2187 17.9062 12.2448 17.9062 11.3708C17.9062 10.4968 15.0956 9.52295 11.0625 9.52295Z" fill="black"/>
<path d="M9.93298 9.38733C7.47673 9.38733 4.86621 8.82661 4.86621 7.78744C4.86621 6.74827 7.47673 6.1875 9.93298 6.1875C12.3892 6.1875 14.9997 6.74822 14.9997 7.78744C14.9997 8.82661 12.3892 9.38733 9.93298 9.38733ZM9.93298 6.5625C7.02612 6.5625 5.24121 7.27594 5.24121 7.78744C5.24121 8.29894 7.02612 9.01233 9.93298 9.01233C12.8398 9.01233 14.6247 8.29889 14.6247 7.78744C14.6247 7.27598 12.8398 6.5625 9.93298 6.5625Z" fill="black"/>
<path d="M20.4375 7.03125C19.8172 7.03125 19.3125 6.52659 19.3125 5.90625C19.3125 5.28591 19.8172 4.78125 20.4375 4.78125C21.0578 4.78125 21.5625 5.28591 21.5625 5.90625C21.5625 6.52659 21.0578 7.03125 20.4375 7.03125ZM20.4375 5.15625C20.024 5.15625 19.6875 5.49272 19.6875 5.90625C19.6875 6.31978 20.024 6.65625 20.4375 6.65625C20.851 6.65625 21.1875 6.31978 21.1875 5.90625C21.1875 5.49272 20.851 5.15625 20.4375 5.15625Z" fill="black"/>
<path d="M6.375 4.6875C5.49619 4.6875 4.78125 3.97256 4.78125 3.09375C4.78125 2.21494 5.49619 1.5 6.375 1.5C7.25381 1.5 7.96875 2.21494 7.96875 3.09375C7.96875 3.97256 7.25381 4.6875 6.375 4.6875ZM6.375 1.875C5.703 1.875 5.15625 2.42175 5.15625 3.09375C5.15625 3.76575 5.703 4.3125 6.375 4.3125C7.047 4.3125 7.59375 3.76575 7.59375 3.09375C7.59375 2.42175 7.047 1.875 6.375 1.875Z" fill="black"/>
<path d="M14.5983 11.5073C14.5613 11.5073 14.524 11.4964 14.4914 11.4737C13.9154 11.0727 12.9988 11.3312 12.9896 11.3338C12.8903 11.3626 12.7862 11.3053 12.7574 11.2058C12.7287 11.1064 12.786 11.0024 12.8854 10.9736C12.9299 10.9607 13.9844 10.6638 14.7056 11.1659C14.7906 11.2251 14.8115 11.342 14.7524 11.4269C14.7159 11.4793 14.6575 11.5073 14.5983 11.5073Z" fill="black"/>
</svg>
