<svg width="24" height="24" viewBox="0 0 24 24" fill="none" xmlns="http://www.w3.org/2000/svg">
<path d="M17.5997 23.7501C17.0497 23.7501 16.0997 23.6001 15.2497 22.8501C14.0997 21.7001 13.6497 19.7001 13.9997 16.9001C13.9997 16.9001 14.1497 13.8001 13.8997 12.1001C13.7997 11.6001 12.2997 5.00005 14.5997 1.90005C15.2997 0.950053 16.2997 0.400053 17.5497 0.300053C17.5997 0.300053 19.1997 0.200053 20.5997 1.65005C22.2497 3.35005 22.7997 6.45005 22.2997 10.7501C22.2997 10.8001 21.6497 15.2001 21.5497 17.5001C21.5497 17.8001 21.5497 18.1501 21.5497 18.5001C21.5997 19.5501 21.4997 22.9501 18.0497 23.7501C17.9497 23.7501 17.7997 23.7501 17.5997 23.7501ZM17.6497 1.25005C17.5997 1.25005 17.5997 1.25005 17.5997 1.25005C16.6497 1.30005 15.8997 1.70005 15.3497 2.45005C13.2997 5.25005 14.8497 11.8001 14.8497 11.8501V11.9001C15.1497 13.7501 14.9497 16.8501 14.9497 16.9501C14.6497 19.4501 14.9997 21.2501 15.8997 22.1001C16.6997 22.9001 17.7497 22.7501 17.7497 22.7501C20.3497 22.1501 20.4997 19.6001 20.4497 18.5501C20.4497 18.1501 20.3997 17.8001 20.4497 17.4501C20.5497 15.0501 21.1997 10.8001 21.2497 10.6001C21.8497 5.60005 20.7997 3.30005 19.8497 2.30005C18.9497 1.30005 17.8997 1.25005 17.6497 1.25005Z" fill="#012768"/>
<path d="M21.0002 17.4499C20.7002 17.4499 20.5002 17.2499 20.5002 16.9499C20.5002 14.2499 19.3002 12.1499 17.7502 12.1499C16.2002 12.1499 14.9502 14.2999 14.9502 16.9499C14.9502 17.2499 14.7502 17.4499 14.4502 17.4499C14.1502 17.4499 13.9502 17.2499 13.9502 16.9499C13.9502 13.6999 15.6002 11.1499 17.7502 11.1499C19.9002 11.1499 21.5002 13.6499 21.5002 16.9499C21.5002 17.2499 21.3002 17.4499 21.0002 17.4499Z" fill="#012768"/>
<path d="M6.40017 23.75C6.20017 23.75 6.05017 23.75 6.05017 23.75C2.50017 22.9 2.45017 19.5 2.50017 18.5C2.50017 18.15 2.50017 17.8 2.50017 17.5C2.40017 15.15 1.75017 10.8 1.75017 10.75C1.25017 6.4 1.80017 3.35 3.45017 1.6C4.80017 0.150004 6.45017 0.250004 6.50017 0.250004C7.75017 0.350004 8.75017 0.850004 9.45017 1.85C11.7502 4.95 10.2502 11.55 10.1502 12.05C9.90017 13.8 10.0502 16.85 10.0502 16.9C10.4002 19.7 9.95017 21.7 8.80017 22.85C7.90017 23.65 6.95017 23.75 6.40017 23.75ZM6.25017 22.75C6.25017 22.75 7.25017 22.9 8.10017 22.1C9.00017 21.2 9.35017 19.45 9.05017 17C9.05017 16.85 8.90017 13.75 9.15017 11.9V11.85C9.15017 11.8 10.7002 5.25 8.65017 2.45C8.10017 1.7 7.40017 1.35 6.40017 1.25C6.35017 1.25 5.15017 1.2 4.15017 2.3C3.20017 3.35 2.15017 5.60001 2.75017 10.6C2.80017 10.75 3.40017 15.05 3.50017 17.45C3.50017 17.8 3.50017 18.15 3.50017 18.55C3.45017 19.6 3.60017 22.15 6.25017 22.75Z" fill="#012768"/>
<path d="M9.5002 17.4501C9.2002 17.4501 9.0002 17.2501 9.0002 16.9501C9.0002 14.3001 7.7502 12.1501 6.2002 12.1501C4.6502 12.1501 3.4502 14.2501 3.4502 16.9501C3.4502 17.2501 3.2502 17.4501 2.9502 17.4501C2.6502 17.4501 2.4502 17.2501 2.4502 16.9501C2.4502 13.6501 4.0502 11.1501 6.2002 11.1501C8.3502 11.1501 10.0002 13.7001 10.0002 16.9501C10.0002 17.2501 9.8002 17.4501 9.5002 17.4501Z" fill="#012768"/>
</svg>
