<svg width="24" height="24" viewBox="0 0 24 24" fill="none" xmlns="http://www.w3.org/2000/svg">
<path d="M23.25 9.1001H0.75C0.45 9.1001 0.25 8.9001 0.25 8.6001C0.25 8.3001 0.45 8.1001 0.75 8.1001H23.25C23.55 8.1001 23.75 8.3001 23.75 8.6001C23.75 8.9001 23.55 9.1001 23.25 9.1001Z" fill="#012768"/>
<path d="M19.6003 22.2C19.3003 22.2 19.1003 22 19.1003 21.7V19.95L4.1003 9.00001C3.9003 8.85001 3.8503 8.50001 4.0003 8.30001C4.1503 8.10001 4.5003 8.05001 4.7003 8.20001L19.8503 19.3C20.0003 19.4 20.0503 19.55 20.0503 19.7V21.7C20.1003 22 19.8503 22.2 19.6003 22.2Z" fill="#012768"/>
<path d="M4.40039 22.2C4.10039 22.2 3.90039 22 3.90039 21.7V19.7C3.90039 19.55 4.00039 19.4 4.10039 19.3L19.2504 8.20001C19.4504 8.05001 19.8004 8.10001 19.9504 8.30001C20.1004 8.50001 20.0504 8.85001 19.8504 9.00001L4.90039 19.95V21.7C4.90039 22 4.70039 22.2 4.40039 22.2Z" fill="#012768"/>
<path d="M21.8504 7.35005H13.6504C13.3504 7.35005 13.1504 7.15005 13.1504 6.85005C13.1504 5.20005 14.5004 3.80005 16.2004 3.80005H21.3504V2.80005H17.9004C17.6004 2.80005 17.4004 2.60005 17.4004 2.30005C17.4004 2.00005 17.6004 1.80005 17.9004 1.80005H21.8504C22.1504 1.80005 22.3504 2.00005 22.3504 2.30005V6.85005C22.3504 7.15005 22.1004 7.35005 21.8504 7.35005ZM14.2004 6.35005H21.3504V4.85005H16.1504C15.2004 4.85005 14.4004 5.50005 14.2004 6.35005Z" fill="#012768"/>
</svg>
