<svg width="24" height="24" viewBox="0 0 24 24" fill="none" xmlns="http://www.w3.org/2000/svg">
<path d="M13.875 5.625C12.867 5.625 12.0469 4.80492 12.0469 3.79688C12.0469 2.78883 12.867 1.96875 13.875 1.96875C14.883 1.96875 15.7031 2.78883 15.7031 3.79688C15.7031 4.80492 14.883 5.625 13.875 5.625ZM13.875 2.34375C13.0737 2.34375 12.4219 2.99564 12.4219 3.79688C12.4219 4.59811 13.0737 5.25 13.875 5.25C14.6763 5.25 15.3281 4.59811 15.3281 3.79688C15.3281 2.99564 14.6763 2.34375 13.875 2.34375Z" fill="black"/>
<path d="M21.8438 20.625H2.15625C2.0527 20.625 1.96875 20.541 1.96875 20.4375V18.5625C1.96875 18.459 2.0527 18.375 2.15625 18.375H21.8438C21.9473 18.375 22.0312 18.459 22.0312 18.5625V20.4375C22.0312 20.541 21.9473 20.625 21.8438 20.625ZM2.34375 20.25H21.6562V18.75H2.34375V20.25Z" fill="black"/>
<path d="M21.8438 18.75H2.15625C2.0527 18.75 1.96875 18.666 1.96875 18.5625V16.2656C1.96875 15.6195 2.49445 15.0938 3.14062 15.0938H20.8594C21.5055 15.0938 22.0312 15.6195 22.0312 16.2656V18.5625C22.0312 18.666 21.9473 18.75 21.8438 18.75ZM2.34375 18.375H21.6562V16.2656C21.6562 15.8262 21.2988 15.4688 20.8594 15.4688H3.14062C2.70122 15.4688 2.34375 15.8262 2.34375 16.2656V18.375Z" fill="black"/>
<path d="M4.43888 7.03151C4.09772 7.03151 3.81253 6.73915 3.7072 6.32253C3.5288 6.42795 3.33703 6.48683 3.15895 6.48683C2.97136 6.48683 2.80959 6.42411 2.69123 6.30537C2.45006 6.0642 2.45494 5.65629 2.67464 5.28767C2.25975 5.18159 1.96875 4.89687 1.96875 4.5568C1.96875 4.21587 2.26073 3.93083 2.67689 3.82531C2.45817 3.45673 2.45381 3.04948 2.69484 2.80915C2.81316 2.6908 2.97497 2.62812 3.16256 2.62812C3.3413 2.62812 3.53367 2.68737 3.71236 2.7934C3.81825 2.37809 4.10316 2.08667 4.44347 2.08667C4.78486 2.08667 5.06991 2.37851 5.17519 2.79444C5.3528 2.68892 5.54255 2.63136 5.72353 2.63136C5.91113 2.63136 6.07299 2.69403 6.19158 2.81262C6.43275 3.05384 6.42769 3.46179 6.20775 3.83056C6.62259 3.93664 6.91359 4.22136 6.91359 4.56144C6.91359 4.90292 6.62166 5.18801 6.20559 5.2932C6.42399 5.66159 6.42834 6.06889 6.18769 6.30955C6.06928 6.42795 5.90766 6.49053 5.72034 6.49053C5.54147 6.49053 5.34891 6.43114 5.16998 6.32487C5.06405 6.74014 4.77914 7.03151 4.43888 7.03151ZM3.8512 5.78937C3.87539 5.78937 3.89981 5.79406 3.92302 5.80367C3.99244 5.8325 4.03795 5.89995 4.03866 5.97509C4.0425 6.37667 4.25264 6.65651 4.43888 6.65651C4.62853 6.65651 4.83464 6.38337 4.83909 5.97678C4.83994 5.90159 4.88555 5.83419 4.95506 5.80555C5.02448 5.77686 5.10445 5.79247 5.15803 5.84511C5.32772 6.01189 5.5432 6.11553 5.72034 6.11553C5.78011 6.11553 5.86369 6.1032 5.92252 6.04437C6.05409 5.9128 6.00534 5.56667 5.72498 5.28031C5.67239 5.22659 5.65697 5.14658 5.68584 5.0772C5.71472 5.00778 5.78227 4.96226 5.85745 4.96165C6.25889 4.95837 6.53864 4.74809 6.53864 4.56144C6.53864 4.37178 6.2655 4.16567 5.85891 4.16122C5.78372 4.16037 5.71631 4.11476 5.68767 4.04525C5.65898 3.97578 5.67455 3.89586 5.72723 3.84228C6.00872 3.55587 6.05817 3.20951 5.92645 3.0778C5.86744 3.01873 5.78358 3.00636 5.72358 3.00636C5.54686 3.00636 5.33184 3.10944 5.16234 3.27533C5.10858 3.32797 5.0287 3.34334 4.95923 3.31447C4.88981 3.28559 4.8443 3.21805 4.84369 3.14286C4.84041 2.74142 4.63013 2.46167 4.44347 2.46167C4.2577 2.46167 4.04766 2.74086 4.04325 3.1414C4.04241 3.21659 3.9968 3.284 3.92728 3.31264C3.85772 3.34128 3.77789 3.32567 3.72431 3.27308C3.55491 3.10658 3.33966 3.00312 3.16256 3.00312C3.10266 3.00312 3.01884 3.0155 2.95983 3.07447C2.82811 3.20581 2.877 3.55151 3.15736 3.83792C3.20995 3.89164 3.22538 3.97156 3.19655 4.04094C3.16772 4.11036 3.10027 4.15587 3.02513 4.15658C2.62359 4.16042 2.34375 4.37056 2.34375 4.5568C2.34375 4.74256 2.62294 4.95261 3.02348 4.95701C3.09867 4.95786 3.16608 5.00347 3.19472 5.07298C3.22341 5.14245 3.20784 5.22237 3.15516 5.27595C2.87386 5.56217 2.82469 5.90858 2.95655 6.04044C3.01547 6.0995 3.09909 6.11187 3.15891 6.11187C3.33553 6.11187 3.5505 6.0088 3.72 5.8429C3.75577 5.80789 3.80306 5.78937 3.8512 5.78937Z" fill="black"/>
<path d="M4.96875 22.0312C4.8652 22.0312 4.78125 21.9473 4.78125 21.8438V20.625H2.34375V21.8438C2.34375 21.9473 2.2598 22.0312 2.15625 22.0312C2.0527 22.0312 1.96875 21.9473 1.96875 21.8438V20.4375C1.96875 20.334 2.0527 20.25 2.15625 20.25H4.96875C5.0723 20.25 5.15625 20.334 5.15625 20.4375V21.8438C5.15625 21.9473 5.0723 22.0312 4.96875 22.0312Z" fill="black"/>
<path d="M21.8438 22.0312C21.7402 22.0312 21.6562 21.9473 21.6562 21.8438V20.625H19.2188V21.8438C19.2188 21.9473 19.1348 22.0312 19.0312 22.0312C18.9277 22.0312 18.8438 21.9473 18.8438 21.8438V20.4375C18.8438 20.334 18.9277 20.25 19.0312 20.25H21.8438C21.9473 20.25 22.0312 20.334 22.0312 20.4375V21.8438C22.0312 21.9473 21.9473 22.0312 21.8438 22.0312Z" fill="black"/>
<path d="M8.01562 13.5938C7.00758 13.5938 6.1875 12.7737 6.1875 11.7656C6.1875 10.7576 7.00758 9.9375 8.01562 9.9375C9.02367 9.9375 9.84375 10.7576 9.84375 11.7656C9.84375 12.7737 9.02367 13.5938 8.01562 13.5938ZM8.01562 10.3125C7.21439 10.3125 6.5625 10.9644 6.5625 11.7656C6.5625 12.5669 7.21439 13.2188 8.01562 13.2188C8.81686 13.2188 9.46875 12.5669 9.46875 11.7656C9.46875 10.9644 8.81686 10.3125 8.01562 10.3125Z" fill="black"/>
<path d="M16.6875 10.7812C16.584 10.7812 16.5 10.6973 16.5 10.5938V8.25C16.5 6.80259 15.3225 5.625 13.875 5.625C12.4275 5.625 11.25 6.80259 11.25 8.25V10.5938C11.25 10.6973 11.166 10.7812 11.0625 10.7812C10.959 10.7812 10.875 10.6973 10.875 10.5938V8.25C10.875 6.59578 12.2208 5.25 13.875 5.25C15.5292 5.25 16.875 6.59578 16.875 8.25V10.5938C16.875 10.6973 16.791 10.7812 16.6875 10.7812Z" fill="black"/>
<path d="M18.3281 15.4688H4.96875C4.34845 15.4688 3.84375 14.964 3.84375 14.3438C3.84375 13.7235 4.34845 13.2188 4.96875 13.2188H9.04936C9.24202 12.4065 9.97959 11.8125 10.8281 11.8125H11.0625C11.166 11.8125 11.25 11.8965 11.25 12V12.7031C11.25 12.9874 11.4813 13.2188 11.7656 13.2188C12.0499 13.2188 12.2812 12.9874 12.2812 12.7031V12C12.2812 11.8965 12.3652 11.8125 12.4688 11.8125H15.2812C15.3848 11.8125 15.4688 11.8965 15.4688 12V12.7031C15.4688 12.9874 15.7001 13.2188 15.9844 13.2188C16.2687 13.2188 16.5 12.9874 16.5 12.7031V12C16.5 11.8965 16.584 11.8125 16.6875 11.8125H18.3281C19.3362 11.8125 20.1562 12.6326 20.1562 13.6406C20.1562 14.6487 19.3362 15.4688 18.3281 15.4688ZM4.96875 13.5938C4.55522 13.5938 4.21875 13.9302 4.21875 14.3438C4.21875 14.7573 4.55522 15.0938 4.96875 15.0938H18.3281C19.1294 15.0938 19.7812 14.4419 19.7812 13.6406C19.7812 12.8393 19.1294 12.1875 18.3281 12.1875H16.875V12.7031C16.875 13.1942 16.4755 13.5938 15.9844 13.5938C15.4933 13.5938 15.0938 13.1942 15.0938 12.7031V12.1875H12.6562V12.7031C12.6562 13.1942 12.2567 13.5938 11.7656 13.5938C11.2745 13.5938 10.875 13.1942 10.875 12.7031V12.1875H10.8281C10.1099 12.1875 9.49162 12.7229 9.39005 13.4328C9.37683 13.5252 9.29775 13.5938 9.20447 13.5938H4.96875Z" fill="black"/>
<path d="M15.9844 13.5938C15.4933 13.5938 15.0938 13.1942 15.0938 12.7031V9.65625C15.0938 9.5527 15.1777 9.46875 15.2812 9.46875C15.3848 9.46875 15.4688 9.5527 15.4688 9.65625V12.7031C15.4688 12.9874 15.7001 13.2188 15.9844 13.2188C16.2687 13.2188 16.5 12.9874 16.5 12.7031V9.65625C16.5 9.5527 16.584 9.46875 16.6875 9.46875C16.791 9.46875 16.875 9.5527 16.875 9.65625V12.7031C16.875 13.1942 16.4755 13.5938 15.9844 13.5938Z" fill="black"/>
<path d="M11.7656 13.5938C11.2745 13.5938 10.875 13.1942 10.875 12.7031V9.65625C10.875 9.5527 10.959 9.46875 11.0625 9.46875C11.166 9.46875 11.25 9.5527 11.25 9.65625V12.7031C11.25 12.9874 11.4813 13.2188 11.7656 13.2188C12.0499 13.2188 12.2812 12.9874 12.2812 12.7031V9.65625C12.2812 9.5527 12.3652 9.46875 12.4688 9.46875C12.5723 9.46875 12.6562 9.5527 12.6562 9.65625V12.7031C12.6562 13.1942 12.2567 13.5938 11.7656 13.5938Z" fill="black"/>
<path d="M20.9062 9.1875H19.9688V10.125H20.9062V9.1875Z" fill="black"/>
<path d="M21.8438 8.25H20.9062V9.1875H21.8438V8.25Z" fill="black"/>
<path d="M19.9688 8.25H19.0312V9.1875H19.9688V8.25Z" fill="black"/>
<path d="M20.9062 7.3125H19.9688V8.25H20.9062V7.3125Z" fill="black"/>
</svg>
