<svg width="24" height="24" viewBox="0 0 24 24" fill="none" xmlns="http://www.w3.org/2000/svg">
<path d="M16.0308 14.5385C15.9447 13.9866 15.689 13.4751 15.2995 13.0749C14.9097 12.6747 14.4052 12.4056 13.8558 12.3049C13.8589 12.2911 13.8629 12.2775 13.8675 12.2641C13.9082 12.1569 13.9071 12.0384 13.8647 11.9319C13.8118 11.8018 13.7089 11.6981 13.5793 11.644C13.4495 11.59 13.3037 11.59 13.1739 11.644C13.0442 11.6981 12.9414 11.8018 12.8885 11.9319C12.8463 12.0384 12.8455 12.1568 12.8863 12.2638C12.891 12.2771 12.8949 12.2906 12.8981 12.3044C12.3482 12.4046 11.8433 12.6737 11.4533 13.0741C11.0633 13.4744 10.8076 13.9863 10.7219 14.5386C10.5051 14.6098 10.3354 14.7807 10.2656 14.9981C10.1958 15.2153 10.2343 15.4531 10.369 15.6372C10.5037 15.8215 10.7185 15.9301 10.9469 15.9295H15.8069C16.0352 15.9301 16.2502 15.8215 16.3851 15.6371C16.5198 15.4527 16.5581 15.2148 16.4879 14.9975C16.4177 14.7801 16.2478 14.6093 16.0307 14.5385L16.0308 14.5385ZM13.3768 12.0536C13.41 12.0526 13.4388 12.0762 13.4444 12.109C13.4269 12.1584 13.4137 12.2093 13.4054 12.2611C13.3953 12.2611 13.3853 12.2595 13.3754 12.2595C13.3655 12.2595 13.3572 12.2609 13.348 12.261C13.339 12.207 13.3247 12.1541 13.3051 12.1031C13.3166 12.0734 13.345 12.0538 13.3768 12.0535V12.0536ZM13.3752 12.7095H13.375C13.8902 12.7103 14.3894 12.8889 14.7884 13.2147C15.1872 13.5407 15.4617 13.9943 15.565 14.499H11.1861C11.2896 13.9944 11.5637 13.541 11.9625 13.2151C12.3613 12.8891 12.8602 12.7106 13.3751 12.7095H13.3752ZM15.8071 15.4795H10.947C10.8005 15.4795 10.6819 15.3607 10.6819 15.2141C10.6819 15.0678 10.8005 14.949 10.947 14.949H15.8071C15.9534 14.949 16.0722 15.0678 16.0722 15.2141C16.0722 15.3607 15.9534 15.4795 15.8071 15.4795Z" fill="#012768"/>
<path d="M17.7746 11.7597C16.8842 10.1983 15.2333 9.22548 13.4361 9.20313V5.72313C13.4357 5.26617 13.2539 4.8282 12.9309 4.50506C12.6079 4.18202 12.1698 4.00027 11.7128 3.99976H6.72323C6.26627 4.00029 5.82831 4.1819 5.5053 4.50492C5.1823 4.82794 5.00051 5.26603 5 5.72285V16.1149C5.00054 16.5718 5.18214 17.0098 5.50517 17.3329C5.82834 17.656 6.26627 17.8376 6.72323 17.8381H9.79208C10.9562 19.0057 12.616 19.5331 14.2407 19.2517C15.8652 18.9702 17.2508 17.9151 17.9541 16.4238C18.6575 14.9326 18.5905 13.1924 17.7747 11.7596L17.7746 11.7597ZM6.72327 17.388C6.38563 17.3875 6.06207 17.2533 5.82341 17.0146C5.58474 16.7759 5.45055 16.4524 5.45 16.1148V5.72275C5.45054 5.38525 5.58487 5.06169 5.82354 4.82302C6.0622 4.58437 6.38576 4.45017 6.72327 4.44962H11.7129C12.0504 4.45015 12.3739 4.58435 12.6126 4.82302C12.8513 5.06168 12.9856 5.38524 12.9861 5.72275V9.21647C12.8234 9.22892 12.6618 9.24888 12.5012 9.27647V5.59795C12.5009 5.41782 12.4292 5.24518 12.3019 5.11781C12.1745 4.99044 12.0019 4.91879 11.8217 4.91866H6.61443C6.4343 4.91879 6.26153 4.99045 6.13415 5.11781C6.00679 5.24518 5.93514 5.41781 5.93487 5.59795V16.0887C5.93514 16.2688 6.00679 16.4415 6.13415 16.5688C6.26152 16.6962 6.43429 16.7678 6.61443 16.768H8.98093C9.03223 16.858 9.08593 16.948 9.14245 17.0346C9.22254 17.157 9.30838 17.2746 9.39745 17.3879L6.72327 17.388ZM8.79327 10.1633L9.15073 11.1426V11.1427C9.20015 11.2765 9.18421 11.4257 9.10747 11.546C8.19876 12.9776 8.06646 14.7686 8.75471 16.3182H6.61452C6.48783 16.3181 6.38524 16.2155 6.38497 16.0889V5.5982C6.38524 5.47164 6.48783 5.36905 6.61452 5.36892H7.72545H7.72532C7.73161 5.63088 7.83996 5.88012 8.02733 6.06348C8.21469 6.24669 8.46635 6.34955 8.72843 6.34995H9.66125C9.92334 6.34955 10.175 6.24669 10.3624 6.06348C10.5497 5.88013 10.6581 5.6309 10.6642 5.36892H11.8218C11.9483 5.36905 12.0509 5.47164 12.0512 5.5982V9.3782C11.5605 9.51294 11.0928 9.72079 10.6638 9.99466C10.5205 10.0879 10.3378 10.0958 10.1871 10.0156L9.44 9.60666C9.27339 9.51573 9.06783 9.53742 8.92383 9.66131C8.77999 9.78506 8.72776 9.98501 8.79272 10.1634L8.79327 10.1633ZM8.17465 5.36916H10.2147C10.2085 5.51193 10.1474 5.64693 10.0443 5.74576C9.94117 5.84473 9.80376 5.90004 9.66084 5.90031H8.72844C8.5854 5.90004 8.44813 5.84473 8.34485 5.74576C8.24173 5.64692 8.18079 5.51192 8.17463 5.36916H8.17465ZM17.7808 15.6292C17.3856 16.8973 16.4626 17.9334 15.2482 18.4721C14.034 19.0106 12.6464 18.9993 11.4412 18.441C10.2358 17.8828 9.32991 16.8317 8.9553 15.5573C8.58083 14.2828 8.77423 12.9087 9.48594 11.7872C9.63634 11.5485 9.66809 11.2537 9.57206 10.9884L9.22344 10.0014L9.97063 10.4097H9.9705C10.1154 10.4877 10.2784 10.5255 10.4426 10.519C10.6069 10.5127 10.7666 10.4625 10.9049 10.3736C11.9734 9.69441 13.2741 9.48455 14.5018 9.79339C15.7296 10.1021 16.7763 10.9023 17.3964 12.006C18.0165 13.1098 18.1553 14.4201 17.7801 15.6293L17.7808 15.6292Z" fill="#012768"/>
<path d="M15.5337 6.93272L15.25 6.87406C15.0509 6.83281 14.8437 6.87942 14.6814 7.00183C14.5191 7.12437 14.4174 7.31093 14.4025 7.51371L14.3215 8.40702C14.3215 8.41118 14.3212 8.41519 14.3206 8.41921V8.41908C14.3105 8.5889 14.3617 8.75658 14.4648 8.89184C14.5679 9.02697 14.7162 9.12073 14.8827 9.15568L14.9669 9.17309C15.1337 9.20778 15.3074 9.18086 15.4559 9.09742C15.6043 9.01412 15.7177 8.87992 15.7751 8.71949C15.7764 8.71561 15.7777 8.71186 15.7789 8.70797L16.0585 7.85567H16.0583C16.125 7.66361 16.1055 7.45202 16.0049 7.27535C15.9044 7.09857 15.7326 6.97374 15.5333 6.93276L15.5337 6.93272ZM15.6323 7.71111L15.3513 8.5677C15.3088 8.6885 15.1833 8.75908 15.058 8.7327L14.9737 8.71529C14.8485 8.68944 14.7613 8.57533 14.7695 8.4477L14.8511 7.54983H14.8512C14.8598 7.41523 14.9713 7.31023 15.1062 7.30983C15.1237 7.30983 15.1413 7.31157 15.1586 7.31518L15.4422 7.37384H15.4421C15.5148 7.38871 15.5775 7.43438 15.6139 7.49906C15.6505 7.56375 15.657 7.64089 15.6321 7.71094L15.6323 7.71111Z" fill="#012768"/>
<path d="M17.8309 8.67023C17.7962 8.49518 17.6872 8.34384 17.5322 8.25519L17.3692 8.16198V8.16211C17.2761 8.10894 17.1709 8.08082 17.0637 8.08082C16.9416 8.08028 16.822 8.11631 16.7205 8.18421C16.6189 8.25198 16.5399 8.34868 16.4937 8.46171L16.2646 8.99462L16.2599 9.00587H16.2597C16.2055 9.14395 16.2025 9.2969 16.2514 9.43684C16.3005 9.57693 16.398 9.69479 16.5265 9.76885L16.5749 9.79644H16.5747C16.7037 9.87024 16.8549 9.89488 17.0006 9.86595C17.1464 9.83716 17.2767 9.75653 17.3677 9.63921C17.3703 9.63599 17.3727 9.63291 17.3751 9.62956L17.7181 9.16163V9.1615C17.824 9.02141 17.865 8.84261 17.8309 8.67025L17.8309 8.67023ZM17.3578 8.89201L17.0122 9.36345C16.9614 9.42894 16.8702 9.44702 16.7983 9.4059L16.7499 9.37831H16.7501C16.678 9.3372 16.6473 9.24934 16.678 9.17233L16.9089 8.63555C16.9267 8.59082 16.963 8.556 17.0085 8.54006C17.0539 8.52425 17.104 8.52881 17.1458 8.55265L17.3088 8.646H17.3089C17.3507 8.66983 17.3801 8.71068 17.3894 8.75796C17.3988 8.8051 17.3873 8.85412 17.3578 8.89216L17.3578 8.89201Z" fill="#012768"/>
</svg>
