<svg width="24" height="24" viewBox="0 0 24 24" fill="none" xmlns="http://www.w3.org/2000/svg">
<path d="M20.2677 3.73223L20.6213 3.37868V3.37868L20.2677 3.73223ZM6.5 21.0355V21.5355C6.63261 21.5355 6.75979 21.4828 6.85355 21.389L6.5 21.0355ZM3 21.0355H2.5C2.5 21.3116 2.72386 21.5355 3 21.5355V21.0355ZM3 17.4644L2.64645 17.1109C2.55268 17.2046 2.5 17.3318 2.5 17.4644H3ZM17.0857 4.08579C17.8668 3.30474 19.1331 3.30474 19.9142 4.08579L20.6213 3.37868C19.4497 2.20711 17.5502 2.20711 16.3786 3.37868L17.0857 4.08579ZM19.9142 4.08579C20.6952 4.86684 20.6952 6.13316 19.9142 6.91421L20.6213 7.62132C21.7928 6.44975 21.7928 4.55025 20.6213 3.37868L19.9142 4.08579ZM19.9142 6.91421L6.14645 20.6819L6.85355 21.389L20.6213 7.62132L19.9142 6.91421ZM6.5 20.5355H3V21.5355H6.5V20.5355ZM16.3786 3.37868L2.64645 17.1109L3.35355 17.818L17.0857 4.08579L16.3786 3.37868ZM2.5 17.4644V21.0355H3.5V17.4644H2.5ZM14.8786 5.58579L18.4142 9.12132L19.1213 8.41421L15.5857 4.87868L14.8786 5.58579Z" fill="#012768"/>
</svg>
