<svg width="24" height="24" viewBox="0 0 24 24" fill="none" xmlns="http://www.w3.org/2000/svg">
<path d="M13.7983 12.7081C10.1969 12.7081 7.26716 9.77833 7.26716 6.17707V3.81644C7.26716 3.6426 7.12627 3.50171 6.95243 3.50171C6.77872 3.50171 6.6377 3.6426 6.6377 3.81644V6.17707C6.6377 10.1254 9.84996 13.3376 13.7983 13.3376C14.6955 13.3387 15.5554 13.6955 16.1898 14.3298C16.8241 14.9642 17.1809 15.8242 17.182 16.7213V19.082C17.1811 19.166 17.2137 19.247 17.2729 19.3067C17.332 19.3664 17.4126 19.4002 17.4967 19.4002C17.5808 19.4002 17.6613 19.3664 17.7205 19.3067C17.7796 19.247 17.8124 19.166 17.8115 19.082V16.7212C17.8103 15.6573 17.387 14.6372 16.6346 13.8849C15.8824 13.1326 14.8624 12.7094 13.7983 12.7082L13.7983 12.7081Z" fill="#012768"/>
<path d="M13.7982 9.5605C12.9012 9.55956 12.0412 9.20262 11.4068 8.56834C10.7725 7.93405 10.4157 7.07396 10.4146 6.17691V3.81627C10.4127 3.64377 10.2724 3.50488 10.0999 3.50488C9.92739 3.50488 9.78703 3.64377 9.78516 3.81627V6.17691C9.78636 7.24083 10.2096 8.26096 10.9618 9.01326C11.7142 9.76566 12.7342 10.1889 13.7982 10.1901C17.3996 10.1901 20.3293 13.1199 20.3293 16.7212V19.0818C20.3283 19.1658 20.3612 19.2468 20.4202 19.3065C20.4794 19.3663 20.56 19.4 20.644 19.4C20.7281 19.4 20.8087 19.3663 20.8678 19.3065C20.927 19.2468 20.9597 19.1658 20.9589 19.0818V16.7211C20.9589 12.7727 17.7466 9.5605 13.798 9.5605H13.7982Z" fill="#012768"/>
<path d="M18.1264 7.39772V8.69522C18.1283 8.86772 18.2686 9.00647 18.4411 9.00647C18.6136 9.00647 18.754 8.86772 18.756 8.69522V7.39772C19.5606 7.20861 20.1724 6.31062 20.1724 5.23275C20.1723 4.10493 19.4819 2.3999 18.4411 2.3999C17.4004 2.3999 16.71 4.10493 16.71 5.23262C16.7101 6.31059 17.3219 7.2086 18.1264 7.39769L18.1264 7.39772ZM18.4411 3.02939C18.9353 3.02939 19.5428 4.2444 19.5428 5.23265C19.5428 5.93016 19.2053 6.53873 18.7559 6.73762L18.756 5.54739C18.754 5.37489 18.6136 5.23601 18.4411 5.23601C18.2686 5.23601 18.1283 5.37489 18.1264 5.54739V6.73762C17.677 6.5386 17.3394 5.93002 17.3394 5.23255C17.3394 4.2443 17.947 3.02928 18.4412 3.02928L18.4411 3.02939Z" fill="#012768"/>
<path d="M11.988 14.99C10.9472 14.99 10.2568 16.695 10.2568 17.8227C10.2568 18.9007 10.8686 19.7986 11.6732 19.9877V21.2852C11.6751 21.4577 11.8155 21.5966 11.988 21.5966C12.1605 21.5966 12.3008 21.4577 12.3027 21.2852V19.9877C13.1072 19.7986 13.7191 18.9006 13.7191 17.8227C13.7191 16.6949 13.0287 14.99 11.988 14.99H11.988ZM12.3027 19.3278V18.1376C12.3008 17.9651 12.1605 17.8262 11.988 17.8262C11.8155 17.8262 11.6751 17.9651 11.6733 18.1376V19.3277C11.2238 19.1289 10.8863 18.5204 10.8863 17.8228C10.8863 16.8345 11.4938 15.6196 11.988 15.6196C12.4822 15.6196 13.0897 16.8346 13.0897 17.8228C13.0897 18.5204 12.7522 19.1288 12.3027 19.3278H12.3027Z" fill="#012768"/>
<path d="M4.74873 10.5835C3.70809 10.5835 3.01758 12.2887 3.01758 13.4164C3.01758 14.4943 3.62937 15.3922 4.43399 15.5814V16.8787C4.43305 16.9628 4.46586 17.0437 4.52493 17.1034C4.58412 17.1633 4.66461 17.1969 4.74872 17.1969C4.83282 17.1969 4.91345 17.1633 4.97251 17.1034C5.03171 17.0437 5.06439 16.9628 5.06345 16.8787V15.5812C5.8681 15.392 6.47986 14.4941 6.47986 13.4161C6.47986 12.2887 5.78945 10.5835 4.7487 10.5835H4.74873ZM5.06346 14.9213V13.7312C5.0644 13.6471 5.03172 13.5662 4.97253 13.5064C4.91346 13.4466 4.83284 13.413 4.74874 13.413C4.66463 13.413 4.58414 13.4466 4.52494 13.5064C4.46588 13.5662 4.43307 13.6471 4.43401 13.7312V14.9213C3.98456 14.7226 3.64718 14.114 3.64718 13.4164C3.64718 12.428 4.25469 11.2131 4.74889 11.2131C5.24308 11.2131 5.85059 12.4281 5.85059 13.4164C5.85046 14.114 5.51295 14.7226 5.06349 14.9213H5.06346Z" fill="#012768"/>
</svg>
