<svg width="41" height="41" viewBox="0 0 41 41" fill="none" xmlns="http://www.w3.org/2000/svg">
<path d="M22.9 13.1001H18V20.0001H22.9C24 20.0001 24.9 19.7001 25.5 19.1001C26.2 18.5001 26.5 17.6001 26.5 16.6001C26.5 15.6001 26.2 14.8001 25.5 14.1001C24.9 13.5001 24 13.1001 22.9 13.1001Z" fill="#4FAD50"/>
<path d="M20.4 0C9.09999 0 0 9.09999 0 20.4C0 31.7 9.09999 40.8 20.4 40.8C31.7 40.8 40.8 31.7 40.8 20.4C40.7 9.09999 31.6 0 20.4 0ZM28.2 21.4C26.9 22.6 25.2 23.3 23.2 23.3H18V25.1H25.7C25.8 25.1 26 25.1 26.1 25.2C26.2 25.3 26.2 25.4 26.2 25.6V27.6C26.2 27.7 26.2 27.9 26.1 28C26 28.1 25.9 28.1 25.7 28.1H18V31C18 31.1 18 31.3 17.9 31.4C17.8 31.5 17.7 31.5 17.6 31.5H15C14.9 31.5 14.7 31.5 14.6 31.4C14.5 31.3 14.5 31.2 14.5 31V28.1H11.1C11 28.1 10.8 28.1 10.7 28C10.6 27.9 10.6 27.8 10.6 27.6V25.6C10.6 25.5 10.6 25.3 10.7 25.2C10.8 25.1 10.9 25.1 11.1 25.1H14.5V23.3H11.1C11 23.3 10.8 23.3 10.7 23.2C10.6 23.1 10.6 23 10.6 22.8V20.5C10.6 20.4 10.6 20.3 10.7 20.2C10.8 20.1 10.9 20.1 11.1 20.1H14.5V10.5C14.5 10.4 14.5 10.2 14.6 10.1C14.7 10 14.8 10 15 10H23.3C25.3 10 27 10.6 28.3 11.9C29.6 13.1 30.2 14.8 30.2 16.7C30.2 18.5 29.5 20.1 28.2 21.4Z" fill="#4FAD50"/>
</svg>
