<svg width="24" height="24" viewBox="0 0 24 24" fill="none" xmlns="http://www.w3.org/2000/svg">
<path d="M8.67292 4.74572C8.67292 4.26331 8.28264 3.87304 7.80024 3.87304C7.31784 3.87304 6.92757 4.26331 6.92757 4.74572C6.92757 5.22812 7.31784 5.61839 7.80024 5.61839C8.28264 5.61839 8.67292 5.22812 8.67292 4.74572ZM7.80024 7.80023C8.08645 7.80023 8.49011 7.85407 8.90489 8.02001C9.36292 8.20323 9.72563 8.49333 9.936 8.91425L9.96761 8.99782L11.0419 13.0634C11.0506 13.107 11.1103 13.2201 11.2666 13.3522C11.4028 13.4674 11.5864 13.5665 11.8276 13.6417L15.6851 13.9105C15.7901 13.9178 15.8888 13.9628 15.9633 14.0372C20.0594 18.1333 21.6547 20.3084 20.7633 21.1999C19.8911 22.072 17.9897 20.774 14.6014 17.4003H10.4182C10.3562 17.4003 10.2972 17.3873 10.2437 17.364C10.3122 17.3959 10.3368 17.3978 10.1895 17.3742C10.0436 17.3508 9.88814 17.3134 9.72206 17.2573C9.25399 17.099 8.79234 16.8232 8.36603 16.4017C8.1946 16.2323 8.19299 15.956 8.36241 15.7846C8.53197 15.6132 8.80813 15.6117 8.97956 15.7811C9.30849 16.1063 9.65522 16.3135 10.0016 16.4305C10.106 16.4659 10.2816 16.5019 10.4182 16.5295L14.7818 16.5276C14.8975 16.5276 15.0085 16.5736 15.0903 16.6554C18.0218 19.587 19.8653 20.8633 20.1458 20.5828C20.4151 20.3135 18.8488 18.1705 15.461 14.7697L11.7176 14.5089L11.6258 14.4926C11.2482 14.3824 10.9418 14.2208 10.7027 14.0187C10.3833 13.7489 10.2308 13.4599 10.1915 13.261L9.13605 9.26941C9.02837 9.07924 8.83953 8.93406 8.58024 8.83039C8.28801 8.7136 7.98466 8.67315 7.79969 8.67315C7.10098 8.67315 6.61402 9.31924 6.47756 10.088L4.73208 17.0699C4.67369 17.3038 4.43676 17.4459 4.20291 17.3875C3.96921 17.329 3.82697 17.092 3.8855 16.8583L5.62444 9.90654C5.81904 8.80151 6.57415 7.80023 7.80024 7.80023ZM12.1638 19.1457C12.4047 19.1457 12.6001 19.3411 12.6001 19.5821C12.6001 19.8232 12.4047 20.0184 12.1638 20.0184H3.43635C3.19542 20.0184 3 19.8232 3 19.5821C3 19.3412 3.1954 19.1457 3.43635 19.1457H12.1638ZM19.7769 6.53715C21.0746 7.1859 21.7636 8.04719 21.7636 9.10926C21.7636 9.84133 21.4331 10.2379 20.509 10.9773C19.7968 11.547 19.5818 11.805 19.5818 12.1637C19.5818 12.8472 20.0564 13.4405 21.0861 13.9553C21.3016 14.063 21.3889 14.3252 21.2812 14.5407C21.1734 14.7562 20.9113 14.8437 20.6957 14.7358C19.398 14.0871 18.7091 13.2258 18.7091 12.1637C18.7091 11.4317 19.0395 11.035 19.9638 10.2957C20.676 9.72598 20.8908 9.46801 20.8908 9.10924C20.8908 8.42579 20.4163 7.83251 19.3867 7.31768C19.171 7.20986 19.0837 6.94777 19.1915 6.73228C19.2992 6.51665 19.5614 6.42933 19.7769 6.53715ZM14.5405 3.04617C15.8381 3.69506 16.5272 4.55636 16.5272 5.61829C16.5272 6.35036 16.1966 6.74704 15.2724 7.48631C14.5603 8.05604 14.3453 8.314 14.3453 8.67291C14.3453 9.35636 14.82 9.9495 15.8495 10.4643C16.0651 10.5722 16.1524 10.8342 16.0446 11.0499C15.9369 11.2654 15.6748 11.3527 15.4592 11.245C14.1616 10.5961 13.4725 9.73482 13.4725 8.67289C13.4725 7.94072 13.8031 7.54413 14.7273 6.80486C15.4394 6.235 15.6544 5.97717 15.6544 5.61827C15.6544 4.93482 15.1797 4.34153 14.1502 3.82684C13.9346 3.71903 13.8473 3.45693 13.9551 3.2413C14.0628 3.02581 14.3249 2.93836 14.5405 3.04617ZM7.7999 3.0001C8.76432 3.0001 9.54539 3.78116 9.54539 4.74559C9.54539 5.71001 8.76432 6.49107 7.7999 6.49107C6.83548 6.49107 6.05441 5.71001 6.05441 4.74559C6.05441 3.78116 6.83548 3.0001 7.7999 3.0001Z" fill="#012768"/>
</svg>
