<svg width="24" height="24" viewBox="0 0 24 24" fill="none" xmlns="http://www.w3.org/2000/svg">
<path d="M21.1481 9.70371C20.7472 9.70156 20.3565 9.83168 20.037 10.0741V7.85185C20.037 7.36076 19.8419 6.88974 19.4947 6.54231C19.1473 6.19509 18.6763 6 18.1852 6H7.81481C7.32372 6 6.8527 6.19511 6.50527 6.54231C6.15805 6.88969 5.96296 7.36076 5.96296 7.85185V10.0741C5.64352 9.83168 5.25283 9.70156 4.85185 9.70371C4.36076 9.70371 3.88974 9.89881 3.54231 10.246C3.19509 10.5934 3 11.0645 3 11.5556V16.7407C3 16.839 3.03902 16.9332 3.10847 17.0027C3.17791 17.0721 3.27216 17.1111 3.37037 17.1111H4.48148V18.2222C4.48148 18.4268 4.64732 18.5926 4.85185 18.5926C5.05638 18.5926 5.22222 18.4268 5.22222 18.2222V17.1111H20.7778V18.2222C20.7778 18.4268 20.9436 18.5926 21.1481 18.5926C21.3527 18.5926 21.5185 18.4268 21.5185 18.2222V17.1111H22.6296C22.7278 17.1111 22.8221 17.0721 22.8915 17.0027C22.961 16.9332 23 16.839 23 16.7407V11.5556C23 11.0645 22.8049 10.5934 22.4577 10.246C22.1103 9.89879 21.6392 9.70371 21.1481 9.70371ZM6.7037 7.85185C6.7037 7.55721 6.82077 7.27446 7.0291 7.06616C7.23743 6.85786 7.52019 6.74076 7.81479 6.74076H18.1852C18.4798 6.74076 18.7626 6.85783 18.9709 7.06616C19.1792 7.27449 19.2963 7.55725 19.2963 7.85185V11.9259C18.9466 11.4596 18.3976 11.1852 17.8148 11.1852H8.18514C7.60229 11.1852 7.05338 11.4597 6.70366 11.9259L6.7037 7.85185ZM18.9259 12.6667H7.07407L7.2963 12.3704C7.50612 12.0906 7.83547 11.9259 8.18518 11.9259H17.8148C18.1645 11.9259 18.4939 12.0906 18.7037 12.3704L18.9259 12.6667ZM22.2593 16.3704H3.74074V11.5556C3.74074 11.1586 3.95255 10.7918 4.2963 10.5933C4.64005 10.3949 5.06366 10.3949 5.40741 10.5933C5.75116 10.7919 5.96296 11.1586 5.96296 11.5556V13.037V13.063V13.1371L5.98512 13.2001C5.99669 13.2212 6.01025 13.2411 6.02596 13.2593L6.07407 13.3148H6.09259L6.12963 13.3333L6.20007 13.3667H6.27414L6.33333 13.4074H19.6667C19.7111 13.4066 19.755 13.3978 19.7963 13.3815L19.8408 13.3593L19.8889 13.3333L19.937 13.2778C19.9527 13.2596 19.9663 13.2398 19.9778 13.2186L20 13.1556V13.0815V13.0556V11.5555C20 11.1585 20.2118 10.7918 20.5556 10.5933C20.8993 10.3948 21.3229 10.3948 21.6667 10.5933C22.0104 10.7918 22.2222 11.1585 22.2222 11.5555L22.2593 16.3704Z" fill="#012768"/>
</svg>
