<svg width="24" height="24" viewBox="0 0 24 24" fill="none" xmlns="http://www.w3.org/2000/svg">
<path d="M20.5 12C20.5 16.6944 16.6944 20.5 12 20.5V21.5C17.2467 21.5 21.5 17.2467 21.5 12H20.5ZM12 20.5C7.30558 20.5 3.5 16.6944 3.5 12H2.5C2.5 17.2467 6.75329 21.5 12 21.5V20.5ZM3.5 12C3.5 7.30558 7.30558 3.5 12 3.5V2.5C6.75329 2.5 2.5 6.75329 2.5 12H3.5ZM12 3.5C16.6944 3.5 20.5 7.30558 20.5 12H21.5C21.5 6.75329 17.2467 2.5 12 2.5V3.5ZM15.5 12C15.5 13.933 13.933 15.5 12 15.5V16.5C14.4853 16.5 16.5 14.4853 16.5 12H15.5ZM12 15.5C10.067 15.5 8.5 13.933 8.5 12H7.5C7.5 14.4853 9.51472 16.5 12 16.5V15.5ZM8.5 12C8.5 10.067 10.067 8.5 12 8.5V7.5C9.51472 7.5 7.5 9.51472 7.5 12H8.5ZM12 8.5C13.933 8.5 15.5 10.067 15.5 12H16.5C16.5 9.51472 14.4853 7.5 12 7.5V8.5ZM18.0104 5.28249L14.4749 8.81802L15.182 9.52513L18.7175 5.98959L18.0104 5.28249ZM14.4749 15.182L18.0104 18.7175L18.7175 18.0104L15.182 14.4749L14.4749 15.182ZM9.52513 8.81802L5.98959 5.28249L5.28249 5.98959L8.81802 9.52513L9.52513 8.81802ZM8.81802 14.4749L5.28249 18.0104L5.98959 18.7175L9.52513 15.182L8.81802 14.4749Z" fill="#012768"/>
</svg>
