<svg width="24" height="24" viewBox="0 0 24 24" fill="none" xmlns="http://www.w3.org/2000/svg">
<path d="M18.2369 4H6.71813C6.47869 4 6.28444 4.19405 6.28444 4.43369V12.7808L5.49957 12.6605C5.32629 12.6337 5.15261 12.715 5.06143 12.8665C4.97086 13.0178 4.98135 13.2092 5.08685 13.35L6.28443 14.9438V19.5662C6.28443 19.8056 6.47868 19.9999 6.71812 19.9999C6.95776 19.9999 7.15181 19.8056 7.15181 19.5662L7.15202 16.098L8.08659 17.342C8.15477 17.4326 8.25603 17.4929 8.36799 17.5101L10.883 17.8947C10.9048 17.8982 10.9266 17.9 10.9486 17.9H10.9544C11.1938 17.9 11.3881 17.7057 11.3881 17.4663C11.3881 17.3457 11.3389 17.2367 11.2594 17.1581L10.9467 16.7421C12.5526 15.2107 15.373 11.5725 15.4912 4.86753H17.8033V19.5663C17.8033 19.8057 17.9976 20 18.237 20C18.4764 20 18.6707 19.8057 18.6707 19.5663L18.6709 4.43324C18.6707 4.1936 18.4763 4 18.2369 4ZM9.54025 4.8676C9.45553 9.71488 7.96745 11.7522 7.15149 12.5041V4.8676H9.54025ZM6.41965 13.6794L7.7076 13.8767L9.76653 16.6165C9.66446 16.7 9.58196 16.7633 9.51983 16.8091L8.67341 16.6798L6.41965 13.6794ZM10.4124 16.0309L8.29501 13.2138C8.22703 13.1233 8.12617 13.0632 8.01401 13.0458L7.8833 13.0258C8.94553 11.9642 10.3275 9.56959 10.4082 4.86726H14.6225C14.5049 11.0899 11.9007 14.5555 10.4124 16.0309Z" fill="#012768"/>
</svg>
