<svg width="24" height="24" viewBox="0 0 24 24" fill="none" xmlns="http://www.w3.org/2000/svg">
<path d="M20.0248 13.1786C21.0202 12.628 21.7191 11.6633 21.9322 10.546C22.1453 9.42874 21.8506 8.2746 21.1278 7.39622C20.4052 6.51785 19.3294 6.00639 18.192 6.00032H6.22846C5.7202 5.99166 5.22478 6.16038 4.82743 6.47749C4.43006 6.79442 4.15542 7.24003 4.05095 7.73754C3.92741 8.37206 4.09421 9.02852 4.50568 9.52731C4.75884 9.82806 5.08987 10.0532 5.46273 10.1782C4.53915 10.9038 4 12.0136 4 13.1882C4 14.3629 4.53919 15.4725 5.46273 16.1983C5.10718 16.326 4.79187 16.5457 4.54862 16.8348C4.13733 17.3334 3.97051 17.99 4.09406 18.6245C4.20045 19.1261 4.47957 19.5743 4.88284 19.891C5.28598 20.2076 5.78768 20.3726 6.30024 20.3569H18.2162C19.3502 20.3425 20.4195 19.8259 21.1359 18.9466C21.8521 18.0671 22.1415 16.9153 21.9261 15.8019C21.7108 14.6883 21.0128 13.7276 20.0202 13.1786L20.0248 13.1786ZM18.1919 19.3999H6.3002C6.01516 19.4065 5.73652 19.315 5.51092 19.1408C5.28532 18.9665 5.12637 18.72 5.06066 18.4427C4.98904 18.0914 5.07861 17.7266 5.30469 17.4486C5.53093 17.1705 5.8698 17.0085 6.22843 17.007H17.7137C17.9779 17.007 18.1921 16.7928 18.1921 16.5286C18.1921 16.2642 17.9779 16.05 17.7137 16.05H7.83144C6.80564 16.05 5.85774 15.5026 5.34485 14.6143C4.83195 13.726 4.83195 12.6313 5.34485 11.743C5.85774 10.8547 6.80564 10.3073 7.83144 10.3073H17.7137C17.9779 10.3073 18.1921 10.0931 18.1921 9.82874C18.1921 9.56452 17.9779 9.3503 17.7137 9.3503H6.18536C5.82597 9.3503 5.48579 9.18895 5.25842 8.91062C5.03121 8.6323 4.941 8.26667 5.01295 7.91464C5.07768 7.64129 5.2331 7.39789 5.45373 7.22422C5.67453 7.05037 5.94756 6.95632 6.22845 6.95743H18.192C19.2179 6.95743 20.1656 7.50479 20.6787 8.39309C21.1916 9.28155 21.1916 10.3761 20.6787 11.2644C20.1656 12.1529 19.2179 12.7001 18.192 12.7001H8.14238C7.87817 12.7001 7.66394 12.9144 7.66394 13.1787C7.66394 13.4429 7.87817 13.6573 8.14238 13.6573H18.2162C19.2419 13.6573 20.1898 14.2045 20.7027 15.0929C21.2156 15.9812 21.2156 17.0758 20.7027 17.9642C20.1898 18.8525 19.2419 19.3999 18.2162 19.3999L18.1919 19.3999Z" fill="#012768"/>
</svg>
