<svg width="24" height="24" viewBox="0 0 24 24" fill="none" xmlns="http://www.w3.org/2000/svg">
<path fill-rule="evenodd" clip-rule="evenodd" d="M21.1434 12V5.14289C21.1434 4.53668 20.9026 3.9553 20.4739 3.52665C20.0453 3.09799 19.4639 2.85718 18.8577 2.85718H12.0006C11.3943 2.85718 10.813 3.09799 10.3843 3.52665C9.95566 3.9553 9.71484 4.53668 9.71484 5.14289V12C9.71484 12.6062 9.95566 13.1876 10.3843 13.6163C10.813 14.0449 11.3943 14.2857 12.0006 14.2857H18.8577C19.4639 14.2857 20.0453 14.0449 20.4739 13.6163C20.9026 13.1876 21.1434 12.6062 21.1434 12Z" stroke="#012768" stroke-linecap="round" stroke-linejoin="round"/>
<path d="M7.42885 9.71777H5.14314C4.53693 9.71777 3.95555 9.95859 3.52689 10.3872C3.09824 10.8159 2.85742 11.3973 2.85742 12.0035V18.8606C2.85742 19.4668 3.09824 20.0482 3.52689 20.4769C3.95555 20.9055 4.53693 21.1463 5.14314 21.1463H5.14656L12.0037 21.1349C12.6093 21.134 13.1898 20.8928 13.6177 20.4642C14.0456 20.0357 14.286 19.4548 14.286 18.8492V16.5715" stroke="#012768" stroke-linecap="round" stroke-linejoin="round"/>
<path d="M8.57213 14.2891H5.14355" stroke="#012768" stroke-linecap="round" stroke-linejoin="round"/>
<path d="M10.2861 16L9.14328 17.1429C8.76156 17.5234 7.8107 18.0949 6.28613 18.8571" stroke="#012768" stroke-linecap="round" stroke-linejoin="round"/>
<path d="M6.28613 14.2891C6.66785 15.6216 7.23928 16.5748 8.00042 17.1451C8.76156 17.7153 9.7147 18.2856 10.8576 18.8571" stroke="#012768" stroke-linecap="round" stroke-linejoin="round"/>
<path d="M15.4286 5.14282L12 12" stroke="#012768" stroke-linecap="round" stroke-linejoin="round"/>
<path d="M15.4287 5.14282L18.8573 12" stroke="#012768" stroke-linecap="round" stroke-linejoin="round"/>
<path d="M17.714 9.71436H13.1426" stroke="#012768" stroke-linecap="round" stroke-linejoin="round"/>
</svg>
