<svg width="50" height="52" viewBox="0 0 50 52" fill="none" xmlns="http://www.w3.org/2000/svg">
<g filter="url(#filter0_dddd_610_20443)">
<circle cx="25" cy="23" r="15" fill="white"/>
</g>
<path d="M22.9028 31.087C21.962 30.5303 21.2901 29.551 21.2516 28.3991C21.194 26.2487 22.6916 25.1927 23.5749 23.7527C24.8421 21.6791 24.4965 20.3927 24.4965 20.3927C24.4965 20.3927 25.5525 20.9879 26.1668 23.196C26.3589 23.8487 26.3972 24.5015 26.3396 25.116C26.2436 26.6711 25.5717 28.0727 25.5717 28.0727C25.5717 28.0727 26.7429 27.8231 27.0693 25.6919C27.6069 26.2486 28.106 27.0551 28.1637 27.8998C28.2598 29.3591 27.3957 30.7031 26.0901 31.2791C28.3557 30.7606 29.9685 28.8406 30.5253 27.4391C31.2357 25.6727 31.0438 24.0982 30.9286 22.7351C30.775 20.8727 31.4278 19.4902 31.4278 19.4902C31.4278 19.4902 30.1798 19.8551 29.2581 21.3718C28.8357 22.063 28.663 23.0806 28.663 23.0806C28.663 23.0806 28.759 22.1782 28.1638 20.527C27.5686 18.9142 27.031 18.3382 26.7046 17.1478C26.2822 15.5542 27.2229 13.999 27.2229 13.999C27.2229 13.999 23.4981 14.6902 21.8085 17.935C20.3109 20.815 20.9253 22.543 20.9253 22.543C20.9253 22.543 20.2917 21.9479 19.9653 21.1222C19.6389 20.2967 19.7156 19.5477 19.7156 19.5477C19.7156 19.5477 17.066 22.4662 18.3524 26.1333C19.2165 28.7064 20.8868 30.3957 22.9028 31.0869L22.9028 31.087Z" fill="#A87E5C"/>
<defs>
<filter id="filter0_dddd_610_20443" x="0" y="0" width="50" height="52" filterUnits="userSpaceOnUse" color-interpolation-filters="sRGB">
<feFlood flood-opacity="0" result="BackgroundImageFix"/>
<feColorMatrix in="SourceAlpha" type="matrix" values="0 0 0 0 0 0 0 0 0 0 0 0 0 0 0 0 0 0 127 0" result="hardAlpha"/>
<feOffset dy="2"/>
<feGaussianBlur stdDeviation="3"/>
<feColorMatrix type="matrix" values="0 0 0 0 0.333333 0 0 0 0 0.372549 0 0 0 0 0.439216 0 0 0 0.12 0"/>
<feBlend mode="normal" in2="BackgroundImageFix" result="effect1_dropShadow_610_20443"/>
<feColorMatrix in="SourceAlpha" type="matrix" values="0 0 0 0 0 0 0 0 0 0 0 0 0 0 0 0 0 0 127 0" result="hardAlpha"/>
<feOffset/>
<feGaussianBlur stdDeviation="1"/>
<feColorMatrix type="matrix" values="0 0 0 0 0.333333 0 0 0 0 0.372549 0 0 0 0 0.439216 0 0 0 0.06 0"/>
<feBlend mode="normal" in2="effect1_dropShadow_610_20443" result="effect2_dropShadow_610_20443"/>
<feColorMatrix in="SourceAlpha" type="matrix" values="0 0 0 0 0 0 0 0 0 0 0 0 0 0 0 0 0 0 127 0" result="hardAlpha"/>
<feOffset dy="4"/>
<feGaussianBlur stdDeviation="5"/>
<feComposite in2="hardAlpha" operator="out"/>
<feColorMatrix type="matrix" values="0 0 0 0 0.333333 0 0 0 0 0.372549 0 0 0 0 0.439216 0 0 0 0.03 0"/>
<feBlend mode="normal" in2="effect2_dropShadow_610_20443" result="effect3_dropShadow_610_20443"/>
<feColorMatrix in="SourceAlpha" type="matrix" values="0 0 0 0 0 0 0 0 0 0 0 0 0 0 0 0 0 0 127 0" result="hardAlpha"/>
<feOffset dy="-2"/>
<feGaussianBlur stdDeviation="3"/>
<feComposite in2="hardAlpha" operator="out"/>
<feColorMatrix type="matrix" values="0 0 0 0 0.333333 0 0 0 0 0.372549 0 0 0 0 0.439216 0 0 0 0.1 0"/>
<feBlend mode="normal" in2="effect3_dropShadow_610_20443" result="effect4_dropShadow_610_20443"/>
<feBlend mode="normal" in="SourceGraphic" in2="effect4_dropShadow_610_20443" result="shape"/>
</filter>
</defs>
</svg>
