<svg width="50" height="52" viewBox="0 0 50 52" fill="none" xmlns="http://www.w3.org/2000/svg">
<g filter="url(#filter0_dddd_598_16581)">
<circle cx="25" cy="23" r="15" fill="white"/>
</g>
<path d="M23.8098 19.4989C23.8098 19.4989 22.7884 17.044 21.0143 16.811C21.0143 16.811 21.2801 17.1023 21.6956 17.6333C22.9252 19.2048 25.4705 22.8835 26.3544 27.3835C26.3544 27.3835 27.6447 16.7035 33.4505 14.0515C33.4505 14.0515 28.3255 19.7141 27.1786 31.4693H25.5301C25.5301 31.4693 25.1717 24.5165 22.0175 20.5023C22.0175 20.5023 19.5806 20.7174 18.7203 19.0688C17.8601 17.4203 18.0754 15.7001 17 14.0514C24.9803 13.3822 23.8095 19.4987 23.8095 19.4987L23.8098 19.4989Z" fill="#346C04"/>
<defs>
<filter id="filter0_dddd_598_16581" x="0" y="0" width="50" height="52" filterUnits="userSpaceOnUse" color-interpolation-filters="sRGB">
<feFlood flood-opacity="0" result="BackgroundImageFix"/>
<feColorMatrix in="SourceAlpha" type="matrix" values="0 0 0 0 0 0 0 0 0 0 0 0 0 0 0 0 0 0 127 0" result="hardAlpha"/>
<feOffset dy="2"/>
<feGaussianBlur stdDeviation="3"/>
<feColorMatrix type="matrix" values="0 0 0 0 0.333333 0 0 0 0 0.372549 0 0 0 0 0.439216 0 0 0 0.12 0"/>
<feBlend mode="normal" in2="BackgroundImageFix" result="effect1_dropShadow_598_16581"/>
<feColorMatrix in="SourceAlpha" type="matrix" values="0 0 0 0 0 0 0 0 0 0 0 0 0 0 0 0 0 0 127 0" result="hardAlpha"/>
<feOffset/>
<feGaussianBlur stdDeviation="1"/>
<feColorMatrix type="matrix" values="0 0 0 0 0.333333 0 0 0 0 0.372549 0 0 0 0 0.439216 0 0 0 0.06 0"/>
<feBlend mode="normal" in2="effect1_dropShadow_598_16581" result="effect2_dropShadow_598_16581"/>
<feColorMatrix in="SourceAlpha" type="matrix" values="0 0 0 0 0 0 0 0 0 0 0 0 0 0 0 0 0 0 127 0" result="hardAlpha"/>
<feOffset dy="4"/>
<feGaussianBlur stdDeviation="5"/>
<feComposite in2="hardAlpha" operator="out"/>
<feColorMatrix type="matrix" values="0 0 0 0 0.333333 0 0 0 0 0.372549 0 0 0 0 0.439216 0 0 0 0.03 0"/>
<feBlend mode="normal" in2="effect2_dropShadow_598_16581" result="effect3_dropShadow_598_16581"/>
<feColorMatrix in="SourceAlpha" type="matrix" values="0 0 0 0 0 0 0 0 0 0 0 0 0 0 0 0 0 0 127 0" result="hardAlpha"/>
<feOffset dy="-2"/>
<feGaussianBlur stdDeviation="3"/>
<feComposite in2="hardAlpha" operator="out"/>
<feColorMatrix type="matrix" values="0 0 0 0 0.333333 0 0 0 0 0.372549 0 0 0 0 0.439216 0 0 0 0.1 0"/>
<feBlend mode="normal" in2="effect3_dropShadow_598_16581" result="effect4_dropShadow_598_16581"/>
<feBlend mode="normal" in="SourceGraphic" in2="effect4_dropShadow_598_16581" result="shape"/>
</filter>
</defs>
</svg>
