<svg width="31" height="19" viewBox="0 0 31 19" fill="none" xmlns="http://www.w3.org/2000/svg">
<path d="M30.7131 16.6507C30.7131 16.5274 30.5903 16.5274 30.5903 16.4041C30.0992 15.4178 28.9943 14.1849 27.521 12.8288C26.7844 12.2123 26.416 11.7192 26.1705 11.4726C25.8022 10.9795 25.8022 10.6096 25.925 10.1164C26.0477 9.74658 26.5388 9.13013 27.3982 8.02054C27.8893 7.4041 28.1348 7.03425 28.5032 6.66439C30.3448 4.19863 31.2042 2.59588 30.9586 1.85615L30.8359 1.73288C30.7131 1.60959 30.5903 1.48631 30.3448 1.48631C30.0992 1.36302 29.7309 1.36302 29.3626 1.48631H24.6972C24.5745 1.48631 24.5744 1.48631 24.3289 1.48631C24.2061 1.48631 24.0834 1.48631 24.0834 1.48631H23.9606H23.8378L23.715 1.60958C23.5922 1.73287 23.5922 1.73287 23.5922 1.85615C23.1011 3.21232 22.4873 4.32191 21.8734 5.55479C21.5051 6.17123 21.1368 6.78768 20.7685 7.28083C20.4002 7.77398 20.1546 8.14383 19.909 8.39041C19.6635 8.63698 19.418 8.76027 19.2952 9.00685C19.1724 9.13013 18.9269 9.25343 18.9269 9.13014C18.8041 9.13014 18.6813 9.13013 18.6813 9.00685C18.5585 8.88356 18.4358 8.76027 18.313 8.63698C18.1902 8.51369 18.1902 8.26712 18.0674 8.02054C18.0674 7.77397 18.0674 7.52739 18.0674 7.4041C18.0674 7.28082 18.0674 6.91096 18.0674 6.66439C18.0674 6.29452 18.0674 6.04794 18.0674 5.92465C18.0674 5.55479 18.0674 5.06165 18.0674 4.5685C18.0674 4.07535 18.0674 3.70547 18.0674 3.4589C18.0674 3.21232 18.0674 2.84246 18.0674 2.59589C18.0674 2.22602 18.0674 1.97944 18.0674 1.85615C18.0674 1.73287 17.9447 1.4863 17.9447 1.36301C17.8219 1.23972 17.6991 1.11643 17.5764 0.993143C17.4536 0.869856 17.208 0.869859 17.0853 0.746572C16.4714 0.623284 15.7348 0.5 14.8754 0.5C12.911 0.5 11.5605 0.623292 11.0694 0.869867C10.8239 0.993155 10.5783 1.11643 10.4555 1.36301C10.21 1.60959 10.21 1.73288 10.3328 1.73288C10.9466 1.85617 11.4377 2.10273 11.6833 2.47259L11.806 2.71918C11.9288 2.84247 11.9288 3.08904 12.0516 3.4589C12.1743 3.82876 12.1743 4.19862 12.1743 4.69178C12.1743 5.4315 12.1743 6.17124 12.1743 6.66439C12.1743 7.28083 12.0516 7.65068 12.0516 8.02054C12.0516 8.3904 11.9288 8.63699 11.806 8.76028C11.6833 9.00685 11.6833 9.13014 11.5605 9.13014C11.5605 9.13014 11.5605 9.25342 11.4377 9.25342C11.3149 9.25342 11.1922 9.37671 10.9466 9.37671C10.8238 9.37671 10.5783 9.25343 10.4555 9.13014C10.21 9.00686 9.96444 8.76028 9.84167 8.5137C9.59612 8.26713 9.35057 7.89725 9.10502 7.4041C8.85948 6.91095 8.49114 6.41781 8.24559 5.67808L8.00007 5.18494C7.8773 4.93836 7.63175 4.4452 7.38621 3.82877C7.14066 3.21233 6.8951 2.71918 6.64956 2.10274C6.52679 1.85617 6.40403 1.73287 6.28125 1.60958H6.15847C6.15847 1.60958 6.03569 1.48631 5.91291 1.48631C5.79014 1.48631 5.66738 1.36301 5.54461 1.36301H1.12477C0.633674 1.36301 0.388132 1.48629 0.265359 1.60958L0.142578 1.73288C0.142578 1.73288 0.142578 1.85616 0.142578 1.97945C0.142578 2.10274 0.142586 2.22602 0.265359 2.47259C0.879224 3.95205 1.61586 5.43151 2.3525 6.91096C3.08914 8.26712 3.82578 9.50001 4.31688 10.363C4.93074 11.226 5.42183 12.089 6.03569 12.8288C6.64956 13.5685 7.01787 14.0616 7.14064 14.3082C7.38619 14.5548 7.50896 14.6781 7.63173 14.8014L8.00007 15.1712C8.24562 15.4178 8.61393 15.7877 9.10502 16.1575C9.59611 16.5274 10.21 16.8973 10.8238 17.2671C11.4377 17.637 12.1744 17.8836 12.911 18.1302C13.7704 18.3767 14.507 18.5 15.2437 18.3767H17.0853C17.4536 18.3767 17.6992 18.2534 17.9447 18.0069L18.0674 17.8836C18.0674 17.7603 18.1902 17.7603 18.1902 17.637C18.1902 17.5137 18.1902 17.3904 18.1902 17.1438C18.1902 16.6507 18.1902 16.2808 18.313 15.911C18.4358 15.5411 18.4358 15.2945 18.5586 15.048C18.6813 14.8014 18.8041 14.6781 18.9269 14.5548C19.0496 14.4315 19.1724 14.3082 19.1724 14.3082H19.2952C19.5407 14.1849 19.9091 14.3082 20.1546 14.5548C20.5229 14.8014 20.8912 15.1712 21.1368 15.5411C21.3823 15.911 21.7507 16.2808 22.2418 16.774C22.7329 17.2671 23.1012 17.637 23.3467 17.7603L23.715 18.0069C23.9606 18.1301 24.2061 18.2534 24.5744 18.3767C24.9428 18.5 25.1883 18.5 25.4338 18.5L29.6082 18.3767C29.9765 18.3767 30.3448 18.2534 30.5903 18.1302C30.8359 18.0069 30.9586 17.8836 30.9586 17.637C30.9586 17.5137 30.9586 17.2671 30.9586 17.1438C30.7131 16.8973 30.7131 16.774 30.7131 16.6507Z" fill="#012768"/>
</svg>
