<svg width="104" height="31" viewBox="0 0 104 31" fill="none" xmlns="http://www.w3.org/2000/svg">
<path d="M103.7 30.3H0V0H103.7V30.3Z" fill="#13110C"/>
<path d="M36.8004 5.80005C34.4004 5.80005 33.0004 6.80005 33.0004 8.50005C33.0004 9.60005 33.5004 10.4 34.7004 10.7L37.0004 11.4C37.3004 11.5 37.6004 11.7 37.6004 12C37.6004 12.4 37.3004 12.7 36.8004 12.7C36.5004 12.7 36.3004 12.6 36.2004 12.4C36.1004 12.2 36.0004 12 36.0004 11.8H32.8004C32.8004 14 34.7004 14.6 36.7004 14.6C39.1004 14.6 40.7004 13.7 40.7004 11.7C40.7004 10.7 40.2004 9.90005 39.2004 9.50005C38.4004 9.10005 37.2004 8.90005 36.6004 8.70005C36.3004 8.60005 36.1004 8.50005 36.1004 8.20005C36.1004 7.90005 36.3004 7.70005 36.9004 7.70005C37.3004 7.70005 37.6004 7.90005 37.6004 8.40005H40.6004C40.4004 6.40005 38.9004 5.80005 36.8004 5.80005ZM82.4004 5.80005V24.3H83.4004V5.80005H82.4004ZM92.9004 5.90005C92.3004 5.90005 91.8004 6.40005 91.8004 7.00005C91.8004 7.60005 92.3004 8.10005 92.9004 8.10005C93.5004 8.10005 94.0004 7.60005 94.0004 7.00005C94.1004 6.40005 93.6004 5.90005 92.9004 5.90005ZM9.90039 6.00005L11.7004 14.4H15.3004L16.1004 9.00005L16.9004 14.4H20.5004L22.3004 6.00005H19.3004L18.6004 11.2L17.8004 6.00005H14.4004L13.6004 11.2L12.8004 6.00005H9.90039ZM24.2004 6.00005V14.4H30.6004V12.2H27.3004V11.3H30.2004V9.10005H27.3004V8.20005H30.5004V6.00005H24.2004ZM42.6004 6.00005V8.20005H44.7004V14.3H48.0004V8.20005H50.1004V6.00005H42.6004ZM52.2004 6.00005V14.4H58.7004V12.2H55.4004V11.3H58.3004V9.10005H55.4004V8.20005H58.6004V6.00005H52.2004ZM61.1004 6.00005V14.4H64.3004V11.4H64.7004C65.2004 11.4 65.4004 11.6 65.5004 12C65.6004 12.7 65.7004 13.8 65.9004 14.4H69.1004C68.7004 13.1 68.8004 12 68.6004 11.2C68.4004 10.6 68.0004 10.2 67.2004 10.1C68.4004 9.80005 68.9004 9.10005 68.9004 8.10005C68.9004 6.50005 67.8004 6.00005 66.1004 6.00005H61.1004ZM71.5004 6.00005V14.4H74.2004V9.30005L76.0004 14.4H80.0004V6.00005H77.3004V11L75.5004 6.00005H71.5004ZM89.9004 6.00005V24.3H90.9004V6.00005H89.9004ZM92.9004 6.00005C93.4004 6.00005 93.8004 6.40005 93.8004 7.00005C93.8004 7.50005 93.4004 8.00005 92.9004 8.00005C92.4004 8.00005 92.0004 7.60005 92.0004 7.00005C92.0004 6.50005 92.4004 6.00005 92.9004 6.00005ZM92.5004 6.40005V7.60005H92.7004V7.10005H93.0004L93.3004 7.70005H93.5004L93.1004 7.10005C93.3004 7.10005 93.5004 7.00005 93.5004 6.80005C93.5004 6.60005 93.4004 6.50005 93.1004 6.50005H92.5004V6.40005ZM92.7004 6.50005H93.0004C93.2004 6.50005 93.3004 6.50005 93.3004 6.70005C93.3004 7.00005 93.0004 6.90005 92.9004 6.90005H92.7004V6.50005ZM64.4004 7.90005H64.7004C65.3004 7.90005 65.8004 8.00005 65.8004 8.60005C65.8004 9.20005 65.3004 9.50005 64.7004 9.50005H64.4004V7.90005ZM64.7004 15.8C61.8004 15.8 60.4004 17.6 60.4004 20.2C60.4004 22.8 61.8004 24.6 64.7004 24.6C67.6004 24.6 69.0004 22.8 69.0004 20.2C69.0004 17.6 67.6004 15.8 64.7004 15.8ZM32.7004 16V21.6C32.7004 23.6 34.1004 24.6 36.7004 24.6C39.2004 24.6 40.7004 23.6 40.7004 21.6V16H37.4004V21.4C37.4004 22.1 37.1004 22.3 36.7004 22.3C36.3004 22.3 36.0004 22 36.0004 21.4V16H32.7004ZM43.4004 16V24.4H46.1004V19.3L47.9004 24.4H51.9004V16H49.2004V21.1L47.4004 16H43.4004ZM54.6004 16V24.4H57.9004V16H54.6004ZM71.5004 16V24.4H74.2004V19.3L76.0004 24.4H80.0004V16H77.3004V21.1L75.5004 16H71.5004ZM64.7004 18C65.2004 18 65.6004 18.3 65.6004 20.2C65.6004 22.1 65.2004 22.4 64.7004 22.4C64.2004 22.4 63.8004 22.1 63.8004 20.2C63.8004 18.3 64.2004 18 64.7004 18Z" fill="#FFDF27"/>
</svg>
