<svg width="24" height="24" viewBox="0 0 24 24" fill="none" xmlns="http://www.w3.org/2000/svg">
<path d="M12 2.4375C10.3325 2.43795 8.69422 2.87427 7.24744 3.7032C5.80067 4.53212 4.59573 5.72485 3.7521 7.16309C2.90847 8.60134 2.45547 10.2351 2.43802 11.9025C2.42058 13.5698 2.83929 15.2127 3.65265 16.6683L2.82999 19.5473C2.76565 19.7724 2.76267 20.0106 2.82137 20.2372C2.88007 20.4638 2.99831 20.6706 3.16383 20.8361C3.32936 21.0017 3.53614 21.1199 3.76274 21.1786C3.98935 21.2374 4.22754 21.2344 4.45261 21.1701L7.33177 20.3474C8.6072 21.0606 10.0291 21.4721 11.4883 21.5502C12.9475 21.6282 14.4053 21.3709 15.7495 20.7978C17.0938 20.2248 18.2888 19.3513 19.2429 18.2444C20.197 17.1375 20.8847 15.8267 21.2533 14.4127C21.6218 12.9986 21.6614 11.5189 21.3691 10.0872C21.0767 8.65541 20.46 7.30971 19.5665 6.15339C18.6731 4.99707 17.5264 4.06089 16.2148 3.41674C14.9031 2.77259 13.4613 2.4376 12 2.4375ZM12 20.4375C10.4846 20.4385 8.9971 20.0309 7.69402 19.2575C7.62811 19.2183 7.5549 19.193 7.47888 19.1832C7.40285 19.1733 7.32561 19.1791 7.25189 19.2001L4.14352 20.0882C4.11138 20.0974 4.07737 20.0978 4.04501 20.0894C4.01265 20.0811 3.98312 20.0642 3.95948 20.0406C3.93584 20.0169 3.91895 19.9874 3.91056 19.955C3.90217 19.9227 3.90259 19.8887 3.91177 19.8565L4.79977 16.7481C4.82083 16.6744 4.8266 16.5972 4.81673 16.5212C4.80687 16.4452 4.78157 16.372 4.7424 16.3061C3.79204 14.705 3.39791 12.8345 3.62141 10.9861C3.8449 9.1376 4.67347 7.41495 5.97803 6.08647C7.2826 4.75798 8.98992 3.89826 10.834 3.64123C12.6781 3.3842 14.5554 3.74429 16.1736 4.6654C17.7917 5.58652 19.0597 7.01694 19.7802 8.73384C20.5006 10.4507 20.633 12.3577 20.1567 14.1577C19.6804 15.9576 18.6221 17.5495 17.1468 18.6854C15.6715 19.8213 13.8619 20.4373 12 20.4375ZM16.8285 13.5757L14.9103 12.4794C14.7078 12.364 14.4783 12.3045 14.2452 12.307C14.0121 12.3095 13.7839 12.3739 13.584 12.4937L12.3797 13.2162C11.7035 12.8512 11.1488 12.2964 10.7838 11.6202L11.5064 10.416C11.6262 10.216 11.6906 9.98781 11.6931 9.75472C11.6955 9.52163 11.636 9.29208 11.5204 9.08963L10.4244 7.1715C10.3185 6.98667 10.1657 6.83304 9.98143 6.72612C9.79718 6.6192 9.58799 6.56276 9.37496 6.5625C8.53164 6.56277 7.72277 6.89711 7.12539 7.49235C6.528 8.08759 6.19076 8.89525 6.18746 9.73856C6.18594 10.7983 6.39336 11.8479 6.79786 12.8275C7.20235 13.807 7.79599 14.6971 8.5448 15.447C9.29362 16.1969 10.1829 16.7918 11.1618 17.1977C12.1408 17.6036 13.1901 17.8125 14.2499 17.8125H14.2614C15.1047 17.8092 15.9124 17.472 16.5076 16.8746C17.1029 16.2772 17.4372 15.4683 17.4375 14.625C17.4372 14.412 17.3808 14.2028 17.2739 14.0186C17.1669 13.8343 17.0133 13.6815 16.8285 13.5757ZM14.2598 16.6875H14.25C13.3381 16.6875 12.4352 16.5077 11.5928 16.1585C10.7505 15.8092 9.98529 15.2973 9.34095 14.6521C8.69662 14.0069 8.18581 13.2409 7.83774 12.3981C7.48967 11.5553 7.31118 10.6521 7.31246 9.74025C7.31489 9.19489 7.53328 8.6727 7.91982 8.28798C8.30637 7.90326 8.82959 7.68735 9.37496 7.6875C9.38971 7.68752 9.4042 7.69142 9.41695 7.69883C9.42971 7.70624 9.44029 7.71688 9.44761 7.72969L10.5436 9.64781C10.5601 9.67672 10.5687 9.70949 10.5683 9.74277C10.568 9.77605 10.5588 9.80863 10.5417 9.83719L9.66136 11.3044C9.61472 11.3822 9.58758 11.4701 9.58226 11.5606C9.57693 11.6512 9.59359 11.7417 9.6308 11.8244C10.139 12.9555 11.0445 13.861 12.1756 14.3692C12.2584 14.4064 12.3489 14.423 12.4394 14.4177C12.53 14.4124 12.6179 14.3852 12.6957 14.3385L14.1627 13.4584C14.1913 13.4413 14.2239 13.4321 14.2572 13.4317C14.2905 13.4313 14.3233 13.4398 14.3522 13.4562L16.2704 14.5524C16.2831 14.5598 16.2938 14.5703 16.3011 14.5831C16.3085 14.5958 16.3124 14.6103 16.3125 14.625C16.3126 15.1704 16.0967 15.6936 15.712 16.0801C15.3273 16.4666 14.8051 16.685 14.2598 16.6875Z" fill="#012768"/>
</svg>
