<svg width="24" height="24" viewBox="0 0 24 24" fill="none" xmlns="http://www.w3.org/2000/svg">
<path d="M11.5133 11.468V13.5487H10.8486V8.41026H12.6115C12.8219 8.40589 13.0311 8.44295 13.227 8.5193C13.423 8.59565 13.6017 8.70978 13.753 8.8551C13.9058 8.99159 14.0274 9.15899 14.1097 9.34603C14.1919 9.53308 14.2329 9.73544 14.2298 9.93952C14.2342 10.1447 14.1939 10.3484 14.1116 10.5366C14.0293 10.7249 13.907 10.8932 13.753 11.0301C13.4448 11.322 13.0642 11.4678 12.6115 11.4676H11.5133V11.468ZM11.5133 9.04287V10.8366H12.628C12.7502 10.8402 12.8718 10.8184 12.9851 10.7727C13.0983 10.7269 13.2007 10.6582 13.2857 10.5709C13.3702 10.4893 13.4374 10.3917 13.4833 10.2838C13.5292 10.176 13.5528 10.0601 13.5528 9.943C13.5528 9.82593 13.5292 9.71003 13.4833 9.60219C13.4374 9.49434 13.3702 9.39672 13.2857 9.3151C13.2018 9.22598 13.0997 9.15558 12.9863 9.10857C12.873 9.06157 12.7508 9.03903 12.628 9.04246H11.5133V9.04287Z" fill="#012768"/>
<path d="M15.7611 9.91821C16.2524 9.91821 16.6402 10.0486 16.9245 10.3093C17.2089 10.5701 17.3509 10.9276 17.3506 11.3819V13.5487H16.7148V13.0608H16.6859C16.4107 13.4626 16.0446 13.6635 15.5877 13.6635C15.1977 13.6635 14.8715 13.5487 14.6089 13.3191C14.4829 13.2137 14.3821 13.0817 14.314 12.9328C14.2459 12.7838 14.212 12.6217 14.215 12.4581C14.215 12.0943 14.3535 11.805 14.6303 11.5902C14.9072 11.3753 15.2769 11.2676 15.7393 11.2671C16.1339 11.2671 16.459 11.3388 16.7144 11.4823V11.3314C16.7152 11.2199 16.6909 11.1097 16.6434 11.0086C16.5959 10.9076 16.5264 10.8183 16.4399 10.7472C16.2641 10.5897 16.035 10.5038 15.7983 10.5065C15.427 10.5065 15.1332 10.6621 14.9169 10.9731L14.3314 10.607C14.6535 10.1478 15.13 9.91821 15.7611 9.91821ZM14.9012 12.4724C14.9007 12.5565 14.9205 12.6394 14.9589 12.7142C14.9972 12.7891 15.053 12.8538 15.1216 12.9029C15.2686 13.0178 15.4511 13.0786 15.6381 13.0751C15.9186 13.0747 16.1875 12.9638 16.3858 12.7668C16.606 12.561 16.7161 12.3195 16.7161 12.0424C16.5088 11.8784 16.2198 11.7964 15.8491 11.7964C15.5791 11.7964 15.3539 11.861 15.1737 11.9903C14.9916 12.1215 14.9012 12.281 14.9012 12.4724V12.4724Z" fill="#012768"/>
<path d="M21.0004 10.033L18.7809 15.0984H18.0948L18.9184 13.326L17.459 10.033H18.1815L19.2363 12.5585H19.2507L20.2767 10.033H21.0004Z" fill="#012768"/>
<path d="M8.82708 11.0194C8.82733 10.8183 8.8102 10.6174 8.77588 10.4192H5.97266V11.5561H7.57822C7.54536 11.7377 7.47582 11.9108 7.37379 12.0649C7.27176 12.2191 7.13935 12.3512 6.98454 12.4531V13.1911H7.94276C8.50382 12.6774 8.82708 11.9177 8.82708 11.0194Z" fill="#4285F4"/>
<path d="M5.97225 13.904C6.77441 13.904 7.44983 13.6425 7.94236 13.1915L6.98414 12.4535C6.71744 12.6331 6.37395 12.7356 5.97225 12.7356C5.19692 12.7356 4.53885 12.2165 4.30352 11.5171H3.31641V12.2776C3.56381 12.7665 3.94318 13.1775 4.41216 13.4647C4.88114 13.7519 5.42127 13.904 5.97225 13.904V13.904Z" fill="#34A853"/>
<path d="M4.30364 11.5172C4.17923 11.1507 4.17923 10.7538 4.30364 10.3872V9.62671H3.31652C3.10839 10.038 3 10.4919 3 10.9522C3 11.4125 3.10839 11.8664 3.31652 12.2777L4.30364 11.5172Z" fill="#FBBC04"/>
<path d="M5.97225 9.16866C6.39616 9.16179 6.80576 9.32084 7.11253 9.61145L7.96094 8.76892C7.42296 8.26713 6.71026 7.99163 5.97225 8.00019C5.42127 8.00022 4.88114 8.15232 4.41216 8.43952C3.94318 8.72672 3.56381 9.13772 3.31641 9.62662L4.30352 10.3872C4.53885 9.68771 5.19692 9.16866 5.97225 9.16866Z" fill="#EA4335"/>
<rect x="0.5" y="4.5" width="23" height="14" rx="3.5" stroke="#012768"/>
</svg>
