<svg width="150" height="150" viewBox="0 0 150 150" fill="none" xmlns="http://www.w3.org/2000/svg">
<g clip-path="url(#clip0_1062_36865)">
<path d="M58.2548 114.186C59.4484 114.359 60.6321 114.598 61.7988 114.901C62.7162 115.207 63.5274 115.767 64.1384 116.517C64.7486 117.266 65.1337 118.174 65.2475 119.134C65.3647 120.049 65.2249 120.979 64.8449 121.82C64.4649 122.662 63.8597 123.381 63.0954 123.899C60.6804 125.552 57.8564 126.504 54.9333 126.652C49.8901 127.116 44.804 126.711 39.8981 125.453C36.3541 124.522 32.7196 123.981 29.0583 123.839C26.6058 123.854 24.1608 124.132 21.7659 124.666C16.3679 125.801 10.7452 124.44 6.46292 120.962C4.00121 119.025 2.74228 115.933 3.14985 112.826C3.30303 110.644 5.05748 109.502 6.79271 108.747C10.3953 106.949 14.5589 106.636 18.3892 107.874C19.8825 108.21 21.4068 108.386 22.9379 108.397C23.0098 109.564 22.2607 109.733 21.4521 109.63L21.4512 109.631C20.2317 109.521 19.0255 109.294 17.8487 108.952C14.0569 107.8 9.94946 108.371 6.61624 110.517C5.77834 110.918 5.11039 111.605 4.73286 112.454C4.35533 113.303 4.29173 114.258 4.55541 115.15C5.34391 118.15 7.43241 120.64 10.2498 121.938C14.1413 124.134 18.3149 124.149 22.5361 123.542V123.543C25.3872 122.956 28.2985 122.714 31.2072 122.824C34.1703 123.119 37.111 123.609 40.0088 124.292C46.1436 125.719 52.3469 126.562 58.6165 124.981C60.4003 124.489 62.0149 123.515 63.2839 122.169C65.1296 120.305 63.9058 116.868 61.1854 115.914C60.1156 115.612 59.081 115.197 58.0992 114.677L58.2548 114.186Z" fill="#A87E5C"/>
<path d="M79.9233 112.098C81.3638 110.758 82.4218 110.579 83.6139 111.599L83.6147 111.598C86.1476 113.521 87.7682 116.408 88.0905 119.572C88.3057 121.421 87.6193 123.261 86.244 124.515C84.6368 126.135 82.4931 127.113 80.2155 127.264C77.9387 127.416 75.6844 126.731 73.8765 125.338C73.689 125.206 73.5124 125.06 73.3466 124.902C71.9554 123.214 71.2732 121.051 71.4423 118.871C71.6106 116.689 72.6176 114.659 74.2514 113.204C75.1537 112.54 76.2637 112.221 77.3804 112.307C78.4979 112.392 79.5466 112.875 80.3378 113.668C80.5905 113.95 80.794 114.273 80.9396 114.623C81.0945 114.906 81.0057 115.26 80.7362 115.436C80.4407 115.611 80.2105 115.473 80.0214 115.152C79.6665 114.558 79.1265 114.097 78.4854 113.839C77.8433 113.581 77.1344 113.541 76.4672 113.723C75.5825 113.863 74.7638 114.275 74.1227 114.9C73.4815 115.525 73.0513 116.335 72.8889 117.215C72.0962 121.67 73.7059 125.625 79.1718 126.171V126.17C81.6603 126.344 84.0894 125.357 85.7518 123.497C87.8922 121.338 87.3372 118.152 85.8347 115.628H85.8355C85.181 114.686 84.4494 113.8 83.6475 112.98C82.7033 111.875 81.3497 112.097 79.9234 112.097L79.9233 112.098Z" fill="#A87E5C"/>
<path d="M8.5604 62.3516C9.66028 62.4378 10.7183 62.8119 11.6273 63.4381C12.5363 64.0633 13.2637 64.918 13.7375 65.915C14.5101 67.2526 14.9035 68.7761 14.8742 70.3205C14.8449 71.8648 14.3954 73.3723 13.5726 74.6799C11.3093 78.4593 6.79001 79.8009 2.93523 76.0452C1.26112 74.4397 0.239085 72.2727 0.0648706 69.9599C-0.171186 68.3134 0.242325 66.6402 1.21833 65.2934C2.1935 63.9457 3.65326 63.0301 5.29147 62.7395C6.32943 62.5135 7.41005 62.4825 8.56018 62.3519L8.5604 62.3516ZM1.06468 69.5319C0.787613 73.8628 4.70925 76.3472 7.59033 76.9239C8.20055 76.9866 8.81662 76.892 9.37995 76.6485C14.2057 75.1125 14.4566 68.5491 11.9053 65.5367C9.48538 62.6798 6.57238 63.6148 3.70888 64.6661C1.42288 65.5065 1.26217 67.5414 1.0646 69.5319L1.06468 69.5319Z" fill="#A87E5C"/>
<path d="M80 48.0243C80.0025 45.9158 80.8379 43.8927 82.3237 42.3959C83.8095 40.8992 85.826 40.0497 87.9355 40.0312C90.9095 40.0371 92.735 41.7129 94.4905 43.6473C95.1434 44.6149 95.3794 45.8043 95.1467 46.9477C95.1702 48.498 94.7165 50.018 93.8476 51.302C92.9796 52.5861 91.7374 53.573 90.2894 54.128C88.057 55.2388 85.4285 55.217 83.2145 54.0703C81.2064 52.7126 80.0019 50.4484 80.0002 48.0242L80 48.0243ZM87.4591 53.4877C88.5414 53.553 89.6221 53.3379 90.5973 52.8641C92.8934 51.3725 94.2293 48.7777 94.1097 46.0421C94.108 45.1942 93.7556 44.3839 93.1362 43.8039C91.9074 42.4906 90.2525 41.6544 88.4662 41.4425C87.5036 41.2634 86.5109 41.3513 85.5959 41.6978C84.6801 42.0443 83.8774 42.6353 83.2756 43.4071C82.9592 43.7394 82.6403 44.0717 82.3573 44.4316C80.5828 46.6882 81.1277 49.0681 82.2108 51.3305C83.1525 53.2943 84.9539 53.8484 87.4591 53.4875L87.4591 53.4877Z" fill="#A87E5C"/>
<path d="M47.3133 103.773C46.6604 106.457 44.737 108.653 42.163 109.655C41.1351 109.955 40.0812 110.162 39.0164 110.272C36.0775 110.628 34.2745 108.812 32.8105 106.693C32.3032 105.6 31.0736 105.042 29.9167 105.38C27.8701 105.663 25.8194 104.891 24.4692 103.327C23.1182 101.764 22.6519 99.6233 23.2295 97.6403C23.5995 96.3094 24.2833 95.0873 25.2242 94.0761C25.5833 93.5789 26.1433 93.265 26.7552 93.2173C27.367 93.1696 27.9689 93.3931 28.4008 93.8283C26.7677 94.3247 25.4242 95.4957 24.7102 97.0469C24.2782 97.9032 24.1092 98.8675 24.2238 99.82C24.3385 100.772 24.7311 101.669 25.3539 102.398C25.8259 103.15 26.514 103.742 27.3285 104.095C28.1429 104.447 29.0452 104.546 29.9166 104.376C30.7545 104.275 31.5648 104.018 32.3072 103.617C33.0865 103.187 33.505 103.289 33.6272 104.373H33.6281C33.6657 105.768 34.2893 107.082 35.3457 107.995C36.4012 108.907 37.7932 109.332 39.1786 109.166C41.6002 109.276 43.9004 108.101 45.2313 106.075C45.8666 105.256 46.5622 104.487 47.3131 103.773L47.3133 103.773Z" fill="#A87E5C"/>
<path d="M41.9961 46.8437C42.259 48.7781 41.529 50.715 40.0542 51.9949C39.1752 52.7508 38.0745 53.2019 36.9177 53.2798C35.7609 53.3585 34.6098 53.0597 33.6372 52.4293C32.5247 51.8199 31.6333 50.8749 31.0891 49.7298C30.5442 48.5847 30.3751 47.2965 30.6044 46.0492C30.8899 44.7702 31.5964 43.6243 32.6109 42.7946C33.6254 41.9651 34.8894 41.5005 36.1993 41.4754C36.4286 41.4662 36.6588 41.4579 36.8882 41.462C40.4841 41.5298 42.5014 43.2266 41.9959 46.8434L41.9961 46.8437ZM40.8895 46.7617C40.9322 45.5973 40.9791 44.3233 39.9135 43.626H39.9127C38.452 42.5588 36.5377 42.337 34.8712 43.0409C34.0124 43.3975 33.2758 43.9952 32.7493 44.7611C32.2228 45.5278 31.9298 46.4293 31.9055 47.3593C31.7163 50.202 35.345 52.6378 37.9908 51.6885C40.4467 50.8062 40.8024 48.9186 40.8886 46.7616L40.8895 46.7617Z" fill="#A87E5C"/>
<path d="M32.8979 74.1018C32.024 74.1905 31.1435 74.003 30.3809 73.5653C29.6192 73.1283 29.0123 72.4629 28.6482 71.6635C27.35 69.6562 26.7707 67.2689 27.0034 64.891C27.2369 62.512 28.269 60.283 29.9323 58.5661C34.1719 54.5298 37.794 54.5641 42.2411 57.801H42.2402C43.2146 58.3594 43.7545 59.4509 43.608 60.5643C42.0762 58.9898 40.1843 57.8103 38.0968 57.1265C37.0103 56.759 35.8335 56.7565 34.7451 57.1189C32.1711 57.8807 30.0568 59.7264 28.9545 62.1739C27.8522 64.6215 27.8705 67.4282 29.0055 69.8606C29.4224 71.2685 30.4503 72.4145 31.8054 72.9804C32.2591 73.1537 32.8978 73.2549 32.8978 74.102L32.8979 74.1018Z" fill="#A87E5C"/>
<path d="M122.041 126.699C119.925 126.588 117.906 125.773 116.308 124.382C114.709 122.991 113.622 121.105 113.219 119.025C113.086 118.188 113.226 117.33 113.617 116.579C114.01 115.828 114.634 115.223 115.397 114.853C115.828 114.66 116.334 114.452 116.612 114.95C116.837 115.351 116.379 115.58 116.085 115.824V115.824C115.219 116.398 114.629 117.303 114.454 118.327C114.279 119.352 114.536 120.401 115.163 121.23C116.441 123.362 118.533 124.881 120.956 125.438C122.01 125.702 123.121 125.636 124.137 125.251C125.155 124.866 126.029 124.178 126.644 123.282C127.461 122.166 127.977 120.858 128.142 119.484C128.424 117.6 127.5 116.605 125.566 116.61C125.035 116.658 124.506 116.745 123.987 116.868C123.62 116.923 123.163 117.026 123.066 116.518C122.973 116.032 123.448 115.892 123.782 115.77L123.782 115.771C125.248 115.248 126.873 115.428 128.189 116.259C128.651 116.548 128.959 117.031 129.026 117.572C129.749 121.196 127 127.008 122.04 126.699L122.041 126.699Z" fill="#A87E5C"/>
<path d="M136.441 52.6191C134.783 52.7053 133.162 52.1076 131.955 50.965C130.75 49.8225 130.066 48.2346 130.064 46.5739C130.055 43.399 133.478 39.2798 136.143 39.1928C137.936 39.1225 139.686 39.752 141.023 40.9481C142.361 42.1451 143.18 43.8142 143.308 45.6039C143.31 48.29 140.266 52.9181 136.441 52.6192L136.441 52.6191ZM136.725 51.5635C138.224 51.4522 139.626 50.7775 140.648 49.6743C141.669 48.5711 142.234 47.1213 142.229 45.6179C142.227 44.1966 141.659 42.8339 140.648 41.8327C139.638 40.8324 138.269 40.2767 136.848 40.2892C134.129 40.2993 131.127 43.8382 131.148 47.0081C131.164 49.6063 133.598 51.5943 136.725 51.5634L136.725 51.5635Z" fill="#A87E5C"/>
<path d="M58.1731 37.1897C55.3044 37.4492 51.1828 33.1592 52.9573 29.3357C54.0581 27.2707 56.1751 25.9474 58.5146 25.8619C59.6204 25.7187 60.7436 25.9155 61.7356 26.4244C62.7275 26.9341 63.5411 27.7335 64.0694 28.7153C64.5482 29.7658 64.6042 30.9595 64.2276 32.05C63.9923 33.4856 63.2549 34.7914 62.145 35.7332C61.0359 36.6749 59.628 37.1905 58.1732 37.1897L58.1731 37.1897ZM58.3137 36.0086C59.8982 35.8931 61.3439 35.0644 62.242 33.7543C63.141 32.4452 63.3954 30.7987 62.9334 29.2785C62.7066 28.711 62.3123 28.2263 61.8026 27.8873C59.9342 26.5221 58.3941 26.6209 55.9307 28.2322L55.9315 28.233C55.1639 28.5854 54.5546 29.2099 54.2206 29.9858C53.8874 30.7618 53.8539 31.634 54.126 32.4334C54.3403 33.4044 54.8651 34.2783 55.621 34.9236C56.376 35.5682 57.3219 35.949 58.3137 36.0084V36.0086Z" fill="#A87E5C"/>
<path d="M24.4999 78.733C22.6315 78.4794 20.7297 78.779 19.0306 79.596C17.4319 80.3719 16.2801 81.8417 15.9085 83.5804C15.7185 84.2643 15.9127 84.9976 16.4174 85.4973C17.519 86.7637 18.6556 88.0034 19.8351 89.1971C20.5717 89.7772 21.5519 89.9463 22.4399 89.6458C23.3448 89.5085 24.2488 89.3587 25.1545 89.2256C25.2641 89.1997 25.3788 89.2189 25.4751 89.2783C25.5705 89.3378 25.6383 89.4332 25.6634 89.5429C25.6969 89.655 25.6835 89.7764 25.6274 89.8802C25.5713 89.9831 25.4759 90.0593 25.3629 90.092C23.8797 90.4092 22.3771 90.6294 20.8655 90.7516C19.8217 90.7943 19.132 89.8894 18.4539 89.157C17.6763 88.3166 16.8325 87.5264 16.1336 86.6258C15.2296 85.5745 14.8195 84.1875 15.0045 82.8139C15.1903 81.4403 15.9553 80.2114 17.1055 79.4389C18.3702 78.4277 19.9222 77.8418 21.5392 77.7656C22.3964 77.81 23.1573 77.2198 23.328 76.3786C23.9316 74.6668 24.4756 74.3647 26.2552 74.6325C27.895 74.8016 29.4026 75.6077 30.453 76.8767C29.4201 76.8073 28.4157 76.5051 27.5158 75.992C24.9536 75.1047 24.1342 75.7501 24.5 78.7333L24.4999 78.733Z" fill="#A87E5C"/>
<path d="M63.3049 60.7271C62.9182 60.1813 63.1241 59.5452 63.037 58.9534C62.837 57.8978 62.3414 56.9218 61.6073 56.1374C60.8724 55.354 59.9307 54.7948 58.891 54.5261C58.2875 54.4056 57.6614 54.4608 57.0897 54.6868C56.5172 54.9128 56.0216 55.2996 55.6634 55.8001C54.9284 56.6464 54.381 56.7594 53.4344 55.883C50.5389 53.2044 46.9128 54.5219 46.1202 58.4461C46.0599 58.744 46.0549 59.0521 46.0164 59.3543C46.0088 59.674 45.7602 59.936 45.4413 59.9586C44.9851 59.977 44.8118 59.6205 44.7198 59.2304H44.7189C44.6118 58.4678 44.7432 57.6919 45.0948 57.0072C45.6112 55.3766 46.8618 54.0817 48.4732 53.51C50.0853 52.9375 51.8715 53.1543 53.3004 54.0943C54.0035 54.6693 55.0205 54.6509 55.7019 54.0499C56.6829 53.4414 57.8448 53.1903 58.9899 53.3409C60.135 53.4908 61.1921 54.0332 61.9833 54.8744C63.3192 56.2505 64.682 57.6685 63.9621 59.8767C63.8474 60.2299 63.7662 60.6259 63.305 60.7272L63.3049 60.7271Z" fill="#A87E5C"/>
<path d="M42.6312 91.1364C40.7578 91.894 38.7346 92.2095 36.7199 92.0589C36.185 91.9777 35.697 91.7081 35.3429 91.2996C34.49 90.1738 34.0422 88.7927 34.0706 87.3806C34.0999 85.9676 34.6038 84.6066 35.502 83.5168C36.0712 82.9953 36.6236 82.6395 36.5793 81.6887C36.4847 79.6806 38.0893 79.0092 39.5743 78.4041V78.4033C40.3118 78.071 41.1296 77.958 41.9297 78.0777C42.73 78.1965 43.4783 78.5439 44.0876 79.0763C44.353 79.2956 44.6091 79.6957 44.2458 80.0565H44.245C44.0064 80.2741 43.6381 80.2632 43.4121 80.033C41.9473 78.7348 40.4355 79.1642 38.938 79.9133C37.4188 80.6742 37.3711 81.4058 38.7371 82.5392C39.092 82.8338 39.5449 83.0816 39.3674 83.6207C39.1992 84.1296 38.7279 84.1597 38.2416 84.1882C35.8543 84.3313 35.0215 85.4471 35.2198 88.1735L35.2189 88.1743C35.1913 89.0683 35.5747 89.9254 36.2594 90.5012C36.9441 91.0771 37.8548 91.3073 38.7303 91.1265C40.0152 90.8386 41.3478 90.8419 42.6309 91.1366L42.6312 91.1364Z" fill="#A87E5C"/>
<path d="M140.962 82.5226C140.696 82.2321 140.883 81.9626 140.996 81.6872C141.315 80.9088 141.785 80.0591 140.985 79.3669H140.984C140.18 78.4989 138.934 78.1967 137.821 78.6002C137.317 78.7977 136.725 79.6381 136.252 78.8781C135.784 78.1264 136.74 77.9239 137.187 77.5982L137.187 77.5991C137.936 77.0575 138.464 76.264 138.672 75.3641C139.181 73.2664 138.98 71.0591 138.102 69.0879C137.363 67.3158 135.441 66.8488 133.767 66.447C132.05 65.9473 130.2 66.1942 128.673 67.125C128.352 67.3326 127.931 67.5829 127.654 67.2087C127.266 66.6839 127.793 66.3859 128.142 66.1574C130.298 64.911 132.914 64.7428 135.212 65.7012C139.115 66.9267 140.837 70.6079 139.819 74.9374C139.732 75.3082 139.591 75.6664 139.478 76.0305C139.27 76.6977 139.359 77.2317 140.107 77.4987H140.108C140.32 77.5866 140.522 77.6955 140.712 77.8244C143.049 79.2574 143.119 80.5841 140.962 82.5228L140.962 82.5226Z" fill="#A87E5C"/>
<path d="M85.2975 91.7867C89.9173 90.6098 90.4905 89.854 88.9277 87.2297C88.4096 87.1184 88.1049 87.5587 87.6973 87.7303C87.1415 87.9655 86.6141 88.009 86.2952 87.4406C85.8884 86.7149 86.4183 86.3156 86.9649 85.99L86.9657 85.9892C87.2285 85.8343 87.5089 85.7105 87.8011 85.6226C88.5611 85.3924 89.0382 84.9538 88.7905 84.1176C88.5502 83.3048 88.058 82.7716 87.0912 83.0704C86.8133 83.1558 86.5346 83.3492 86.2425 83.0997C86.1847 82.9675 86.07 82.8302 86.0792 82.7013C86.1362 81.9463 87.5399 81.5386 86.6543 80.54C85.6892 79.7531 84.3398 79.6427 83.26 80.2621C82.1869 80.8455 81.4679 81.9178 81.3356 83.1316C80.3965 83.0219 80.4266 82.4142 80.5522 81.9162C81.1498 79.5372 84.9208 77.8272 86.7757 79.3422H86.7748C88.3167 80.5065 89.3848 82.1898 89.7806 84.0815C89.9723 85.5288 90.3958 86.8707 90.7114 88.2558C91.0337 89.4829 90.4645 90.7702 89.3395 91.358C88.7971 91.8469 88.114 92.1524 87.3883 92.2294C86.6618 92.3064 85.9302 92.1516 85.2974 91.7866L85.2975 91.7867Z" fill="#A87E5C"/>
<path d="M115.574 106.488C115.971 107.314 116.034 108.262 115.751 109.133C115.136 110.871 113.854 112.29 112.187 113.078C110.522 113.866 108.61 113.955 106.877 113.327C105.673 112.671 104.237 112.6 102.975 113.134C102.183 113.513 101.239 113.355 100.613 112.741C98.2731 110.382 97.1464 107.943 99.0968 104.777C99.301 104.445 99.5379 104.047 99.9615 104.236C100.41 104.436 100.248 104.876 100.064 105.211H100.064C99.599 105.916 99.3387 106.736 99.3128 107.58C99.2877 108.423 99.4969 109.258 99.9188 109.99C100.501 111.007 101.082 112.152 102.362 112.129C103.061 112.212 103.762 111.989 104.286 111.518C104.81 111.047 105.106 110.373 105.098 109.668C106.524 112.274 108.441 113.439 111.154 112.555V112.556C112.371 112.04 113.425 111.202 114.204 110.134C114.982 109.065 115.456 107.806 115.574 106.488L115.574 106.488Z" fill="#A87E5C"/>
<path d="M63.8988 107.464C64.0411 108.149 63.9558 108.861 63.6544 109.493C63.3531 110.124 62.8525 110.639 62.2306 110.958C61.2965 111.473 60.2234 111.681 59.1644 111.554C58.1047 111.428 57.1128 110.971 56.326 110.25C55.848 109.767 55.1507 109.573 54.492 109.738C53.5076 109.92 52.4906 109.727 51.6409 109.197C50.7913 108.667 50.171 107.839 49.9024 106.874C49.4621 105.934 49.324 104.881 49.5081 103.86C49.6923 102.839 50.1886 101.901 50.9294 101.174C51.3563 100.704 52.0402 100.566 52.6153 100.836C52.8429 101.575 52.1097 101.639 51.8008 101.979C50.9905 102.861 50.5829 104.04 50.6733 105.235C50.7645 106.429 51.3454 107.532 52.2796 108.283C52.7006 108.718 53.3025 108.926 53.9018 108.845C54.5011 108.764 55.026 108.401 55.3148 107.871C56.0396 106.986 56.5461 107.005 56.803 108.077C56.9462 109.425 58.077 110.45 59.4323 110.463C60.1547 110.591 60.8988 110.473 61.5467 110.129C62.1937 109.785 62.7077 109.233 63.0057 108.563C63.189 108.168 63.3121 107.701 63.8988 107.465V107.464Z" fill="#A87E5C"/>
<path d="M117.742 96.9258C117.753 98.0374 117.008 98.4676 116.588 99.046C116.24 99.5073 116.022 100.052 115.956 100.626C115.891 101.198 115.978 101.779 116.212 102.306C117.766 105.167 120.628 107.079 123.865 107.42C127.547 107.364 129.881 105.31 130.957 101.078C131.857 101.737 131.654 102.529 131.359 103.291C130.739 105.133 129.401 106.646 127.649 107.488C124.731 108.763 121.761 109.039 118.987 106.889H118.986C117.452 105.872 116.175 104.513 115.256 102.918C114.661 101.81 114.596 100.493 115.077 99.3323C115.559 98.1705 116.538 97.2874 117.742 96.9259L117.742 96.9258Z" fill="#A87E5C"/>
<path d="M132.496 102.465C132.736 101.828 133.148 101.825 133.508 101.739C135.855 101.175 135.669 98.933 134.538 97.6156V97.6148C134.435 97.5026 134.322 97.3996 134.201 97.3067C133.759 96.9426 132.871 96.6848 133.285 95.985C133.703 95.2752 134.389 95.9432 134.905 96.1516H134.904C136.141 96.5927 137.493 96.5868 138.726 96.134C139.435 95.9532 140.077 95.5724 140.575 95.0366C141.073 94.5018 141.407 93.8346 141.538 93.1148C141.923 90.9811 141.402 88.783 140.099 87.0494C139.559 86.2182 138.557 86.1563 137.617 85.8248C138.954 84.9317 139.788 85.0338 140.76 86.0776L140.76 86.0768C142.656 88.4523 143.165 91.6482 142.101 94.495C141.727 95.3002 141.133 95.9832 140.388 96.4654C139.643 96.9467 138.776 97.2087 137.888 97.2187C136.643 97.274 136.229 97.5954 136.317 98.9573C136.485 101.592 135.375 102.522 132.496 102.465L132.496 102.465Z" fill="#A87E5C"/>
<path d="M150.035 106.126C149.67 108.133 149.471 110.314 147.25 111.497C146.647 111.833 145.96 111.986 145.272 111.938C144.584 111.891 143.924 111.645 143.374 111.23C143.172 111.11 143.07 110.874 143.122 110.646C143.143 110.492 143.239 110.357 143.377 110.286C143.516 110.214 143.68 110.214 143.818 110.286C145.051 110.847 146.276 111.289 147.416 110.145C148.528 109.048 149.082 107.505 148.923 105.951C148.532 101.904 146.275 100.244 142.167 100.789C141.478 100.899 140.835 101.203 140.313 101.666C139.793 102.129 139.414 102.73 139.224 103.402C139.096 103.747 138.866 104.142 138.391 103.845C138.069 103.643 138.218 103.317 138.309 103.02C138.688 101.575 139.775 100.421 141.196 99.9572C143.212 99.1637 145.491 99.4324 147.268 100.673C149.046 101.913 150.084 103.96 150.035 106.126L150.035 106.126Z" fill="#A87E5C"/>
<path d="M93.0268 74.2994C89.9438 74.8134 88.5578 73.901 88.2313 71.1814V71.1822C88.084 70.2799 88.0128 69.3674 88.0178 68.4535C88.1961 66.7225 89.2307 65.1966 90.7733 64.3904C92.316 63.5843 94.1593 63.6061 95.6826 64.4473C96.2418 64.7813 96.703 65.2568 97.0185 65.826C97.335 66.3951 97.4948 67.038 97.4814 67.6892C97.4873 68.0927 97.1742 68.43 96.7708 68.4535C96.4502 68.4719 96.2962 68.173 96.1982 67.8525C95.4549 65.4192 94.7744 64.8928 92.8961 65.0702C91.1609 65.2342 88.9678 67.2968 89.2582 69.1148V69.114C89.3268 69.7208 89.362 70.3311 89.3636 70.9412C89.3151 71.5992 89.5319 72.2496 89.9655 72.7468C90.3982 73.2448 91.0118 73.5487 91.6706 73.5914C92.1745 73.6625 92.7311 73.701 93.0266 74.2995L93.0268 74.2994Z" fill="#A87E5C"/>
<path d="M80.675 94.2468C81.5472 93.414 82.827 93.1696 83.9437 93.6241C84.9448 94.0861 85.7132 94.9374 86.0689 95.9812C86.4255 97.0242 86.3385 98.1684 85.8279 99.1462C85.6035 99.5463 85.3449 99.9272 85.0536 100.282C84.2718 101.097 83.8934 102.217 84.0215 103.34C84.1605 104.466 83.8784 105.604 83.2297 106.536C82.581 107.467 81.6116 108.126 80.5067 108.387C79.4018 108.647 78.2392 108.489 77.2432 107.945C77.9907 107.414 78.7616 107.766 79.4589 107.682C80.3453 107.65 81.1891 107.293 81.8287 106.68C82.469 106.066 82.8616 105.238 82.9311 104.354C82.983 103.631 82.9562 102.987 82.1476 102.647C81.1172 102.212 81.2854 101.62 82.1392 101.261H82.1384C83.1755 100.76 84.0619 99.9941 84.7098 99.0416C85.3326 98.2473 85.8825 97.3742 85.0764 96.353C84.3055 95.377 83.856 93.908 82.0998 94.4629C81.6227 94.6714 81.0694 94.5868 80.6751 94.247L80.675 94.2468Z" fill="#A87E5C"/>
<path d="M96.5902 108.49C96.4295 109.348 95.8778 109.394 95.5648 109.697H95.5656C94.86 110.568 93.8848 111.182 92.7925 111.439C91.701 111.696 90.5552 111.583 89.5339 111.119C88.3846 110.588 87.4002 109.755 86.6897 108.707C85.9782 107.66 85.5655 106.438 85.4969 105.174C85.3068 103.73 85.4701 102.262 85.9723 100.894C86.549 99.5407 87.7167 98.527 89.138 98.1445C89.3556 98.1202 89.5707 98.2106 89.7055 98.3839C89.7549 98.5957 89.7046 98.8183 89.5707 98.9899C89.4108 99.154 89.2166 99.2821 89.0024 99.3641C86.4854 100.632 86.3036 102.935 86.6092 105.266C86.7816 106.367 87.2412 107.402 87.9418 108.269C88.6424 109.134 89.5598 109.801 90.6002 110.198C91.6055 110.614 92.7506 110.509 93.663 109.915C94.557 109.438 95.2911 108.559 96.5902 108.49L96.5902 108.49Z" fill="#A87E5C"/>
<path d="M123.731 69.873C124.575 67.9394 125.775 66.7048 126.121 65.0015C126.675 62.2751 126.209 60.4346 124.462 59.2702C123.446 58.7378 122.306 58.4867 121.161 58.5419C120.015 58.5972 118.905 58.9571 117.945 59.5841C116.896 60.2855 116.066 61.2674 115.55 62.4191C115.236 62.0993 115.063 61.6674 115.072 61.2187C115.079 60.7709 115.266 60.3449 115.591 60.036C116.676 58.9034 118.06 58.1016 119.582 57.7223C121.104 57.344 122.703 57.4034 124.193 57.8939C125.27 58.3108 126.179 59.0717 126.779 60.0587C127.378 61.0455 127.634 62.2032 127.508 63.3507C127.258 65.9708 125.88 68.3522 123.731 69.8732L123.731 69.873Z" fill="#A87E5C"/>
<path d="M4.82348 54.0007C4.94904 53.0615 5.36757 52.1859 6.01962 51.4987C6.67169 50.8114 7.5238 50.3469 8.45455 50.1719C9.64651 50.1594 11.7743 52.6094 11.7458 53.9614C11.7014 56.0172 10.0541 58.1198 8.50212 58.1005C7.53282 57.8971 6.65307 57.3898 5.99176 56.6524C5.3305 55.9158 4.92117 54.9867 4.82324 54.0006L4.82348 54.0007ZM8.14662 51.8737C7.09193 52.1742 6.32686 53.0874 6.21638 54.1781C6.30259 54.8227 6.583 55.4262 7.01995 55.9075C7.4569 56.3888 8.03026 56.7261 8.66309 56.8743C9.41476 56.8759 10.5498 55.3065 10.5339 54.2878V54.287C10.3238 53.0615 9.37041 52.0972 8.14656 51.8737L8.14662 51.8737Z" fill="#A87E5C"/>
<path d="M101.862 70.9444C101.46 70.8348 101.124 70.5569 100.943 70.1819C100.76 69.8077 100.748 69.3725 100.911 68.9882C101.083 67.9796 101.798 67.1476 102.769 66.8244C104.239 66.518 104.561 65.5897 104.881 64.304V64.3048C105.051 63.1781 105.619 62.1501 106.483 61.4085C107.347 60.666 108.449 60.2592 109.588 60.2617C110.727 60.2642 111.827 60.6761 112.687 61.4219C113.117 61.6697 113.341 62.1627 113.246 62.649C112.538 62.8558 112.165 62.2548 111.673 62.0053H111.672C110.879 61.4679 109.912 61.2537 108.966 61.406C108.021 61.5592 107.169 62.0673 106.586 62.8273C106.004 63.5874 105.733 64.5416 105.83 65.4941C105.816 66.1771 105.887 66.8635 105.937 67.5465C105.987 68.2195 105.809 68.5795 105.033 68.3643C102.581 67.6855 102.208 67.9709 102.144 70.5022C102.141 70.6211 101.998 70.7366 101.862 70.9442L101.862 70.9444Z" fill="#A87E5C"/>
<path d="M81.237 76.7857C82.1293 73.3445 81.3767 70.6417 78.1517 68.9516V68.9525C76.6584 68.1355 74.8881 67.9949 73.2842 68.5641C71.6569 69.1123 71.3573 70.9973 70.0063 72.0404C69.9175 71.0828 70.1419 70.1227 70.6466 69.3034C71.1505 68.4847 71.9072 67.8511 72.8027 67.4995C74.1713 67.019 75.6487 66.9362 77.0634 67.2618C78.4772 67.5874 79.7696 68.3072 80.7909 69.3385C81.7937 70.2936 82.3972 71.5928 82.48 72.9747C82.5629 74.3566 82.1184 75.7187 81.237 76.7858L81.237 76.7857Z" fill="#A87E5C"/>
<path d="M95.0776 127.203C94.1108 127.215 93.1842 126.817 92.5281 126.106C91.8719 125.395 91.5496 124.44 91.64 123.477C91.7488 122.369 92.2828 121.346 93.1282 120.623C93.9745 119.9 95.0677 119.533 96.1792 119.597C97.675 119.61 99.5073 121.747 99.5936 123.578C99.679 125.411 97.4658 127.188 95.0778 127.203L95.0776 127.203ZM95.343 126.178C96.8438 126.241 98.1604 125.185 98.4242 123.706C98.4627 122.228 97.3728 120.705 96.2462 120.661H96.2453C95.4426 120.633 94.6574 120.902 94.0406 121.416C93.4237 121.931 93.0185 122.655 92.9013 123.449C92.8469 124.139 93.0763 124.821 93.5375 125.337C93.9987 125.852 94.6516 126.156 95.343 126.178L95.343 126.178Z" fill="#A87E5C"/>
<path d="M138.429 108.547C139.163 108.461 139.904 108.614 140.543 108.984C141.182 109.355 141.683 109.921 141.973 110.601C142.63 111.876 142.308 113.436 141.201 114.348C139.586 115.894 137.957 117.388 135.428 117.052C134.064 116.721 132.898 115.84 132.207 114.619C131.515 113.397 131.361 111.943 131.781 110.604C131.853 110.447 132.15 110.395 132.496 110.213C132.621 111.187 132.665 112.077 132.856 112.934C133.492 115.791 135.28 116.672 137.957 115.571C138.855 115.147 139.66 114.551 140.329 113.817C141.875 112.309 141.56 110.618 139.565 109.659C139.167 109.466 138.662 109.464 138.429 108.547L138.429 108.547Z" fill="#A87E5C"/>
<path d="M20.2833 53.3113C20.2649 52.46 20.5796 51.6347 21.1597 51.012C21.7406 50.3892 22.5425 50.0176 23.3929 49.9766C24.8879 50.5039 26.1369 51.5611 26.9044 52.9489C26.7931 54.5686 25.8774 56.0244 24.4652 56.8262C23.4122 57.1284 22.2772 56.8873 21.4384 56.1825C20.5997 55.4769 20.167 54.4013 20.2833 53.3115L20.2833 53.3113ZM21.5723 53.3958C21.5916 54.7569 22.4579 55.8183 23.4925 55.7472H23.4934C24.6292 55.4936 25.4747 54.541 25.5919 53.3825C25.6153 52.6259 24.0735 51.2506 23.2414 51.2857C22.2453 51.4891 21.5405 52.3797 21.5723 53.3959L21.5723 53.3958Z" fill="#A87E5C"/>
<path d="M139.31 60.3247C139.298 59.7145 139.448 59.1127 139.745 58.5786C140.041 58.0454 140.473 57.6001 140.997 57.2879C142.396 56.63 144.025 56.6869 145.375 57.4411C146.184 57.8203 146.578 58.7486 146.288 59.594C145.936 61.0982 144.992 62.3964 143.67 63.1942C141.338 64.4481 139.328 63.2553 139.31 60.3247L139.31 60.3247ZM142.885 58.0764C141.482 57.9969 140.678 58.8557 140.559 60.5617C140.474 61.7855 141.088 62.641 142.088 62.6929V62.6937C142.828 62.5388 143.512 62.1873 144.069 61.6758C144.627 61.1652 145.036 60.5132 145.254 59.7891C145.279 58.9445 144.18 58.1502 142.885 58.0765L142.885 58.0764Z" fill="#A87E5C"/>
<path d="M14.6527 99.989C14.5866 100.87 14.1806 101.691 13.5202 102.278C12.8606 102.864 11.9984 103.172 11.1161 103.136C10.3485 103.242 9.57423 103.002 9.00252 102.479C8.43081 101.957 8.1211 101.207 8.15793 100.434C8.0374 99.4793 8.32283 98.5175 8.94393 97.7835C9.56586 97.0494 10.4665 96.6091 11.4284 96.5706C13.4172 96.4182 14.5715 98.4514 14.6527 99.9891L14.6527 99.989ZM13.5017 99.9731C13.4892 98.8707 12.6764 97.9416 11.5857 97.7825C10.305 98.1098 9.41181 99.2674 9.42038 100.589C9.48316 101.531 10.0791 102.015 11.1271 101.975C12.3442 101.93 13.5295 100.931 13.5018 99.9731H13.5017Z" fill="#A87E5C"/>
<path d="M68.0538 72.4633C67.7667 71.8481 67.7332 71.145 67.96 70.5046C68.2203 68.0161 67.7164 67.0015 65.5559 65.8615C64.7356 65.35 63.763 65.1382 62.8028 65.263C61.8435 65.3877 60.9579 65.8414 60.295 66.5462C59.581 67.1564 59.175 68.2303 58.0266 68.2479C57.5804 67.6963 57.9496 67.328 58.2467 67.035C58.7891 66.4993 59.3935 66.0272 59.9786 65.535C63.2272 62.8011 66.6952 64.4209 68.5894 66.8592C69.7546 68.3584 69.5613 70.3396 68.0537 72.4632L68.0538 72.4633Z" fill="#A87E5C"/>
<path d="M103.738 45.1914C105.202 45.3823 106.455 46.3348 107.03 47.6951C107.147 47.9814 107.087 48.3095 106.878 48.5372C106.046 49.6304 105.061 50.5972 103.952 51.4067C103.386 51.8286 102.646 51.9357 101.984 51.6938C101.322 51.4511 100.827 50.8911 100.667 50.2039C100.244 49.1291 100.35 47.9178 100.953 46.9326C101.557 45.9473 102.588 45.3028 103.738 45.1915L103.738 45.1914ZM101.736 48.9691C101.727 49.6261 101.768 50.2665 102.431 50.5586L102.43 50.5595C102.945 50.7553 103.527 50.634 103.919 50.2481C104.246 50.0514 104.542 49.8095 104.799 49.5282C105.114 49.0603 105.973 48.6401 105.504 48.0249C105.031 47.4046 104.724 46.3985 103.804 46.3533L103.804 46.3524C103.098 46.401 102.479 46.8429 102.205 47.4958C101.902 47.9277 101.739 48.4417 101.735 48.9699L101.736 48.9691Z" fill="#A87E5C"/>
<path d="M71.7225 49.7373C72.4516 49.6335 73.1915 49.8394 73.7616 50.3048C74.3324 50.7702 74.6823 51.4532 74.7275 52.1882C74.694 53.2604 74.2688 54.2833 73.533 55.0635C72.7964 55.8436 71.8004 56.3274 70.7315 56.4228C69.0465 56.4095 68.3317 55.482 68.2998 53.2705L68.3006 53.2696C68.3433 52.3656 68.7141 51.5076 69.3444 50.8572C69.9747 50.2068 70.8202 49.8084 71.7226 49.7372L71.7225 49.7373ZM69.5647 53.4112C69.445 54.5245 69.8317 55.1188 70.7575 55.2435L70.7583 55.2444C72.2683 55.2795 73.5457 54.1353 73.6754 52.6303C73.718 51.7614 73.0911 51.003 72.2298 50.88C70.7959 50.8457 69.6039 51.9774 69.5654 53.412L69.5647 53.4112Z" fill="#A87E5C"/>
<path d="M108.547 80.9715C107.63 80.3973 107.298 79.6406 106.537 79.3652C105.082 78.8378 104.052 79.4765 104.174 80.779H104.175C104.213 81.0025 104.225 81.2301 104.209 81.457C104.209 81.7734 103.998 82.0504 103.693 82.1342C103.545 82.181 103.385 82.166 103.248 82.0923C103.112 82.0195 103.011 81.8948 102.967 81.7458C102.919 81.2779 102.645 80.8627 102.235 80.6325C101.824 80.4023 101.327 80.3864 100.902 80.589C99.7529 80.969 99.6039 82.0094 99.6274 83.0273C99.6893 83.6082 99.8048 84.1824 99.9723 84.7424C99.2583 85.1635 99.0523 84.6227 98.8833 84.2603V84.2611C98.4924 83.5722 98.3635 82.7653 98.5225 81.9886C98.6815 81.2127 99.116 80.5204 99.7471 80.0408C100.377 79.562 101.16 79.3268 101.951 79.3812C102.614 79.5461 103.309 79.2808 103.693 78.7158C104.383 77.7021 105.358 77.8017 106.356 78.1483C107.695 78.4011 108.635 79.6123 108.547 80.9717L108.547 80.9715Z" fill="#A87E5C"/>
<path d="M137.694 119.518C138.568 119.643 139.372 120.065 139.973 120.712C140.572 121.36 140.93 122.195 140.986 123.076C140.98 124.367 138.864 126.136 137.243 126.205C136.392 126.209 135.581 125.85 135.01 125.22C134.439 124.59 134.163 123.747 134.25 122.901C134.193 121.976 134.54 121.072 135.2 120.424C135.861 119.775 136.771 119.444 137.694 119.518L137.694 119.518ZM139.916 122.876C139.813 121.7 138.902 120.758 137.73 120.614C137.076 120.617 136.451 120.889 136.002 121.366C135.554 121.842 135.32 122.483 135.356 123.136C135.343 124.173 136.117 125.051 137.148 125.166C137.79 125.122 138.404 124.878 138.9 124.467C139.397 124.056 139.752 123.5 139.916 122.876L139.916 122.876Z" fill="#A87E5C"/>
<path d="M26.525 44.4514C25.7356 44.3225 25.0107 43.9341 24.465 43.3482C23.92 42.7631 23.5844 42.0123 23.5107 41.2154C23.6405 40.4219 24.0372 39.6962 24.6366 39.1588C25.2359 38.6222 26.001 38.3075 26.8036 38.2656C27.9019 38.2924 29.5392 40.2587 29.5349 41.5468H29.5358C29.4571 42.3085 29.1114 43.0175 28.5606 43.549C28.0098 44.0805 27.2891 44.4003 26.5249 44.4513L26.525 44.4514ZM28.2175 41.5963C28.1756 40.6588 27.4708 39.8845 26.5417 39.7548C25.6821 39.8418 25.0208 40.5542 24.9982 41.418C24.9856 42.3655 25.7047 43.1632 26.6488 43.2486C27.5035 43.1524 28.1656 42.4551 28.2175 41.5963Z" fill="#A87E5C"/>
<path d="M97.2925 33.0081C97.2372 33.8745 96.9024 34.699 96.3382 35.3578C95.7732 36.0165 95.0098 36.4744 94.1628 36.6619C92.8511 36.6979 91.301 34.8095 91.2757 33.1069H91.2765C91.1828 32.4925 91.3971 31.8706 91.8499 31.4445C92.9046 30.9138 94.0196 30.5129 95.1714 30.25C96.0821 29.8976 97.2724 31.601 97.2925 33.0081V33.0081ZM94.6006 31.7383C92.9466 31.8974 92.4962 32.2029 92.5481 33.1646C92.6025 34.1825 93.669 35.5134 94.403 35.4783C95.2468 35.4381 96.2153 33.9967 96.1491 32.8331C96.0956 31.8915 95.6519 31.4252 94.6006 31.7391L94.6006 31.7383Z" fill="#A87E5C"/>
<path d="M74.6685 108.807C73.8322 110.305 72.4444 111.418 70.7995 111.907C69.8788 112.19 68.8868 112.129 68.0072 111.735C67.1282 111.341 66.4226 110.641 66.0225 109.765C65.2022 108.277 65.0716 106.506 65.6651 104.915C65.8325 104.325 66.2092 103.816 66.7239 103.482C67.2823 103.147 68.008 102.911 68.388 103.462C68.9011 104.205 67.9444 104.26 67.5811 104.47C65.9614 105.403 66.2025 107.556 66.8913 108.986V108.985C67.1667 109.751 67.7418 110.372 68.4843 110.705C69.2267 111.038 70.073 111.056 70.8281 110.753C71.4986 110.596 72.1239 110.288 72.6579 109.854C73.192 109.29 73.9001 108.922 74.6685 108.807L74.6685 108.807Z" fill="#A87E5C"/>
<path d="M50.1719 67.073C49.4604 67.0939 48.7631 66.8746 48.1914 66.4527C47.2807 66.0392 46.277 65.876 45.2827 65.9815C43.9325 66.0819 42.8769 67.186 42.836 68.5388C42.666 70.4422 43.3708 72.319 44.7511 73.6399C44.2631 73.7654 43.745 73.6909 43.3106 73.4339C42.877 73.177 42.5639 72.7576 42.4392 72.2688C41.9135 70.7461 41.7394 69.1239 41.9286 67.5242C42.0341 66.6336 42.5112 65.8284 43.2411 65.3077C43.971 64.7862 44.8876 64.597 45.7639 64.787C47.3693 65.0624 49.1339 65.1787 50.1717 67.073L50.1719 67.073Z" fill="#A87E5C"/>
<path d="M18.2451 62.2032C18.2727 62.7866 18.0492 63.3541 17.6307 63.7609C17.2113 64.1677 16.638 64.3745 16.0553 64.3293C14.747 64.0455 13.8053 62.8996 13.7803 61.5603C13.9477 60.6337 14.7169 59.9356 15.6553 59.8586C17.018 59.7908 18.1774 60.8404 18.2451 62.2031L18.2451 62.2032Z" fill="#A87E5C"/>
<path d="M69.8472 26.8211C69.8547 27.5903 69.5501 28.3294 69.0018 28.8693C68.4535 29.4092 67.7094 29.7039 66.941 29.6846C65.5314 29.3942 64.6106 28.034 64.8643 26.6178C64.9463 25.281 65.9323 23.9778 66.8439 24.0003C67.5939 24.048 68.3045 24.356 68.8528 24.8708C69.4011 25.3856 69.7526 26.0753 69.8472 26.8212V26.8211ZM66.1122 25.9371C66.1532 27.7301 66.5525 28.3738 67.3762 28.2868C68.2459 28.1947 68.4694 27.5192 68.5623 26.8337C68.6652 26.0686 67.5921 25.0315 66.8095 25.0859C66.0319 25.1403 66.1114 25.7355 66.1131 25.9372L66.1122 25.9371Z" fill="#A87E5C"/>
<path d="M100.256 39.1485C100.053 40.4644 99.0163 41.4947 97.6996 41.6906C96.6984 41.4788 96.0129 40.5555 96.0991 39.5368C96.1502 38.5164 97.5271 37.1261 98.4194 37.1938V37.193C99.4498 37.2616 100.252 38.1154 100.256 39.1483L100.256 39.1485Z" fill="#A87E5C"/>
<path d="M7.79723 95.3871C6.63289 95.1962 5.70209 94.3148 5.4493 93.163C5.2978 92.1351 5.8402 91.5483 7.32347 91.1055C7.68006 90.9992 8.01321 90.8109 8.37145 90.7138V90.7129C9.33657 90.3379 10.4273 90.7698 10.8735 91.704C11.4042 92.5854 11.2074 93.723 10.4131 94.3759C9.73005 95.0791 8.77497 95.4482 7.7973 95.3871L7.79723 95.3871ZM7.9638 94.3106C9.00678 94.3131 10.0556 93.4166 9.9426 92.6859C9.92837 92.377 9.78022 92.0899 9.53664 91.8999C9.29306 91.7091 8.97915 91.6354 8.67615 91.6957C7.84162 91.8187 6.98197 92.1226 6.8564 93.0726C6.80534 93.3907 6.90076 93.7155 7.11504 93.9557C7.33016 94.196 7.64154 94.3257 7.9638 94.3106V94.3106Z" fill="#A87E5C"/>
<path d="M128.153 87.3862C130.591 84.8508 130.83 83.3332 129.108 81.326C127.618 79.5891 126.57 79.4962 124.416 80.9091C124.456 79.5054 124.998 78.8642 126.238 78.7521C128.054 78.5881 130.372 80.4748 131.061 82.6796H131.061C131.26 83.571 131.191 84.501 130.862 85.3532C130.534 86.2053 129.961 86.9411 129.215 87.4684C128.882 87.6777 128.451 87.6451 128.153 87.3864L128.153 87.3862Z" fill="#A87E5C"/>
<path d="M77.7932 118.679C80.1285 118.504 81.9375 119.926 81.9591 121.464C81.9926 122.41 81.4368 123.278 80.5638 123.645C79.5978 124.188 78.3924 124.042 77.5848 123.283C76.8114 122.626 76.464 121.595 76.6825 120.603C76.7235 120.29 76.978 120.047 77.2935 120.023C77.6802 119.995 77.7815 120.303 77.8133 120.619V120.618C77.7849 121.151 77.8895 121.683 78.1172 122.166C78.344 122.525 78.709 122.775 79.1258 122.857C79.5427 122.94 79.9746 122.848 80.322 122.602C80.6727 122.424 80.9112 122.082 80.9564 121.691C81.0025 121.3 80.8493 120.913 80.5488 120.659C80.2073 120.252 79.8239 119.882 79.4062 119.556C78.8881 119.229 78.349 118.936 77.7933 118.679L77.7932 118.679Z" fill="#A87E5C"/>
<path d="M76.4151 90.8298C73.9483 90.8047 72.6493 91.6359 72.3336 93.248C71.9829 95.0401 72.9798 96.3969 75.3103 97.301C73.7868 98.1883 73.1248 98.0192 72.0868 96.479V96.4782C71.3836 95.6026 71.0689 94.4776 71.2145 93.3644C71.361 92.2511 71.9545 91.245 72.8594 90.5796C74.2715 89.4161 75.1102 89.4336 76.4152 90.8299L76.4151 90.8298Z" fill="#A87E5C"/>
<path d="M120.195 90.1056C119.791 90.966 119.019 91.1946 118.387 91.5403C116.856 92.3756 115.869 92.3078 115.058 91.4314C114.555 90.8597 114.221 90.1591 114.094 89.4074C113.969 88.6558 114.055 87.884 114.344 87.1793C114.493 86.9148 114.703 86.6411 115.048 86.7156C115.413 86.7942 115.44 87.1182 115.384 87.4287H115.383C115.276 87.792 115.2 88.1637 115.156 88.5395C115.146 90.5024 116.31 91.2884 118.145 90.5928C118.706 90.3802 119.158 89.9022 119.805 89.903C119.869 89.903 119.931 89.965 120.195 90.1056L120.195 90.1056Z" fill="#A87E5C"/>
<path d="M121.425 77.4225C121.489 76.5679 121.262 75.7166 120.782 75.0068C120.302 74.297 119.596 73.7697 118.779 73.5102C117.158 72.7811 116.576 74.3841 115.693 75.201C115.004 74.9901 115.092 74.5515 115.322 74.107V74.1078C115.664 73.2298 116.401 72.5652 117.31 72.3165C118.219 72.0679 119.192 72.2638 119.933 72.8456C120.437 73.1955 120.902 73.5964 121.322 74.0434C122.541 75.2764 122.56 75.6581 121.425 77.4227L121.425 77.4225Z" fill="#A87E5C"/>
<path d="M57.8553 83.5955C57.6787 82.9359 57.4427 82.2939 57.148 81.6778C56.8484 81.0626 56.2315 80.665 55.5476 80.6449C54.8629 80.6248 54.2242 80.9856 53.8877 81.5816C53.6357 81.8888 53.4709 82.2587 53.0197 82.016C52.6832 81.8101 52.52 81.41 52.6162 81.0274C52.6673 80.8089 52.7619 80.6039 52.8941 80.4231C53.6868 79.2252 55.278 78.8561 56.5177 79.5826C57.3095 79.843 57.9315 80.4624 58.1951 81.2526C58.4588 82.0436 58.3332 82.9125 57.8553 83.5956L57.8553 83.5955Z" fill="#A87E5C"/>
<path d="M105.978 90.46C106.17 90.8844 105.838 91.1681 105.736 91.513V91.5138C105.444 92.2312 105.616 93.0548 106.171 93.5955C106.726 94.1371 107.553 94.2886 108.264 93.9789C109.315 93.619 109.835 93.8994 110.508 94.939C108.571 95.1215 106.832 95.3935 105.299 94.076V94.0769C104.264 93.198 104.118 91.6544 104.971 90.5982C105.082 90.4408 105.253 90.337 105.444 90.3111C105.635 90.2851 105.829 90.3387 105.978 90.4601L105.978 90.46Z" fill="#A87E5C"/>
<path d="M34.7341 117.783C33.985 118.04 33.1764 118.072 32.4087 117.877C31.575 117.786 30.6785 117.632 30.4483 116.63C30.2357 115.651 30.4559 114.627 31.0519 113.822C31.2435 113.568 31.5775 113.467 31.8772 113.573C32.2112 113.688 32.2011 113.944 32.0789 114.291C31.2904 116.536 31.3047 116.534 33.6543 117.148C34 117.238 34.416 117.223 34.7341 117.783L34.7341 117.783Z" fill="#A87E5C"/>
</g>
<defs>
<clipPath id="clip0_1062_36865">
<rect width="150" height="150" fill="white"/>
</clipPath>
</defs>
</svg>
