<svg width="152" height="63" viewBox="0 0 152 63" fill="none" xmlns="http://www.w3.org/2000/svg">
<path d="M3.5 37.875C3.5 34.8203 4.64809 32.127 6.31799 29.583C7.60822 27.6174 9.18573 25.774 10.7644 23.9291C11.24 23.3734 11.7156 22.8176 12.1835 22.2583C14.185 19.8659 16.0396 17.4145 16.9723 14.7305C17.7792 12.4085 17.8908 9.92943 16.8663 7.18908C17.0673 7.3142 17.2874 7.45512 17.5234 7.61184C18.7031 8.39522 20.2758 9.57029 21.8471 11.1355C24.9927 14.2687 28.1 18.9301 28.1 25.125C28.1 28.1808 26.9591 30.8827 25.2988 33.4368C24.0073 35.4236 22.4254 37.2881 20.8432 39.153C20.3808 39.6979 19.9185 40.2428 19.4634 40.7909C17.4702 43.1908 15.6206 45.6455 14.6822 48.3219C13.8707 50.6361 13.7451 53.1012 14.7443 55.8175C14.5405 55.6908 14.3168 55.5476 14.0766 55.3882C12.8969 54.6048 11.3242 53.4297 9.75286 51.8645C6.60735 48.7313 3.5 44.0699 3.5 37.875ZM17.9103 56.5C18.0277 53.65 19.1398 51.1123 20.718 48.708C22.0082 46.7424 23.5857 44.8989 25.1645 43.0541C25.64 42.4984 26.1156 41.9426 26.5835 41.3833C28.585 38.9909 30.4396 36.5395 31.3723 33.8555C32.1792 31.5335 32.2908 29.0544 31.2663 26.3141C31.4673 26.4392 31.6874 26.5801 31.9234 26.7368C33.1031 27.5202 34.6758 28.6953 36.2471 30.2605C39.3927 33.3937 42.5 38.0551 42.5 44.25C42.5 48.9705 41.5514 52.0543 40.3393 53.9407C39.1267 55.828 37.6688 56.5 36.6 56.5H17.9103Z" stroke="#012768"/>
<path d="M3.5 37.875C3.5 34.8203 4.64809 32.127 6.31799 29.583C7.60822 27.6174 9.18573 25.774 10.7644 23.9291C11.24 23.3734 11.7156 22.8176 12.1835 22.2583C14.185 19.8659 16.0396 17.4145 16.9723 14.7305C17.7792 12.4085 17.8908 9.92943 16.8663 7.18908C17.0673 7.3142 17.2874 7.45512 17.5234 7.61184C18.7031 8.39522 20.2758 9.57029 21.8471 11.1355C24.9927 14.2687 28.1 18.9301 28.1 25.125C28.1 28.1808 26.9591 30.8827 25.2988 33.4368C24.0073 35.4236 22.4254 37.2881 20.8432 39.153C20.3808 39.6979 19.9185 40.2428 19.4634 40.7909C17.4702 43.1908 15.6206 45.6455 14.6822 48.3219C13.8707 50.6361 13.7451 53.1012 14.7443 55.8175C14.5405 55.6908 14.3168 55.5476 14.0766 55.3882C12.8969 54.6048 11.3242 53.4297 9.75286 51.8645C6.60735 48.7313 3.5 44.0699 3.5 37.875Z" stroke="#8D6141"/>
<path d="M52.732 41.88C52.732 41.952 52.66 42.024 52.516 42.096C52.348 42.168 52.3 42.144 52.372 42.024L51.76 41.916C51.784 41.892 51.904 41.772 52.12 41.556C52.336 41.34 52.48 41.184 52.552 41.088V41.016H52.84L53.02 40.836L53.128 40.368C53.176 40.416 53.212 40.392 53.236 40.296C53.26 40.2 53.272 40.152 53.272 40.152C53.32 40.104 53.392 40.068 53.488 40.044C53.56 40.044 53.608 40.032 53.632 40.008L53.56 39.9L53.776 39.648V39.54C53.824 39.588 53.86 39.612 53.884 39.612C54.004 39.612 54.148 39.492 54.316 39.252C54.484 39.036 54.544 38.856 54.496 38.712L54.928 38.424L55.072 37.992C55.192 37.944 55.3 37.848 55.396 37.704C55.516 37.536 55.588 37.392 55.612 37.272H55.72L55.936 36.948H56.152L56.368 36.408L56.584 36.48L56.44 36.336H56.62V36.12L56.98 35.688H57.16L57.088 35.652L57.16 35.4L57.628 34.824C57.652 34.848 57.688 34.86 57.736 34.86C57.856 34.86 57.964 34.764 58.06 34.572C58.156 34.356 58.204 34.2 58.204 34.104H58.096C57.856 34.008 57.784 33.948 57.88 33.924L57.448 33.744C57.4 33.792 57.352 33.816 57.304 33.816C57.208 33.816 57.1 33.768 56.98 33.672C56.86 33.576 56.824 33.468 56.872 33.348L56.44 33.456L55.936 33.204V33.096L55.576 32.916V32.736H55.792L55.864 32.628C55.792 32.556 55.732 32.52 55.684 32.52C55.612 32.52 55.564 32.568 55.54 32.664C55.54 32.736 55.528 32.784 55.504 32.808H55.432C55.36 32.76 55.264 32.64 55.144 32.448C55.048 32.256 54.976 32.076 54.928 31.908C54.952 31.884 55.024 31.908 55.144 31.98L54.928 31.404H55C55.12 31.404 55.216 31.356 55.288 31.26C55.384 31.164 55.408 31.068 55.36 30.972H55.936C55.84 31.044 55.84 31.104 55.936 31.152C56.056 31.2 56.128 31.14 56.152 30.972L57.088 31.116H57.232V31.26L57.736 31.188V31.26H57.916V31.332L58.456 31.404C58.432 31.5 58.54 31.56 58.78 31.584C59.02 31.608 59.128 31.716 59.104 31.908L59.5 31.764V31.908L60.148 31.98C60.172 31.908 60.184 31.788 60.184 31.62C60.184 31.452 60.184 31.332 60.184 31.26C60.208 31.164 60.244 31.224 60.292 31.44H60.364V31.188L60.472 31.116L60.652 30.684C60.7 30.732 60.736 30.756 60.76 30.756C60.904 30.756 61.048 30.636 61.192 30.396C61.36 30.132 61.396 29.94 61.3 29.82L61.876 29.028H62.092C62.14 28.932 62.164 28.86 62.164 28.812V28.74C62.164 28.62 62.188 28.524 62.236 28.452C62.284 28.356 62.404 28.284 62.596 28.236L62.74 27.876C62.764 27.852 62.788 27.876 62.812 27.948C62.836 27.996 62.884 27.972 62.956 27.876L63.028 27.372C63.076 27.444 63.136 27.48 63.208 27.48C63.328 27.48 63.46 27.408 63.604 27.264C63.748 27.12 63.868 27 63.964 26.904L63.82 26.256L64.54 25.248L64.828 25.284V24.96L64.72 24.888L65.188 24.24H65.332L65.368 23.448H65.548C65.548 23.424 65.512 23.364 65.44 23.268C65.392 23.148 65.356 23.112 65.332 23.16L65.26 22.656C65.308 22.704 65.332 22.68 65.332 22.584C65.26 22.512 65.236 22.464 65.26 22.44C65.284 22.392 65.284 22.32 65.26 22.224H65.188L65.332 21.792V21.648H65.26C65.236 21.648 65.188 21.636 65.116 21.612C65.068 21.564 65.056 21.528 65.08 21.504C65.224 21.456 65.26 21.384 65.188 21.288C65.14 21.192 65.104 21.144 65.08 21.144V20.64H65.188L65.26 20.1H64.972V19.128C64.996 19.152 65.008 19.164 65.008 19.164C65.032 19.14 65.032 19.116 65.008 19.092H64.972C64.948 19.02 64.936 18.936 64.936 18.84C64.936 18.744 64.924 18.732 64.9 18.804L64.828 17.364L64.9 17.436L65.008 17.256L64.72 16.356H65.008V16.248H64.828C64.78 16.248 64.792 16.224 64.864 16.176C64.96 16.104 65.008 16.068 65.008 16.068L64.972 15.996L64.828 16.068C64.804 16.068 64.768 16.044 64.72 15.996C64.696 15.948 64.696 15.912 64.72 15.888L64.9 15.852H64.72L64.684 15.06C64.684 15.012 64.72 15.036 64.792 15.132C64.864 15.204 64.9 15.228 64.9 15.204L64.828 14.844H64.684L64.828 14.124L64.684 14.052L64.72 13.332C64.696 13.38 64.672 13.356 64.648 13.26C64.648 13.164 64.636 13.14 64.612 13.188V12.468C64.78 12.492 64.84 12.444 64.792 12.324C64.768 12.204 64.732 12.18 64.684 12.252L64.72 11.532H64.828L64.72 10.74C64.768 10.716 64.804 10.74 64.828 10.812C64.876 10.884 64.9 10.908 64.9 10.884L64.972 10.056C65.044 10.032 65.104 9.984 65.152 9.912C65.2 9.816 65.26 9.756 65.332 9.732C65.356 9.708 65.404 9.696 65.476 9.696C65.572 9.696 65.62 9.744 65.62 9.84C65.62 9.912 65.632 9.96 65.656 9.984H65.728C65.824 9.984 65.92 9.972 66.016 9.948C66.112 9.9 66.136 9.852 66.088 9.804H66.556L66.448 9.876C66.496 9.924 66.556 9.948 66.628 9.948C66.676 9.948 66.712 9.948 66.736 9.948C66.784 9.924 66.844 9.936 66.916 9.984V10.056H66.664V10.092L67.276 10.056L67.204 10.128C67.204 10.176 67.264 10.2 67.384 10.2C67.528 10.2 67.624 10.188 67.672 10.164V10.272L67.96 10.452C68.008 10.476 68.08 10.5 68.176 10.524C68.296 10.524 68.368 10.56 68.392 10.632L68.32 10.74L68.464 10.704L68.572 10.812H68.68V10.884L69.112 11.46C69.088 11.412 69.028 11.424 68.932 11.496C68.836 11.544 68.824 11.592 68.896 11.64C69.04 11.688 69.124 11.712 69.148 11.712C69.196 11.712 69.22 11.7 69.22 11.676C69.244 11.652 69.268 11.64 69.292 11.64C69.316 11.64 69.34 11.676 69.364 11.748C69.412 11.82 69.496 11.988 69.616 12.252H69.688C69.712 12.276 69.724 12.372 69.724 12.54C69.748 12.708 69.808 12.78 69.904 12.756L69.76 13.332C69.808 13.308 69.832 13.32 69.832 13.368C69.832 13.392 69.832 13.404 69.832 13.404H70.048L70.12 14.088C70.096 14.04 70.072 14.064 70.048 14.16C70.024 14.232 70.048 14.22 70.12 14.124V14.088C70.096 14.04 70.072 14.064 70.048 14.16C70.024 14.232 70.048 14.244 70.12 14.196V14.916H69.976C70.048 15.06 70.084 15.228 70.084 15.42C70.084 15.732 70.024 16.056 69.904 16.392C69.808 16.704 69.736 16.992 69.688 17.256H69.652C69.532 17.256 69.472 17.34 69.472 17.508C69.472 17.676 69.424 17.688 69.328 17.544L69.472 17.976H69.328C69.304 18.072 69.268 18.168 69.22 18.264C69.196 18.36 69.208 18.432 69.256 18.48L68.968 19.38C68.944 19.308 68.92 19.32 68.896 19.416C68.896 19.512 68.872 19.536 68.824 19.488L68.608 20.136L68.32 20.28C68.32 20.448 68.284 20.616 68.212 20.784C68.164 20.928 68.08 21.168 67.96 21.504L67.744 21.576L67.672 22.08H67.6V21.936H67.456C67.456 21.984 67.48 22.044 67.528 22.116C67.6 22.188 67.648 22.2 67.672 22.152L67.6 22.8H67.456C67.456 22.824 67.48 22.896 67.528 23.016C67.6 23.136 67.648 23.16 67.672 23.088V23.808H67.564L67.672 24.312H67.564C67.564 24.36 67.588 24.42 67.636 24.492C67.684 24.54 67.72 24.588 67.744 24.636V24.96H67.6L67.672 25.464H67.564C67.54 25.488 67.552 25.56 67.6 25.68C67.648 25.8 67.696 25.812 67.744 25.716L67.672 26.652H67.852L67.924 27.552C67.828 27.504 67.78 27.48 67.78 27.48C67.684 27.48 67.636 27.564 67.636 27.732C67.66 27.9 67.672 27.996 67.672 28.02H67.744C67.84 27.948 67.888 27.888 67.888 27.84C67.888 27.792 67.9 27.792 67.924 27.84V28.02C67.924 28.14 67.936 28.236 67.96 28.308C67.984 28.356 67.996 28.404 67.996 28.452C67.996 28.524 67.972 28.584 67.924 28.632C67.876 28.68 67.852 28.752 67.852 28.848H67.924L67.96 28.956V29.1H68.032C68.032 29.34 68.044 29.568 68.068 29.784C68.092 30 68.104 30.216 68.104 30.432C68.104 30.528 68.092 30.636 68.068 30.756C68.068 30.876 68.056 30.996 68.032 31.116H68.248L68.212 31.8C68.212 31.824 68.236 31.932 68.284 32.124C68.356 32.292 68.416 32.364 68.464 32.34V32.808C68.488 32.808 68.5 32.82 68.5 32.844C68.5 32.868 68.488 32.892 68.464 32.916C68.44 32.94 68.428 32.976 68.428 33.024C68.428 33.096 68.488 33.18 68.608 33.276C68.656 33.396 68.716 33.648 68.788 34.032C68.884 34.392 68.92 34.632 68.896 34.752C68.968 34.776 69.1 34.788 69.292 34.788C69.796 34.788 70.372 34.716 71.02 34.572C71.668 34.428 72.136 34.296 72.424 34.176C72.472 34.152 72.532 34.116 72.604 34.068C72.676 34.02 72.688 33.972 72.64 33.924C72.832 33.804 73.084 33.708 73.396 33.636C73.708 33.564 73.912 33.504 74.008 33.456C74.056 33.432 74.08 33.372 74.08 33.276C74.08 33.18 74.092 33.12 74.116 33.096H74.188L74.476 32.7H74.728L74.764 31.908C74.812 31.86 74.872 31.86 74.944 31.908C75.04 31.932 75.1 31.956 75.124 31.98C75.148 31.98 75.16 32.004 75.16 32.052C75.16 32.076 75.172 32.076 75.196 32.052L75.376 32.916H75.304V33.06L75.196 33.276H75.052L75.196 33.456H75.124C75.052 33.624 75.004 33.684 74.98 33.636C74.956 33.564 74.908 33.564 74.836 33.636C74.764 33.708 74.728 33.768 74.728 33.816C74.728 33.864 74.548 33.96 74.188 34.104C74.212 34.128 74.224 34.152 74.224 34.176C74.224 34.224 74.152 34.248 74.008 34.248C73.864 34.224 73.804 34.296 73.828 34.464C73.564 34.704 73.228 34.776 72.82 34.68H72.64V34.644L72.46 34.572L72.28 34.464L72.208 34.536C72.208 34.584 72.244 34.62 72.316 34.644C72.412 34.668 72.496 34.68 72.568 34.68H72.604C72.604 34.704 72.556 34.716 72.46 34.716C72.388 34.716 72.328 34.728 72.28 34.752C72.256 34.776 72.268 34.788 72.316 34.788C72.388 34.788 72.424 34.8 72.424 34.824C72.424 34.848 72.376 34.884 72.28 34.932C72.184 34.98 72.112 35.004 72.064 35.004V34.824H71.812V35.04L70.984 35.112V35.184H70.696V35.112L69.976 35.184C69.976 35.208 69.976 35.232 69.976 35.256C70 35.256 70.012 35.268 70.012 35.292C70.012 35.388 69.952 35.436 69.832 35.436C69.712 35.412 69.616 35.424 69.544 35.472L69.616 35.652C69.568 35.628 69.52 35.616 69.472 35.616C69.376 35.616 69.304 35.676 69.256 35.796C69.232 35.916 69.22 36.036 69.22 36.156C69.22 36.252 69.22 36.348 69.22 36.444C69.244 36.516 69.256 36.576 69.256 36.624H69.4C69.52 37.032 69.592 37.344 69.616 37.56C69.664 37.752 69.712 37.992 69.76 38.28C69.784 38.376 69.844 38.484 69.94 38.604C70.036 38.7 70.096 38.712 70.12 38.64L70.264 39.072V39.36H70.336L70.408 39.72L70.696 40.008C70.672 39.96 70.696 39.996 70.768 40.116C70.864 40.236 70.948 40.368 71.02 40.512C71.092 40.656 71.056 40.764 70.912 40.836L70.264 40.728L69.616 40.152V40.08H69.832V40.008L69.544 40.08V40.008L69.472 39.9C69.52 39.9 69.592 39.888 69.688 39.864C69.808 39.84 69.808 39.768 69.688 39.648L69.112 38.892C69.112 39.012 69.088 39.072 69.04 39.072C69.016 39.072 68.98 39 68.932 38.856C68.884 38.688 68.848 38.592 68.824 38.568H68.896C68.944 38.52 68.944 38.448 68.896 38.352L68.032 36.984C68.008 36.96 67.888 36.864 67.672 36.696C67.48 36.504 67.276 36.288 67.06 36.048C66.868 35.808 66.736 35.616 66.664 35.472H66.196L66.268 35.328C66.148 35.28 66.04 35.268 65.944 35.292C65.872 35.292 65.776 35.256 65.656 35.184C65.632 35.16 65.572 35.16 65.476 35.184C65.404 35.208 65.368 35.244 65.368 35.292L64.612 35.184V35.112L64.36 35.184V35.112H64.18V35.04L63.676 35.184C63.724 35.208 63.748 35.22 63.748 35.22C63.772 35.22 63.784 35.22 63.784 35.22C63.784 35.244 63.712 35.22 63.568 35.148C63.448 35.076 63.364 35.028 63.316 35.004C63.316 34.98 63.292 34.98 63.244 35.004C63.22 35.004 63.22 35.016 63.244 35.04H62.74V35.004L62.452 34.932C62.404 34.932 62.332 34.932 62.236 34.932C62.14 34.932 62.068 34.956 62.02 35.004L61.516 34.824V34.68L60.724 34.752V34.68H60.508C60.412 34.632 60.316 34.572 60.22 34.5C60.148 34.404 60.076 34.356 60.004 34.356C59.98 34.332 59.932 34.344 59.86 34.392C59.788 34.44 59.776 34.5 59.824 34.572L59.284 34.392V34.644L58.816 35.292L58.564 35.184V35.58H58.168C58.144 35.604 58.096 35.652 58.024 35.724C57.976 35.796 57.928 35.808 57.88 35.76C57.928 35.832 57.952 35.904 57.952 35.976C57.952 36.024 57.952 36.072 57.952 36.12C57.952 36.288 57.904 36.42 57.808 36.516C57.712 36.588 57.628 36.732 57.556 36.948C57.46 36.948 57.328 37.032 57.16 37.2C57.016 37.344 56.896 37.5 56.8 37.668C56.704 37.812 56.68 37.896 56.728 37.92V37.992H56.512C56.488 38.016 56.488 38.064 56.512 38.136C56.536 38.184 56.536 38.232 56.512 38.28C56.488 38.304 56.416 38.352 56.296 38.424C56.176 38.496 56.152 38.568 56.224 38.64C56.128 38.76 56.008 38.88 55.864 39C55.72 39.144 55.576 39.24 55.432 39.288C55.456 39.312 55.432 39.324 55.36 39.324C55.312 39.348 55.288 39.384 55.288 39.432C55.24 39.576 55.132 39.72 54.964 39.864C54.796 40.008 54.736 40.152 54.784 40.296C54.664 40.392 54.46 40.56 54.172 40.8C53.884 41.064 53.608 41.304 53.344 41.52C53.056 41.736 52.84 41.844 52.696 41.844L52.732 41.88ZM67.564 19.92V20.1H67.672C67.72 20.004 67.768 19.944 67.816 19.92C67.888 19.896 67.9 19.836 67.852 19.74H67.96L67.924 19.56L68.032 19.452V19.272H68.104V19.128H68.212V18.984H68.248V18.84H68.32L68.392 18.552L68.572 18.48V18.372C68.572 18.012 68.752 17.796 69.112 17.724C69.016 17.58 68.956 17.52 68.932 17.544C68.908 17.544 68.896 17.424 68.896 17.184H68.968L69.112 16.536L69.328 16.5C69.304 16.452 69.28 16.44 69.256 16.464C69.256 16.464 69.244 16.452 69.22 16.428C69.268 16.092 69.304 15.792 69.328 15.528C69.376 15.24 69.4 14.916 69.4 14.556H69.472L69.328 13.908H69.472C69.52 13.86 69.544 13.764 69.544 13.62H69.472V13.764H69.328C69.304 13.644 69.232 13.452 69.112 13.188C69.016 12.924 68.992 12.756 69.04 12.684H68.896V12.54H68.752L68.68 12.324L68.392 12.108V12L68.212 11.892L68.248 11.748C68.248 11.724 68.236 11.724 68.212 11.748C68.188 11.772 68.188 11.796 68.212 11.82C68.068 11.772 67.972 11.748 67.924 11.748V11.82C67.996 11.868 68.032 11.964 68.032 12.108C68.032 12.204 68.02 12.3 67.996 12.396C67.972 12.492 67.96 12.588 67.96 12.684H67.924L67.96 12.828L67.924 12.9H67.96V13.476H67.924V13.98H67.852V14.34H67.744V14.484H67.672C67.744 14.7 67.804 14.916 67.852 15.132C67.804 15.156 67.756 15.132 67.708 15.06C67.684 14.964 67.672 15.012 67.672 15.204C67.792 15.324 67.852 15.456 67.852 15.6C67.852 15.816 67.792 16.056 67.672 16.32C67.576 16.56 67.504 16.752 67.456 16.896H67.6V17.148H67.744L67.672 17.976C67.6 17.976 67.564 17.976 67.564 17.976C67.588 17.952 67.552 17.952 67.456 17.976C67.504 18.024 67.552 18.06 67.6 18.084C67.624 18.156 67.648 18.324 67.672 18.588C67.696 18.828 67.708 19.068 67.708 19.308C67.708 19.692 67.66 19.896 67.564 19.92ZM66.736 34.752C66.784 34.728 66.82 34.728 66.844 34.752C66.868 34.776 66.868 34.8 66.844 34.824H67.024V34.644C67.144 34.668 67.228 34.704 67.276 34.752L67.6 34.644C67.6 34.596 67.588 34.56 67.564 34.536C67.564 34.488 67.564 34.44 67.564 34.392H67.312C67.288 34.272 67.264 34.164 67.24 34.068C67.24 33.972 67.24 33.876 67.24 33.78C67.24 33.636 67.252 33.528 67.276 33.456H67.204V33.276H67.024L66.736 31.764H66.844L66.916 31.44H66.628V31.404H66.916V31.188H66.844V31.332C66.82 31.38 66.796 31.368 66.772 31.296C66.748 31.224 66.736 31.188 66.736 31.188L66.556 31.116C66.556 30.924 66.532 30.732 66.484 30.54C66.436 30.348 66.4 30.156 66.376 29.964H66.556V29.82H66.376V29.532H66.304C66.304 29.532 66.304 29.556 66.304 29.604C66.304 29.652 66.292 29.676 66.268 29.676L66.304 29.028H66.268C66.22 28.932 66.184 28.86 66.16 28.812C66.136 28.764 66.112 28.692 66.088 28.596H66.304L66.268 28.236H66.016C66.016 28.044 65.992 27.852 65.944 27.66C65.92 27.468 65.908 27.276 65.908 27.084L66.016 27.192V26.904H65.98V26.652L65.728 26.58C65.728 26.388 65.716 26.196 65.692 26.004C65.668 25.812 65.644 25.632 65.62 25.464L65.548 25.536L65.26 25.464C65.236 25.536 65.212 25.596 65.188 25.644C65.164 25.692 65.128 25.752 65.08 25.824C65.128 25.824 65.164 25.812 65.188 25.788C65.236 25.764 65.284 25.74 65.332 25.716V25.896H65.188C65.14 25.992 65.068 26.052 64.972 26.076V26.256C64.9 26.256 64.828 26.268 64.756 26.292C64.708 26.316 64.66 26.34 64.612 26.364V26.544H64.72V26.724H64.54C64.54 26.772 64.564 26.844 64.612 26.94H64.468C64.42 27.06 64.372 27.168 64.324 27.264C64.3 27.36 64.216 27.432 64.072 27.48C64.072 27.696 63.988 27.876 63.82 28.02V27.948L63.604 27.732C63.604 27.756 63.58 27.78 63.532 27.804C63.484 27.804 63.46 27.816 63.46 27.84C63.46 27.84 63.484 27.9 63.532 28.02H63.604C63.604 27.9 63.628 27.852 63.676 27.876C63.652 27.9 63.652 27.924 63.676 27.948C63.7 27.972 63.712 27.972 63.712 27.948L63.82 28.092H63.676V28.308L63.46 28.38L63.532 28.524L63.388 28.596C63.34 28.692 63.304 28.776 63.28 28.848C63.256 28.92 63.172 28.98 63.028 29.028V29.244H62.884L62.812 29.604H62.668C62.644 29.748 62.572 29.868 62.452 29.964V30.036C62.38 30.108 62.284 30.084 62.164 29.964C62.14 30.036 62.128 30.108 62.128 30.18C62.128 30.252 62.14 30.324 62.164 30.396H62.02L61.948 30.54H61.804C61.756 30.564 61.768 30.588 61.84 30.612C61.912 30.612 61.948 30.612 61.948 30.612V30.756L61.804 30.684V30.9H61.588L61.444 31.26H61.588L61.372 31.404C61.348 31.428 61.36 31.428 61.408 31.404C61.456 31.38 61.468 31.392 61.444 31.44L61.3 31.692H61.156C61.108 31.74 61.132 31.764 61.228 31.764L61.156 31.98L60.94 31.908V31.98H61.12C61.168 32.004 61.156 32.028 61.084 32.052C61.012 32.052 60.964 32.052 60.94 32.052C60.94 32.076 60.916 32.088 60.868 32.088C60.82 32.088 60.796 32.088 60.796 32.088V32.268C60.7 32.292 60.628 32.34 60.58 32.412C60.844 32.316 61.144 32.376 61.48 32.592C61.84 32.784 62.14 32.916 62.38 32.988V33.276H62.524V33.096C62.572 33.12 62.62 33.144 62.668 33.168C62.74 33.168 62.812 33.18 62.884 33.204V33.384H62.956V33.276L63.892 33.636V33.744L64.468 33.816V34.032C64.54 34.032 64.612 34.032 64.684 34.032C64.756 34.032 64.828 34.02 64.9 33.996C64.9 34.02 64.924 34.08 64.972 34.176C65.284 34.2 65.584 34.26 65.872 34.356C66.16 34.452 66.448 34.524 66.736 34.572V34.752ZM92.4993 42.132L91.5273 42.528L91.3473 42.348C91.3233 42.348 91.3233 42.36 91.3473 42.384C91.3713 42.432 91.3833 42.48 91.3833 42.528L90.8073 42.456L89.2233 41.124C89.1273 40.932 89.0073 40.656 88.8633 40.296C88.7193 39.936 88.5393 39.72 88.3233 39.648L88.3953 39.576L88.1433 39.18C88.1673 39.156 88.1913 39.144 88.2153 39.144C88.2633 39.144 88.2873 39.132 88.2873 39.108L88.0353 39.036L88.0713 38.604L88.1433 38.676C88.1193 38.604 88.0713 38.472 87.9993 38.28C87.9273 38.088 87.8433 37.92 87.7473 37.776C87.6513 37.608 87.5673 37.548 87.4953 37.596C87.4713 37.476 87.4353 37.308 87.3873 37.092C87.3633 36.876 87.2913 36.72 87.1713 36.624C87.2193 36.552 87.2433 36.42 87.2433 36.228C87.2433 35.892 87.1353 35.568 86.9193 35.256C87.0153 35.112 87.0033 34.896 86.8833 34.608C86.7873 34.32 86.6913 34.116 86.5953 33.996L86.7033 33.528L86.4873 33.312L86.3073 31.908C86.3313 31.884 86.3433 31.86 86.3433 31.836H86.3073V31.548C85.9233 32.076 85.4673 32.616 84.9393 33.168C84.4113 33.696 83.9913 34.248 83.6793 34.824L83.4273 34.788C83.3553 34.86 83.2353 35.04 83.0673 35.328C82.8993 35.592 82.7193 35.82 82.5273 36.012C82.3593 36.204 82.1913 36.228 82.0233 36.084L81.3393 36.696L81.4113 36.768C81.2433 36.864 80.9313 37.032 80.4753 37.272C80.0433 37.512 79.6593 37.632 79.3233 37.632C79.1553 37.632 79.0233 37.584 78.9273 37.488L78.5313 37.56V37.668L77.7393 37.596V37.488L76.9473 36.948V37.164L76.3353 36.732C76.3113 36.708 76.3113 36.696 76.3353 36.696C76.3833 36.672 76.4193 36.66 76.4433 36.66L76.1193 36.48L75.8673 35.436C76.0113 35.436 76.0833 35.352 76.0833 35.184C76.0833 35.064 76.0473 34.908 75.9753 34.716C75.9273 34.524 75.8913 34.368 75.8673 34.248H76.0833C75.9873 34.128 75.9753 33.936 76.0473 33.672C76.1193 33.408 76.2273 33.144 76.3713 32.88C76.5153 32.616 76.6353 32.436 76.7313 32.34C76.7553 32.436 76.7913 32.448 76.8393 32.376C76.9113 32.304 76.9113 32.256 76.8393 32.232L77.1273 31.98H77.3073C77.3313 31.884 77.4273 31.704 77.5953 31.44C77.7633 31.152 77.9433 30.912 78.1353 30.72C78.3273 30.528 78.4713 30.54 78.5673 30.756C78.8553 30.204 79.3113 29.844 79.9353 29.676L79.8993 29.532L80.5833 29.424L80.8713 29.172L80.7993 29.064L81.6273 28.956L81.4473 28.812C81.7113 28.788 81.9633 28.74 82.2033 28.668C82.4673 28.572 82.7193 28.536 82.9593 28.56V28.344C83.4393 28.224 83.9193 28.14 84.3993 28.092C84.9033 28.044 85.3953 28.008 85.8753 27.984V27.84L86.0553 27.372H85.8753L85.8033 26.94C85.9473 27.012 86.0313 27.048 86.0553 27.048C86.1033 27.048 86.1273 27.024 86.1273 26.976C86.1273 26.928 86.0913 26.856 86.0193 26.76C85.9713 26.664 85.9233 26.592 85.8753 26.544H86.0553C86.0793 26.496 86.0913 26.448 86.0913 26.4C86.0913 26.304 85.9953 26.304 85.8033 26.4L85.9113 25.824C85.8393 25.536 85.8033 25.224 85.8033 24.888C85.8033 24.336 85.8753 23.832 86.0193 23.376L85.7673 23.592C85.7673 23.16 85.7673 22.728 85.7673 22.296C85.7673 21.84 85.8513 21.408 86.0193 21L85.7673 21.036L85.8033 19.416L86.0193 19.344C85.9953 19.152 85.9593 18.96 85.9113 18.768C85.8873 18.576 85.8753 18.384 85.8753 18.192C85.8753 18 85.8873 17.808 85.9113 17.616C85.9593 17.4 85.9953 17.196 86.0193 17.004L86.2353 16.86L86.0913 16.536H86.2353C86.2593 16.488 86.2593 16.428 86.2353 16.356C86.2113 16.284 86.2113 16.236 86.2353 16.212L86.4513 16.14L86.2713 16.068C86.2473 16.068 86.2233 16.08 86.1993 16.104C86.1993 16.104 86.1753 16.08 86.1273 16.032C86.1753 15.864 86.1993 15.636 86.1993 15.348C86.2233 15.06 86.2713 14.784 86.3433 14.52C86.4153 14.256 86.5353 14.088 86.7033 14.016L86.5953 13.872L87.1353 12.756L87.3873 12.648C87.6033 12.672 87.8193 12.708 88.0353 12.756C88.2513 12.804 88.4433 12.888 88.6113 13.008C88.8513 12.96 89.0793 13.032 89.2953 13.224C89.5353 13.416 89.7513 13.644 89.9433 13.908C90.1353 14.172 90.2673 14.388 90.3393 14.556H90.4473L90.3033 15.06H90.4473V14.844L90.5193 14.916L90.5553 15.528C90.6033 15.552 90.6273 15.528 90.6273 15.456C90.6513 15.36 90.6753 15.312 90.6993 15.312L90.8433 15.564L90.6993 15.852L90.9513 15.888L91.0593 16.284L90.9513 16.176C90.9273 16.176 90.9273 16.224 90.9513 16.32C90.9993 16.392 91.0353 16.452 91.0593 16.5L91.0233 17.364L90.9513 17.184L90.9153 17.328L91.0593 17.472L90.8073 18.48L90.9513 18.552L90.7353 18.696C90.7113 18.72 90.6873 18.732 90.6633 18.732C90.6393 18.732 90.6273 18.732 90.6273 18.732C90.6273 18.756 90.7233 18.828 90.9153 18.948L90.7713 19.776L90.5913 19.812L90.6633 20.028C90.6633 20.052 90.6633 20.04 90.6633 19.992C90.6873 19.944 90.6993 19.932 90.6993 19.956L90.5913 20.676L90.3393 20.748C90.4113 20.82 90.4473 20.916 90.4473 21.036C90.4473 21.228 90.3993 21.468 90.3033 21.756C90.2073 22.044 90.1473 22.26 90.1233 22.404C89.8353 22.452 89.8233 22.476 90.0873 22.476L89.8353 23.376L89.6193 23.592L89.5833 24.132C89.4873 24.18 89.4033 24.228 89.3313 24.276C89.2593 24.324 89.2953 24.348 89.4393 24.348L89.1513 24.78L89.2233 24.96L88.8993 25.896L88.8273 25.788C88.8033 26.052 88.7553 26.256 88.6833 26.4C88.6353 26.52 88.4673 26.64 88.1793 26.76L88.3233 27.408L87.8913 28.164V28.344C88.3953 28.464 88.7673 28.644 89.0073 28.884C89.2713 29.124 89.5833 29.424 89.9433 29.784H90.0153L89.8713 30.252C89.7753 30.012 89.5113 29.808 89.0793 29.64C88.6473 29.448 88.2993 29.34 88.0353 29.316L87.9273 29.748L88.0713 29.82L87.9993 30.288H88.1433L87.9993 30.756L88.1433 30.648C88.1673 30.96 88.2153 31.272 88.2873 31.584C88.3593 31.896 88.4193 32.22 88.4673 32.556L88.2873 32.592L88.3953 32.628C88.6593 33.204 88.8393 33.864 88.9353 34.608C89.0553 35.352 89.2353 36.036 89.4753 36.66C89.3313 36.684 89.2833 36.696 89.3313 36.696C89.3793 36.696 89.4633 36.72 89.5833 36.768L89.6913 37.668L89.9073 37.596L90.3393 38.82H90.4473L90.9513 39.864L90.8073 39.9L90.8433 39.936L91.1673 40.152L91.4553 40.62H91.5993L91.9953 41.16L92.0673 41.052L92.1393 41.232L92.6793 41.052L92.8953 40.692L92.9673 40.764L93.1833 40.512L93.2193 40.44L93.3273 40.62L93.2193 41.232L93.0033 41.16V41.592L92.7873 41.664L92.8593 41.808L92.4633 41.916L92.4993 42.132ZM87.7833 26.796C87.8073 26.796 87.8553 26.7 87.9273 26.508L88.1793 26.436L88.0713 26.328H88.1793L88.0353 26.256V26.04L88.2873 25.932L88.2513 25.644L88.4673 25.428C88.3713 25.02 88.4313 24.696 88.6473 24.456C88.8633 24.216 88.9833 24.012 89.0073 23.844H88.9353L89.0073 23.592L88.9353 23.628C88.9593 23.388 89.0553 23.172 89.2233 22.98V22.836C89.2233 22.548 89.2833 22.248 89.4033 21.936L89.5113 21.9L89.4393 21.612L89.7633 21.432L89.6913 21.216L89.8713 21.144L89.6193 21C89.6913 20.952 89.7153 20.88 89.6913 20.784C89.6913 20.688 89.7393 20.628 89.8353 20.604C89.8593 20.604 89.9073 20.64 89.9793 20.712C90.0513 20.784 90.0633 20.772 90.0153 20.676L89.7273 20.46C89.7513 20.124 89.8473 19.776 90.0153 19.416H90.0873V19.164L89.9433 19.236L90.0153 18.804L90.1593 18.696L90.0873 18.66V17.868H90.2673V17.688C90.1233 17.616 90.0513 17.448 90.0513 17.184C90.0513 16.896 90.0993 16.656 90.1953 16.464C90.0993 16.464 90.0153 16.356 89.9433 16.14C89.8713 15.924 89.8353 15.78 89.8353 15.708C90.0033 15.66 90.0393 15.564 89.9433 15.42L89.7273 15.456L89.4753 15.096L89.6913 14.952L89.6193 14.844C89.4513 14.868 89.2473 14.94 89.0073 15.06V14.916C88.9833 14.916 88.9593 14.988 88.9353 15.132C88.9353 15.276 88.9233 15.372 88.8993 15.42L88.6833 15.528V15.6C88.6833 15.648 88.6593 15.708 88.6113 15.78C88.5873 15.852 88.5873 15.924 88.6113 15.996L88.2873 16.032V16.176L88.5033 16.248H88.4673L88.3953 16.464L88.2873 16.428V16.536C88.2873 16.68 88.2633 16.836 88.2153 17.004C88.1673 17.172 88.1433 17.352 88.1433 17.544L87.9273 17.652L88.0713 17.76C87.9993 17.832 87.9513 17.964 87.9273 18.156C87.9273 18.348 87.9273 18.48 87.9273 18.552L87.7113 18.696C87.7833 18.84 87.8193 19.008 87.8193 19.2C87.8193 19.368 87.7713 19.536 87.6753 19.704L87.8193 20.1H87.6393L87.5673 20.028L87.6753 20.172L87.8193 20.136C87.7713 20.352 87.7473 20.568 87.7473 20.784C87.7713 21 87.7833 21.216 87.7833 21.432L87.5673 21.504L87.7833 21.684L87.6393 21.828H87.7833V21.972L87.6033 22.188L87.7833 22.08V22.404H87.7113L87.6033 22.332L87.5673 22.548L87.7833 22.728C87.7593 22.752 87.7113 22.86 87.6393 23.052C87.5913 23.22 87.6393 23.292 87.7833 23.268V23.556L87.6393 23.592C87.7113 23.616 87.7473 23.664 87.7473 23.736C87.7713 23.808 87.7833 23.868 87.7833 23.916C87.6873 23.94 87.6393 24.084 87.6393 24.348C87.6393 24.444 87.6393 24.552 87.6393 24.672C87.6633 24.768 87.6753 24.84 87.6753 24.888L87.4953 24.96L87.6033 25.068L87.7833 24.924L87.6393 25.392L87.7833 25.428C87.7593 25.452 87.7353 25.56 87.7113 25.752C87.7113 25.92 87.7113 26.1 87.7113 26.292C87.7113 26.628 87.7353 26.796 87.7833 26.796ZM77.9193 36.912C77.9673 36.936 78.0393 36.924 78.1353 36.876C78.2313 36.804 78.2913 36.768 78.3153 36.768L78.2433 36.876C78.3873 36.876 78.5433 36.84 78.7113 36.768C78.8793 36.672 79.0113 36.66 79.1073 36.732C79.1553 36.588 79.2393 36.516 79.3593 36.516C79.5033 36.516 79.6233 36.528 79.7193 36.552L80.8713 35.904L80.9793 36.012L80.9073 35.76C80.9553 35.784 81.0033 35.796 81.0513 35.796C81.1233 35.796 81.1713 35.796 81.1953 35.796V35.616H81.3753C81.3753 35.472 81.4953 35.34 81.7353 35.22C81.9753 35.1 82.1313 34.968 82.2033 34.824L82.3833 34.968V34.896C82.3833 34.824 82.4073 34.764 82.4553 34.716C82.5033 34.644 82.5513 34.572 82.5993 34.5L82.7793 34.572L82.8873 34.392L82.9593 34.464L82.8873 34.248C83.0553 34.176 83.1873 34.056 83.2833 33.888C83.4033 33.696 83.5713 33.612 83.7873 33.636C83.7873 33.372 83.9673 33.084 84.3273 32.772C84.7113 32.436 84.9993 32.208 85.1913 32.088L85.2633 32.16L85.2273 31.692L85.5513 31.584L85.6593 31.152L85.9473 31.008C85.9473 30.888 85.9833 30.768 86.0553 30.648C86.1273 30.528 86.1393 30.408 86.0913 30.288L86.1273 30.252L86.0553 29.64H86.1633L86.0913 29.532L86.0193 29.064H85.6953L85.7673 28.956H85.5513L85.4433 29.028L85.5513 29.1L85.2633 29.172L85.1913 29.064L84.9033 29.1C84.8073 29.316 84.6633 29.424 84.4713 29.424C84.3993 29.424 84.3153 29.412 84.2193 29.388C84.1473 29.364 84.0633 29.34 83.9673 29.316L83.8953 29.568L83.6793 29.496C83.6793 29.688 83.5953 29.784 83.4273 29.784V29.64H83.3913L83.3553 29.856C83.2593 29.88 83.1753 29.904 83.1033 29.928C83.0313 29.952 82.9593 29.976 82.8873 30C82.9353 29.904 82.9113 29.856 82.8153 29.856C82.7433 29.856 82.7193 29.916 82.7433 30.036L82.8873 30.072V30.108C82.6233 30.204 82.3953 30.324 82.2033 30.468C82.0113 30.612 81.7953 30.72 81.5553 30.792L81.4473 30.648L81.3753 30.684L81.4113 30.828L81.2673 30.864V31.08L80.8713 30.972L80.7993 31.332L80.5473 31.44L80.6553 31.116H80.5833L80.4393 31.224C80.4153 31.392 80.3673 31.536 80.2953 31.656C80.2473 31.776 80.1393 31.86 79.9713 31.908L79.8633 31.836V31.98L79.5393 32.088L79.4673 32.34L79.2153 32.304L79.2513 32.52L78.8913 32.916L78.7473 32.772L78.7833 32.916C78.6873 32.916 78.6273 32.952 78.6033 33.024C78.5793 33.096 78.5553 33.168 78.5313 33.24H78.4953L78.4593 33.024C78.4593 33.264 78.3753 33.456 78.2073 33.6C78.0393 33.744 77.8953 33.912 77.7753 34.104L77.5953 33.924V34.284C77.5953 34.38 77.5713 34.464 77.5233 34.536C77.4993 34.608 77.4033 34.68 77.2353 34.752C77.1393 34.92 77.1033 35.112 77.1273 35.328C77.1513 35.544 77.1033 35.736 76.9833 35.904C77.0553 36.048 77.1273 36.168 77.1993 36.264C77.2953 36.336 77.3913 36.432 77.4873 36.552L77.3793 36.588L77.6673 36.624L77.7033 36.732L78.0633 36.768L77.9193 36.912ZM93.3273 40.548V40.62V40.548ZM95.961 41.736C95.505 41.496 95.097 41.16 94.737 40.728L94.881 40.44H94.809L94.665 40.656C94.569 40.248 94.473 39.912 94.377 39.648C94.281 39.408 94.233 39.132 94.233 38.82C94.233 38.7 94.233 38.592 94.233 38.496C94.257 38.376 94.281 38.256 94.305 38.136C94.281 38.088 94.245 38.112 94.197 38.208C94.173 38.28 94.161 38.304 94.161 38.28V38.172C94.161 38.004 94.185 37.86 94.233 37.74C94.305 37.596 94.353 37.44 94.377 37.272C94.329 37.272 94.257 37.296 94.161 37.344L94.089 36.984L94.449 36.912V36.876C94.185 36.588 94.053 36.312 94.053 36.048C94.053 35.904 94.089 35.688 94.161 35.4C94.065 35.304 94.017 35.076 94.017 34.716C94.017 34.38 94.041 34.032 94.089 33.672C94.137 33.312 94.161 33.048 94.161 32.88C94.137 32.856 94.101 32.868 94.053 32.916C94.029 32.964 94.017 33 94.017 33.024C93.993 32.664 93.993 32.292 94.017 31.908C94.041 31.524 94.065 31.164 94.089 30.828L94.305 30.684L94.089 30.18L94.377 30.036C94.185 29.772 94.089 29.436 94.089 29.028C94.089 28.86 94.089 28.704 94.089 28.56C94.113 28.392 94.137 28.248 94.161 28.128L94.377 27.984L94.089 27.696C94.089 27.48 94.089 27.252 94.089 27.012C94.113 26.748 94.113 26.496 94.089 26.256C94.185 26.4 94.233 26.388 94.233 26.22C94.233 26.052 94.185 26.028 94.089 26.148C94.185 25.98 94.221 25.812 94.197 25.644C94.173 25.476 94.209 25.296 94.305 25.104L94.017 24.672L94.233 24.528C93.993 24.528 93.765 24.504 93.549 24.456C93.333 24.408 93.105 24.384 92.865 24.384C93.033 23.976 93.309 23.772 93.693 23.772C93.837 23.772 94.017 23.808 94.233 23.88L94.341 23.736H94.305L94.377 23.7L94.341 23.736L94.449 23.808C94.569 23.712 94.749 23.664 94.989 23.664C95.133 23.664 95.277 23.676 95.421 23.7C95.589 23.724 95.721 23.736 95.817 23.736V23.808C95.817 23.904 95.877 23.976 95.997 24.024C96.141 24.048 96.249 24.072 96.321 24.096C96.393 24.192 96.441 24.312 96.465 24.456C96.489 24.6 96.501 24.744 96.501 24.888C96.501 25.2 96.465 25.512 96.393 25.824C96.345 26.112 96.321 26.388 96.321 26.652L96.249 26.58C96.153 26.58 96.081 26.7 96.033 26.94C96.009 27.156 95.985 27.288 95.961 27.336C96.009 27.312 96.045 27.336 96.069 27.408C96.117 27.456 96.153 27.504 96.177 27.552C96.057 27.72 95.985 27.912 95.961 28.128C95.937 28.344 95.937 28.548 95.961 28.74L95.745 28.884H95.961C95.961 29.268 95.937 29.676 95.889 30.108C95.865 30.516 95.793 30.912 95.673 31.296L95.601 31.512L95.817 31.584C95.793 31.68 95.745 31.776 95.673 31.872C95.625 31.944 95.577 32.04 95.529 32.16H95.601L95.817 31.944V32.304H95.889C95.889 32.064 95.937 31.896 96.033 31.8C96.129 31.68 96.225 31.536 96.321 31.368L96.249 30.936C96.417 30.6 96.513 30.264 96.537 29.928C96.561 29.592 96.657 29.28 96.825 28.992L97.041 28.92C97.017 28.656 97.065 28.284 97.185 27.804C97.305 27.3 97.521 27.012 97.833 26.94C97.881 26.748 97.905 26.568 97.905 26.4C97.929 26.208 97.977 26.028 98.049 25.86L98.337 25.788L98.193 25.644C98.337 25.5 98.541 25.428 98.805 25.428L98.985 25.716L99.201 25.644L99.525 25.788C99.453 25.908 99.453 26.052 99.525 26.22L99.813 26.148L99.993 26.436C99.945 26.484 99.921 26.568 99.921 26.688C99.921 26.808 99.945 26.964 99.993 27.156L99.669 27.336C99.645 27.36 99.669 27.384 99.741 27.408C99.837 27.432 99.897 27.456 99.921 27.48C99.873 27.792 99.813 28.116 99.741 28.452C99.693 28.788 99.597 29.088 99.453 29.352L99.525 30.324L99.273 30.684C99.417 30.828 99.489 31.092 99.489 31.476C99.489 31.644 99.465 31.824 99.417 32.016C99.369 32.208 99.273 32.4 99.129 32.592H99.345L99.381 33.024C99.333 33.096 99.309 33.216 99.309 33.384C99.309 33.552 99.333 33.744 99.381 33.96C99.429 34.152 99.453 34.344 99.453 34.536C99.453 34.608 99.441 34.68 99.417 34.752C99.417 34.824 99.405 34.896 99.381 34.968C99.453 34.944 99.525 35.076 99.597 35.364C99.669 35.652 99.717 35.856 99.741 35.976H99.813C99.837 35.928 99.861 35.856 99.885 35.76C99.933 35.664 99.993 35.64 100.065 35.688L100.281 34.752L100.209 34.824L100.137 34.68L100.713 33.42L100.569 33.276C100.569 33.228 100.593 33.216 100.641 33.24C100.713 33.24 100.761 33.228 100.785 33.204L100.641 33.024C100.689 32.736 100.833 32.52 101.073 32.376L100.929 32.304C101.049 31.944 101.181 31.572 101.325 31.188C101.469 30.78 101.553 30.396 101.577 30.036L102.009 29.892V29.82L101.721 29.64L101.937 29.064C102.129 28.992 102.345 28.884 102.585 28.74C102.825 28.572 103.029 28.548 103.197 28.668L103.377 28.92H103.521C103.641 29.136 103.713 29.352 103.737 29.568L103.521 29.64C103.713 29.664 103.845 29.76 103.917 29.928C103.989 30.096 104.025 30.276 104.025 30.468C104.025 30.564 104.013 30.66 103.989 30.756C103.989 30.852 103.977 30.936 103.953 31.008C104.049 31.272 104.073 31.512 104.025 31.728L104.169 32.304L103.953 32.376C104.073 32.424 104.145 32.508 104.169 32.628C104.193 32.748 104.205 32.88 104.205 33.024C104.205 33.168 104.193 33.324 104.169 33.492C104.145 33.66 104.133 33.816 104.133 33.96C104.133 34.2 104.193 34.368 104.313 34.464C104.265 34.608 104.217 34.716 104.169 34.788C104.145 34.836 104.133 34.884 104.133 34.932C104.133 34.98 104.217 35.04 104.385 35.112H104.313C104.409 35.208 104.481 35.328 104.529 35.472C104.601 35.592 104.601 35.712 104.529 35.832H104.889C105.105 35.64 105.393 35.568 105.753 35.616L105.897 35.544L105.537 35.328C105.585 35.352 105.669 35.328 105.789 35.256C105.909 35.184 105.981 35.136 106.005 35.112C106.101 34.776 106.185 34.524 106.257 34.356C106.329 34.188 106.521 34.02 106.833 33.852L106.905 33.276C107.169 33.012 107.325 32.82 107.373 32.7C107.445 32.556 107.493 32.412 107.517 32.268C107.541 32.124 107.613 31.92 107.733 31.656H107.913L107.841 31.8C107.841 31.8 107.865 31.8 107.913 31.8C107.961 31.776 107.961 31.752 107.913 31.728C107.985 31.608 108.021 31.5 108.021 31.404C108.045 31.308 108.129 31.248 108.273 31.224L108.417 31.512C108.321 31.824 108.201 32.136 108.057 32.448C107.913 32.736 107.781 33.036 107.661 33.348H107.373L107.589 33.564C107.541 33.588 107.433 33.708 107.265 33.924C107.121 34.116 106.977 34.332 106.833 34.572C106.713 34.788 106.629 34.944 106.581 35.04L106.761 35.328C106.665 35.4 106.581 35.484 106.509 35.58C106.461 35.676 106.413 35.784 106.365 35.904H106.077L106.005 36.336H105.969L105.897 36.048V36.588H105.861C105.837 36.588 105.777 36.612 105.681 36.66C105.585 36.708 105.513 36.756 105.465 36.804H105.501L105.537 36.876C105.441 36.972 105.297 37.044 105.105 37.092C104.937 37.14 104.757 37.164 104.565 37.164C104.325 37.164 104.121 37.104 103.953 36.984L104.169 36.876C104.145 36.828 104.085 36.804 103.989 36.804C103.917 36.804 103.845 36.816 103.773 36.84C103.701 36.864 103.641 36.888 103.593 36.912C103.569 36.792 103.485 36.696 103.341 36.624C103.197 36.528 103.101 36.408 103.053 36.264L103.305 36.192L102.981 36.12C102.957 36 102.897 35.808 102.801 35.544C102.729 35.28 102.669 35.016 102.621 34.752C102.573 34.488 102.573 34.308 102.621 34.212C102.525 34.164 102.477 34.092 102.477 33.996C102.501 33.876 102.525 33.78 102.549 33.708H102.369L102.477 32.952C102.405 33.072 102.369 33.048 102.369 32.88C102.369 32.712 102.405 32.688 102.477 32.808L102.153 32.088L102.297 32.016C102.153 31.968 102.069 31.872 102.045 31.728C102.021 31.56 101.985 31.416 101.937 31.296C101.793 31.416 101.697 31.548 101.649 31.692C101.601 31.836 101.457 31.92 101.217 31.944C101.169 31.992 101.181 32.052 101.253 32.124C101.325 32.196 101.385 32.208 101.433 32.16L101.289 32.736C101.241 32.712 101.205 32.748 101.181 32.844C101.157 32.94 101.145 33 101.145 33.024C101.169 33.048 101.205 33.06 101.253 33.06C101.301 33.06 101.313 33.084 101.289 33.132C101.073 33.372 100.929 33.684 100.857 34.068L101.073 34.14C100.953 34.284 100.845 34.536 100.749 34.896C100.677 35.256 100.617 35.628 100.569 36.012C100.545 36.396 100.521 36.696 100.497 36.912L100.137 37.128L100.425 37.2C100.449 37.512 100.365 37.8 100.173 38.064C100.005 38.304 99.741 38.424 99.381 38.424C99.357 38.376 99.297 38.364 99.201 38.388C99.105 38.412 99.057 38.424 99.057 38.424L98.985 38.208L98.913 38.352C98.889 38.136 98.829 38.004 98.733 37.956C98.661 37.884 98.577 37.824 98.481 37.776C98.409 37.704 98.373 37.56 98.373 37.344C98.373 37.152 98.409 36.9 98.481 36.588L98.265 36.66L98.337 36.264L98.049 36.192L98.121 35.76C98.025 35.664 97.977 35.472 97.977 35.184C97.977 34.872 97.977 34.656 97.977 34.536H97.941C97.869 34.536 97.833 34.464 97.833 34.32C97.833 34.2 97.845 34.08 97.869 33.96C97.917 33.816 97.929 33.732 97.905 33.708L97.689 33.564L97.617 32.52L97.761 32.232L97.545 31.008C97.617 31.056 97.689 31.056 97.761 31.008C97.833 30.936 97.857 30.876 97.833 30.828C97.665 30.756 97.581 30.636 97.581 30.468C97.581 30.42 97.593 30.36 97.617 30.288C97.641 30.216 97.665 30.156 97.689 30.108C97.665 29.964 97.629 29.82 97.581 29.676C97.557 29.508 97.545 29.352 97.545 29.208L97.329 29.064C97.233 29.088 97.221 29.148 97.293 29.244C97.365 29.34 97.425 29.352 97.473 29.28L97.401 29.64C97.329 29.616 97.269 29.652 97.221 29.748C97.197 29.844 97.185 29.916 97.185 29.964L97.257 29.892L97.329 30.036C97.089 30.348 96.897 30.768 96.753 31.296C96.633 31.8 96.537 32.328 96.465 32.88C96.393 33.408 96.333 33.888 96.285 34.32C96.237 34.728 96.153 35.016 96.033 35.184L95.961 35.076V35.256C96.033 35.28 96.069 35.376 96.069 35.544C96.069 35.784 96.009 36.072 95.889 36.408C95.793 36.72 95.721 36.936 95.673 37.056L95.889 37.128C95.889 37.2 95.877 37.272 95.853 37.344C95.853 37.416 95.853 37.488 95.853 37.56C95.853 37.776 95.865 38.004 95.889 38.244C95.913 38.46 95.925 38.676 95.925 38.892C95.925 39.012 95.913 39.132 95.889 39.252C95.889 39.372 95.865 39.48 95.817 39.576L96.105 40.296L95.961 40.728L96.249 41.016L96.393 41.736H95.961ZM112.668 27.264C112.452 27.264 112.212 27.18 111.948 27.012L111.84 26.976H111.768C111.744 26.952 111.72 26.94 111.696 26.94C111.696 26.892 111.708 26.856 111.732 26.832H111.552L111.588 26.4C111.732 26.4 111.816 26.364 111.84 26.292L111.768 26.256H111.876V26.148C111.876 26.004 111.912 25.896 111.984 25.824C112.056 25.728 112.14 25.632 112.236 25.536C112.284 25.56 112.332 25.572 112.38 25.572C112.452 25.572 112.5 25.596 112.524 25.644C112.5 25.5 112.5 25.368 112.524 25.248L112.632 25.284C112.68 25.092 112.788 24.972 112.956 24.924C113.148 24.852 113.316 24.78 113.46 24.708L113.496 24.924L113.568 24.888V24.78H113.748C113.796 24.636 113.88 24.564 114 24.564L114.036 24.708C114.132 24.612 114.24 24.564 114.36 24.564C114.552 24.636 114.588 24.756 114.468 24.924C114.42 24.948 114.372 25.02 114.324 25.14C114.276 25.02 114.216 24.948 114.144 24.924L114.108 25.176L114.072 25.032H114.036L114.108 25.32C114.036 25.344 113.988 25.38 113.964 25.428C113.94 25.476 113.904 25.524 113.856 25.572C113.808 25.62 113.76 25.632 113.712 25.608C113.664 25.584 113.616 25.608 113.568 25.68C113.616 25.656 113.688 25.656 113.784 25.68C113.712 25.68 113.664 25.692 113.64 25.716L113.784 25.752C113.688 25.848 113.616 25.968 113.568 26.112C113.52 26.232 113.472 26.352 113.424 26.472H113.244V26.688L113.352 26.724C113.28 26.796 113.196 26.832 113.1 26.832L113.136 27.012C113.112 27.06 113.052 27.12 112.956 27.192C112.884 27.24 112.788 27.264 112.668 27.264ZM110.436 38.136C110.316 38.136 110.232 38.076 110.184 37.956L110.04 38.064L109.896 37.956L110.04 37.776L109.968 37.632H109.896V37.776L109.716 37.74L109.644 37.524C109.644 37.524 109.656 37.524 109.68 37.524C109.728 37.5 109.74 37.476 109.716 37.452H109.536C109.536 37.404 109.536 37.356 109.536 37.308C109.56 37.236 109.596 37.188 109.644 37.164C109.524 37.068 109.464 36.84 109.464 36.48C109.464 36.096 109.464 35.856 109.464 35.76L109.536 35.436H109.68L109.536 34.86C109.536 34.836 109.572 34.848 109.644 34.896C109.716 34.92 109.752 34.932 109.752 34.932V34.752C109.728 34.704 109.68 34.656 109.608 34.608C109.56 34.536 109.536 34.464 109.536 34.392L109.572 34.356C109.668 34.14 109.728 33.912 109.752 33.672C109.8 33.432 109.848 33.204 109.896 32.988L109.788 32.916L109.824 32.556C109.848 32.508 109.872 32.508 109.896 32.556C109.92 32.58 109.932 32.592 109.932 32.592H110.076C110.052 32.544 110.016 32.496 109.968 32.448C109.944 32.376 109.932 32.292 109.932 32.196L110.04 32.088C109.992 32.064 109.968 32.004 109.968 31.908C109.968 31.812 109.98 31.728 110.004 31.656C110.028 31.56 110.052 31.5 110.076 31.476L110.04 31.368C110.16 31.32 110.208 31.212 110.184 31.044C110.184 30.852 110.196 30.684 110.22 30.54C110.268 30.372 110.424 30.3 110.688 30.324C110.664 30.276 110.64 30.228 110.616 30.18C110.592 30.132 110.556 30.096 110.508 30.072H110.436V29.82L110.76 29.46L110.688 29.316L110.796 29.244V29.208C110.796 29.088 110.844 29.004 110.94 28.956C111.036 28.884 111.132 28.836 111.228 28.812L111.192 28.704H111.336L111.372 28.848L111.336 28.884H111.444C111.444 28.788 111.444 28.74 111.444 28.74C111.444 28.74 111.528 28.728 111.696 28.704L111.804 28.992C112.14 29.088 112.356 29.232 112.452 29.424C112.572 29.616 112.68 29.856 112.776 30.144L112.884 30.072V30.144C112.884 30.336 112.8 30.48 112.632 30.576L112.596 30.54C112.62 30.612 112.632 30.672 112.632 30.72C112.632 30.768 112.572 30.816 112.452 30.864C112.428 31.008 112.392 31.164 112.344 31.332C112.296 31.5 112.248 31.656 112.2 31.8C112.2 31.752 112.176 31.752 112.128 31.8C112.08 31.824 112.08 31.86 112.128 31.908L111.984 31.98H112.092C112.044 32.196 111.96 32.412 111.84 32.628C111.72 32.844 111.672 33.06 111.696 33.276H111.48L111.516 33.528L111.588 33.492C111.564 33.564 111.54 33.636 111.516 33.708C111.492 33.756 111.48 33.828 111.48 33.924H111.372L111.48 33.996H111.444L111.48 34.068L111.372 34.392H111.228L111.3 34.68C111.252 34.728 111.18 34.716 111.084 34.644C111.084 34.788 111.144 34.908 111.264 35.004L111.12 35.616H110.976L111.048 35.724L111.12 35.652L111.048 36.48V36.516H111.3L111.336 36.732C111.456 36.684 111.588 36.648 111.732 36.624C111.876 36.6 112.008 36.564 112.128 36.516L112.2 36.372L112.416 36.408V36.264L112.344 36.228L112.596 36.048V36.084L112.632 35.976L112.74 36.012C112.74 35.94 112.764 35.892 112.812 35.868C112.86 35.82 112.896 35.748 112.92 35.652L113.064 35.76L113.388 35.4C113.388 35.4 113.352 35.376 113.28 35.328L113.352 35.148L113.568 35.076C113.544 35.052 113.532 35.016 113.532 34.968C113.532 34.92 113.556 34.884 113.604 34.86C113.676 34.812 113.724 34.752 113.748 34.68C113.724 34.68 113.712 34.668 113.712 34.644C113.712 34.596 113.724 34.572 113.748 34.572L114 34.536C114.024 34.44 114.036 34.356 114.036 34.284C114.036 34.188 114.048 34.092 114.072 33.996C114.096 33.972 114.108 33.984 114.108 34.032C114.132 34.056 114.144 34.08 114.144 34.104C114.192 34.152 114.24 34.152 114.288 34.104V33.996L114.396 33.96L114.18 33.888L114.36 33.852H114.288V33.708C114.408 33.636 114.492 33.516 114.54 33.348C114.612 33.156 114.66 33 114.684 32.88L114.792 32.916V32.7L114.9 32.664C114.828 32.664 114.816 32.64 114.864 32.592H115.008C114.984 32.328 115.044 32.112 115.188 31.944C115.332 31.752 115.428 31.548 115.476 31.332H115.62V31.188H115.944C115.944 31.332 115.92 31.404 115.872 31.404C115.848 31.404 115.812 31.452 115.764 31.548L115.908 31.908L115.836 32.016L115.692 31.944L115.764 32.16L115.656 32.088L115.692 32.376L115.62 32.34C115.596 32.436 115.536 32.64 115.44 32.952C115.368 33.24 115.272 33.42 115.152 33.492L115.008 33.456C115.008 33.504 115.02 33.552 115.044 33.6C115.068 33.648 115.092 33.696 115.116 33.744L114.936 34.104L114.792 34.032C114.816 34.248 114.744 34.488 114.576 34.752C114.408 34.992 114.264 35.208 114.144 35.4H113.928C113.928 35.496 113.916 35.58 113.892 35.652C113.868 35.724 113.856 35.82 113.856 35.94L113.604 36.048L113.748 36.084L113.496 36.192V36.228C113.496 36.324 113.46 36.42 113.388 36.516C113.34 36.588 113.304 36.648 113.28 36.696L113.064 36.66V36.912H112.884C112.884 37.032 112.836 37.128 112.74 37.2C112.74 37.176 112.716 37.164 112.668 37.164C112.644 37.14 112.62 37.14 112.596 37.164C112.644 37.212 112.644 37.272 112.596 37.344C112.548 37.392 112.5 37.428 112.452 37.452L112.344 37.416V37.56C112.128 37.776 111.828 37.908 111.444 37.956L111.408 38.028L111.228 38.1V37.956C111.084 37.98 110.976 38.016 110.904 38.064C110.856 38.112 110.736 38.136 110.544 38.136L110.508 38.028H110.472L110.436 38.136ZM111.228 34.032L111.372 34.104L111.444 33.996L111.228 34.032ZM124.241 37.056H123.449L123.377 36.84C123.257 36.84 123.125 36.852 122.981 36.876C122.837 36.876 122.705 36.864 122.585 36.84C122.465 36.552 122.297 36.324 122.081 36.156C121.889 35.964 121.769 35.688 121.721 35.328L121.865 35.4C121.745 35.088 121.661 34.776 121.613 34.464C121.565 34.152 121.529 33.84 121.505 33.528C121.433 33.456 121.385 33.372 121.361 33.276C121.361 33.156 121.361 33.048 121.361 32.952C121.361 32.928 121.349 32.916 121.325 32.916C121.325 32.916 121.325 32.904 121.325 32.88C121.325 32.784 121.361 32.676 121.433 32.556C121.505 32.412 121.505 32.256 121.433 32.088H121.289C121.289 32.016 121.277 31.908 121.253 31.764C121.253 31.596 121.253 31.428 121.253 31.26C121.253 31.068 121.265 30.876 121.289 30.684C121.313 30.468 121.337 30.312 121.361 30.216L121.577 30.072V30.036C121.577 29.94 121.517 29.868 121.397 29.82C121.301 29.772 121.289 29.664 121.361 29.496C121.409 29.4 121.433 29.22 121.433 28.956C121.457 28.692 121.469 28.44 121.469 28.2C121.469 28.056 121.469 27.924 121.469 27.804C121.469 27.684 121.457 27.6 121.433 27.552C121.145 27.624 120.845 27.6 120.533 27.48C120.245 27.336 119.969 27.24 119.705 27.192C119.681 27.36 119.621 27.468 119.525 27.516C119.429 27.54 119.321 27.6 119.201 27.696H119.345L119.273 28.128H119.345L119.417 28.344C119.321 28.416 119.225 28.488 119.129 28.56C119.033 28.632 119.057 28.728 119.201 28.848L118.985 29.136L119.057 29.28C118.985 29.4 118.913 29.496 118.841 29.568C118.793 29.616 118.769 29.688 118.769 29.784C118.769 29.904 118.793 30 118.841 30.072C118.817 30.096 118.769 30.096 118.697 30.072C118.649 30.024 118.625 29.976 118.625 29.928C118.601 30.096 118.577 30.252 118.553 30.396C118.529 30.54 118.529 30.696 118.553 30.864L118.337 30.936L118.409 31.08L117.977 31.368C118.049 31.584 118.085 31.728 118.085 31.8C118.085 31.92 118.049 32.088 117.977 32.304L117.617 32.376L117.761 32.664L117.473 32.88L117.545 33.096C117.473 33.264 117.401 33.408 117.329 33.528H117.185L117.113 33.24H117.041V33.384L117.113 33.672C117.089 33.696 117.041 33.72 116.969 33.744C116.897 33.744 116.873 33.768 116.897 33.816L117.113 33.888C116.969 33.912 116.885 33.948 116.861 33.996C116.861 34.044 116.801 34.08 116.681 34.104C116.681 33.984 116.657 33.9 116.609 33.852C116.561 33.78 116.513 33.696 116.465 33.6C116.513 33.552 116.585 33.42 116.681 33.204C116.801 32.988 116.897 32.76 116.969 32.52C117.065 32.256 117.113 32.088 117.113 32.016L117.401 31.872V31.368H117.617L117.473 31.26C117.593 31.212 117.677 31.032 117.725 30.72C117.773 30.408 117.881 30.168 118.049 30L118.121 30.216C118.121 29.424 118.337 28.728 118.769 28.128L118.625 27.984C118.745 27.864 118.829 27.684 118.877 27.444C118.925 27.204 118.961 27 118.985 26.832C118.769 26.76 118.673 26.676 118.697 26.58C118.721 26.484 118.697 26.352 118.625 26.184L118.553 26.256C118.385 26.016 118.301 25.8 118.301 25.608C118.301 25.488 118.325 25.368 118.373 25.248C118.421 25.104 118.469 24.948 118.517 24.78C118.445 24.66 118.409 24.528 118.409 24.384C118.409 24.24 118.433 24.096 118.481 23.952H118.625L118.697 23.376C118.745 23.328 118.781 23.316 118.805 23.34C118.829 23.34 118.865 23.304 118.913 23.232V23.124C119.153 22.452 119.357 22.092 119.525 22.044C119.693 21.996 119.801 21.936 119.849 21.864C119.873 21.888 119.921 21.9 119.993 21.9C120.041 21.9 120.077 21.888 120.101 21.864C120.149 21.816 120.221 21.78 120.317 21.756L120.425 21.72C120.473 21.696 120.473 21.732 120.425 21.828C120.401 21.9 120.401 21.936 120.425 21.936L120.569 21.72L120.785 22.008C120.689 22.128 120.641 22.272 120.641 22.44H120.857L120.713 23.34L120.497 23.376C120.617 23.424 120.677 23.496 120.677 23.592C120.677 23.688 120.641 23.784 120.569 23.88C120.497 23.976 120.425 24.048 120.353 24.096L120.497 24.24L120.137 24.312V24.384L120.425 24.456H120.281L120.137 24.6L119.993 25.32C119.921 25.296 119.897 25.344 119.921 25.464C119.969 25.584 119.897 25.8 119.705 26.112V26.256L119.777 26.4C119.825 26.52 119.933 26.568 120.101 26.544C120.293 26.52 120.449 26.52 120.569 26.544C120.977 26.136 121.313 25.8 121.577 25.536C121.841 25.272 122.129 25.08 122.441 24.96C122.777 24.816 123.257 24.744 123.881 24.744V24.78C123.881 24.828 123.869 24.888 123.845 24.96C123.821 25.008 123.809 25.056 123.809 25.104H124.241V25.248L124.025 25.32C124.049 25.368 124.061 25.428 124.061 25.5C124.061 25.572 124.073 25.632 124.097 25.68L123.881 25.752C123.929 25.8 123.953 25.872 123.953 25.968C123.953 26.04 123.929 26.112 123.881 26.184C123.857 26.256 123.857 26.328 123.881 26.4L123.665 26.472C123.785 26.568 123.833 26.652 123.809 26.724C123.809 26.796 123.809 26.916 123.809 27.084L123.593 27.12C123.641 27.192 123.689 27.324 123.737 27.516L123.449 27.552V27.768H123.665V28.2L123.449 28.272L123.593 28.416L123.377 28.488C123.401 28.512 123.461 28.56 123.557 28.632C123.653 28.68 123.641 28.704 123.521 28.704C123.449 28.776 123.437 28.812 123.485 28.812C123.533 28.812 123.569 28.872 123.593 28.992L123.305 29.208C123.473 29.256 123.545 29.328 123.521 29.424C123.521 29.52 123.521 29.64 123.521 29.784L123.233 29.856C123.401 29.952 123.485 30.06 123.485 30.18C123.485 30.3 123.449 30.432 123.377 30.576C123.305 30.696 123.257 30.816 123.233 30.936C123.305 30.936 123.341 30.996 123.341 31.116C123.365 31.212 123.377 31.272 123.377 31.296C123.473 31.392 123.521 31.536 123.521 31.728H123.233C123.257 31.776 123.305 31.824 123.377 31.872C123.473 31.896 123.545 31.92 123.593 31.944C123.593 32.064 123.593 32.196 123.593 32.34C123.617 32.484 123.629 32.616 123.629 32.736C123.629 32.928 123.605 33.12 123.557 33.312C123.509 33.504 123.425 33.696 123.305 33.888H123.809C123.809 34.056 123.845 34.236 123.917 34.428C124.013 34.596 124.097 34.752 124.169 34.896L123.953 35.04C124.073 35.04 124.145 35.052 124.169 35.076C124.217 35.1 124.289 35.148 124.385 35.22L124.169 35.4C124.289 35.4 124.385 35.412 124.457 35.436C124.529 35.436 124.625 35.424 124.745 35.4L124.673 35.616H124.889V35.4C124.937 35.4 125.021 35.412 125.141 35.436C125.261 35.436 125.321 35.4 125.321 35.328C125.225 35.328 125.165 35.316 125.141 35.292C125.117 35.268 125.153 35.256 125.249 35.256C125.513 34.848 125.801 34.476 126.113 34.14C126.425 33.804 126.641 33.384 126.761 32.88L127.121 32.952C127.073 32.736 127.085 32.472 127.157 32.16C127.253 31.848 127.397 31.572 127.589 31.332C127.805 31.092 128.033 30.96 128.273 30.936C128.273 30.936 128.285 30.948 128.309 30.972C128.357 30.996 128.381 31.044 128.381 31.116C128.381 31.188 128.345 31.296 128.273 31.44C128.201 31.464 128.153 31.488 128.129 31.512C128.105 31.536 128.069 31.572 128.021 31.62C128.021 31.692 128.021 31.764 128.021 31.836C128.021 31.908 128.033 31.968 128.057 32.016L127.841 32.088L127.913 32.232C127.817 32.328 127.757 32.364 127.733 32.34C127.733 32.316 127.721 32.4 127.697 32.592C127.673 33.072 127.493 33.528 127.157 33.96C126.821 34.392 126.569 34.752 126.401 35.04V35.256C126.305 35.424 126.161 35.544 125.969 35.616V35.904C125.897 35.928 125.813 35.952 125.717 35.976C125.645 36 125.657 36.048 125.753 36.12C125.561 36.12 125.417 36.156 125.321 36.228C125.249 36.276 125.153 36.36 125.033 36.48L125.177 36.624C125.081 36.648 124.973 36.672 124.853 36.696C124.757 36.696 124.649 36.696 124.529 36.696L124.241 37.056ZM137.282 37.524C137.114 37.548 136.91 37.476 136.67 37.308C136.43 37.116 136.262 36.96 136.166 36.84L136.202 36.516C136.178 36.516 136.154 36.528 136.13 36.552C136.106 36.576 136.082 36.588 136.058 36.588L136.202 35.688C136.25 35.688 136.262 35.628 136.238 35.508C136.238 35.388 136.238 35.316 136.238 35.292L136.202 35.256L136.238 34.644H136.382L136.202 34.464L136.274 33.924L136.346 33.888L136.274 33.78L136.346 33.384L136.49 33.312C136.49 33.264 136.466 33.216 136.418 33.168C136.394 33.096 136.382 33.036 136.382 32.988C136.382 32.892 136.466 32.76 136.634 32.592L136.49 32.52L136.706 32.34L136.526 32.268C136.646 32.172 136.67 32.088 136.598 32.016C136.55 31.92 136.562 31.824 136.634 31.728L136.886 31.368L136.706 31.188L136.742 30.972C136.862 30.972 136.922 30.936 136.922 30.864C136.922 30.816 136.91 30.756 136.886 30.684C136.862 30.612 136.85 30.54 136.85 30.468H136.886L136.922 30.54L137.03 29.82L137.102 29.784V29.244H137.282L137.174 28.848L137.138 28.884L136.382 30.108L136.166 30.144L135.878 30.54L136.058 30.612L135.95 30.792H135.662C135.71 30.888 135.734 30.96 135.734 31.008C135.734 31.104 135.674 31.188 135.554 31.26C135.434 31.308 135.35 31.344 135.302 31.368L135.374 31.584L135.086 32.052L134.906 31.98C134.906 31.98 134.894 32.004 134.87 32.052C134.87 32.1 134.846 32.124 134.798 32.124L134.618 32.052L134.546 32.34L134.726 32.376C134.63 32.472 134.558 32.556 134.51 32.628C134.462 32.7 134.342 32.736 134.15 32.736C134.126 32.808 134.15 32.88 134.222 32.952C134.03 33.216 133.814 33.48 133.574 33.744C133.358 34.008 133.118 34.236 132.854 34.428H132.746L132.458 34.716L132.314 34.644L132.242 34.896L131.558 35.184L131.486 35.364L131.234 35.292L131.09 35.508H130.946C130.37 35.508 129.89 35.352 129.506 35.04C129.434 34.896 129.398 34.728 129.398 34.536C129.35 34.536 129.314 34.56 129.29 34.608C129.266 34.632 129.242 34.656 129.218 34.68L129.002 33.78L129.11 33.564L129.038 33.492L129.074 33.204H129.182L129.47 31.908C129.494 31.908 129.506 31.92 129.506 31.944C129.53 31.968 129.554 31.98 129.578 31.98C129.626 31.98 129.65 31.944 129.65 31.872C129.65 31.8 129.638 31.752 129.614 31.728L129.542 31.764C129.59 31.404 129.77 31.14 130.082 30.972C130.034 30.924 130.01 30.864 130.01 30.792C130.01 30.72 130.022 30.66 130.046 30.612C130.094 30.54 130.13 30.468 130.154 30.396L130.262 30.432V30.396L130.226 30.324L130.37 30.252C130.394 30.252 130.382 30.216 130.334 30.144C130.31 30.072 130.346 30.084 130.442 30.18V29.928H130.658C130.73 29.832 130.79 29.724 130.838 29.604C130.886 29.484 130.934 29.364 130.982 29.244H131.342L131.234 28.992L131.414 28.776L131.63 28.848L131.738 28.38L132.314 27.948L132.134 27.84L132.35 27.768L132.386 27.984C132.386 27.72 132.494 27.528 132.71 27.408H132.746L132.782 27.588L132.818 27.516L132.782 27.336L133.178 27.048L133.214 27.192C133.238 26.952 133.37 26.772 133.61 26.652C133.85 26.508 134.102 26.376 134.366 26.256C134.63 26.136 134.774 26.004 134.798 25.86L135.086 25.896C135.11 25.872 135.122 25.836 135.122 25.788C135.146 25.716 135.134 25.68 135.086 25.68C135.326 25.656 135.602 25.572 135.914 25.428H136.274L136.094 25.32L136.13 25.284C136.562 25.164 137.006 25.104 137.462 25.104C137.774 25.104 138.062 25.2 138.326 25.392L139.046 25.68C139.07 25.704 139.046 25.716 138.974 25.716C138.926 25.716 138.902 25.74 138.902 25.788C138.902 25.812 138.938 25.848 139.01 25.896C139.082 25.92 139.142 25.932 139.19 25.932L139.226 25.824C139.25 25.824 139.262 25.872 139.262 25.968C139.286 26.04 139.31 26.052 139.334 26.004L139.622 26.292H139.478L139.406 27.336H139.262L139.19 27.516L139.298 27.768C139.298 27.792 139.286 27.84 139.262 27.912C139.238 27.96 139.226 27.948 139.226 27.876V27.804L139.118 27.84C139.142 27.888 139.154 27.96 139.154 28.056C139.154 28.128 139.142 28.212 139.118 28.308C139.118 28.38 139.106 28.464 139.082 28.56C138.986 28.56 138.926 28.572 138.902 28.596L138.794 28.884C138.77 28.98 138.782 29.04 138.83 29.064C138.878 29.064 138.902 29.076 138.902 29.1L138.83 29.244C138.83 29.34 138.83 29.436 138.83 29.532C138.854 29.628 138.854 29.736 138.83 29.856H138.542L138.146 29.892C138.242 30.036 138.35 30.156 138.47 30.252C138.59 30.324 138.65 30.36 138.65 30.36C138.698 30.408 138.71 30.456 138.686 30.504C138.638 30.624 138.59 30.744 138.542 30.864C138.494 30.984 138.446 31.104 138.398 31.224L138.506 31.26C138.53 31.284 138.518 31.296 138.47 31.296C138.446 31.296 138.446 31.308 138.47 31.332L138.506 31.368C138.53 31.392 138.542 31.428 138.542 31.476C138.542 31.572 138.506 31.668 138.434 31.764C138.362 31.86 138.302 31.968 138.254 32.088H138.362C138.362 32.28 138.35 32.544 138.326 32.88C138.302 33.192 138.23 33.42 138.11 33.564H138.074V33.384H137.894L138.146 33.744C138.05 34.056 137.99 34.392 137.966 34.752C137.942 35.088 137.906 35.424 137.858 35.76L138.11 36.084H138.146V35.832L138.362 35.688H138.542L138.614 35.94L138.686 35.508C138.686 35.484 138.686 35.472 138.686 35.472C138.71 35.472 138.722 35.472 138.722 35.472H138.794C138.842 35.304 138.854 35.184 138.83 35.112C138.974 34.92 139.142 34.668 139.334 34.356C139.55 34.02 139.754 33.696 139.946 33.384C140.138 33.048 140.258 32.784 140.306 32.592C140.354 32.592 140.39 32.616 140.414 32.664C140.438 32.712 140.462 32.736 140.486 32.736C140.51 32.736 140.51 32.688 140.486 32.592C140.486 32.472 140.462 32.424 140.414 32.448C140.486 32.352 140.534 32.244 140.558 32.124C140.582 31.98 140.642 31.908 140.738 31.908C140.858 31.908 140.918 31.944 140.918 32.016C140.918 32.064 140.906 32.124 140.882 32.196C140.858 32.244 140.846 32.292 140.846 32.34L140.81 33.096L140.594 33.276L140.666 33.312H140.702L140.594 33.384L140.702 33.492H140.594C140.594 33.612 140.57 33.732 140.522 33.852C140.498 33.972 140.462 34.092 140.414 34.212L140.198 34.284L140.27 34.428L140.09 34.68L139.874 34.716L139.406 35.904L139.19 35.868L139.226 36.156L138.29 37.236L138.11 37.2L138.074 37.416L137.93 37.524H137.282ZM130.766 34.284H130.838L131.63 33.888C131.678 33.936 131.69 33.96 131.666 33.96C131.642 33.96 131.63 33.96 131.63 33.96C131.63 34.032 131.654 34.092 131.702 34.14C131.75 34.164 131.786 34.176 131.81 34.176L131.738 33.816C131.786 33.672 131.882 33.636 132.026 33.708L131.99 33.78L132.242 33.672H132.062C132.038 33.6 132.062 33.564 132.134 33.564L132.71 33.42C132.734 33.396 132.698 33.384 132.602 33.384C132.506 33.36 132.458 33.336 132.458 33.312L132.674 33.204C132.866 33.108 133.022 33 133.142 32.88C133.262 32.76 133.322 32.7 133.322 32.7C133.37 32.772 133.442 32.808 133.538 32.808H133.574V32.34L133.826 32.088L133.97 32.124L133.934 31.944L134.222 31.836C134.27 31.62 134.378 31.464 134.546 31.368C134.714 31.248 134.846 31.116 134.942 30.972H134.87C134.918 30.852 135.014 30.78 135.158 30.756C135.302 30.708 135.386 30.612 135.41 30.468L135.338 30.324L135.734 30L135.662 29.964C135.71 29.916 135.734 29.868 135.734 29.82C135.758 29.748 135.818 29.724 135.914 29.748L136.094 29.784V29.424L136.238 29.172H136.526C136.574 29.028 136.526 28.956 136.382 28.956L136.886 28.272L137.102 28.38V28.308L136.886 28.236L137.03 28.02L137.174 27.984L137.21 27.948C137.138 27.948 137.114 27.924 137.138 27.876C137.162 27.804 137.21 27.78 137.282 27.804L137.318 27.516L137.498 27.444H137.426L137.498 27.264H137.75L137.678 26.724L137.75 26.652L137.642 26.544C137.594 26.712 137.474 26.808 137.282 26.832C137.09 26.856 136.922 26.868 136.778 26.868C136.826 26.892 136.838 26.94 136.814 27.012C136.79 27.06 136.754 27.072 136.706 27.048L136.49 26.94H136.382L136.49 27.192L136.166 27.12L136.238 27.264H136.058V27.408L135.734 27.624C135.71 27.624 135.602 27.612 135.41 27.588C135.242 27.564 135.206 27.6 135.302 27.696H135.374C135.374 27.816 135.338 27.864 135.266 27.84C135.194 27.816 135.146 27.804 135.122 27.804L135.194 27.84C134.738 28.056 134.33 28.368 133.97 28.776C134.018 28.8 134.006 28.836 133.934 28.884C133.886 28.932 133.838 28.92 133.79 28.848V29.064L133.718 28.992C133.718 29.112 133.646 29.22 133.502 29.316C133.358 29.388 133.226 29.448 133.106 29.496C133.034 29.64 132.95 29.784 132.854 29.928C132.758 30.072 132.65 30.18 132.53 30.252L132.458 30.216L132.062 30.468V30.576C132.062 30.816 131.99 31.032 131.846 31.224C131.726 31.392 131.594 31.572 131.45 31.764L131.342 31.656L131.234 32.124H130.982V32.592H130.658C130.634 32.592 130.634 32.616 130.658 32.664C130.682 32.712 130.718 32.748 130.766 32.772C130.742 32.964 130.682 33.156 130.586 33.348C130.514 33.516 130.466 33.696 130.442 33.888H130.622C130.574 34.08 130.646 34.164 130.838 34.14L130.766 34.284ZM130.838 32.808C130.838 32.832 130.814 32.82 130.766 32.772V32.736L130.838 32.772V32.808ZM147.495 40.116C147.495 40.044 147.459 39.972 147.387 39.9C147.315 39.852 147.255 39.852 147.207 39.9C147.111 39.996 146.979 40.044 146.811 40.044C146.499 40.044 146.151 39.912 145.767 39.648C145.407 39.408 145.143 39.204 144.975 39.036H144.831L144.759 38.784H144.543C144.399 38.616 144.219 38.364 144.003 38.028C143.811 37.668 143.631 37.296 143.463 36.912C143.319 36.504 143.247 36.156 143.247 35.868C143.247 35.676 143.271 35.544 143.319 35.472C143.151 35.376 143.031 35.208 142.959 34.968C142.911 34.728 142.887 34.464 142.887 34.176C142.887 33.768 142.911 33.42 142.959 33.132L142.851 32.988V30.54C142.899 30.516 142.947 30.468 142.995 30.396C143.067 30.324 143.139 30.336 143.211 30.432L142.923 29.928C142.971 29.928 143.031 29.904 143.103 29.856C143.175 29.808 143.211 29.76 143.211 29.712C143.091 29.592 143.031 29.4 143.031 29.136C143.031 29.088 143.031 29.028 143.031 28.956C143.031 28.884 143.043 28.824 143.067 28.776L143.247 28.632C143.127 28.536 143.067 28.392 143.067 28.2C143.067 28.056 143.079 27.9 143.103 27.732C143.151 27.564 143.187 27.432 143.211 27.336C143.211 27.264 143.295 27.24 143.463 27.264C143.631 27.264 143.679 27.192 143.607 27.048L143.427 26.184L143.679 26.04C143.583 25.92 143.535 25.776 143.535 25.608C143.535 25.488 143.535 25.38 143.535 25.284C143.559 25.164 143.583 25.056 143.607 24.96H143.679L143.967 25.284C143.991 25.26 144.003 25.224 144.003 25.176C144.003 25.104 143.955 25.056 143.859 25.032C143.763 24.984 143.703 24.912 143.679 24.816C143.847 24.768 143.907 24.612 143.859 24.348C143.811 24.06 143.895 23.844 144.111 23.7L144.039 23.124C144.087 23.124 144.147 23.112 144.219 23.088C144.291 23.04 144.327 22.98 144.327 22.908L144.111 22.692C144.255 22.548 144.375 22.26 144.471 21.828C144.591 21.372 144.699 20.916 144.795 20.46C144.891 19.98 144.975 19.632 145.047 19.416C145.095 19.368 145.131 19.392 145.155 19.488C145.179 19.56 145.191 19.596 145.191 19.596C145.215 19.644 145.239 19.62 145.263 19.524C145.311 19.428 145.311 19.368 145.263 19.344H145.047L145.335 18.84L145.191 18.624C145.287 18.216 145.419 17.82 145.587 17.436C145.779 17.052 145.887 16.656 145.911 16.248C145.935 16.248 145.995 16.212 146.091 16.14C146.211 16.044 146.271 15.996 146.271 15.996L146.127 15.816C146.127 15.648 146.211 15.336 146.379 14.88C146.571 14.4 146.763 13.932 146.955 13.476C147.171 13.02 147.303 12.708 147.351 12.54L148.071 12.468L148.251 12.828L148.431 12.612C148.551 12.684 148.659 12.78 148.755 12.9C148.851 12.996 148.911 13.116 148.935 13.26L149.295 13.404L149.187 13.62C149.571 13.74 149.823 14.064 149.943 14.592C150.087 15.096 150.159 15.636 150.159 16.212C150.183 16.764 150.195 17.208 150.195 17.544C150.099 17.544 150.003 17.52 149.907 17.472C149.955 17.616 149.991 17.748 150.015 17.868C150.039 17.988 150.051 18.12 150.051 18.264L149.691 18.624C149.835 18.744 149.907 18.9 149.907 19.092C149.907 19.284 149.835 19.488 149.691 19.704C149.571 19.92 149.451 20.124 149.331 20.316L149.475 20.46L149.115 21.684L148.827 21.864C148.803 21.888 148.791 21.924 148.791 21.972C148.791 22.14 148.839 22.236 148.935 22.26L148.575 22.548L148.755 22.764C148.611 22.956 148.479 23.172 148.359 23.412C148.263 23.628 148.167 23.844 148.071 24.06V23.988C148.047 23.988 147.999 24.108 147.927 24.348C147.855 24.588 147.795 24.78 147.747 24.924H147.531L147.387 25.464C147.291 25.392 147.219 25.392 147.171 25.464C147.147 25.512 147.219 25.536 147.387 25.536L147.243 25.896L146.883 26.04C147.003 26.208 146.955 26.448 146.739 26.76C146.547 27.072 146.391 27.288 146.271 27.408L146.127 27.336V27.408L145.911 27.768C145.959 27.792 145.995 27.78 146.019 27.732C146.067 27.66 146.103 27.624 146.127 27.624C146.151 27.624 146.151 27.66 146.127 27.732C146.103 27.78 146.079 27.792 146.055 27.768L145.767 27.984V28.128C145.767 28.296 145.719 28.404 145.623 28.452C145.551 28.5 145.467 28.548 145.371 28.596C145.299 28.644 145.263 28.8 145.263 29.064H144.975C145.023 29.136 145.047 29.22 145.047 29.316C145.047 29.484 144.999 29.64 144.903 29.784C144.807 29.904 144.735 30.036 144.687 30.18L144.903 30.54L144.831 30.972C144.783 30.972 144.735 30.972 144.687 30.972C144.663 30.948 144.639 30.936 144.615 30.936C144.471 30.936 144.399 30.972 144.399 31.044C144.399 31.092 144.447 31.164 144.543 31.26C144.639 31.356 144.711 31.428 144.759 31.476C144.711 31.548 144.687 31.656 144.687 31.8C144.687 31.968 144.711 32.136 144.759 32.304C144.807 32.448 144.807 32.604 144.759 32.772H144.651L144.687 33.168L144.543 33.276L144.651 34.392C144.747 34.488 144.807 34.716 144.831 35.076C144.879 35.412 144.903 35.784 144.903 36.192C144.999 36.24 145.071 36.384 145.119 36.624C145.191 36.864 145.251 37.116 145.299 37.38C145.347 37.62 145.383 37.8 145.407 37.92L145.623 37.992L145.767 38.424L146.199 38.676C146.103 38.772 146.103 38.856 146.199 38.928C146.319 39 146.391 38.988 146.415 38.892C146.751 39.084 146.955 39.204 147.027 39.252C147.123 39.3 147.219 39.324 147.315 39.324C147.435 39.348 147.699 39.396 148.107 39.468L148.575 39.18C148.551 39.276 148.587 39.312 148.683 39.288C148.803 39.264 148.827 39.216 148.755 39.144C148.851 39.096 149.031 39.012 149.295 38.892C149.583 38.772 149.763 38.736 149.835 38.784L149.763 39.144H149.547C149.379 39.384 149.091 39.576 148.683 39.72L148.611 39.612L148.107 40.044L147.495 40.116ZM145.263 26.904C145.311 26.976 145.335 27.06 145.335 27.156C145.335 27.228 145.335 27.312 145.335 27.408H145.623C145.671 27.24 145.719 27.084 145.767 26.94C145.815 26.796 145.935 26.712 146.127 26.688L146.271 26.76L145.911 26.544H146.127C146.127 26.424 146.139 26.304 146.163 26.184C146.211 26.064 146.247 25.944 146.271 25.824H146.343L146.415 26.148C146.391 25.788 146.487 25.44 146.703 25.104C146.919 24.744 147.147 24.456 147.387 24.24C147.315 24.24 147.279 24.216 147.279 24.168C147.279 24.12 147.255 24.084 147.207 24.06L147.711 23.484C147.615 23.412 147.567 23.376 147.567 23.376C147.591 23.352 147.603 23.292 147.603 23.196C147.675 23.172 147.735 23.148 147.783 23.124C147.855 23.1 147.915 23.076 147.963 23.052C147.891 22.908 147.855 22.788 147.855 22.692L147.891 22.62H148.107C148.107 22.236 148.155 22.008 148.251 21.936C148.347 21.864 148.455 21.684 148.575 21.396L148.467 21.036C148.707 20.844 148.839 20.688 148.863 20.568C148.911 20.424 148.935 20.208 148.935 19.92C148.983 19.848 149.031 19.8 149.079 19.776C149.127 19.752 149.163 19.692 149.187 19.596C149.091 19.62 149.043 19.632 149.043 19.632C149.043 19.632 149.019 19.572 148.971 19.452C149.139 19.26 149.235 19.044 149.259 18.804C149.307 18.54 149.379 18.288 149.475 18.048C149.379 18.048 149.331 18.024 149.331 17.976C149.331 17.928 149.331 17.856 149.331 17.76C149.403 17.64 149.451 17.472 149.475 17.256C149.499 17.016 149.511 16.764 149.511 16.5C149.511 16.236 149.499 15.984 149.475 15.744C149.475 15.48 149.475 15.276 149.475 15.132L149.295 15.06C149.247 15.012 149.211 14.964 149.187 14.916C149.163 14.844 149.139 14.796 149.115 14.772H149.043C148.995 15.084 148.863 15.372 148.647 15.636C148.455 15.876 148.323 16.164 148.251 16.5L148.323 16.536C148.299 16.632 148.239 16.704 148.143 16.752C148.071 16.8 148.011 16.872 147.963 16.968C148.083 17.088 148.143 17.196 148.143 17.292C148.143 17.436 148.071 17.58 147.927 17.724C147.783 17.868 147.675 18 147.603 18.12C147.723 18.144 147.783 18.156 147.783 18.156C147.783 18.156 147.807 18.192 147.855 18.264C147.687 18.48 147.591 18.732 147.567 19.02C147.543 19.308 147.435 19.56 147.243 19.776V19.704C147.195 19.656 147.171 19.632 147.171 19.632C147.195 19.608 147.147 19.584 147.027 19.56C147.051 19.632 147.075 19.704 147.099 19.776C147.147 19.824 147.183 19.884 147.207 19.956C147.111 19.98 147.063 19.992 147.063 19.992C147.087 19.992 147.075 20.04 147.027 20.136L147.135 20.172L146.883 20.28C146.955 20.376 146.991 20.508 146.991 20.676C146.991 20.916 146.907 21.168 146.739 21.432C146.571 21.672 146.463 21.9 146.415 22.116C146.487 22.188 146.523 22.272 146.523 22.368C146.523 22.464 146.499 22.584 146.451 22.728C146.403 22.848 146.367 22.956 146.343 23.052C146.271 23.076 146.199 23.112 146.127 23.16C146.055 23.208 145.983 23.268 145.911 23.34H146.055L146.271 23.484C145.887 24.012 145.719 24.576 145.767 25.176C145.623 25.248 145.539 25.368 145.515 25.536C145.491 25.68 145.479 25.824 145.479 25.968C145.527 26.04 145.551 26.064 145.551 26.04C145.575 26.016 145.599 26.064 145.623 26.184C145.479 26.328 145.407 26.436 145.407 26.508C145.407 26.532 145.419 26.58 145.443 26.652C145.467 26.7 145.479 26.784 145.479 26.904H145.263Z" fill="#8D6141"/>
<path d="M55.8203 45H56.9102V52.7695L56.8164 54H55.8203V45ZM61.1934 50.7773V50.9004C61.1934 51.3613 61.1387 51.7891 61.0293 52.1836C60.9199 52.5742 60.7598 52.9141 60.5488 53.2031C60.3379 53.4922 60.0801 53.7168 59.7754 53.877C59.4707 54.0371 59.1211 54.1172 58.7266 54.1172C58.3242 54.1172 57.9707 54.0488 57.666 53.9121C57.3652 53.7715 57.1113 53.5703 56.9043 53.3086C56.6973 53.0469 56.5312 52.7305 56.4062 52.3594C56.2852 51.9883 56.2012 51.5703 56.1543 51.1055V50.5664C56.2012 50.0977 56.2852 49.6777 56.4062 49.3066C56.5312 48.9355 56.6973 48.6191 56.9043 48.3574C57.1113 48.0918 57.3652 47.8906 57.666 47.7539C57.9668 47.6133 58.3164 47.543 58.7148 47.543C59.1133 47.543 59.4668 47.6211 59.7754 47.7773C60.084 47.9297 60.3418 48.1484 60.5488 48.4336C60.7598 48.7188 60.9199 49.0605 61.0293 49.459C61.1387 49.8535 61.1934 50.293 61.1934 50.7773ZM60.1035 50.9004V50.7773C60.1035 50.4609 60.0742 50.1641 60.0156 49.8867C59.957 49.6055 59.8633 49.3594 59.7344 49.1484C59.6055 48.9336 59.4355 48.7656 59.2246 48.6445C59.0137 48.5195 58.7539 48.457 58.4453 48.457C58.1719 48.457 57.9336 48.5039 57.7305 48.5977C57.5312 48.6914 57.3613 48.8184 57.2207 48.9785C57.0801 49.1348 56.9648 49.3145 56.875 49.5176C56.7891 49.7168 56.7246 49.9238 56.6816 50.1387V51.5508C56.7441 51.8242 56.8457 52.0879 56.9863 52.3418C57.1309 52.5918 57.3223 52.7969 57.5605 52.957C57.8027 53.1172 58.1016 53.1973 58.457 53.1973C58.75 53.1973 59 53.1387 59.207 53.0215C59.418 52.9004 59.5879 52.7344 59.7168 52.5234C59.8496 52.3125 59.9473 52.0684 60.0098 51.791C60.0723 51.5137 60.1035 51.2168 60.1035 50.9004ZM67.7427 52.916V49.6523C67.7427 49.4023 67.692 49.1855 67.5904 49.002C67.4927 48.8145 67.3443 48.6699 67.1451 48.5684C66.9459 48.4668 66.6998 48.416 66.4068 48.416C66.1334 48.416 65.8931 48.4629 65.6861 48.5566C65.483 48.6504 65.3228 48.7734 65.2056 48.9258C65.0923 49.0781 65.0357 49.2422 65.0357 49.418H63.9517C63.9517 49.1914 64.0103 48.9668 64.1275 48.7441C64.2447 48.5215 64.4127 48.3203 64.6314 48.1406C64.8541 47.957 65.1197 47.8125 65.4283 47.707C65.7408 47.5977 66.0884 47.543 66.4713 47.543C66.9322 47.543 67.3384 47.6211 67.69 47.7773C68.0455 47.9336 68.3228 48.1699 68.522 48.4863C68.7252 48.7988 68.8267 49.1914 68.8267 49.6641V52.6172C68.8267 52.8281 68.8443 53.0527 68.8795 53.291C68.9185 53.5293 68.9752 53.7344 69.0494 53.9062V54H67.9185C67.8638 53.875 67.8209 53.709 67.7896 53.502C67.7584 53.291 67.7427 53.0957 67.7427 52.916ZM67.9302 50.1562L67.942 50.918H66.8463C66.5377 50.918 66.2623 50.9434 66.0201 50.9941C65.7779 51.041 65.5748 51.1133 65.4107 51.2109C65.2466 51.3086 65.1216 51.4316 65.0357 51.5801C64.9498 51.7246 64.9068 51.8945 64.9068 52.0898C64.9068 52.2891 64.9517 52.4707 65.0416 52.6348C65.1314 52.7988 65.2662 52.9297 65.4459 53.0273C65.6295 53.1211 65.8541 53.168 66.1197 53.168C66.4517 53.168 66.7447 53.0977 66.9986 52.957C67.2525 52.8164 67.4537 52.6445 67.6021 52.4414C67.7545 52.2383 67.8365 52.041 67.8482 51.8496L68.3111 52.3711C68.2838 52.5352 68.2095 52.7168 68.0884 52.916C67.9673 53.1152 67.8052 53.3066 67.6021 53.4902C67.4029 53.6699 67.1646 53.8203 66.8873 53.9414C66.6138 54.0586 66.3052 54.1172 65.9615 54.1172C65.5318 54.1172 65.1548 54.0332 64.8306 53.8652C64.5103 53.6973 64.2603 53.4727 64.0806 53.1914C63.9048 52.9062 63.817 52.5879 63.817 52.2363C63.817 51.8965 63.8834 51.5977 64.0162 51.3398C64.149 51.0781 64.3404 50.8613 64.5904 50.6895C64.8404 50.5137 65.1412 50.3809 65.4927 50.291C65.8443 50.2012 66.2369 50.1562 66.6705 50.1562H67.9302ZM74.6261 47.6602V48.4922H71.1984V47.6602H74.6261ZM72.3585 46.1191H73.4425V52.4297C73.4425 52.6445 73.4757 52.8066 73.5421 52.916C73.6085 53.0254 73.6945 53.0977 73.7999 53.1328C73.9054 53.168 74.0187 53.1855 74.1398 53.1855C74.2296 53.1855 74.3234 53.1777 74.421 53.1621C74.5226 53.1426 74.5988 53.127 74.6495 53.1152L74.6554 54C74.5695 54.0273 74.4562 54.0527 74.3155 54.0762C74.1788 54.1035 74.0128 54.1172 73.8175 54.1172C73.5519 54.1172 73.3077 54.0645 73.0851 53.959C72.8624 53.8535 72.6847 53.6777 72.5519 53.4316C72.423 53.1816 72.3585 52.8457 72.3585 52.4238V46.1191ZM78.4216 45V54H77.3376V45H78.4216ZM78.1637 50.5898L77.7126 50.5723C77.7165 50.1387 77.7809 49.7383 77.9059 49.3711C78.0309 49 78.2067 48.6777 78.4333 48.4043C78.6598 48.1309 78.9294 47.9199 79.2419 47.7715C79.5583 47.6191 79.9079 47.543 80.2907 47.543C80.6032 47.543 80.8845 47.5859 81.1345 47.6719C81.3845 47.7539 81.5973 47.8867 81.7731 48.0703C81.9528 48.2539 82.0895 48.4922 82.1833 48.7852C82.277 49.0742 82.3239 49.4277 82.3239 49.8457V54H81.2341V49.834C81.2341 49.502 81.1852 49.2363 81.0876 49.0371C80.9899 48.834 80.8473 48.6875 80.6598 48.5977C80.4723 48.5039 80.2419 48.457 79.9684 48.457C79.6989 48.457 79.4528 48.5137 79.2302 48.627C79.0114 48.7402 78.822 48.8965 78.6618 49.0957C78.5055 49.2949 78.3825 49.5234 78.2927 49.7812C78.2067 50.0352 78.1637 50.3047 78.1637 50.5898ZM93.4949 52.3184C93.4949 52.1621 93.4598 52.0176 93.3895 51.8848C93.323 51.748 93.1844 51.625 92.9734 51.5156C92.7664 51.4023 92.4539 51.3047 92.0359 51.2227C91.6844 51.1484 91.366 51.0605 91.0809 50.959C90.7996 50.8574 90.5594 50.7344 90.3602 50.5898C90.1648 50.4453 90.0145 50.2754 89.909 50.0801C89.8035 49.8848 89.7508 49.6562 89.7508 49.3945C89.7508 49.1445 89.8055 48.9082 89.9148 48.6855C90.0281 48.4629 90.1863 48.2656 90.3895 48.0938C90.5965 47.9219 90.8445 47.7871 91.1336 47.6895C91.4227 47.5918 91.7449 47.543 92.1004 47.543C92.6082 47.543 93.0418 47.6328 93.4012 47.8125C93.7605 47.9922 94.0359 48.2324 94.2273 48.5332C94.4188 48.8301 94.5145 49.1602 94.5145 49.5234H93.4305C93.4305 49.3477 93.3777 49.1777 93.2723 49.0137C93.1707 48.8457 93.0203 48.707 92.8211 48.5977C92.6258 48.4883 92.3855 48.4336 92.1004 48.4336C91.7996 48.4336 91.5555 48.4805 91.368 48.5742C91.1844 48.6641 91.0496 48.7793 90.9637 48.9199C90.8816 49.0605 90.8406 49.209 90.8406 49.3652C90.8406 49.4824 90.8602 49.5879 90.8992 49.6816C90.9422 49.7715 91.0164 49.8555 91.1219 49.9336C91.2273 50.0078 91.3758 50.0781 91.5672 50.1445C91.7586 50.2109 92.0027 50.2773 92.2996 50.3438C92.8191 50.4609 93.2469 50.6016 93.5828 50.7656C93.9188 50.9297 94.1688 51.1309 94.3328 51.3691C94.4969 51.6074 94.5789 51.8965 94.5789 52.2363C94.5789 52.5137 94.5203 52.7676 94.4031 52.998C94.2898 53.2285 94.1238 53.4277 93.9051 53.5957C93.6902 53.7598 93.4324 53.8887 93.1316 53.9824C92.8348 54.0723 92.5008 54.1172 92.1297 54.1172C91.5711 54.1172 91.0984 54.0176 90.7117 53.8184C90.325 53.6191 90.032 53.3613 89.8328 53.0449C89.6336 52.7285 89.534 52.3945 89.534 52.043H90.6238C90.6395 52.3398 90.7254 52.5762 90.8816 52.752C91.0379 52.9238 91.2293 53.0469 91.4559 53.1211C91.6824 53.1914 91.907 53.2266 92.1297 53.2266C92.4266 53.2266 92.6746 53.1875 92.8738 53.1094C93.077 53.0312 93.2313 52.9238 93.3367 52.7871C93.4422 52.6504 93.4949 52.4941 93.4949 52.3184ZM100.097 47.6602V48.4922H96.6693V47.6602H100.097ZM97.8295 46.1191H98.9134V52.4297C98.9134 52.6445 98.9466 52.8066 99.013 52.916C99.0795 53.0254 99.1654 53.0977 99.2709 53.1328C99.3763 53.168 99.4896 53.1855 99.6107 53.1855C99.7005 53.1855 99.7943 53.1777 99.892 53.1621C99.9935 53.1426 100.07 53.127 100.12 53.1152L100.126 54C100.04 54.0273 99.9271 54.0527 99.7865 54.0762C99.6498 54.1035 99.4837 54.1172 99.2884 54.1172C99.0228 54.1172 98.7787 54.0645 98.556 53.959C98.3334 53.8535 98.1556 53.6777 98.0228 53.4316C97.8939 53.1816 97.8295 52.8457 97.8295 52.4238V46.1191ZM102.404 50.9004V50.7656C102.404 50.3086 102.471 49.8848 102.603 49.4941C102.736 49.0996 102.928 48.7578 103.178 48.4688C103.428 48.1758 103.73 47.9492 104.086 47.7891C104.441 47.625 104.84 47.543 105.281 47.543C105.726 47.543 106.127 47.625 106.482 47.7891C106.842 47.9492 107.146 48.1758 107.396 48.4688C107.65 48.7578 107.844 49.0996 107.976 49.4941C108.109 49.8848 108.176 50.3086 108.176 50.7656V50.9004C108.176 51.3574 108.109 51.7812 107.976 52.1719C107.844 52.5625 107.65 52.9043 107.396 53.1973C107.146 53.4863 106.844 53.7129 106.488 53.877C106.137 54.0371 105.738 54.1172 105.293 54.1172C104.848 54.1172 104.447 54.0371 104.092 53.877C103.736 53.7129 103.432 53.4863 103.178 53.1973C102.928 52.9043 102.736 52.5625 102.603 52.1719C102.471 51.7812 102.404 51.3574 102.404 50.9004ZM103.488 50.7656V50.9004C103.488 51.2168 103.525 51.5156 103.6 51.7969C103.674 52.0742 103.785 52.3203 103.934 52.5352C104.086 52.75 104.275 52.9199 104.502 53.0449C104.728 53.166 104.992 53.2266 105.293 53.2266C105.59 53.2266 105.85 53.166 106.072 53.0449C106.299 52.9199 106.486 52.75 106.635 52.5352C106.783 52.3203 106.894 52.0742 106.969 51.7969C107.047 51.5156 107.086 51.2168 107.086 50.9004V50.7656C107.086 50.4531 107.047 50.1582 106.969 49.8809C106.894 49.5996 106.781 49.3516 106.629 49.1367C106.48 48.918 106.293 48.7461 106.066 48.6211C105.844 48.4961 105.582 48.4336 105.281 48.4336C104.984 48.4336 104.723 48.4961 104.496 48.6211C104.273 48.7461 104.086 48.918 103.934 49.1367C103.785 49.3516 103.674 49.5996 103.6 49.8809C103.525 50.1582 103.488 50.4531 103.488 50.7656ZM112.059 48.6562V54H110.975V47.6602H112.03L112.059 48.6562ZM114.04 47.625L114.034 48.6328C113.944 48.6133 113.858 48.6016 113.776 48.5977C113.698 48.5898 113.608 48.5859 113.506 48.5859C113.256 48.5859 113.036 48.625 112.844 48.7031C112.653 48.7812 112.491 48.8906 112.358 49.0312C112.225 49.1719 112.12 49.3398 112.041 49.5352C111.967 49.7266 111.918 49.9375 111.895 50.168L111.59 50.3438C111.59 49.9609 111.627 49.6016 111.702 49.2656C111.78 48.9297 111.899 48.6328 112.059 48.375C112.219 48.1133 112.422 47.9102 112.668 47.7656C112.918 47.6172 113.215 47.543 113.559 47.543C113.637 47.543 113.727 47.5527 113.829 47.5723C113.93 47.5879 114 47.6055 114.04 47.625ZM118.368 53.3438L120.132 47.6602H121.292L118.749 54.9785C118.69 55.1348 118.612 55.3027 118.515 55.4824C118.421 55.666 118.3 55.8398 118.151 56.0039C118.003 56.168 117.823 56.3008 117.612 56.4023C117.405 56.5078 117.157 56.5605 116.868 56.5605C116.782 56.5605 116.673 56.5488 116.54 56.5254C116.407 56.502 116.314 56.4824 116.259 56.4668L116.253 55.5879C116.284 55.5918 116.333 55.5957 116.399 55.5996C116.47 55.6074 116.519 55.6113 116.546 55.6113C116.792 55.6113 117.001 55.5781 117.173 55.5117C117.345 55.4492 117.489 55.3418 117.606 55.1895C117.728 55.041 117.831 54.8359 117.917 54.5742L118.368 53.3438ZM117.073 47.6602L118.72 52.582L119.001 53.7246L118.222 54.123L115.89 47.6602H117.073Z" fill="#012768"/>
</svg>
