<svg width="65" height="39" viewBox="0 0 65 39" fill="none" xmlns="http://www.w3.org/2000/svg">
<path d="M65 19.5C65 30.2 56.3 39 45.5 39C34.8 39 26 30.2 26 19.5C26 8.8 34.7 0 45.4 0C56.3 0 65 8.8 65 19.5Z" fill="#F9B50B"/>
<path d="M38.9 19.6C38.9 18.2 38.7 16.8 38.5 15.5H26.5C26.6 14.8 26.8 14.2 27 13.4H37.7C37.5 12.7 37.2 12 36.9 11.3H27.8C28.1 10.6 28.5 10 28.9 9.2H35.8C35.4 8.5 34.9 7.8 34.3 7.1H30.5C31.1 6.4 31.7 5.8 32.5 5.1C29.1 1.9 24.5 0 19.4 0C8.8 0.3 0 8.8 0 19.5C0 30.2 8.7 39 19.5 39C24.6 39 29.1 37 32.6 33.9C33.3 33.3 33.9 32.6 34.6 31.8H30.6C30.1 31.2 29.6 30.5 29.2 29.8H36C36.4 29.2 36.8 28.5 37.1 27.7H28C27.7 27.1 27.4 26.4 27.2 25.6H37.9C38.5 23.8 38.9 21.8 38.9 19.6Z" fill="#C8191C"/>
<path d="M26.4004 24.4999L26.7004 22.6999C26.6004 22.6999 26.4004 22.7999 26.2004 22.7999C25.5004 22.7999 25.4004 22.3999 25.5004 22.1999L26.1004 18.5999H27.2004L27.5004 16.5999H26.5004L26.7004 15.3999H24.6004C24.6004 15.3999 23.4004 22.1999 23.4004 22.9999C23.4004 24.1999 24.1004 24.7999 25.1004 24.7999C25.7004 24.7999 26.2004 24.5999 26.4004 24.4999Z" fill="white"/>
<path d="M27.0996 21.2001C27.0996 24.1001 29.0996 24.8001 30.6996 24.8001C32.1996 24.8001 32.8996 24.5001 32.8996 24.5001L33.2996 22.5001C33.2996 22.5001 32.1996 23.0001 31.0996 23.0001C28.7996 23.0001 29.1996 21.3001 29.1996 21.3001H33.3996C33.3996 21.3001 33.6996 20.0001 33.6996 19.4001C33.6996 18.1001 32.9996 16.4001 30.6996 16.4001C28.6996 16.3001 27.0996 18.6001 27.0996 21.2001ZM30.6996 18.2001C31.7996 18.2001 31.5996 19.5001 31.5996 19.6001H29.2996C29.3996 19.5001 29.5996 18.2001 30.6996 18.2001Z" fill="white"/>
<path d="M43.7996 24.4999L44.1996 22.1999C44.1996 22.1999 43.1996 22.6999 42.3996 22.6999C40.9996 22.6999 40.2996 21.5999 40.2996 20.2999C40.2996 17.7999 41.4996 16.4999 42.9996 16.4999C43.9996 16.4999 44.8996 17.0999 44.8996 17.0999L45.1996 14.8999C45.1996 14.8999 43.9996 14.3999 42.7996 14.3999C40.3996 14.3999 38.0996 16.4999 38.0996 20.3999C38.0996 22.9999 39.2996 24.6999 41.7996 24.6999C42.6996 24.7999 43.7996 24.4999 43.7996 24.4999Z" fill="white"/>
<path d="M15.1002 16.3C13.7002 16.3 12.6002 16.7001 12.6002 16.7001L12.3002 18.5C12.3002 18.5 13.2002 18.1 14.6002 18.1C15.3002 18.1 15.9002 18.2 15.9002 18.8C15.9002 19.2 15.8002 19.3 15.8002 19.3H14.9002C13.1002 19.3 11.2002 20 11.2002 22.4C11.2002 24.3 12.4002 24.7001 13.2002 24.7001C14.6002 24.7001 15.3002 23.8 15.4002 23.8L15.3002 24.6H17.0002L17.8002 18.9C17.8002 16.4 15.8002 16.3 15.1002 16.3ZM15.5002 20.9C15.5002 21.2 15.3002 22.9 14.1002 22.9C13.5002 22.9 13.3002 22.4 13.3002 22.1C13.3002 21.6 13.6002 20.9 15.2002 20.9C15.4002 20.9 15.5002 20.9 15.5002 20.9Z" fill="white"/>
<path d="M19.7998 24.7C20.2998 24.7 22.8998 24.8 22.8998 22C22.8998 19.4 20.3998 19.9 20.3998 18.9C20.3998 18.4 20.7998 18.2 21.4998 18.2C21.7998 18.2 22.8998 18.2999 22.8998 18.2999L23.1998 16.4C23.1998 16.4 22.4998 16.2 21.1998 16.2C19.6998 16.2 18.0998 16.8 18.0998 18.9C18.0998 21.3 20.6998 21.1 20.6998 22C20.6998 22.6 19.9998 22.7 19.4998 22.7C18.5998 22.7 17.5998 22.4 17.5998 22.4L17.2998 24.2999C17.4998 24.4999 18.0998 24.7 19.7998 24.7Z" fill="white"/>
<path d="M60.9996 14.7L60.5996 17.5C60.5996 17.5 59.7996 16.5 58.5996 16.5C56.6996 16.5 55.0996 18.8 55.0996 21.5C55.0996 23.2 55.8996 24.9 57.6996 24.9C58.8996 24.9 59.6996 24.1 59.6996 24.1L59.5996 24.8H61.6996L63.1996 14.9L60.9996 14.7ZM59.9996 20.1C59.9996 21.2 59.4996 22.7 58.2996 22.7C57.5996 22.7 57.1996 22.1 57.1996 21C57.1996 19.3 57.8996 18.3 58.8996 18.3C59.5996 18.4 59.9996 18.9 59.9996 20.1Z" fill="white"/>
<path d="M3.7998 24.6L4.9998 17.2L5.1998 24.6H6.5998L9.2998 17.2L8.1998 24.6H10.3998L12.0998 14.7H8.6998L6.5998 20.8L6.4998 14.7H3.4998L1.7998 24.6H3.7998Z" fill="white"/>
<path d="M35.8 24.6C36.4 21.2 36.5 18.4 38 18.9C38.2 17.6 38.5 17 38.7 16.5H38.3C37.4 16.5 36.6 17.7 36.6 17.7L36.8 16.6H34.8L33.5 24.6H35.8V24.6Z" fill="white"/>
<path d="M48.6002 16.3C47.2002 16.3 46.1002 16.7001 46.1002 16.7001L45.8002 18.5C45.8002 18.5 46.7002 18.1 48.1002 18.1C48.8002 18.1 49.4002 18.2 49.4002 18.8C49.4002 19.2 49.3002 19.3 49.3002 19.3H48.4002C46.6002 19.3 44.7002 20 44.7002 22.4C44.7002 24.3 45.9002 24.7001 46.7002 24.7001C48.1002 24.7001 48.8002 23.8 48.9002 23.8L48.8002 24.6H50.7002L51.5002 18.9C51.5002 16.4 49.3002 16.3 48.6002 16.3ZM49.1002 20.9C49.1002 21.2 48.9002 22.9 47.7002 22.9C47.1002 22.9 46.9002 22.4 46.9002 22.1C46.9002 21.6 47.2002 20.9 48.8002 20.9C49.0002 20.9 49.0002 20.9 49.1002 20.9Z" fill="white"/>
<path d="M53.0998 24.6C53.6998 21.2 53.7998 18.4 55.2998 18.9C55.4998 17.6 55.7998 17 55.9998 16.5H55.5998C54.6998 16.5 53.8998 17.7 53.8998 17.7L54.0998 16.6H52.0998L50.7998 24.6H53.0998V24.6Z" fill="white"/>
</svg>
