<svg width="108" height="34" viewBox="0 0 108 34" fill="none" xmlns="http://www.w3.org/2000/svg">
<path fill-rule="evenodd" clip-rule="evenodd" d="M0 0H108V34H0V0Z" fill="#CC1626"/>
<path fill-rule="evenodd" clip-rule="evenodd" d="M37.6836 15.842C38.0793 15.842 38.4675 15.7374 38.8034 15.5284C39.4679 15.1253 39.8337 14.4235 39.8337 13.6471C39.8337 12.8483 39.4455 12.1166 38.7437 11.721C38.4227 11.5343 38.0569 11.4373 37.6836 11.4373C37.3029 11.4373 36.937 11.5343 36.6086 11.7284C35.9217 12.1316 35.541 12.8557 35.541 13.6471C35.541 14.416 35.8993 15.1178 36.5563 15.5209C36.8923 15.7374 37.2805 15.842 37.6836 15.842ZM27.9933 12.8035V9.2648H29.897C30.3823 9.2648 30.8004 9.44397 31.1438 9.78739V9.79485C31.5021 10.1308 31.6664 10.5414 31.6664 11.0267C31.6664 11.5194 31.4872 11.93 31.1438 12.2809C30.8004 12.6243 30.3823 12.8035 29.897 12.8035H29.5536H27.9933ZM27.9933 14.5728H29.5536H29.897C30.3674 14.5728 30.8302 14.4758 31.2707 14.2891C31.6888 14.1025 32.0695 13.8561 32.398 13.5276C32.719 13.2066 32.9728 12.8259 33.152 12.4078C33.3461 11.9673 33.4357 11.5045 33.4357 11.0267C33.4357 10.5563 33.3461 10.0935 33.152 9.66047C32.9728 9.2424 32.719 8.86166 32.398 8.54064C32.0695 8.21962 31.6888 7.96579 31.2707 7.77916C30.8302 7.59252 30.3674 7.50293 29.897 7.50293H26.2314V17.2977H27.9933V14.5728ZM39.9457 16.4616C39.3335 17.1111 38.46 17.462 37.5492 17.462C35.4215 17.462 33.8687 15.7449 33.8687 13.6471C33.8687 11.5567 35.4141 9.81725 37.5492 9.81725C38.46 9.81725 39.3335 10.1756 39.9457 10.8326V9.89937H41.6105V17.3724H39.9457V16.4616ZM48.6953 16.3421C48.1652 16.9842 47.3366 17.2903 46.5004 17.2903C44.3205 17.2903 43.2305 15.7822 43.2305 13.7068V9.90684H44.9103V13.6172C44.9103 14.8565 45.4104 15.6702 46.7169 15.6702C48.1204 15.6702 48.7102 14.6549 48.7102 13.341V9.90684H50.3676V16.3347C50.3676 18.5743 48.979 20.1197 46.702 20.1197C45.515 20.1197 44.3877 19.739 43.4769 18.9775L43.3798 18.9028L44.3503 17.8651L44.4325 17.9099C45.1492 18.3429 45.8509 18.5743 46.702 18.5743C47.9487 18.5743 48.6953 17.9024 48.6953 16.6408V16.3421Z" fill="white"/>
<path fill-rule="evenodd" clip-rule="evenodd" d="M77.1765 11.9226L77.2288 11.8181C77.2363 11.8106 77.2363 11.7957 77.2437 11.7882V11.7807L77.296 11.6837H77.3035L77.3184 11.6538L77.3333 11.6389L77.3483 11.6016H77.3557C77.3707 11.5717 77.3856 11.5493 77.4005 11.5269L77.408 11.512C77.4154 11.5045 77.4229 11.4896 77.4304 11.4746L77.4378 11.4672L77.4677 11.4298V11.4224C77.4976 11.3776 77.5274 11.3403 77.5573 11.3029V11.2955C77.5722 11.2805 77.5797 11.2731 77.5872 11.2581H77.5946C78.2964 10.3399 79.3789 9.80236 80.536 9.80236H80.6928C82.7832 9.84715 84.2912 11.5493 84.2912 13.6173C84.2912 15.7151 82.7459 17.4471 80.6107 17.4471C79.7895 17.4471 78.9832 17.0962 78.4457 16.4766V20.0003H76.7809V13.453H76.7883C76.8033 12.9901 76.9078 12.5348 77.0944 12.1017L77.1019 12.0868L77.1094 12.057L77.1243 12.0346L77.1392 11.9972L77.1542 11.9599L77.1765 11.9226ZM52.04 7.48804H53.8094V17.2828H52.04V7.48804ZM56.2207 12.4004L60.3044 17.3127H57.9752L54.0408 12.4004L57.9752 7.48804H60.3044L56.2207 12.4004ZM61.805 14.11C61.8647 15.2821 62.8054 15.8868 63.9401 15.8868C64.7315 15.8868 65.5228 15.6703 66.2097 15.2671L66.2843 15.2223L67.2175 16.2153L67.113 16.2974C66.1947 16.9992 65.1122 17.4322 63.9401 17.4322C61.7005 17.4322 60.0804 15.8644 60.0804 13.6173C60.0804 11.4224 61.6333 9.78743 63.8505 9.78743C65.3586 9.78743 66.568 10.5116 67.1652 11.8927C67.4191 12.49 67.4937 13.4082 67.2996 14.0279L67.2698 14.11H61.805ZM70.0395 14.11C70.0992 15.2821 71.0399 15.8868 72.1746 15.8868C72.9734 15.8868 73.7648 15.6703 74.4442 15.2671L74.5263 15.2223L75.452 16.2153L75.355 16.2974C74.4292 16.9992 73.3467 17.4322 72.1746 17.4322C69.935 17.4322 68.3224 15.8644 68.3224 13.6173C68.3224 11.4224 69.8678 9.78743 72.0925 9.78743C73.5931 9.78743 74.8025 10.5116 75.3997 11.8927C75.661 12.49 75.7282 13.4082 75.5341 14.0279L75.5117 14.11H70.0395ZM87.0012 14.11C87.0609 15.2821 88.0016 15.8868 89.1364 15.8868C89.9277 15.8868 90.7265 15.6703 91.4059 15.2671L91.488 15.2149L92.4137 16.2153L92.3092 16.2974C91.391 16.9992 90.3085 17.4322 89.1364 17.4322C86.8967 17.4322 85.2841 15.8644 85.2841 13.6173C85.2841 11.4224 86.8295 9.78743 89.0542 9.78743C90.5548 9.78743 91.7642 10.5116 92.3615 11.8927C92.6228 12.49 92.69 13.4082 92.4959 14.0279L92.4735 14.11H87.0012ZM78.4308 13.6173C78.4308 16.6557 82.6189 16.4019 82.6189 13.6173C82.6189 10.8326 78.4308 10.5788 78.4308 13.6173ZM61.902 12.7811H65.7393C65.7169 12.6542 65.6647 12.5273 65.6124 12.4078C65.2839 11.7135 64.6344 11.3328 63.8655 11.3328C63.0293 11.3328 62.238 11.7882 61.9543 12.6094C61.9319 12.6617 61.917 12.7214 61.902 12.7811ZM70.1365 12.7811H73.9813C73.9514 12.6542 73.9066 12.5273 73.8469 12.4078C73.5184 11.7135 72.8689 11.3328 72.1074 11.3328C71.2638 11.3328 70.4725 11.7882 70.1888 12.6094C70.1739 12.6617 70.1515 12.7214 70.1365 12.7811ZM87.0983 12.7811H90.943C90.9132 12.6542 90.8684 12.5273 90.8086 12.4078C90.4802 11.7135 89.8307 11.3328 89.0692 11.3328C88.2256 11.3328 87.4342 11.7882 87.1505 12.6019C87.1281 12.6617 87.1132 12.7214 87.0983 12.7811ZM95.5045 10.8774C96.1689 10.1383 97.1021 9.80982 98.11 9.80982H98.4982L98.5056 11.4746H97.7815C96.1838 11.4746 95.5194 12.5646 95.5194 14.0577V17.3426H93.7949V9.89194H95.5045V10.8774Z" fill="#FFCC00"/>
<path fill-rule="evenodd" clip-rule="evenodd" d="M28.6204 23.5838H26.7092V26.5551H26.2314V23.1358H29.1057V26.5551H28.6204V23.5838ZM32.51 23.5838H31.0766C31.0766 24.2631 31.0691 25.1515 30.8974 25.8085C30.8153 26.1146 30.6734 26.4431 30.3524 26.5551C30.233 26.5998 30.1135 26.6073 29.9941 26.6073C29.8821 26.6073 29.7179 26.5849 29.6133 26.5551L29.5387 26.5327L29.6283 26.0773L29.7179 26.0997C29.7701 26.1146 29.8821 26.1444 29.9418 26.1444C29.9941 26.1444 30.0538 26.137 30.1061 26.1221C30.33 26.0623 30.4122 25.7786 30.4569 25.5845C30.6137 24.9425 30.6137 24.0541 30.6137 23.3897V23.1358H32.9952V26.5551H32.51V23.5838ZM36.2427 24.4871V24.4572C36.2427 23.8301 35.862 23.5464 35.2573 23.5464C34.899 23.5464 34.5854 23.636 34.2718 23.7928L34.1897 23.8376L34.0105 23.4046L34.0852 23.3673C34.4734 23.1881 34.8392 23.0836 35.2722 23.0836C35.6679 23.0836 36.0785 23.1732 36.3622 23.4643C36.6235 23.7256 36.7205 24.0765 36.7205 24.4423V26.5551H36.2427V26.1594C35.9441 26.4729 35.5335 26.6297 35.0856 26.6297C34.3988 26.6297 33.7418 26.2714 33.7418 25.5099C33.7418 24.6812 34.5257 24.3676 35.2498 24.3676C35.6007 24.3676 35.9143 24.405 36.2427 24.4871ZM38.4899 23.5838H37.273V23.1358H40.192V23.5838H38.9677V26.5551H38.4899V23.5838ZM41.0879 25.0545C41.17 25.6816 41.6179 26.1668 42.2749 26.1668C42.7079 26.1668 43.0364 25.9951 43.3276 25.6816L43.3873 25.6219L43.7307 25.9279L43.671 25.9951C43.2753 26.4132 42.8498 26.6297 42.26 26.6297C41.2596 26.6297 40.5802 25.801 40.5802 24.838C40.5802 23.9048 41.2372 23.0537 42.2077 23.0537C43.223 23.0537 43.7904 23.8973 43.7904 24.8454C43.7904 24.8902 43.783 24.935 43.783 24.9798L43.768 25.0545H41.0879ZM41.3641 22.7626V22.0832H41.9763V22.7626H41.3641ZM42.4093 22.7626V22.0832H43.014V22.7626H42.4093ZM45.4552 24.6289L44.0741 23.1358H44.7012L46.4407 25.0694V23.1358H46.926V25.0694L48.6654 23.1358H49.2925L47.9114 24.6289L49.3523 26.5551H48.755L47.5904 24.9798L46.926 25.704V26.5551H46.4407V25.704L45.7763 24.9798L44.6116 26.5551H44.0219L45.4552 24.6289ZM50.3377 24.5767H52.331V23.1358H52.8163V26.5551H52.331V25.0321H50.3377V26.5551H49.8599V23.1358H50.3377V24.5767ZM56.0638 24.4871V24.4572C56.0638 23.8301 55.6756 23.5464 55.0783 23.5464C54.72 23.5464 54.4064 23.636 54.0929 23.7928L54.0108 23.8376L53.8316 23.4046L53.9062 23.3673C54.2945 23.1881 54.6603 23.0836 55.0933 23.0836C55.4889 23.0836 55.8921 23.1732 56.1832 23.4643C56.4445 23.7256 56.5416 24.0765 56.5416 24.4423V26.5551H56.0638V26.1594C55.7577 26.4729 55.3546 26.6297 54.9066 26.6297C54.2123 26.6297 53.5628 26.2714 53.5628 25.5099C53.5628 24.6812 54.3467 24.3676 55.0709 24.3676C55.4218 24.3676 55.7278 24.405 56.0638 24.4871ZM58.1915 25.2262C57.7062 25.0918 57.318 24.726 57.318 24.1885C57.318 23.4643 57.9376 23.1358 58.5946 23.1358H60.14V26.5551H59.6547V25.3008H58.7066L57.7435 26.5551H57.1388L58.1915 25.2262ZM65.4629 23.5838H63.5517V26.5551H63.0665V23.1358H65.9407V26.5551H65.4629V23.5838ZM69.3525 23.5838H67.9191C67.9191 24.2631 67.9116 25.1515 67.7324 25.8085C67.6503 26.1146 67.5159 26.4431 67.1875 26.5551C67.0755 26.5998 66.956 26.6073 66.8366 26.6073C66.7246 26.6073 66.5604 26.5849 66.4558 26.5551L66.3812 26.5327L66.4708 26.0773L66.5604 26.0997C66.6126 26.1146 66.7246 26.1444 66.7843 26.1444C66.8366 26.1444 66.8963 26.137 66.9486 26.1221C67.1651 26.0623 67.2472 25.7786 67.2994 25.5845C67.4488 24.9425 67.4488 24.0541 67.4488 23.3897V23.1358H69.8303V26.5551H69.3525V23.5838ZM73.0852 24.4871V24.4572C73.0852 23.8301 72.697 23.5464 72.0998 23.5464C71.7414 23.5464 71.4279 23.636 71.1143 23.7928L71.0322 23.8376L70.853 23.4046L70.9277 23.3673C71.3159 23.1881 71.6817 23.0836 72.1147 23.0836C72.5104 23.0836 72.9135 23.1732 73.2047 23.4643C73.466 23.7256 73.5556 24.0765 73.5556 24.4423V26.5551H73.0852V26.1594C72.7792 26.4729 72.3686 26.6297 71.9206 26.6297C71.2338 26.6297 70.5843 26.2714 70.5843 25.5099C70.5843 24.6812 71.3682 24.3676 72.0923 24.3676C72.4432 24.3676 72.7493 24.405 73.0852 24.4871ZM75.3324 23.5838H74.108V23.1358H77.0271V23.5838H75.8102V26.5551H75.3324V23.5838ZM79.6251 26.3535C79.3936 26.5252 79.1622 26.6297 78.8486 26.6297C77.8483 26.6297 77.4377 25.7189 77.4377 24.8305C77.4377 23.9496 77.8483 23.0537 78.8486 23.0537C79.1697 23.0537 79.3936 23.1582 79.6251 23.3374V21.9189H80.1029V23.3374C80.3268 23.1582 80.5583 23.0537 80.8793 23.0537C81.8797 23.0537 82.2903 23.957 82.2903 24.8454C82.2903 25.7264 81.8722 26.6297 80.8793 26.6297C80.5359 26.6297 80.3343 26.5401 80.1029 26.3609V27.5778H79.6251V26.3535ZM84.627 26.6297C83.6266 26.6297 82.8726 25.8309 82.8726 24.8454C82.8726 23.86 83.6415 23.0537 84.6345 23.0537C85.6348 23.0537 86.3889 23.86 86.3889 24.8454C86.3889 25.8234 85.6199 26.6297 84.627 26.6297ZM87.6655 23.6883C87.979 23.3001 88.3822 23.0537 88.9197 23.0537C89.9051 23.0537 90.5845 23.8899 90.5845 24.8454C90.5845 25.7936 89.8977 26.6297 88.9197 26.6297C88.3971 26.6297 87.979 26.4057 87.6655 26.025V27.5778H87.1802V23.1358H87.6655V23.6883ZM93.0855 24.9425L94.3695 23.1358H94.7727V26.5551H94.2949V24.0168L93.0705 25.704L91.8611 24.0242V26.5551H91.3908V23.1358H91.8014L93.0855 24.9425ZM98.0277 24.4871V24.4572C98.0277 23.8301 97.6394 23.5464 97.0422 23.5464C96.6839 23.5464 96.3703 23.636 96.0567 23.7928L95.9746 23.8376L95.7955 23.4046L95.8701 23.3673C96.2583 23.1881 96.6241 23.0836 97.0571 23.0836C97.4528 23.0836 97.8559 23.1732 98.1471 23.4643C98.4084 23.7256 98.5054 24.0765 98.5054 24.4423V26.5551H98.0277V26.1594C97.7216 26.4729 97.3184 26.6297 96.8705 26.6297C96.1762 26.6297 95.5267 26.2714 95.5267 25.5099C95.5267 24.6812 96.3106 24.3676 97.0347 24.3676C97.3856 24.3676 97.6917 24.405 98.0277 24.4871ZM36.2502 24.95C35.9143 24.8678 35.5858 24.823 35.2274 24.823C34.7795 24.823 34.2494 24.9724 34.2494 25.5099C34.2494 25.9877 34.675 26.1668 35.1005 26.1668C35.638 26.1668 36.2502 25.8533 36.2502 25.2486V24.95ZM41.0954 24.6065H43.2753C43.2006 24.0168 42.8498 23.5091 42.2003 23.5091C41.5732 23.5091 41.17 24.0317 41.0954 24.6065ZM56.0713 24.95C55.7278 24.8678 55.3994 24.823 55.0485 24.823C54.6005 24.823 54.0705 24.9724 54.0705 25.5099C54.0705 25.9877 54.496 26.1668 54.9216 26.1668C55.4591 26.1668 56.0713 25.8533 56.0713 25.2486V24.95ZM59.6547 24.8529V23.5838H58.6394C58.2363 23.5838 57.8257 23.748 57.8257 24.2034C57.8257 24.6588 58.2512 24.8529 58.6543 24.8529H59.6547ZM73.0927 24.95C72.7493 24.8678 72.4208 24.823 72.0699 24.823C71.622 24.823 71.0919 24.9724 71.0919 25.5099C71.0919 25.9877 71.5175 26.1668 71.943 26.1668C72.4805 26.1668 73.0927 25.8533 73.0927 25.2486V24.95ZM79.6251 25.8234V23.86C79.416 23.651 79.1846 23.524 78.8785 23.524C78.132 23.524 77.9379 24.2258 77.9379 24.8529C77.9379 25.5099 78.1096 26.1594 78.8785 26.1594C79.1846 26.1594 79.416 26.0399 79.6251 25.8234ZM80.1029 23.86V25.8234C80.3119 26.0399 80.5433 26.1594 80.8494 26.1594C81.6184 26.1594 81.7826 25.4949 81.7826 24.8454C81.7826 24.2183 81.5885 23.524 80.8494 23.524C80.5433 23.524 80.3119 23.651 80.1029 23.86ZM84.6345 26.1668C85.3511 26.1668 85.8812 25.5323 85.8812 24.8454C85.8812 24.1437 85.3437 23.5166 84.627 23.5166C83.9103 23.5166 83.3802 24.1437 83.3802 24.8454C83.3802 25.5547 83.9103 26.1668 84.6345 26.1668ZM88.8898 26.1594C89.6438 26.1594 90.0768 25.5696 90.0768 24.8454C90.0768 24.1437 89.614 23.524 88.8898 23.524C88.1657 23.524 87.6431 24.1511 87.6431 24.8529C87.6431 25.5472 88.1731 26.1594 88.8898 26.1594ZM98.0351 24.95C97.6917 24.8678 97.3632 24.823 97.0123 24.823C96.5644 24.823 96.0343 24.9724 96.0343 25.5099C96.0343 25.9877 96.4599 26.1668 96.8854 26.1668C97.4229 26.1668 98.0351 25.8533 98.0351 25.2486V24.95Z" fill="white"/>
<path fill-rule="evenodd" clip-rule="evenodd" d="M14.4287 17.3351L19.3485 12.4153L14.4287 7.50293C15.653 7.50293 16.8774 7.50293 18.1017 7.50293L23.0215 12.4153L18.1017 17.3351C16.8774 17.3351 15.653 17.3351 14.4287 17.3351ZM7.95605 17.3351L12.8759 12.4153L7.95605 7.50293C9.18041 7.50293 10.4048 7.50293 11.6291 7.50293L16.5489 12.4153L11.6291 17.3351C10.4048 17.3351 9.18041 17.3351 7.95605 17.3351Z" fill="white"/>
</svg>
