<svg width="42" height="42" viewBox="0 0 42 42" fill="none" xmlns="http://www.w3.org/2000/svg">
<path d="M33.0035 26.4087C33.7166 26.7077 34.0222 27.7042 34.0222 28.2025C34.124 28.9998 33.9203 29.3984 33.6147 29.3984C33.3091 29.3984 32.9017 29.0994 32.4942 28.4018C32.0868 27.7042 31.883 27.0067 32.0868 26.608C32.3923 26.4087 32.6979 26.3091 33.0035 26.4087Z" fill="#F28A1A"/>
<path d="M28.827 29.4978C29.2344 29.4978 29.7437 29.6971 30.253 30.0957C31.0679 30.7933 31.3735 31.5906 30.9661 32.1885C30.7623 32.4875 30.253 32.6868 29.8456 32.6868C29.3363 32.6868 28.827 32.4875 28.5214 32.1885C27.7065 31.4909 27.5027 30.4944 28.012 29.8964C28.1139 29.6971 28.4195 29.4978 28.827 29.4978Z" fill="#F28A1A"/>
<path d="M19.1502 37.3707C8.55648 37.3707 0 28.9996 0 18.7352C0 8.47068 8.55648 0 19.1502 0C29.744 0 38.3004 8.37103 38.3004 18.7352C38.3004 22.2231 37.2818 25.5117 35.652 28.3021C35.5501 28.4017 35.4483 28.4017 35.4483 28.2024C34.7352 23.6183 31.8831 21.1269 27.8086 20.3296C27.4011 20.23 27.4011 20.0307 27.9104 20.0307C29.2346 19.931 30.9663 19.931 31.9849 20.1303C32.0868 19.6321 32.0868 19.1338 32.0868 18.7352C32.0868 11.9586 26.3825 6.37793 19.4558 6.37793C12.5291 6.37793 6.82481 11.9586 6.82481 18.7352C6.82481 25.5117 12.5291 31.0924 19.4558 31.0924H20.067C19.8633 29.9962 19.7614 28.9 19.8633 27.7041C19.8633 26.9069 20.067 26.8072 20.3726 27.4052C22.1042 30.3948 24.6508 32.9858 29.5402 34.082C33.5129 34.9789 37.4855 35.9755 41.8656 41.2572C42.2731 41.7555 41.6619 42.2538 41.2545 41.8551C36.8744 38.0683 32.9017 36.7727 29.2346 36.7727C24.6508 36.8724 21.9005 37.3707 19.1502 37.3707Z" fill="#F28A1A"/>
</svg>
