<svg width="68" height="21" viewBox="0 0 68 21" fill="none" xmlns="http://www.w3.org/2000/svg">
<path d="M63.4271 0.300049H59.1523C57.8599 0.300049 56.8657 0.700049 56.2692 2.00005L48.1172 20.7H53.8833C53.8833 20.7 54.8774 18.2 55.0763 17.6C55.6727 17.6 61.3394 17.6 62.1347 17.6C62.3336 18.3 62.8306 20.6 62.8306 20.6H68.0002L63.4271 0.300049ZM56.6669 13.4C57.164 12.2 58.854 7.70005 58.854 7.70005C58.854 7.80005 59.3511 6.50005 59.5499 5.80005L59.9476 7.60005C59.9476 7.60005 61.0412 12.5 61.24 13.5H56.6669V13.4Z" fill="#3362AB"/>
<path d="M48.515 14C48.515 18.2 44.7372 21 38.8717 21C36.3864 21 34.0004 20.5 32.708 19.9L33.5033 15.3L34.1992 15.6C35.9887 16.4 37.1817 16.7 39.3688 16.7C40.9595 16.7 42.6495 16.1 42.6495 14.7C42.6495 13.8 41.9536 13.2 39.7665 12.2C37.6788 11.2 34.8951 9.6 34.8951 6.7C34.8951 2.7 38.7723 0 44.2402 0C46.3279 0 48.1174 0.4 49.2109 0.9L48.4156 5.3L48.018 4.9C47.0238 4.5 45.7314 4.1 43.8425 4.1C41.7548 4.2 40.7606 5.1 40.7606 5.9C40.7606 6.8 41.9536 7.5 43.8425 8.4C47.0238 9.9 48.515 11.6 48.515 14Z" fill="#3362AB"/>
<path d="M0 0.500098L0.0994152 0.100098H8.64912C9.8421 0.100098 10.7368 0.500098 11.0351 1.8001L12.924 10.8001C11.0351 6.0001 6.66082 2.1001 0 0.500098Z" fill="#F9B50B"/>
<path d="M24.9532 0.299951L16.304 20.6H10.4385L5.46777 3.59995C9.04672 5.89995 12.0292 9.49995 13.1227 12L13.7192 14.1L19.0877 0.199951H24.9532V0.299951Z" fill="#3362AB"/>
<path d="M27.2393 0.199951H32.7071L29.2276 20.6H23.7598L27.2393 0.199951Z" fill="#3362AB"/>
</svg>
