<svg width="72" height="28" viewBox="0 0 72 28" fill="none" xmlns="http://www.w3.org/2000/svg">
<path d="M33.581 13.679V21.8867H30.959V1.61733H37.9129C38.743 1.60011 39.5682 1.74631 40.3411 2.04748C41.114 2.34866 41.8191 2.79885 42.4159 3.37208C43.0186 3.91051 43.4983 4.57083 43.8228 5.30866C44.1472 6.0465 44.3089 6.84476 44.2968 7.64979C44.3141 8.45912 44.1549 9.2626 43.8303 10.0051C43.5056 10.7477 43.0231 11.4117 42.4159 11.9518C41.1999 13.1033 39.6989 13.6785 37.9129 13.6774H33.581V13.679ZM33.581 4.11279V11.1884H37.978C38.4601 11.2026 38.9398 11.1167 39.3865 10.9363C39.8333 10.7558 40.2371 10.4847 40.5723 10.1404C40.9058 9.81846 41.1708 9.43339 41.3518 9.00796C41.5328 8.58253 41.6261 8.12538 41.6261 7.66354C41.6261 7.2017 41.5328 6.74454 41.3518 6.31911C41.1708 5.89368 40.9058 5.50861 40.5723 5.18667C40.2413 4.83508 39.8389 4.55738 39.3916 4.37196C38.9444 4.18655 38.4625 4.09765 37.978 4.11118H33.581V4.11279Z" fill="#5F6368"/>
<path d="M50.3389 7.56567C52.2769 7.56567 53.8066 8.07997 54.9282 9.10856C56.0497 10.1372 56.6099 11.5474 56.6088 13.3394V21.8867H54.1009V19.9621H53.9869C52.9012 21.5471 51.4572 22.3395 49.6549 22.3395C48.1165 22.3395 46.8294 21.8867 45.7936 20.981C45.2965 20.5653 44.8991 20.0448 44.6304 19.4572C44.3616 18.8697 44.2282 18.23 44.24 17.5847C44.24 16.1497 44.7861 15.0084 45.8783 14.1609C46.9705 13.3135 48.4286 12.8887 50.2526 12.8865C51.8095 12.8865 53.0917 13.1696 54.0992 13.7356V13.1404C54.1022 12.7006 54.0066 12.2656 53.8192 11.8669C53.6319 11.4683 53.3576 11.1161 53.0162 10.8358C52.3229 10.2146 51.4193 9.87562 50.4855 9.88647C49.0209 9.88647 47.8619 10.5 47.0085 11.7269L44.6992 10.2827C45.9695 8.47135 47.8494 7.56567 50.3389 7.56567ZM46.9466 17.6413C46.9449 17.9727 47.0229 18.2997 47.1741 18.5951C47.3254 18.8905 47.5456 19.1457 47.8163 19.3395C48.3962 19.7925 49.1159 20.0325 49.8536 20.0187C50.96 20.0169 52.0206 19.5796 52.8029 18.8025C53.6715 17.9907 54.1057 17.0381 54.1057 15.9448C53.2882 15.2979 52.1482 14.9744 50.6858 14.9744C49.6207 14.9744 48.7326 15.2294 48.0215 15.7394C47.3033 16.2569 46.9466 16.8861 46.9466 17.6413V17.6413Z" fill="#5F6368"/>
<path d="M71.0049 8.01855L62.2498 28.0001H59.5431L62.7921 21.0086L57.0352 8.01855H59.8851L64.0461 17.981H64.1031L68.15 8.01855H71.0049Z" fill="#5F6368"/>
<path d="M22.9854 11.9097C22.9864 11.1162 22.9188 10.324 22.7834 9.54199H11.7256V14.0267H18.059C17.9294 14.743 17.6551 15.4258 17.2526 16.0339C16.8502 16.6421 16.3278 17.163 15.7172 17.5653V20.4764H19.497C21.7102 18.45 22.9854 15.4532 22.9854 11.9097Z" fill="#4285F4"/>
<path d="M11.7265 23.2889C14.8908 23.2889 17.5551 22.257 19.4979 20.478L15.7181 17.5669C14.666 18.2753 13.3111 18.6796 11.7265 18.6796C8.66806 18.6796 6.07214 16.6321 5.14387 13.873H1.25V16.8731C2.22594 18.8017 3.72243 20.4229 5.57241 21.5558C7.42238 22.6888 9.55303 23.2888 11.7265 23.2889V23.2889Z" fill="#34A853"/>
<path d="M5.14341 13.8731C4.65267 12.4273 4.65267 10.8616 5.14341 9.41583V6.41577H1.24954C0.428549 8.03815 0.000976562 9.82872 0.000976562 11.6444C0.000976562 13.4602 0.428549 15.2507 1.24954 16.8731L5.14341 13.8731Z" fill="#FBBC04"/>
<path d="M11.7265 4.60929C13.3987 4.58216 15.0144 5.20958 16.2245 6.35595L19.5712 3.03244C17.4491 1.053 14.6377 -0.0337358 11.7265 3.15616e-05C9.55303 0.000129933 7.42238 0.600132 5.57241 1.73305C3.72243 2.86597 2.22594 4.48722 1.25 6.41579L5.14387 9.41585C6.07214 6.65676 8.66806 4.60929 11.7265 4.60929Z" fill="#EA4335"/>
</svg>
