<svg width="108" height="120" viewBox="0 0 108 120" fill="none" xmlns="http://www.w3.org/2000/svg">
<path d="M77.4304 96.9512C76.3414 97.338 75.1386 97.2392 74.1265 96.6809C72.9086 95.9744 71.9929 94.8452 71.5525 93.5084C70.0743 89.7852 69.0196 85.907 68.4085 81.9479C68.2846 80.9802 68.2486 80.0026 68.3014 79.0274C68.4227 75.4306 68.9693 71.8614 69.9303 68.3934C70.1194 67.4802 70.6125 66.6582 71.3298 66.0622C71.5433 65.9124 71.8136 65.7676 72.0212 66.0011C72.259 66.2681 71.9869 66.4582 71.8078 66.6222H71.8086C71.3106 67.0047 71.0285 67.6057 71.0502 68.2335C71.5324 68.1674 71.966 67.9054 72.2489 67.5086C73.5204 66.0304 74.5683 64.3739 75.3595 62.5919C75.8006 61.5313 75.6935 61.2777 74.7769 60.516H74.7777C72.0582 58.3138 68.4647 57.511 65.0672 58.348C62.5727 58.7867 60.2751 59.987 58.4905 61.785C56.3878 63.7587 54.6803 66.1142 53.4582 68.7267C52.7158 70.4728 52.1357 72.2835 51.7255 74.1357C50.7847 78.1862 49.9074 82.2535 48.873 86.2797C48.2527 88.7515 46.7334 90.9045 44.6106 92.3175C43.7175 93.029 42.5967 93.3922 41.4548 93.3403C40.3139 93.2893 39.2299 92.8256 38.4047 92.0354C37.622 91.246 37.1558 90.1972 37.093 89.0864C37.0311 87.9764 37.3776 86.8816 38.0673 86.0094C38.7395 85.2544 39.8076 84.9933 40.7508 85.3532C41.6164 85.5993 42.2709 86.3074 42.4476 87.1889C42.5647 87.4952 42.4593 87.8426 42.1906 88.0318C41.6624 87.9439 41.7838 87.4031 41.5913 87.0918C41.3167 86.4221 40.6671 85.9818 39.9423 85.9743C39.2182 85.9676 38.5603 86.3945 38.2715 87.0591C37.9224 87.6903 37.755 88.406 37.7877 89.1266C37.8195 89.8474 38.0514 90.5446 38.4557 91.1423C38.9118 91.7701 39.5522 92.2405 40.2871 92.4891C41.0221 92.7385 41.8164 92.7528 42.5605 92.5318C44.104 92.0806 45.4467 91.1155 46.3666 89.7971C47.4556 88.2929 48.2031 86.5695 48.5588 84.7472C49.5909 79.5098 50.8598 74.331 52.3649 69.2089C52.4821 68.8088 52.6478 68.4564 52.4051 68.0387H52.4059C51.7488 66.7045 51.5438 65.1928 51.8225 63.732C51.9974 61.4812 52.3432 59.247 52.8546 57.0474C53.5041 54.4022 54.4743 51.8451 55.7425 49.4344C56.4841 48.1328 57.4903 47.0019 58.6964 46.113C60.1303 44.8658 61.6855 43.7642 63.3387 42.8242C64.9434 41.9846 66.7607 41.638 68.5611 41.8297C69.5588 41.9235 70.5642 41.7511 71.4732 41.3284C72.3823 40.9065 73.1624 40.2502 73.735 39.4274C75.5849 37.1598 77.3059 34.7892 78.8888 32.3275C79.0654 32.0755 79.1868 31.7859 79.3617 31.5331L79.3626 31.534C79.5609 31.3289 79.6564 31.046 79.6229 30.7622C79.5894 30.4793 79.4304 30.2265 79.1901 30.0733C78.5933 29.5786 78.189 28.8914 78.0484 28.1297C77.9069 27.3679 78.0383 26.5811 78.4184 25.9056C80.87 19.8621 83.8968 14.0689 87.457 8.60373C88.3702 7.18158 89.4743 5.88166 90.4762 4.51559C91.1266 3.65761 91.7293 2.76363 92.2809 1.83873C93.421 -0.139234 95.0701 -0.553555 96.9284 0.752237C98.7297 2.01785 100.367 3.50367 102.26 4.66209C103.223 5.36354 103.513 6.6727 102.937 7.71567C102.565 8.62053 102.06 9.46428 101.437 10.2185C100.877 10.8915 100.452 11.6666 100.184 12.4996C99.6296 13.7125 98.9633 14.8709 98.194 15.9592C95.4016 20.8561 92.3438 25.5972 89.0341 30.16C88.3729 31.0782 87.5567 31.8734 86.6209 32.5096C85.8349 33.0336 84.8522 33.1675 83.9541 32.8737C83.0952 32.6234 82.1829 33.0428 81.8145 33.8581C80.4125 35.6293 79.1861 37.5327 78.1524 39.541C77.8829 40.1503 77.6502 40.7756 77.4568 41.4126C77.2501 42.1007 77.2844 42.8381 77.5556 43.5027C77.826 44.1682 78.3156 44.7206 78.9443 45.068C81.8605 46.5831 84.6035 48.4096 87.1257 50.5156C88.3938 51.4991 89.3172 52.8586 89.7625 54.3995C90.2086 55.9405 90.1534 57.5836 89.6059 59.0913C88.4625 62.9845 86.9182 66.7471 84.9971 70.3203C83.4795 73.1814 81.5887 75.8272 79.3738 78.1895C78.4815 79.307 77.2636 80.1189 75.8891 80.5141C74.5146 80.9093 73.0515 80.8673 71.7022 80.3944C71.169 80.2128 70.6241 80.0587 70.0766 79.9257C69.15 79.7013 68.9801 79.8227 69.0311 80.802L69.0303 80.8029C69.1592 82.8562 69.5543 84.8835 70.2055 86.8354C70.7856 88.6426 71.4017 90.4389 71.9441 92.2571C72.6941 94.7692 74.1664 96.3821 76.938 96.4909C77.1247 96.4976 77.354 96.4985 77.431 96.9521L77.4304 96.9512ZM53.2696 67.1119C54.2281 66.0229 54.8726 64.6929 55.1346 63.2657C55.2669 61.9876 55.5448 60.7294 55.9625 59.5149C57.1837 55.533 59.0428 51.7747 61.4685 48.3887C62.2897 47.2035 63.3912 46.2401 64.6744 45.5846C65.0997 45.4038 65.5115 45.1954 65.9099 44.9618C67.338 44.144 68.9476 43.6979 70.5925 43.6644C72.0557 43.4936 73.2728 44.216 74.602 44.5483C75.4684 44.7023 76.2602 45.1393 76.8529 45.7897C77.4455 46.4409 77.8054 47.2696 77.8783 48.1468C78.9062 54.0178 77.8038 60.0639 74.7694 65.1952C73.7524 67.1062 72.3469 68.7828 70.6427 70.118C70.2602 70.3825 70.2141 70.8035 70.081 71.1827V71.1819C69.5185 73.4192 69.1971 75.7095 69.1209 78.0157C69.0447 78.6125 69.4122 78.8443 69.9011 78.9649C70.9959 79.2336 72.0975 79.4755 73.1891 79.7584V79.7576C74.7669 80.1192 76.4226 79.7132 77.6531 78.6619C79.2987 77.2682 80.7343 75.6434 81.9154 73.8379C83.3074 71.9302 84.4877 69.877 85.4361 67.714C86.9428 64.5634 88.1648 61.2846 89.0873 57.9162C89.3627 56.8188 89.3226 55.6662 88.9718 54.5905C88.6219 53.5149 87.9757 52.559 87.1077 51.8341C85.9961 50.7728 84.784 49.8219 83.4899 48.9931C81.8451 47.8581 80.1619 46.7691 78.4341 45.7647C77.7159 45.4023 77.1425 44.8063 76.8077 44.0755C76.472 43.3448 76.395 42.522 76.5875 41.7409C76.6687 41.1307 76.8295 40.533 77.0647 39.9638C77.7536 38.3006 78.6526 36.7328 79.739 35.2973C80.3525 34.5415 80.9033 33.7337 81.47 32.9402L81.4691 32.941C81.6156 32.7912 81.6834 32.5819 81.6508 32.3752C81.6181 32.1693 81.4901 31.9901 81.3051 31.893C80.6396 31.3875 80.4094 31.3623 79.8461 32.1994C78.1862 34.6637 76.5405 37.1406 74.6764 39.454C73.1371 41.3642 71.4647 42.922 68.6045 42.5845C66.5947 42.3401 64.5632 42.8005 62.8565 43.8887C61.6176 44.7174 60.4299 45.6188 59.2997 46.5891C57.4557 48.0841 56.0362 50.0361 55.184 52.2509C54.4599 54.0615 53.8581 55.918 53.3818 57.8091C52.7473 60.3027 52.4937 62.8782 52.6309 65.4473C52.5422 66.0759 52.7841 66.7046 53.2696 67.1122L53.2696 67.1119ZM84.9389 32.0869C85.9853 32.0267 86.9345 31.4533 87.4744 30.5543C89.3293 27.6649 91.5752 25.0482 93.3186 22.0725C93.7857 21.1684 94.3214 20.3021 94.9215 19.48C95.7251 18.4747 96.3697 17.3514 96.8326 16.1494C97.5717 14.3983 98.5334 12.7485 99.6937 11.2418C100.501 10.1813 101.244 9.07302 101.919 7.92295C102.289 7.48517 102.437 6.90008 102.317 6.33842C102.198 5.77675 101.826 5.30215 101.308 5.05354C99.759 3.95616 98.167 2.91235 96.6754 1.74218C94.9996 0.428845 93.7021 1.01142 92.7488 2.62694C92.3604 3.35183 91.9159 4.04408 91.4187 4.69782C88.2379 8.65868 85.4766 12.9395 83.1788 17.4697C81.6194 20.4311 80.3746 23.5224 79.1116 26.6111C78.6764 27.4632 78.8429 28.4995 79.5226 29.1725C80.2986 29.9936 81.1808 30.7093 82.1442 31.2994C83.0047 31.7682 83.9598 32.0377 84.9391 32.0871L84.9389 32.0869ZM56.1111 62.9184C57.2118 62.0194 58.0581 60.9279 59.1865 60.1209C61.8023 58.2651 64.9396 57.2874 68.1462 57.3294C70.0606 57.29 71.9472 57.7973 73.5829 58.7917C75.2796 59.8606 75.4235 59.8581 75.9299 57.9446C75.9559 57.8458 75.9735 57.7437 75.9977 57.6441C76.6573 54.5194 76.6239 51.2884 75.8998 48.1787C75.8203 47.4797 75.544 46.8185 75.1046 46.2702C74.6652 45.7219 74.0792 45.3093 73.4146 45.0799C70.9846 44.35 68.584 44.0805 66.2879 45.5336H66.2887C65.943 45.7563 65.5739 45.9404 65.188 46.0835C64.0839 46.523 63.1372 47.2839 62.4709 48.2673C60.5306 50.7861 58.9602 53.5683 57.8067 56.5306C56.9605 58.5747 56.3896 60.7233 56.1108 62.9183L56.1111 62.9184Z" fill="#A87E5C"/>
<path d="M43.7733 117.144C41.6932 117.364 39.5904 117.267 37.5397 116.856C36.9839 116.739 36.4047 116.846 35.9267 117.152C34.9491 117.829 33.7721 118.156 32.586 118.082C30.2732 117.999 28.0115 118.685 25.6796 118.5C24.3504 118.393 23.022 118.33 21.7052 118.105C20.5903 117.918 19.467 117.786 18.3386 117.712C17.2915 117.751 16.2786 117.334 15.5638 116.568C14.8481 115.802 14.5008 114.763 14.6113 113.721C14.4782 111.35 14.9971 108.989 16.1129 106.894C16.8822 105.423 18.1679 104.29 19.7232 103.71C20.6599 103.289 21.6459 102.985 22.6579 102.806C23.4313 102.716 23.8163 102.231 24.1277 101.458C24.7095 99.6258 26.0697 98.1442 27.8443 97.4077C30.3178 96.261 33.0004 95.634 35.7259 95.5645C36.4985 95.5988 37.2711 95.4883 38.0036 95.2397C39.9966 94.6094 42.1695 94.9518 43.8739 96.163C45.0542 96.8536 45.0709 96.8678 46.0109 96.0174C46.6722 95.4331 47.5402 95.1385 48.4199 95.2012C50.8808 95.2406 53.3344 95.49 55.7526 95.9487C56.4448 96.1848 57.2099 95.9328 57.6276 95.3318C58.2688 94.5919 59.064 94.0009 59.9579 93.6008C61.0436 92.9672 62.3652 92.8851 63.5213 93.3798C64.3759 93.7339 65.2975 93.898 66.2217 93.862C66.9993 93.8436 67.7661 94.0461 68.4323 94.4463C69.0986 94.8472 69.6377 95.4289 69.985 96.1245C70.2931 96.7716 70.7945 97.3081 71.4197 97.6597C71.6566 97.7652 71.8533 97.9443 71.9797 98.1703C72.5288 99.3949 73.4546 99.4887 74.6407 99.2735C75.8754 99.112 77.1217 99.4635 78.0895 100.246C79.0572 101.029 79.6623 102.174 79.7627 103.414C79.715 104.417 80.3503 105.326 81.3079 105.627C82.232 105.98 82.9686 106.699 83.3445 107.614C83.8802 108.779 84.3196 109.986 84.6586 111.223C84.8486 112.017 84.6486 112.854 84.1204 113.476C83.5914 114.097 82.7979 114.429 81.9842 114.37C81.143 114.318 80.3194 114.627 79.7192 115.218C78.8328 116.026 77.6492 116.425 76.4548 116.32C74.1956 116.249 71.9415 116.06 69.7014 115.753C68.9723 115.639 68.6199 115.792 68.5479 116.524C68.3655 118.384 67.2103 119.147 65.471 119.366L65.4718 119.365C60.9393 119.982 56.3555 120.143 51.791 119.846C50.9715 119.781 50.1604 119.638 49.3685 119.416C48.539 119.28 47.8526 118.695 47.5864 117.897C47.3746 117.198 46.9193 117.084 46.2831 117.178C45.4519 117.322 44.6006 117.311 43.7736 117.144L43.7733 117.144ZM25.8612 117.742C28.3387 118.002 30.7612 117.317 33.223 117.334C35.5432 117.351 36.7955 115.876 37.5573 113.998C38.6438 111.321 37.3003 106.741 35.0527 104.848C34.9364 104.747 34.8125 104.655 34.6819 104.574C32.205 102.961 29.2243 102.312 26.3023 102.751C24.7797 102.997 23.2956 103.39 21.7997 103.721C20.4788 103.968 19.2516 104.574 18.2522 105.472C17.2536 106.371 16.5212 107.527 16.1361 108.814C15.6532 110.38 15.4339 112.014 15.4874 113.65C15.3568 114.398 15.5494 115.166 16.0173 115.763C16.4844 116.362 17.1833 116.733 17.94 116.788C19.4459 117.091 20.9893 117.201 22.4994 117.487C23.6093 117.677 24.7352 117.762 25.8611 117.742L25.8612 117.742ZM56.0497 119.28C58.7594 119.293 61.4662 119.118 64.1517 118.757C64.869 118.731 65.5805 118.605 66.2636 118.382C67.6874 117.797 68.0222 116.882 67.1868 115.557C67.0378 115.32 66.9089 115.129 67.0914 114.878C67.5911 114.189 67.1006 113.592 66.8863 112.998V112.998C66.3381 111.835 65.5613 110.794 64.6012 109.938C62.4298 107.583 61.1107 107.888 59.1703 108.935C58.2186 109.442 57.1555 109.702 56.0773 109.694C55.3583 109.704 54.6342 109.66 53.9227 109.735C52.2151 109.931 50.6859 110.882 49.7542 112.325C48.8995 113.841 48.4199 115.54 48.3555 117.279C48.3237 117.817 48.6602 118.307 49.1733 118.471C49.7266 118.745 50.3242 118.917 50.9386 118.98C52.6337 119.195 54.3413 119.296 56.0498 119.28L56.0497 119.28ZM37.3968 115.995C40.2395 116.812 42.9196 116.467 45.574 116.461C47.2866 116.456 47.4891 116.266 47.9227 114.637H47.9236C48.3856 112.449 49.7961 110.578 51.7741 109.531C51.8653 109.484 51.9524 109.429 52.0428 109.381C52.1859 109.333 52.3014 109.226 52.36 109.087C52.4178 108.948 52.4136 108.79 52.3466 108.655C51.8636 106.862 50.6826 105.338 49.0661 104.423C47.716 103.618 46.2888 103.836 44.9193 103.572C42.5555 103.115 40.523 104.256 38.654 105.583H38.6548C38.1693 105.88 37.8286 106.364 37.714 106.921C37.5985 107.479 37.719 108.059 38.0471 108.524C38.5862 109.581 38.7904 110.777 38.6322 111.953C38.5125 113.374 38.0915 114.751 37.3967 115.995L37.3968 115.995ZM73.2404 104.683C73.0931 102.784 72.5783 100.931 71.7253 99.2281C71.475 98.6572 71.0138 98.2053 70.4371 97.9684C69.9231 97.7281 69.3523 97.6335 68.7881 97.6963C68.2239 97.7583 67.6874 97.9751 67.2379 98.3216C65.6064 99.4307 63.5699 99.7647 61.6699 99.2323C61.3836 99.1461 61.0186 98.9385 60.7809 99.1453C59.9179 99.8986 58.6724 100.033 57.9509 101.04V101.04C56.7246 102.522 56.0616 104.39 56.08 106.314C56.2533 108.717 56.6886 109.515 59.0432 108.168C59.1319 108.117 59.2365 108.095 59.3253 108.045V108.044C59.907 107.661 60.5817 107.44 61.2773 107.404C61.9737 107.368 62.6668 107.519 63.2854 107.841C63.688 108.067 64.1885 108.019 64.5401 107.718C66.7875 106.229 69.1899 105.261 71.9272 106.292C72.7006 106.583 72.9702 106.165 73.1652 105.599C73.2288 105.298 73.2539 104.99 73.2405 104.683L73.2404 104.683ZM36.964 106.258V106.259C38.8331 104.169 41.474 102.934 44.2765 102.837C45.8962 102.772 46.0008 102.639 45.7522 100.979C45.7296 100.827 45.7204 100.671 45.6877 100.521C45.4952 98.9971 44.6765 97.6227 43.4285 96.7261C42.1805 95.8296 40.6151 95.494 39.1094 95.7987C37.8554 96.0674 36.5857 96.2532 35.3075 96.3562C32.8976 96.4851 30.5296 97.0434 28.3147 98.0035C26.9327 98.4689 25.7986 99.475 25.1724 100.793C24.9891 101.155 24.6434 101.521 24.8602 101.926C25.118 102.408 25.5926 102.067 25.9668 102.044C26.4782 102.011 26.9847 101.897 27.4961 101.857V101.858C28.7149 101.651 29.9653 101.748 31.1372 102.14C33.3345 103.087 35.721 103.763 36.9639 106.259L36.964 106.258ZM55.7609 108.57V108.571C55.0837 106.541 55.2812 104.321 56.305 102.442C56.9244 101.261 57.7388 100.192 58.7131 99.2801C59.2664 98.664 59.2664 98.4422 58.6436 97.9785C58.5181 97.8898 58.3867 97.8111 58.2485 97.7441C54.9398 96.039 51.3479 95.9453 47.756 95.9896C47.1391 96.0407 46.58 96.373 46.2401 96.8911C45.9003 97.4085 45.8174 98.0538 46.0158 98.6406C46.1581 99.1872 46.2954 99.7346 46.4486 100.279C46.6838 101.115 46.3849 102.189 46.9558 102.78V102.781C47.6547 103.298 48.4516 103.669 49.2971 103.871C50.9545 104.502 52.2335 105.855 52.7709 107.545C53.2773 108.948 53.2832 108.952 54.7262 108.851C55.0937 108.885 55.4603 108.785 55.7608 108.572L55.7609 108.57ZM75.2039 115.526V115.526C76.2234 115.659 77.2597 115.573 78.2433 115.276C79.0561 115.04 79.6847 114.396 79.9023 113.579C80.1191 112.761 79.8923 111.889 79.3047 111.282C78.7731 110.442 77.9018 109.878 76.9182 109.736C75.4517 109.517 74.0847 108.864 72.9925 107.861C72.8284 107.738 72.6719 107.603 72.5011 107.49V107.491C71.3602 106.908 70.0778 106.659 68.8021 106.773C67.5265 106.888 66.3085 107.36 65.2889 108.135C65.0914 108.265 64.9658 108.479 64.9507 108.714C64.9348 108.95 65.0311 109.178 65.2102 109.332C65.4002 109.574 65.6061 109.803 65.8263 110.019C67.0367 110.996 67.8494 112.381 68.1123 113.915C68.155 114.504 68.6447 114.959 69.2339 114.959C71.2261 115.123 73.1948 115.539 75.2037 115.526L75.2039 115.526ZM77.7192 104.888V104.889C76.4795 104.866 75.2641 105.237 74.2488 105.949C73.3741 106.505 73.4034 107.169 74.2363 107.756C74.8766 108.266 75.6316 108.613 76.4361 108.767C77.2037 108.817 77.9487 109.048 78.61 109.442C79.7384 110.17 80.5462 111.302 80.8701 112.605C81.1279 113.653 81.4485 113.811 82.355 113.5C83.5085 113.103 83.9546 112.457 83.66 111.272C83.352 110.087 82.946 108.929 82.448 107.81C81.9784 106.726 80.9011 106.43 80.0825 105.787C79.4245 105.219 78.5883 104.901 77.7204 104.889L77.7192 104.888ZM69.1385 96.6776C68.2044 95.0722 67.595 94.6629 65.9652 94.6294C65.1432 94.6595 64.3229 94.5331 63.5478 94.256C60.9922 93.1813 59.504 94.59 58.106 95.9377C57.7871 96.2449 57.7812 96.6241 58.2107 96.8124C59.4093 97.3381 60.2171 98.715 61.7807 98.453C61.9355 98.4471 62.0895 98.4815 62.2276 98.5518C62.9617 98.7736 63.7427 98.7862 64.4834 98.5903C66.2136 98.335 67.5019 97.1255 69.1383 96.6776L69.1385 96.6776ZM78.7462 104.126V104.127C78.927 103.249 78.7287 102.335 78.2013 101.611C77.3709 100.109 75.0112 99.8326 73.5607 100.221C73.0635 100.354 73.1907 100.788 73.3305 101.107C73.7466 102.037 74.006 103.031 74.0998 104.047C74.1442 104.548 74.3944 104.87 74.8916 104.644L74.8908 104.643C76.1163 104.164 77.438 103.987 78.7462 104.127V104.126Z" fill="#A87E5C"/>
<path d="M48.4981 50.6546C48.1867 50.5232 48.2771 50.2511 48.2713 50.0109C48.257 49.4367 48.668 48.767 47.8996 48.3619C47.1404 47.9618 46.4055 47.329 45.4846 47.8563C44.7413 48.2824 44.5538 47.9141 44.5396 47.2813H44.5404C44.5797 46.5639 44.5278 45.8441 44.3847 45.1401C44.2692 44.5784 43.8741 44.1147 43.3384 43.9113C42.2076 43.4342 40.9343 43.4241 39.7969 43.8828C38.6585 44.3415 37.7486 45.233 37.2664 46.3604C36.9366 46.8333 36.878 47.4444 37.1132 47.9709C37.294 48.2906 37.4037 48.6807 36.9349 48.8732C36.5716 49.0222 36.3984 48.7242 36.205 48.4748L36.2042 48.4756C35.6107 47.6277 34.6582 47.1029 33.6253 47.0518C32.5915 47.0016 31.5929 47.4318 30.919 48.217C29.8794 49.4307 29.2449 50.9382 29.1026 52.5295C29.0256 53.5021 29.2851 54.4723 29.8384 55.2766C30.3908 56.081 31.2036 56.672 32.1394 56.949C32.4658 57.0553 32.7756 57.1549 32.619 57.54C32.4592 57.9359 32.1134 57.7476 31.8263 57.6522C30.8077 57.2579 29.9329 56.564 29.3168 55.6616C28.7008 54.7601 28.3727 53.6921 28.376 52.5997C28.4547 50.9532 29.0205 49.3662 30.0016 48.0412C30.5641 47.2745 31.3626 46.7128 32.2749 46.4425C33.1873 46.1729 34.1625 46.2089 35.0523 46.5463C35.8341 46.8802 36.1806 46.8911 36.5263 46.0072C37.1499 44.4461 38.5051 43.2961 40.1458 42.9352C41.5579 42.6138 43.0387 42.8306 44.2993 43.5412C44.9572 43.9865 45.3214 44.7541 45.2485 45.5451C45.2201 45.9252 45.3565 46.2993 45.6235 46.5714C45.8906 46.8434 46.2614 46.9874 46.6422 46.9656C46.8975 46.9966 47.1462 47.0652 47.3814 47.1699C49.1174 47.8537 49.443 48.8775 48.498 50.6546L48.4981 50.6546Z" fill="#A87E5C"/>
<path d="M95.9018 87.7778C95.5411 87.1157 95.9529 86.8102 96.0718 86.446C96.4325 85.3344 96.4484 85.3394 95.2824 84.8288C95.2682 84.3651 95.6298 84.1107 95.8566 83.7767H95.8558C96.3697 83.1447 96.5372 82.2993 96.3053 81.5183C96.0735 80.7373 95.4708 80.1221 94.6957 79.8727C93.2668 79.2449 91.6597 79.1528 90.168 79.6123C86.592 80.6059 83.6675 83.1798 82.2277 86.6C81.1772 88.6985 81.0994 91.1518 82.0142 93.3123C82.2428 94.0045 82.7576 94.5645 83.428 94.8508C83.6599 94.9537 83.8658 95.1077 84.0282 95.3028C84.1772 95.4568 84.1923 95.6962 84.065 95.8686C83.9177 96.0946 83.7009 96.0402 83.5243 95.9373C82.6797 95.5547 81.985 94.9043 81.548 94.0874C80.4414 91.7896 80.3661 89.1295 81.3396 86.7732C82.8446 82.8089 86.1584 79.8055 90.2517 78.6972C92.043 78.1246 93.9942 78.3523 95.6054 79.3216C96.3755 79.6456 96.969 80.2859 97.2327 81.0794C97.4972 81.873 97.4051 82.7418 96.9815 83.4625C96.8719 83.845 96.8861 84.2527 97.0217 84.6268C97.3599 85.8088 96.9104 87.0744 95.9017 87.7775L95.9018 87.7778Z" fill="#A87E5C"/>
<path d="M97.8862 88.3736C97.8461 85.4482 100.217 83.9482 102.652 85.2146C104.806 86.3354 105.259 87.3072 104.61 89.7071C104.441 90.3316 104.515 90.5534 105.14 90.8304L105.139 90.8296C106.349 91.4264 107.227 92.5347 107.532 93.848C107.835 95.1622 107.533 96.5433 106.709 97.6113C106.526 97.8532 106.311 98.1897 106.061 98.2425C104.974 98.4685 105.21 99.0787 105.419 99.8463C105.788 100.994 105.559 102.251 104.807 103.194C104.056 104.138 102.883 104.643 101.681 104.54C101.369 104.526 101.054 104.499 100.959 104.064C101.147 103.609 101.543 103.856 101.855 103.852C102.803 103.944 103.73 103.533 104.299 102.768C104.868 102.003 104.995 100.997 104.635 100.115C104.548 99.8194 104.432 99.5323 104.288 99.2603C103.941 98.5973 104.158 98.0867 104.826 97.9553C106.568 97.6113 106.647 96.2218 106.862 94.9084V94.9075C106.93 94.2906 106.822 93.667 106.553 93.1079C106.283 92.5496 105.861 92.0775 105.335 91.7477C104.952 91.4748 104.466 91.3902 104.013 91.5158C103.663 91.5685 103.327 91.7251 102.976 91.782C102.741 91.8196 102.44 91.8757 102.302 91.5878C102.158 91.2898 102.37 91.0956 102.597 90.9709L102.596 90.97C103.429 90.5239 103.988 89.6961 104.091 88.7578C104.302 87.3155 103.34 85.9628 101.907 85.69C100.672 85.3594 99.3711 85.9227 98.7668 87.0494C98.535 87.4721 98.5827 88.0673 97.8862 88.3736V88.3736Z" fill="#A87E5C"/>
<path d="M10.312 97.1054C10.1371 99.9749 10.3656 100.033 13.0433 99.604C12.4741 100.35 11.5232 100.696 10.6075 100.493C9.48918 100.116 9.42892 99.0616 9.23641 98.1609C8.74004 97.9767 8.39517 98.3023 7.99842 98.3559C6.84747 98.6003 5.64706 98.3601 4.6787 97.6913C3.71107 97.0225 3.06151 95.9845 2.88406 94.8209C2.37179 92.7057 4.2677 90.3627 6.6107 89.9961C7.68798 89.8278 8.38524 90.6498 9.26506 90.993C9.31947 91.0139 9.35044 91.1755 9.33956 91.2659L9.3404 91.2667C9.33537 91.3429 9.29687 91.4123 9.23409 91.4567C9.17215 91.5011 9.09346 91.5153 9.0198 91.4944C8.67159 91.4224 8.32839 91.3228 7.9944 91.1989C6.99915 90.8457 5.89256 91.0114 5.04455 91.6417C4.19578 92.272 3.71782 93.284 3.76888 94.3395C3.82413 95.411 4.37156 96.3979 5.25048 97.0132C6.13023 97.6293 7.24434 97.805 8.27062 97.4903C8.94444 97.3438 9.56722 96.8868 10.3122 97.1053L10.312 97.1054Z" fill="#A87E5C"/>
<path d="M52.4941 92.5582C53.8661 89.1556 53.8761 85.6985 54.3926 82.3278C54.6989 79.4727 55.4197 76.6777 56.5321 74.0309C57.211 72.5845 58.2748 71.3532 59.6075 70.471C60.0252 70.1161 60.5685 69.9428 61.1151 69.9922C61.1293 70.4952 60.8179 70.6225 60.5651 70.7756C57.8581 72.4179 56.7766 75.0847 55.9713 77.9542H55.9704C55.187 81.3433 54.6705 84.7895 54.4261 88.2592C54.2168 89.365 53.9464 90.4573 53.6167 91.532C53.5212 92.0911 53.0592 92.513 52.4942 92.5582L52.4941 92.5582Z" fill="#A87E5C"/>
<path d="M29.5574 58.2941C29.1205 58.4155 28.9229 58.4548 28.7371 58.5243C27.8105 58.8683 27.659 59.065 27.9821 59.9858C28.234 60.7032 28.2985 61.1602 27.5092 61.6222C26.7399 62.0726 26.6713 62.9473 26.7131 63.8152C26.9199 65.409 27.7159 66.8688 28.9438 67.9068C30.6431 69.6211 32.6336 71.0197 34.8226 72.0393C35.7391 72.4963 36.7427 72.7533 37.7673 72.7927C38.0042 72.8019 38.1699 72.8898 38.1624 73.1409C38.1766 73.2714 38.1222 73.4003 38.0192 73.4815C37.9154 73.5627 37.7782 73.5853 37.6543 73.5418C36.4824 73.3936 35.3398 73.0663 34.2675 72.5717C31.4023 71.1746 28.8977 69.1356 26.9492 66.6126C26.2653 65.8124 25.8853 64.7962 25.8761 63.744C25.8677 62.6909 26.231 61.6689 26.9024 60.8577C27.2028 60.4267 27.0438 60.1329 26.9894 59.7378C26.7919 58.2922 27.87 57.5615 29.5574 58.2938L29.5574 58.2941Z" fill="#A87E5C"/>
<path d="M5.02108 79.3156C3.429 78.5907 3.10005 77.685 3.76383 76.4512H3.76466C4.23007 75.4434 4.96584 74.5854 5.89079 73.9728C6.81573 73.3601 7.89303 73.0161 9.00221 72.9801C9.41238 72.9616 9.82336 72.8846 10.2302 72.9064V72.9072C11.2664 73.1324 12.3153 72.5808 12.7163 71.5989C13.3458 70.6832 14.4331 70.1952 15.5355 70.3324C17.0363 70.3735 18.4868 70.8799 19.6864 71.783C20.2347 72.1179 20.5444 72.7356 20.4858 73.3751C19.9308 72.8729 19.3432 72.4083 18.7255 71.9856C18.1354 71.6776 17.5176 71.4256 16.8798 71.2323C16.0578 70.9226 15.1445 70.9669 14.3561 71.3545C13.3994 71.6608 12.7808 72.5875 12.8662 73.5886C12.9047 74.4106 12.7917 74.3955 12.0082 74.0909H12.0074C10.6112 73.474 9.02921 73.4288 7.60035 73.9653C6.17066 74.501 5.00878 75.5758 4.36186 76.9587C3.9383 77.8234 4.42212 78.4905 5.02145 79.3158L5.02108 79.3156Z" fill="#A87E5C"/>
<path d="M93.5579 100.789C93.7555 100.603 93.8157 100.507 93.9011 100.473C94.2703 100.322 94.8445 100.247 94.6871 99.7301H94.688C94.4879 99.2363 93.9915 98.9282 93.46 98.9676C93.0147 98.9542 92.4103 99.6063 92.1592 98.8412C91.97 98.2628 92.7192 98.2243 93.0415 97.9447C93.9514 97.1545 94.2862 96.2681 93.8358 95.7189C93.0808 95.0568 91.9792 94.9731 91.1322 95.5122C90.4617 95.9064 89.9536 96.5267 89.6975 97.2608C89.6406 97.4483 89.5024 97.6408 89.2405 97.542C89.0379 97.4734 88.924 97.2574 88.9818 97.0507C89.2689 95.9374 90.0767 95.0317 91.1497 94.619C92.0738 94.1067 93.2106 94.1686 94.0737 94.7797C94.9024 95.297 95.1602 96.3843 94.6521 97.218C94.0092 98.0634 94.3499 98.4066 95.0329 98.8494C95.5385 99.1784 95.8524 99.6338 95.4523 100.276C95.0647 100.898 94.6144 101.047 93.558 100.789L93.5579 100.789Z" fill="#A87E5C"/>
<path d="M3.11212 101.907C2.03902 102.307 0.876265 102.492 0.811979 103.986C0.745853 105.498 2.03911 105.365 2.8502 105.729C2.92135 105.946 2.87531 106.185 2.72715 106.36C1.96042 107.417 2.08095 108.058 3.16241 108.718H3.16325C4.06057 109.262 5.17886 109.291 6.10389 108.796C6.95015 108.37 7.83073 108.019 8.73725 107.745C7.29332 108.818 5.8971 110.007 3.90746 109.782C3.15997 109.742 2.46187 109.394 1.97973 108.821C1.49842 108.247 1.27576 107.5 1.36616 106.756C1.44736 106.422 1.2766 106.076 0.960198 105.938C-0.0216587 105.147 -0.28701 103.762 0.334076 102.664C0.786926 101.748 1.68926 101.458 3.11229 101.908L3.11212 101.907Z" fill="#A87E5C"/>
<path d="M30.393 84.525C30.393 83.4134 30.4709 82.5454 30.3796 81.6958C30.044 77.8061 27.9966 74.2669 24.7923 72.0371C23.3308 70.984 22.6152 71.1088 21.4323 72.4681C21.3453 72.592 21.1846 72.6389 21.0439 72.582C21.439 70.5362 21.8969 70.2651 23.7844 70.8284C24.6408 71.1707 25.4251 71.6729 26.0938 72.3083C28.635 74.4285 30.3369 77.3858 30.8942 80.6487C31.2048 81.9587 31.0265 83.3373 30.3928 84.5251L30.393 84.525Z" fill="#A87E5C"/>
<path d="M8.00845 89.5049C6.55951 89.6933 5.09223 89.3425 3.88601 88.5189C2.67982 87.6952 1.8185 86.4564 1.46608 85.0393C1.37233 84.0424 1.6134 83.0429 2.15162 82.1983C2.68901 81.3537 3.49342 80.7134 4.43677 80.3769C4.69794 80.32 5.00011 80.3015 5.11814 80.556C5.24202 80.8222 5.03108 81.0214 4.78415 81.1528L4.78331 81.152C4.46188 81.3043 4.15301 81.481 3.8592 81.6819C0.718629 84.0684 2.89157 87.4601 5.38181 88.3849L5.38098 88.3841C6.32015 88.5875 7.21162 88.9675 8.00855 89.5049L8.00845 89.5049Z" fill="#A87E5C"/>
<path d="M60.0367 83.9117C59.9781 83.7719 59.9455 83.6229 59.9404 83.4714C60.4033 80.9242 60.0225 78.3461 60.2317 75.7882V75.789C60.287 74.0814 60.9323 72.4458 62.0582 71.1609C62.1569 71.0471 62.2741 70.95 62.4039 70.8738C62.4809 70.832 62.5989 70.8663 62.7303 70.8663C63.0124 71.284 62.583 71.5066 62.4147 71.7519C61.4245 73.2008 60.903 74.9201 60.9223 76.6746C60.9156 78.0098 60.9039 79.3457 60.924 80.6807C60.9248 81.7856 60.7306 82.8821 60.3506 83.9201L60.0367 83.9117Z" fill="#A87E5C"/>
<path d="M43.1883 61.3757C42.4626 60.8425 41.7653 60.2633 41.0045 59.7861C39.8218 59.0437 39.2392 59.2102 38.495 60.4223L38.4959 60.4215C38.228 60.8567 37.9886 61.3087 37.7785 61.775C37.1942 62.7418 37.4253 63.9924 38.3167 64.6854C38.4649 64.8076 38.6683 64.9198 38.6231 65.1742C37.6111 65.1667 36.7858 64.3623 36.7523 63.3511C36.6861 61.6821 37.401 60.0784 38.6859 59.0119C39.1035 58.6051 39.7146 58.4661 40.2679 58.6519C41.5511 59.109 42.6593 59.9552 43.4387 61.0727L43.1883 61.3757Z" fill="#A87E5C"/>
<path d="M94.6681 106.243C94.6923 106.973 94.3709 107.674 93.8 108.132C93.2166 108.842 92.1678 108.944 91.4579 108.36C91.1482 108.183 90.8435 107.999 90.5321 107.826C90.2542 107.671 89.9445 107.494 90.1872 107.137C90.4316 106.778 90.7305 107.05 90.9824 107.194C91.2043 107.319 91.4001 107.487 91.6194 107.619H91.6186C91.961 107.895 92.4205 107.98 92.839 107.841C93.2567 107.703 93.5765 107.363 93.687 106.937C94.1289 105.8 93.6853 104.51 92.6373 103.886C92.3661 103.727 91.7743 103.803 92.017 103.288C92.2657 102.761 92.8173 102.833 93.1847 103.185H93.1856C94.1147 103.929 94.6596 105.052 94.668 106.243L94.6681 106.243Z" fill="#A87E5C"/>
<path d="M12.8896 84.0105C12.1773 83.972 11.5168 83.6221 11.0841 83.0546C10.6513 82.4863 10.4889 81.7572 10.6404 81.0599C10.8539 80.027 11.6457 79.2109 12.672 78.9673C13.7559 79.0761 14.7227 79.6989 15.2702 80.6414C15.3807 80.8247 15.3321 81.0633 15.158 81.1888C15.0174 81.2382 14.8625 81.2148 14.742 81.1277C14.511 80.9277 14.3385 80.6623 14.115 80.4522C13.3332 79.7165 12.7414 79.5708 12.2183 79.9634H12.2191C11.5796 80.5694 11.3009 81.4634 11.4808 82.3248C11.6767 83.0162 12.3539 83.2908 12.8896 84.0106L12.8896 84.0105Z" fill="#A87E5C"/>
<path d="M22.4494 81.6018C21.1243 80.0734 20.5844 79.3377 19.4033 81.2896C18.8282 81.1574 18.629 80.1186 17.8949 80.5237C17.2094 80.9021 17.5057 81.7056 17.494 82.3895V82.3887C17.1131 82.1928 16.836 81.8429 16.7331 81.4277C16.6301 81.0134 16.7113 80.5739 16.9566 80.224C17.2788 79.5485 17.735 79.3008 18.4415 79.6523V79.6515C18.8734 79.9361 19.4451 79.8775 19.8109 79.5117C20.4806 78.95 21.172 79.4071 21.7755 79.8139C22.3313 80.1889 22.8444 80.6116 22.4493 81.6019L22.4494 81.6018Z" fill="#A87E5C"/>
<path d="M65.334 83.6934C66.0146 86.367 65.0636 89.2046 67.3338 91.3659C66.5988 91.4044 65.9166 90.9833 65.6236 90.3078C64.9866 88.16 64.8878 85.889 65.334 83.6935L65.334 83.6934Z" fill="#A87E5C"/>
<path d="M49.1643 57.3234C48.7776 56.9493 48.9342 56.5676 48.8588 56.2361C48.5801 55.014 48.0971 54.7687 46.942 55.2911C46.7101 55.3957 46.4716 55.6075 46.2974 55.3045C46.1543 55.0558 46.3477 54.8365 46.5527 54.6624V54.6616C47.0407 54.233 47.7255 54.1091 48.3332 54.3402C48.94 54.5704 49.3702 55.1178 49.4506 55.7623C49.587 56.2997 49.4832 56.8697 49.1643 57.3234V57.3234Z" fill="#A87E5C"/>
<path d="M29.8481 104.25C29.3182 104.509 28.7172 104.585 28.1388 104.467C26.8071 104.418 25.4744 104.542 24.1737 104.835C21.8122 105.294 19.8125 106.855 18.794 109.034C18.6852 109.265 18.5596 109.489 18.4182 109.702C18.3688 109.778 18.26 109.814 18.178 109.868H18.1788C18.0817 108.355 18.7865 106.902 20.0354 106.043C21.7103 104.748 23.7301 103.974 25.8412 103.819C26.9687 103.751 28.0987 103.751 29.2254 103.82C29.4581 103.824 29.7469 103.808 29.8482 104.25L29.8481 104.25Z" fill="#A87E5C"/>
<path d="M17.576 115.446C16.8335 113.576 16.9331 113.044 18.1795 112.007C18.5913 112.673 17.9125 113.113 17.8463 113.659C17.781 114.202 18.0062 114.781 17.576 115.446V115.446Z" fill="#A87E5C"/>
<path d="M55.9614 112.35C53.9408 112.507 51.9519 112.948 50.0527 113.657C50.8153 112.907 51.7746 112.386 52.8192 112.155C53.8646 111.924 54.9536 111.992 55.9614 112.35V112.35Z" fill="#A87E5C"/>
<path d="M49.6377 116.147C50.1542 114.665 50.869 113.821 52.4427 114.123C52.2694 114.975 51.1746 114.54 51.0666 115.085C50.91 115.879 50.4463 116.003 49.6377 116.147H49.6377Z" fill="#A87E5C"/>
<path d="M62.5566 113.4C63.3485 112.866 64.322 113.243 65.1056 112.773C65.1826 112.706 65.2881 112.683 65.386 112.709C65.4848 112.735 65.5635 112.808 65.5978 112.904C65.6698 113.106 65.5651 113.328 65.3643 113.402C64.4694 113.793 63.4507 113.793 62.5567 113.4L62.5566 113.4Z" fill="#A87E5C"/>
<path d="M63.4229 115.701C64.1938 115.01 65.2635 115.299 66.0763 114.791C66.1232 114.761 66.2747 114.824 66.3224 114.886H66.3233C66.4178 115.007 66.4145 115.177 66.3166 115.295C66.1132 115.521 65.8344 115.666 65.5322 115.701C64.84 115.876 64.1151 115.876 63.4229 115.701H63.4229Z" fill="#A87E5C"/>
<path d="M43.19 105.568C41.7251 105.774 40.2945 106.173 38.9336 106.753C39.3906 106.087 40.0678 105.602 40.8463 105.385C41.6247 105.168 42.4542 105.233 43.1901 105.568L43.19 105.568Z" fill="#A87E5C"/>
<path d="M50.4004 98.1515C51.1772 97.8786 52.0134 97.8225 52.8186 97.9899C53.6247 98.1582 54.3688 98.5424 54.9724 99.1024C53.4716 98.6838 51.9439 98.3657 50.4004 98.1515V98.1515Z" fill="#A87E5C"/>
<path d="M71.0255 107.807C71.937 109.164 73.4388 109.325 74.8334 109.73C75.5256 109.912 76.1994 110.158 76.8465 110.463C77.3989 110.665 77.7965 111.153 77.8844 111.734C77.9723 112.316 77.7363 112.898 77.2684 113.254C77.1989 113.195 77.0624 113.128 77.0691 113.079C77.2817 111.406 77.2265 111.277 75.6897 110.733C74.7287 110.393 73.7494 110.098 72.7674 109.825L72.7666 109.826C72.1154 109.677 71.5253 109.331 71.0774 108.835C70.8456 108.563 70.6221 108.263 71.0255 107.807L71.0255 107.807Z" fill="#A87E5C"/>
</svg>
