<svg width="104" height="48" viewBox="0 0 104 48" fill="none" xmlns="http://www.w3.org/2000/svg">
<path d="M18.4 28.4001C18 28.1001 17.5 27.9001 17 27.8001C16.5 27.6001 16 27.6001 15.5 27.6001C15.2 27.6001 14.9 27.6001 14.6 27.7001C14.3 27.8001 14.1 27.9001 13.9 28.0001C13.7 28.1001 13.5 28.3001 13.4 28.5001C13.3 28.7001 13.2 28.9001 13.2 29.1001C13.2 29.3001 13.2 29.5001 13.3 29.6001C13.4 29.7001 13.5 29.9001 13.7 30.0001C13.9 30.1001 14.1 30.2001 14.4 30.3001C14.7 30.4001 15 30.4001 15.3 30.5001L16 30.6001C16.4 30.7001 16.8 30.7001 17.2 30.9001C17.6 31.0001 17.9 31.2001 18.2 31.4001C18.5 31.6001 18.8 31.9001 18.9 32.2001C19.1 32.5001 19.2 32.9001 19.2 33.4001C19.2 33.9001 19.1 34.4001 18.9 34.8001C18.7 35.2001 18.4 35.5001 18 35.8001C17.6 36.1001 17.2 36.3001 16.7 36.4001C16.2 36.5001 15.7 36.6001 15.1 36.6001C14.8 36.6001 14.4 36.6001 14 36.5001C13.6 36.4001 13.3 36.4001 12.9 36.2001C12.5 36.1001 12.2 35.9001 11.9 35.8001C11.6 35.6001 11.3 35.4001 11 35.2001L11.9 33.9001C12.1 34.1001 12.3 34.2001 12.5 34.3001C12.7 34.4001 13 34.6001 13.3 34.7001C13.6 34.8001 13.9 34.9001 14.2 34.9001C14.5 35.0001 14.8 35.0001 15.1 35.0001C15.4 35.0001 15.7 35.0001 16 34.9001C16.3 34.8001 16.5 34.7001 16.7 34.6001C16.9 34.5001 17.1 34.3001 17.2 34.1001C17.3 33.9001 17.4 33.7001 17.4 33.5001C17.4 33.1001 17.2 32.8001 16.8 32.6001C16.4 32.4001 15.8 32.2001 15.1 32.1001L14.6 32.0001C14.2 31.9001 13.9 31.9001 13.5 31.7001C13.1 31.6001 12.8 31.4001 12.5 31.2001C12.2 31.0001 12 30.7001 11.8 30.4001C11.6 30.1001 11.5 29.7001 11.5 29.2001C11.5 28.7001 11.6 28.2001 11.8 27.9001C12 27.5001 12.3 27.2001 12.7 26.9001C13.1 26.6001 13.5 26.4001 14 26.3001C14.5 26.2001 15 26.1001 15.5 26.1001C16.2 26.1001 16.9 26.2001 17.5 26.4001C18.1 26.6001 18.6 26.9001 19.2 27.2001L18.4 28.4001ZM24 29.2001C24.5 29.2001 24.9 29.3001 25.3 29.5001C25.7 29.7001 26 29.9001 26.3 30.2001C26.6 30.5001 26.8 30.9001 27 31.3001C27.2 31.7001 27.2 32.2001 27.2 32.8001C27.2 32.9001 27.2 33.0001 27.2 33.1001C27.2 33.2001 27.2 33.3001 27.2 33.4001H22.1C22.1 33.7001 22.2 34.0001 22.4 34.2001C22.5 34.4001 22.7 34.6001 22.9 34.7001C23.1 34.8001 23.3 34.9001 23.5 35.0001C23.7 35.1001 24 35.1001 24.2 35.1001C24.5 35.1001 24.9 35.0001 25.2 34.9001C25.5 34.8001 25.9 34.6001 26.2 34.4001L27 35.5001C26.6 35.9001 26.1 36.1001 25.7 36.3001C25.2 36.4001 24.7 36.5001 24.2 36.5001C23.7 36.5001 23.2 36.4001 22.8 36.2001C22.4 36.0001 22 35.8001 21.7 35.5001C21.4 35.2001 21.1 34.8001 21 34.4001C20.8 34.0001 20.7 33.5001 20.7 32.9001C20.7 32.4001 20.8 31.9001 21 31.4001C21.2 31.0001 21.4 30.6001 21.7 30.2001C22 29.9001 22.4 29.6001 22.8 29.5001C23 29.3001 23.4 29.2001 24 29.2001ZM23.9 30.6001C23.6 30.6001 23.4 30.6001 23.2 30.7001C23 30.8001 22.8 30.9001 22.7 31.1001C22.5 31.3001 22.4 31.4001 22.3 31.6001C22.2 31.8001 22.1 32.0001 22.1 32.3001H25.7C25.6 31.8001 25.4 31.3001 25.1 31.0001C24.8 30.7001 24.4 30.6001 23.9 30.6001ZM31.9 29.2001C32.4 29.2001 32.9 29.3001 33.3 29.5001C33.7 29.7001 34.1 30.0001 34.4 30.3001L33.4 31.3001C33.2 31.1001 32.9 30.9001 32.6 30.8001C32.3 30.7001 32 30.6001 31.7 30.6001C31.4 30.6001 31.1 30.7001 30.9 30.8001C30.6 30.9001 30.4 31.1001 30.3 31.3001C30.1 31.5001 30 31.7001 29.9 32.0001C29.8 32.3001 29.7 32.6001 29.7 32.9001C29.7 33.2001 29.8 33.5001 29.9 33.8001C30 34.1001 30.1 34.3001 30.3 34.5001C30.5 34.7001 30.7 34.8001 30.9 35.0001C31.1 35.1001 31.4 35.2001 31.7 35.2001C32 35.2001 32.3 35.1001 32.6 35.0001C32.9 34.9001 33.1 34.7001 33.4 34.5001L34.3 35.5001C34 35.9001 33.6 36.1001 33.2 36.3001C32.8 36.5001 32.3 36.6001 31.8 36.6001C31.3 36.6001 30.8 36.5001 30.3 36.3001C29.9 36.1001 29.5 35.9001 29.2 35.5001C28.9 35.2001 28.6 34.8001 28.5 34.3001C28.3 33.9001 28.2 33.4001 28.2 32.9001C28.2 32.4001 28.3 31.9001 28.5 31.5001C28.7 31.1001 28.9 30.7001 29.2 30.3001C29.5 30.0001 29.9 29.7001 30.3 29.5001C30.9 29.3001 31.4 29.2001 31.9 29.2001ZM42.3 33.4001C42.3 33.9001 42.2 34.4001 42 34.8001C41.8 35.2001 41.6 35.5001 41.3 35.8001C41 36.1001 40.7 36.2001 40.3 36.4001C39.9 36.5001 39.5 36.6001 39.1 36.6001C38.7 36.6001 38.3 36.5001 37.9 36.4001C37.5 36.3001 37.2 36.1001 36.9 35.8001C36.6 35.6001 36.4 35.2001 36.2 34.8001C36 34.4001 35.9 33.9001 35.9 33.4001V29.4001H37.4V33.2001C37.4 33.5001 37.4 33.8001 37.5 34.0001C37.6 34.2001 37.7 34.4001 37.9 34.6001C38.1 34.7001 38.2 34.8001 38.4 34.9001C38.6 35.0001 38.8 35.0001 39.1 35.0001C39.3 35.0001 39.6 35.0001 39.8 34.9001C40 34.8001 40.2 34.7001 40.3 34.6001C40.5 34.5001 40.6 34.3001 40.7 34.0001C40.8 33.8001 40.8 33.5001 40.8 33.2001V29.4001H42.3V33.4001ZM47.8 29.2001C48 29.2001 48.2 29.2001 48.4 29.2001C48.6 29.2001 48.8 29.3001 48.9 29.3001L48.5 30.8001C48.3 30.7001 48.2 30.7001 47.9 30.6001C47.7 30.6001 47.5 30.5001 47.3 30.5001C47.1 30.5001 46.8 30.5001 46.6 30.6001C46.4 30.7001 46.2 30.8001 46.1 31.0001C46 31.2001 45.8 31.4001 45.8 31.6001C45.7 31.8001 45.7 32.1001 45.7 32.4001V36.2001H44.2V29.3001H45.7V30.1001C45.9 29.8001 46.2 29.5001 46.6 29.4001C46.9 29.3001 47.3 29.2001 47.8 29.2001ZM52.8 29.2001C53.3 29.2001 53.7 29.3001 54.1 29.5001C54.5 29.7001 54.8 29.9001 55.1 30.2001C55.4 30.5001 55.6 30.9001 55.8 31.3001C56 31.7001 56 32.2001 56 32.8001C56 32.9001 56 33.0001 56 33.1001C56 33.2001 56 33.3001 56 33.4001H51C51 33.7001 51.1 34.0001 51.3 34.2001C51.4 34.4001 51.6 34.6001 51.8 34.7001C52 34.8001 52.2 34.9001 52.4 35.0001C52.6 35.1001 52.9 35.1001 53.1 35.1001C53.4 35.1001 53.8 35.0001 54.1 34.9001C54.4 34.8001 54.8 34.6001 55.1 34.4001L55.8 35.5001C55.4 35.9001 54.9 36.1001 54.5 36.3001C54 36.4001 53.5 36.5001 53 36.5001C52.5 36.5001 52 36.4001 51.6 36.2001C51.2 36.0001 50.8 35.8001 50.5 35.5001C50.2 35.2001 49.9 34.8001 49.8 34.4001C49.6 34.0001 49.5 33.5001 49.5 32.9001C49.5 32.4001 49.6 31.9001 49.8 31.4001C50 31.0001 50.2 30.6001 50.5 30.2001C50.8 29.9001 51.2 29.6001 51.6 29.5001C51.8 29.3001 52.3 29.2001 52.8 29.2001ZM52.8 30.6001C52.5 30.6001 52.3 30.6001 52.1 30.7001C51.9 30.8001 51.7 30.9001 51.6 31.1001C51.4 31.3001 51.3 31.4001 51.2 31.6001C51.1 31.8001 51 32.0001 51 32.3001H54.6C54.5 31.8001 54.3 31.3001 54 31.0001C53.7 30.7001 53.3 30.6001 52.8 30.6001ZM62.6 26.0001C63 26.0001 63.5 26.0001 63.9 26.1001C64.3 26.2001 64.7 26.3001 65.1 26.5001C65.5 26.7001 65.8 26.9001 66.1 27.2001C66.4 27.5001 66.6 27.8001 66.8 28.1001L65.4 29.0001C65.1 28.5001 64.7 28.2001 64.2 27.9001C63.7 27.6001 63.2 27.5001 62.6 27.5001C62.1 27.5001 61.6 27.6001 61.2 27.8001C60.8 28.0001 60.4 28.2001 60.1 28.6001C59.8 28.9001 59.5 29.3001 59.4 29.8001C59.2 30.3001 59.1 30.7001 59.1 31.3001C59.1 31.8001 59.2 32.3001 59.4 32.8001C59.6 33.3001 59.8 33.6001 60.1 34.0001C60.4 34.3001 60.8 34.6001 61.2 34.7001C61.6 34.9001 62.1 35.0001 62.6 35.0001C63.2 35.0001 63.7 34.9001 64.2 34.6001C64.7 34.3001 65.1 34.0001 65.4 33.5001L66.7 34.5001C66.5 34.8001 66.2 35.1001 65.9 35.4001C65.6 35.7001 65.3 35.9001 64.9 36.0001C64.5 36.2001 64.2 36.3001 63.8 36.4001C63.4 36.5001 63 36.5001 62.5 36.5001C61.7 36.5001 61 36.4001 60.4 36.1001C59.8 35.8001 59.2 35.5001 58.7 35.0001C58.2 34.5001 57.9 34.0001 57.6 33.3001C57.3 32.7001 57.2 32.0001 57.2 31.2001C57.2 30.4001 57.3 29.7001 57.6 29.1001C57.9 28.5001 58.2 27.9001 58.7 27.4001C59.2 26.9001 59.7 26.6001 60.4 26.3001C61.1 26.2001 61.8 26.0001 62.6 26.0001ZM71.5 29.2001C72 29.2001 72.5 29.3001 73 29.5001C73.5 29.7001 73.8 29.9001 74.2 30.3001C74.5 30.6001 74.8 31.0001 75 31.5001C75.2 31.9001 75.3 32.4001 75.3 32.9001C75.3 33.4001 75.2 33.9001 75 34.3001C74.8 34.7001 74.6 35.1001 74.2 35.5001C73.9 35.8001 73.5 36.1001 73 36.3001C72.5 36.5001 72.1 36.6001 71.5 36.6001C71 36.6001 70.5 36.5001 70 36.3001C69.5 36.1001 69.2 35.9001 68.8 35.5001C68.5 35.2001 68.2 34.8001 68 34.3001C67.8 33.9001 67.7 33.4001 67.7 32.9001C67.7 32.4001 67.8 31.9001 68 31.5001C68.2 31.1001 68.4 30.7001 68.8 30.3001C69.1 30.0001 69.5 29.7001 70 29.5001C70.5 29.3001 71 29.2001 71.5 29.2001ZM71.5 30.6001C71.2 30.6001 70.9 30.7001 70.6 30.8001C70.3 30.9001 70.1 31.1001 69.9 31.3001C69.7 31.5001 69.6 31.7001 69.4 32.0001C69.3 32.3001 69.2 32.6001 69.2 32.9001C69.2 33.2001 69.3 33.5001 69.4 33.8001C69.5 34.1001 69.7 34.3001 69.9 34.5001C70.1 34.7001 70.3 34.8001 70.6 35.0001C70.9 35.1001 71.2 35.2001 71.5 35.2001C71.8 35.2001 72.1 35.1001 72.4 35.0001C72.7 34.9001 72.9 34.7001 73.1 34.5001C73.3 34.3001 73.4 34.1001 73.6 33.8001C73.7 33.5001 73.8 33.2001 73.8 32.9001C73.8 32.6001 73.7 32.3001 73.6 32.0001C73.5 31.7001 73.3 31.5001 73.1 31.3001C72.9 31.1001 72.7 31.0001 72.4 30.8001C72.1 30.7001 71.8 30.6001 71.5 30.6001ZM79.8 29.2001C80.3 29.2001 80.7 29.3001 81.1 29.5001C81.5 29.7001 81.8 29.9001 82 30.2001V25.9001H83.5V36.3001H82V35.5001C81.8 35.8001 81.5 36.1001 81.1 36.2001C80.7 36.4001 80.3 36.5001 79.8 36.5001C79.3 36.5001 78.9 36.4001 78.4 36.2001C78 36.0001 77.6 35.8001 77.3 35.4001C77 35.1001 76.7 34.7001 76.6 34.2001C76.4 33.8001 76.3 33.3001 76.3 32.7001C76.3 32.2001 76.4 31.7001 76.6 31.2001C76.8 30.8001 77 30.4001 77.3 30.0001C77.6 29.7001 78 29.4001 78.4 29.2001C78.8 29.3001 79.3 29.2001 79.8 29.2001ZM79.9 30.6001C79.6 30.6001 79.3 30.7001 79 30.8001C78.7 30.9001 78.5 31.1001 78.3 31.3001C78.1 31.5001 78 31.7001 77.9 32.0001C77.8 32.3001 77.8 32.6001 77.8 32.9001C77.8 33.2001 77.8 33.5001 77.9 33.8001C78 34.1001 78.1 34.3001 78.3 34.5001C78.5 34.7001 78.7 34.9001 79 35.0001C79.3 35.1001 79.5 35.2001 79.9 35.2001C80.2 35.2001 80.5 35.1001 80.8 35.0001C81.1 34.9001 81.3 34.7001 81.5 34.5001C81.7 34.3001 81.8 34.1001 81.9 33.8001C82 33.5001 82.1 33.2001 82.1 32.9001C82.1 32.6001 82 32.3001 81.9 32.0001C81.8 31.7001 81.7 31.5001 81.5 31.3001C81.3 31.1001 81.1 30.9001 80.8 30.8001C80.5 30.7001 80.3 30.6001 79.9 30.6001ZM88.5 29.2001C89 29.2001 89.4 29.3001 89.8 29.5001C90.2 29.7001 90.5 29.9001 90.8 30.2001C91.1 30.5001 91.3 30.9001 91.5 31.3001C91.7 31.7001 91.7 32.2001 91.7 32.8001C91.7 32.9001 91.7 33.0001 91.7 33.1001C91.7 33.2001 91.7 33.3001 91.7 33.4001H86.6C86.6 33.7001 86.7 34.0001 86.9 34.2001C87 34.4001 87.2 34.6001 87.4 34.7001C87.6 34.8001 87.8 34.9001 88 35.0001C88.2 35.1001 88.5 35.1001 88.7 35.1001C89 35.1001 89.4 35.0001 89.7 34.9001C90 34.8001 90.4 34.6001 90.7 34.4001L91.4 35.5001C91 35.9001 90.5 36.1001 90.1 36.3001C89.6 36.4001 89.1 36.5001 88.6 36.5001C88.1 36.5001 87.6 36.4001 87.2 36.2001C86.8 36.0001 86.4 35.8001 86.1 35.5001C85.8 35.2001 85.5 34.8001 85.4 34.4001C85.2 34.0001 85.1 33.5001 85.1 32.9001C85.1 32.4001 85.2 31.9001 85.4 31.4001C85.6 31.0001 85.8 30.6001 86.1 30.2001C86.4 29.9001 86.8 29.6001 87.2 29.5001C87.5 29.3001 88 29.2001 88.5 29.2001ZM92.4 36.3001V36.0001H92.5V35.9001H92.1V36.0001H92.2L92.4 36.3001ZM93.1 36.3001V35.9001H93L92.9 36.2001L92.8 35.9001H92.7V36.3001H92.8V36.0001L92.9 36.3001H93L93.1 36.0001V36.3001ZM88.4 30.6001C88.1 30.6001 87.9 30.6001 87.7 30.7001C87.5 30.8001 87.3 30.9001 87.2 31.1001C87 31.3001 86.9 31.4001 86.8 31.6001C86.7 31.8001 86.6 32.0001 86.6 32.3001H90.2C90.1 31.8001 89.9 31.3001 89.6 31.0001C89.3 30.7001 88.9 30.6001 88.4 30.6001Z" fill="#F59E1F"/>
<path d="M23.3996 22.1H21.6996V13.5L18.6996 21H16.8996L13.7996 13.5V22H12.0996V11.6H14.6996L17.6996 19.1L20.6996 11.6H23.2996V22.1H23.3996ZM32.2996 22.1H30.6996V21.2C30.4996 21.5 30.0996 21.8 29.7996 22C29.3996 22.2 28.9996 22.3 28.4996 22.3C27.9996 22.3 27.4996 22.2 27.0996 22C26.6996 21.8 26.2996 21.6 25.9996 21.2C25.6996 20.9 25.3996 20.5 25.1996 20C24.9996 19.5 24.8996 19 24.8996 18.5C24.8996 18 24.9996 17.4 25.1996 17C25.3996 16.5 25.5996 16.1 25.9996 15.8C26.2996 15.5 26.6996 15.2 27.0996 15C27.4996 14.8 27.9996 14.7 28.4996 14.7C28.9996 14.7 29.4996 14.8 29.7996 15C30.1996 15.2 30.4996 15.4 30.6996 15.8V14.9H32.2996V22.1ZM28.6996 16.2C28.3996 16.2 28.0996 16.3 27.7996 16.4C27.4996 16.5 27.2996 16.7 27.0996 16.9C26.8996 17.1 26.7996 17.3 26.6996 17.6C26.5996 17.9 26.5996 18.2 26.5996 18.5C26.5996 18.8 26.5996 19.1 26.6996 19.4C26.7996 19.7 26.8996 19.9 27.0996 20.1C27.2996 20.3 27.4996 20.5 27.7996 20.6C28.0996 20.7 28.3996 20.8 28.6996 20.8C28.9996 20.8 29.2996 20.7 29.5996 20.6C29.8996 20.5 30.0996 20.3 30.2996 20.1C30.4996 19.9 30.5996 19.7 30.6996 19.4C30.7996 19.1 30.8996 18.8 30.8996 18.5C30.8996 18.2 30.7996 17.9 30.6996 17.6C30.5996 17.3 30.3996 17.1 30.2996 16.9C30.0996 16.7 29.8996 16.5 29.5996 16.4C29.2996 16.2 28.9996 16.2 28.6996 16.2ZM39.4996 16.7C39.3996 16.6 39.2996 16.6 39.0996 16.5C38.8996 16.4 38.7996 16.4 38.5996 16.3C38.3996 16.2 38.1996 16.2 37.9996 16.2C37.7996 16.2 37.5996 16.1 37.2996 16.1C36.8996 16.1 36.4996 16.2 36.2996 16.3C36.0996 16.5 35.8996 16.7 35.8996 16.9C35.8996 17 35.8996 17.1 35.9996 17.2C36.0996 17.3 36.0996 17.4 36.2996 17.4C36.3996 17.5 36.4996 17.5 36.6996 17.5C36.7996 17.5 36.9996 17.6 37.1996 17.6L37.8996 17.7C38.6996 17.8 39.2996 18 39.6996 18.4C40.0996 18.7 40.3996 19.2 40.3996 19.8C40.3996 20.1 40.2996 20.5 40.1996 20.7C40.0996 21 39.7996 21.2 39.5996 21.4C39.2996 21.6 38.9996 21.8 38.5996 21.9C38.1996 22 37.6996 22.1 37.1996 22.1C36.9996 22.1 36.7996 22.1 36.5996 22.1C36.3996 22.1 36.0996 22 35.7996 22C35.4996 21.9 35.1996 21.8 34.9996 21.7C34.6996 21.6 34.3996 21.4 34.1996 21.2L34.8996 20C34.9996 20.1 35.1996 20.2 35.2996 20.3C35.4996 20.4 35.5996 20.5 35.7996 20.5C35.9996 20.6 36.1996 20.6 36.3996 20.7C36.5996 20.7 36.8996 20.8 37.1996 20.8C37.6996 20.8 38.0996 20.7 38.3996 20.6C38.6996 20.4 38.7996 20.2 38.7996 20C38.7996 19.8 38.6996 19.6 38.4996 19.5C38.2996 19.4 37.9996 19.3 37.5996 19.2L36.8996 19.1C36.0996 19 35.4996 18.8 35.0996 18.4C34.6996 18 34.4996 17.6 34.4996 17C34.4996 16.6 34.5996 16.3 34.6996 16C34.7996 15.7 34.9996 15.5 35.2996 15.3C35.5996 15.1 35.8996 15 36.1996 14.8C36.5996 14.7 36.9996 14.6 37.3996 14.6C37.9996 14.6 38.4996 14.7 38.9996 14.8C39.4996 14.9 39.8996 15.1 40.2996 15.4L39.4996 16.7ZM46.8996 16.3H44.1996V19.4C44.1996 19.6 44.1996 19.8 44.2996 20C44.3996 20.2 44.3996 20.3 44.4996 20.4C44.5996 20.5 44.6996 20.6 44.8996 20.6C44.9996 20.6 45.1996 20.7 45.2996 20.7C45.4996 20.7 45.7996 20.7 45.9996 20.6C46.2996 20.5 46.4996 20.4 46.6996 20.3L47.2996 21.5C46.9996 21.7 46.6996 21.9 46.2996 22C45.8996 22.1 45.4996 22.2 45.0996 22.2C44.2996 22.2 43.6996 22 43.1996 21.5C42.6996 21 42.4996 20.3 42.4996 19.4V16.2H41.0996V14.8H42.4996V12.6H44.0996V14.8H46.7996V16.3H46.8996ZM51.6996 14.7C52.1996 14.7 52.6996 14.8 53.0996 15C53.4996 15.2 53.8996 15.4 54.1996 15.8C54.4996 16.1 54.6996 16.5 54.8996 17C55.0996 17.5 55.1996 18 55.1996 18.5C55.1996 18.6 55.1996 18.7 55.1996 18.8C55.1996 18.9 55.1996 19 55.1996 19.1H49.8996C49.8996 19.4 49.9996 19.7 50.1996 19.9C50.2996 20.1 50.4996 20.3 50.6996 20.5C50.8996 20.6 51.0996 20.8 51.2996 20.8C51.4996 20.9 51.7996 20.9 51.9996 20.9C52.3996 20.9 52.6996 20.8 53.0996 20.7C53.4996 20.6 53.7996 20.4 54.0996 20.1L54.8996 21.2C54.4996 21.6 53.9996 21.8 53.4996 22C52.9996 22.1 52.4996 22.2 51.8996 22.2C51.3996 22.2 50.8996 22.1 50.3996 21.9C49.9996 21.7 49.5996 21.5 49.1996 21.1C48.8996 20.8 48.5996 20.4 48.3996 19.9C48.1996 19.4 48.0996 18.9 48.0996 18.4C48.0996 17.8 48.1996 17.3 48.3996 16.9C48.5996 16.4 48.7996 16 49.0996 15.7C49.3996 15.4 49.7996 15.1 50.1996 14.9C50.6996 14.8 51.1996 14.7 51.6996 14.7ZM51.6996 16.1C51.3996 16.1 51.1996 16.1 50.9996 16.2C50.7996 16.3 50.5996 16.4 50.3996 16.6C50.1996 16.8 50.0996 16.9 49.9996 17.2C49.8996 17.4 49.7996 17.7 49.7996 17.9H53.4996C53.3996 17.3 53.1996 16.9 52.8996 16.6C52.5996 16.2 52.1996 16.1 51.6996 16.1ZM60.4996 14.7C60.6996 14.7 60.9996 14.7 61.0996 14.7C61.2996 14.7 61.4996 14.8 61.6996 14.9L61.2996 16.4C61.0996 16.3 60.8996 16.3 60.6996 16.2C60.4996 16.2 60.2996 16.1 60.0996 16.1C59.8996 16.1 59.5996 16.1 59.3996 16.2C59.1996 16.3 58.9996 16.4 58.8996 16.6C58.7996 16.8 58.5996 17 58.4996 17.2C58.3996 17.4 58.3996 17.7 58.3996 18V21.9H56.7996V14.7H58.2996V15.5C58.4996 15.2 58.7996 14.9 59.1996 14.7C59.6996 14.8 60.0996 14.7 60.4996 14.7ZM65.8996 14.7C66.3996 14.7 66.8996 14.8 67.3996 15C67.8996 15.2 68.2996 15.5 68.5996 15.9L67.5996 17C67.2996 16.8 67.0996 16.6 66.7996 16.4C66.4996 16.3 66.1996 16.2 65.8996 16.2C65.5996 16.2 65.2996 16.3 65.0996 16.4C64.7996 16.5 64.5996 16.7 64.3996 16.9C64.1996 17.1 64.0996 17.3 63.9996 17.6C63.8996 17.9 63.7996 18.2 63.7996 18.5C63.7996 18.8 63.8996 19.1 63.9996 19.4C64.0996 19.7 64.2996 19.9 64.3996 20.1C64.5996 20.3 64.7996 20.5 65.0996 20.6C65.3996 20.7 65.5996 20.8 65.8996 20.8C66.1996 20.8 66.5996 20.7 66.8996 20.6C67.1996 20.5 67.4996 20.3 67.6996 20.1L68.6996 21.2C68.3996 21.6 67.9996 21.9 67.4996 22.1C66.9996 22.3 66.4996 22.4 65.9996 22.4C65.3996 22.4 64.8996 22.3 64.4996 22.1C63.9996 21.9 63.5996 21.6 63.2996 21.3C62.9996 21 62.6996 20.6 62.4996 20.1C62.2996 19.6 62.1996 19.1 62.1996 18.6C62.1996 18.1 62.2996 17.6 62.4996 17.1C62.6996 16.6 62.8996 16.2 63.2996 15.9C63.5996 15.6 63.9996 15.3 64.4996 15.1C64.7996 14.8 65.2996 14.7 65.8996 14.7ZM76.8996 22.1H75.2996V21.2C75.0996 21.5 74.6996 21.8 74.3996 22C73.9996 22.2 73.5996 22.3 73.0996 22.3C72.5996 22.3 72.0996 22.2 71.6996 22C71.2996 21.8 70.8996 21.6 70.5996 21.2C70.2996 20.9 69.9996 20.5 69.7996 20C69.5996 19.5 69.4996 19 69.4996 18.5C69.4996 18 69.5996 17.4 69.7996 17C69.9996 16.5 70.1996 16.1 70.5996 15.8C70.8996 15.5 71.2996 15.2 71.6996 15C72.0996 14.8 72.5996 14.7 73.0996 14.7C73.5996 14.7 74.0996 14.8 74.3996 15C74.7996 15.2 75.0996 15.4 75.2996 15.8V14.9H76.8996V22.1ZM73.2996 16.2C72.9996 16.2 72.6996 16.3 72.3996 16.4C72.0996 16.5 71.8996 16.7 71.6996 16.9C71.4996 17.1 71.3996 17.3 71.2996 17.6C71.1996 17.9 71.1996 18.2 71.1996 18.5C71.1996 18.8 71.2996 19.1 71.2996 19.4C71.3996 19.7 71.4996 19.9 71.6996 20.1C71.8996 20.3 72.0996 20.5 72.3996 20.6C72.6996 20.7 72.9996 20.8 73.2996 20.8C73.5996 20.8 73.8996 20.7 74.1996 20.6C74.4996 20.5 74.6996 20.3 74.8996 20.1C75.0996 19.9 75.1996 19.7 75.2996 19.4C75.3996 19.1 75.4996 18.8 75.4996 18.5C75.4996 18.2 75.3996 17.9 75.2996 17.6C75.1996 17.3 74.9996 17.1 74.8996 16.9C74.6996 16.7 74.4996 16.5 74.1996 16.4C73.8996 16.2 73.5996 16.2 73.2996 16.2ZM82.7996 14.7C82.9996 14.7 83.2996 14.7 83.3996 14.7C83.5996 14.7 83.7996 14.8 83.9996 14.9L83.5996 16.4C83.3996 16.3 83.1996 16.3 82.9996 16.2C82.7996 16.2 82.5996 16.1 82.3996 16.1C82.1996 16.1 81.8996 16.1 81.6996 16.2C81.4996 16.3 81.2996 16.4 81.1996 16.6C81.0996 16.8 80.8996 17 80.7996 17.2C80.6996 17.4 80.6996 17.7 80.6996 18V21.9H79.0996V14.7H80.5996V15.5C80.7996 15.2 81.0996 14.9 81.4996 14.7C81.9996 14.8 82.3996 14.7 82.7996 14.7ZM87.9996 14.7C88.4996 14.7 88.9996 14.8 89.2996 15C89.6996 15.2 89.9996 15.4 90.1996 15.8V11.3H91.7996V22.1H90.1996V21.2C89.9996 21.5 89.5996 21.8 89.2996 22C88.8996 22.2 88.4996 22.3 87.9996 22.3C87.4996 22.3 86.9996 22.2 86.5996 22C86.1996 21.8 85.7996 21.6 85.4996 21.2C85.1996 20.9 84.8996 20.5 84.6996 20C84.4996 19.5 84.3996 19 84.3996 18.5C84.3996 18 84.4996 17.4 84.6996 17C84.8996 16.5 85.0996 16.1 85.4996 15.8C85.7996 15.5 86.1996 15.2 86.5996 15C86.9996 14.8 87.4996 14.7 87.9996 14.7ZM93.5996 21.4C93.6996 21.4 93.6996 21.4 93.7996 21.4C93.8996 21.4 93.8996 21.5 93.8996 21.5L93.9996 21.6C93.9996 21.7 93.9996 21.7 93.9996 21.8C93.9996 21.9 93.9996 21.9 93.9996 22C93.9996 22.1 93.8996 22.1 93.8996 22.1L93.7996 22.2C93.6996 22.2 93.6996 22.2 93.5996 22.2C93.4996 22.2 93.4996 22.2 93.3996 22.2C93.2996 22.2 93.2996 22.1 93.2996 22.1L93.1996 22C93.1996 21.9 93.1996 21.9 93.1996 21.8C93.1996 21.7 93.1996 21.7 93.1996 21.6C93.1996 21.5 93.2996 21.5 93.2996 21.5L93.3996 21.4C93.4996 21.4 93.4996 21.4 93.5996 21.4ZM93.5996 22.2H93.6996C93.6996 22.2 93.7996 22.2 93.7996 22.1L93.8996 22V21.9V21.8C93.8996 21.8 93.8996 21.7 93.7996 21.7L93.6996 21.6H93.5996H93.4996C93.4996 21.6 93.3996 21.6 93.3996 21.7L93.2996 21.8V21.9V22C93.2996 22 93.2996 22.1 93.3996 22.1L93.4996 22.2H93.5996ZM93.5996 21.6C93.6996 21.6 93.6996 21.6 93.6996 21.6V21.7V21.8H93.5996L93.6996 22H93.5996L93.4996 21.8V22H93.3996V21.6H93.5996ZM93.4996 21.7V21.8H93.5996C93.5996 21.8 93.5996 21.8 93.6996 21.8C93.6996 21.8 93.6996 21.8 93.5996 21.8H93.4996V21.7ZM88.1996 16.2C87.8996 16.2 87.5996 16.3 87.2996 16.4C86.9996 16.5 86.7996 16.7 86.5996 16.9C86.3996 17.1 86.2996 17.3 86.1996 17.6C85.9996 17.9 85.9996 18.2 85.9996 18.5C85.9996 18.8 86.0996 19.1 86.0996 19.4C86.1996 19.7 86.2996 19.9 86.4996 20.1C86.6996 20.3 86.8996 20.5 87.1996 20.6C87.4996 20.7 87.7996 20.8 88.0996 20.8C88.3996 20.8 88.6996 20.7 88.9996 20.6C89.2996 20.5 89.4996 20.3 89.6996 20.1C89.8996 19.9 89.9996 19.7 90.0996 19.4C90.1996 19.1 90.2996 18.8 90.2996 18.5C90.2996 18.2 90.1996 17.9 90.0996 17.6C89.9996 17.3 89.7996 17.1 89.6996 16.9C89.4996 16.7 89.2996 16.5 88.9996 16.4C88.7996 16.2 88.4996 16.2 88.1996 16.2Z" fill="#E41522"/>
</svg>
