<svg width="89" height="26" viewBox="0 0 89 26" fill="none" xmlns="http://www.w3.org/2000/svg">
<path fill-rule="evenodd" clip-rule="evenodd" d="M4.05822 9.57316C3.87198 10.0388 3.77886 10.5354 3.6547 11.0321C3.34429 12.522 3.09597 14.1051 2.75452 15.595C2.07163 15.595 1.3577 15.595 0.674805 15.595C1.45082 10.5665 2.87868 5.66204 3.49949 0.260984C4.18239 0.260984 4.86528 0.260984 5.51713 0.260984C5.42401 0.757633 5.29985 1.22324 5.23777 1.71989C5.23777 1.75093 5.17569 1.78197 5.17569 1.84405C6.1069 0.63347 7.53477 -0.204624 9.80073 0.0437006C12.0356 0.260985 13.2462 2.0303 13.3394 4.11001C13.5566 8.08321 11.4459 11.6839 7.1002 11.3735C5.67233 11.2804 4.58591 10.7527 4.05822 9.57316ZM6.97604 2.0303C5.14465 2.96151 3.37533 7.24511 5.45505 9.0765C6.82083 10.2871 8.96263 9.63523 9.86281 8.51777C10.8871 7.24511 11.8184 3.58232 10.2663 2.27862C9.73865 1.84405 8.90055 1.68885 8.12454 1.78197C7.56581 1.81301 7.28645 1.87509 6.97604 2.0303Z" fill="#030000"/>
<path fill-rule="evenodd" clip-rule="evenodd" d="M22.9313 11.1561C22.2795 11.1561 21.6276 11.1561 20.9447 11.1561C21.0379 10.5353 21.162 9.94554 21.2862 9.35577C20.6964 10.2249 19.6721 11.2182 18.1821 11.3734C16.0403 11.5907 14.0848 10.5043 13.8985 8.73496C13.8364 8.14519 13.8675 7.18293 14.3641 6.43796C15.6058 4.4824 18.834 4.35824 22.0312 4.45137C22.9934 0.912742 17.8407 1.44043 16.0714 2.58893C16.1645 1.90604 16.3197 1.25419 16.4128 0.571293C19.61 -0.422005 23.9246 -0.173679 24.173 3.27182C24.2661 4.63761 23.8626 5.97235 23.6142 7.27605C23.3659 8.54872 23.1176 9.79034 22.9313 11.1561ZM16.1645 8.33144C16.2266 9.23161 17.2199 9.72826 18.0269 9.72826C20.2308 9.7593 21.2862 7.83478 21.6276 5.94131C19.1444 5.81715 16.0093 6.12756 16.1645 8.33144Z" fill="#030000"/>
<path fill-rule="evenodd" clip-rule="evenodd" d="M27.7109 0.291992C28.1765 3.17876 28.7353 5.97242 29.1698 8.92127C30.815 6.09658 32.336 3.14772 33.9501 0.291992C34.695 0.291992 35.44 0.291992 36.216 0.291992C34.2294 3.8927 31.9014 7.83485 29.6665 11.6218C28.9836 12.8013 28.3007 14.3844 27.3074 15.1604C26.4383 15.8433 24.7621 15.9985 23.3652 15.7192C23.3963 15.0983 23.6136 14.6327 23.6446 14.043C23.924 14.0119 24.2654 14.1982 24.6069 14.1982C26.1278 14.1982 26.9659 12.8013 27.5247 11.7149C26.8728 7.95901 26.1589 4.23414 25.507 0.447195C25.445 0.385114 25.476 0.354073 25.507 0.291992C26.252 0.291992 26.997 0.291992 27.7109 0.291992Z" fill="#030000"/>
<path fill-rule="evenodd" clip-rule="evenodd" d="M37.1162 17.5195C36.6506 20.1579 36.0609 22.6412 35.5953 25.2796C34.1363 25.2796 32.6774 25.2796 31.1875 25.2796C31.8704 22.0514 32.4602 18.8542 33.112 15.657C33.7639 12.4909 34.5399 9.32476 34.9124 5.97238C36.0919 5.87926 37.675 5.87926 38.8545 5.97238C38.8235 6.71736 38.6372 7.33817 38.5752 8.0521C39.7237 6.9036 40.9653 5.38261 43.6037 5.63094C46.118 5.87926 47.5148 7.99002 47.7011 10.6595C48.0425 15.2535 45.8076 19.7544 41.7723 20.0648C39.258 20.251 38.0785 19.1025 37.1162 17.5195ZM38.8856 10.6595C37.8612 12.1184 37.5198 14.9121 38.8235 15.9985C39.6305 16.6814 41.1205 16.3399 41.8034 15.7812C42.6725 15.0673 43.2933 13.7015 43.2623 11.9943C43.2312 10.4422 42.5483 9.13852 40.9032 9.3558C39.9409 9.47997 39.3512 9.97662 38.8856 10.6595Z" fill="#009651"/>
<path fill-rule="evenodd" clip-rule="evenodd" d="M59.7759 19.7856C58.6274 19.7546 57.3237 19.8477 56.2684 19.7235C56.3925 19.1027 56.3925 18.3267 56.4856 17.7059C56.1442 18.0473 55.8959 18.544 55.4613 18.9475C54.0334 20.2512 50.8363 20.5306 49.2532 19.2269C47.546 17.799 47.8253 14.3845 49.2532 12.9256C50.8983 11.2184 54.0024 10.7838 57.1996 11.1253C57.51 9.82158 56.6408 9.01452 55.5544 8.85932C53.9714 8.64204 51.8606 9.32493 50.9294 9.88366C51.1156 8.7662 51.1777 7.55562 51.395 6.43816C52.5124 6.03463 53.5678 5.72422 54.9026 5.66214C58.5964 5.41382 61.1417 6.65544 61.39 9.82157C61.5142 11.4978 61.0176 13.236 60.6451 14.8812C60.3036 16.4953 60.0553 18.1404 59.7759 19.7856ZM55.3371 13.5775C54.0024 13.6085 52.5435 14.0431 52.2331 15.0364C51.9848 15.9055 52.6056 16.7126 53.2574 16.8367C55.3061 17.2713 56.7029 15.2537 56.8581 13.6396C56.3925 13.5464 55.7096 13.5775 55.3371 13.5775Z" fill="#009651"/>
<path fill-rule="evenodd" clip-rule="evenodd" d="M73.3096 6.43817C73.0923 7.55563 72.6888 8.48684 72.4715 9.6043C71.3851 9.23182 70.0814 8.67309 68.3741 8.85933C67.6912 8.95245 67.0083 9.2939 67.0083 9.97679C67.0394 10.8149 68.312 11.1253 69.0881 11.4357C70.1745 11.9013 71.4782 12.5221 72.0059 13.4533C72.906 15.0674 72.0059 17.4265 71.0436 18.4198C70.2366 19.2579 68.7156 19.9408 67.1635 20.065C65.1459 20.2202 63.0351 19.8477 61.2969 19.3821C61.5452 18.2336 61.8246 17.1782 62.135 16.1228C63.2835 16.5884 64.5872 17.023 66.3565 16.8678C67.1946 16.7747 68.1258 16.4953 68.0016 15.502C67.9085 14.695 66.6979 14.4156 65.7978 14.0431C64.1216 13.3602 62.8799 12.4911 62.8799 10.2251C62.8799 5.56903 69.3364 4.79302 73.3096 6.43817Z" fill="#009651"/>
<path fill-rule="evenodd" clip-rule="evenodd" d="M84.2977 6.43819C84.0493 7.52461 83.7079 8.54894 83.3975 9.60432C82.3731 9.2008 81.0384 8.67311 79.3312 8.85935C78.6483 8.92143 77.9654 9.26288 77.9654 9.97681C77.9964 10.8459 79.5484 11.3116 80.2624 11.622C81.7213 12.2428 83.1181 12.9257 83.3043 14.6019C83.4906 16.247 82.8077 17.5818 81.8454 18.4819C80.9453 19.3511 79.6105 19.9408 78.1206 20.065C76.0719 20.2202 74.0853 19.8477 72.2539 19.3821C72.4401 18.2026 72.8126 17.2403 73.0299 16.1228C73.868 16.3712 74.6751 16.7747 75.6684 16.8678C77.0652 16.992 78.9587 16.8989 78.9276 15.6883C78.8966 14.3846 76.1961 14.1052 75.1407 13.2671C73.9922 12.3669 73.2782 10.1631 74.1784 8.3627C75.6684 5.56905 80.7901 4.94824 84.2977 6.43819Z" fill="#009651"/>
<path d="M85.9435 7.86597H85.3848L85.4158 7.64868H86.7816L86.7505 7.86597H86.1918L85.8814 9.5732H85.6331L85.9435 7.86597Z" fill="#009651"/>
<path d="M88.2406 9.5732L88.3648 8.54886C88.3958 8.36262 88.4269 8.08325 88.4579 7.89701C88.3648 8.08325 88.2717 8.33157 88.1475 8.51782L87.5888 9.5732H87.4026L87.2473 8.54886C87.2163 8.33158 87.1853 8.11429 87.1853 7.89701C87.1542 8.08325 87.0921 8.36262 87.0301 8.54886L86.7817 9.5732H86.5645L87.0611 7.64868H87.3715L87.5267 8.7351C87.5578 8.8903 87.5578 9.07655 87.5578 9.23175C87.6198 9.07655 87.713 8.92135 87.775 8.76614L88.3648 7.64868H88.6752L88.4269 9.5732H88.2406Z" fill="#009651"/>
</svg>
