<svg width="73" height="42" viewBox="0 0 73 42" fill="none" xmlns="http://www.w3.org/2000/svg">
<path d="M32.5615 24.8053L34.5014 12.4026H37.5497L35.6098 24.8053H32.5615Z" fill="#074784"/>
<path d="M23.555 12.4026H28.4045C31.4529 12.4026 32.2842 14.2348 31.8685 16.3489C31.5914 18.1811 30.3444 19.3086 28.6817 19.7314L31.73 24.8053H27.7117L25.3562 19.8724L24.6634 24.8053H21.4766L23.555 12.4026ZM26.3261 14.7986L25.7719 17.8992H26.7418C27.5732 17.8992 28.4045 17.1945 28.5431 16.3489C28.6817 15.5033 28.1274 14.7986 27.1575 14.7986H26.3261Z" fill="#074784"/>
<path d="M46.833 24.8053L48.7728 12.4026H51.9597L50.0199 24.8053H46.833Z" fill="#074784"/>
<path d="M57.087 15.0804L56.6713 17.1945H60.2739L59.8582 19.8724H56.2556L55.9785 22.1274H59.7196L59.304 24.8053H52.376L54.3158 12.4026H61.2438L60.8281 15.0804H57.087Z" fill="#074784"/>
<path d="M17.4581 15.0804L17.181 17.1945H20.7835L20.3678 19.8724H16.7653L16.3496 22.1274H20.0907L19.6751 24.8053H12.7471L14.6869 12.4026H21.6149L21.1992 15.0804H17.4581Z" fill="#074784"/>
<path d="M42.6759 15.0804L42.3988 17.1945H45.8627L45.4471 19.8724H41.9831L41.1517 24.8053H37.9648L39.9047 12.4026H46.9712L46.5555 15.0804H42.6759Z" fill="#074784"/>
<path d="M67.2011 12.4026H63.0443L61.1045 24.8053H65.2613C69.1409 24.8053 72.3278 22.1274 72.8821 18.6039C73.1592 16.208 72.0507 12.4026 67.2011 12.4026ZM69.5566 18.463C69.141 20.718 67.6168 22.1274 65.5384 22.1274C65.2613 22.1274 64.9842 22.1274 64.707 22.1274L65.8155 15.0804C66.0926 15.0804 66.2312 15.0804 66.5083 15.0804C68.8638 15.0804 69.8338 16.7717 69.5566 18.463Z" fill="#074784"/>
<path d="M0 10.7114H5.8195L6.5123 19.7315C10.392 12.9664 14.2716 6.48322 18.2899 0H20.2297C16.0729 8.1745 11.9161 16.4899 7.8979 24.8054H3.60255L2.49407 14.7987C2.21695 12.4027 1.80127 11.2752 0 11.1342V10.7114Z" fill="#074784"/>
<path d="M7.89774 13.3891L12.4702 5.49648V5.2146H2.2168V5.49648L7.20494 7.75151L7.62062 13.3891H7.89774Z" fill="#F09C11"/>
<path d="M26.0497 31.7114C25.2183 31.7114 24.5255 32.1343 23.9713 32.698L24.6641 27.7651H22.5857L21.0615 38.6175H23.1399L23.2785 37.7718C23.6942 38.3356 24.2484 38.7584 25.0798 38.7584C26.7425 38.7584 28.2666 37.2081 28.5437 35.2349C28.8209 33.2618 27.7124 31.7114 26.0497 31.7114ZM26.3268 35.2349C26.1882 36.0806 25.4954 36.7853 24.8026 36.7853C24.1098 36.7853 23.5556 36.0806 23.6942 35.2349C23.8327 34.3893 24.5255 33.6846 25.2183 33.6846C25.9111 33.6846 26.4653 34.3893 26.3268 35.2349Z" fill="#074784"/>
<path d="M34.3631 31.8523H36.7186L30.4834 41.9999H28.1279L30.7606 37.7718L28.6822 31.8523H31.0377L32.1462 35.3758L34.3631 31.8523Z" fill="#074784"/>
<path d="M50.7125 38.6175H47.8027L51.1282 27.7651H54.0379L50.7125 38.6175Z" fill="#074784"/>
<path d="M46.5561 27.7651L42.6764 34.8121L42.3993 27.7651H37.4111V28.188C39.0738 28.188 39.351 28.4698 39.6281 29.7383L40.598 38.6175H43.6463L49.7429 27.7651H46.5561Z" fill="#074784"/>
<path d="M65.5388 37.0671L64.846 38.6175H61.6592L67.4787 27.7651H71.3583L72.3283 38.6175H70.1113H69.1414L69.0028 37.0671H65.5388ZM66.5088 34.9531H69.0028L68.7257 29.8792L66.5088 34.9531Z" fill="#074784"/>
<path d="M57.0863 38.8993C55.0079 38.8993 53.6223 38.1946 52.6523 37.6308L54.0379 35.5167C54.8693 36.0805 55.5621 36.6442 57.2248 36.6442C57.779 36.6442 58.1947 36.5033 58.4718 36.0805C58.8875 35.3758 58.3333 34.953 57.2248 34.3892L56.6706 33.8254C55.0079 32.6979 54.1765 31.5704 55.0079 29.5972C55.5621 28.3288 56.8091 27.4832 59.0261 27.4832C60.5502 27.4832 61.9358 28.1879 62.7672 28.7516L61.1045 30.5838C60.2731 29.8791 59.5803 29.5972 58.8875 29.5972C58.3333 29.5972 57.779 29.8791 57.6405 30.161C57.3634 30.7248 57.779 31.1476 58.6104 31.7113L59.3032 32.1342C61.3816 33.4026 61.7973 34.812 61.3816 36.0805C60.6888 38.4764 58.8875 38.8993 57.0863 38.8993Z" fill="#074784"/>
</svg>
