<svg width="87" height="25" viewBox="0 0 87 25" fill="none" xmlns="http://www.w3.org/2000/svg">
<path d="M11.9538 0C5.3505 0 0 5.37313 0 12.0044C0 18.6356 5.3505 24.0087 11.9538 24.0087C18.5571 24.0087 23.8989 18.6356 23.8989 12.0044C23.8989 5.37313 18.5484 0 11.9538 0ZM16.1211 18.0852C15.7644 18.2512 15.3903 18.391 15.0075 18.4871C13.5546 18.889 12.093 18.9064 10.6488 18.4347C8.9001 17.8668 7.7343 16.6698 7.047 14.9836C6.9165 14.6604 6.8208 14.3196 6.7251 13.9789H5.3418C5.1069 13.9789 4.9242 13.7954 4.9242 13.5595V12.6334C4.9242 12.3975 5.1069 12.2141 5.3418 12.2141H6.4728C6.4728 11.9607 6.4728 11.7161 6.4728 11.4539H5.3418C5.1069 11.4539 4.9242 11.2705 4.9242 11.0346V10.1085C4.9242 9.87259 5.1069 9.68911 5.3418 9.68911H6.786L6.8382 9.54933C7.2297 8.3087 7.8909 7.25155 8.9262 6.44776C9.744 5.80997 10.6836 5.4605 11.7015 5.2945C13.1457 5.05861 14.5377 5.25955 15.8949 5.7925C15.9819 5.82745 16.0689 5.87113 16.1472 5.91481C16.4691 6.10702 16.5561 6.35165 16.4082 6.70113C16.2516 7.06807 16.1037 7.43502 15.9384 7.80196C15.7992 8.11649 15.5991 8.2126 15.2685 8.13396C14.8161 8.02912 14.3637 7.88933 13.9026 7.79323C12.9369 7.59228 11.9799 7.58355 11.0403 7.95923C10.2312 8.28249 9.744 8.89406 9.4047 9.67164C9.396 9.68038 9.396 9.68911 9.396 9.69785H12.2061C12.441 9.69785 12.6237 9.88132 12.6237 10.1172V11.0433C12.6237 11.2792 12.441 11.4627 12.2061 11.4627H9.0045C8.9958 11.7073 9.0045 11.9607 9.0045 12.2228H12.2148C12.4497 12.2228 12.6324 12.4063 12.6324 12.6422V13.5683C12.6324 13.8042 12.4497 13.9876 12.2148 13.9876H9.2829C9.6396 15.0011 10.2138 15.7874 11.2926 16.1281C12.1539 16.399 13.0239 16.3815 13.9026 16.2068C14.355 16.1107 14.7987 15.9709 15.2511 15.8748C15.6078 15.7961 15.7992 15.8922 15.9471 16.2155C16.1124 16.5825 16.269 16.9494 16.4169 17.3251C16.5561 17.6571 16.4691 17.9279 16.1211 18.0852Z" fill="#0A6297"/>
<path d="M31.3374 16.7137L28.2402 7.00708H30.6327L31.8072 11.1134C32.1378 12.2666 32.4423 13.3762 32.6685 14.5819H32.712C32.9556 13.4112 33.2601 12.2666 33.5907 11.1571L34.8261 7.00708H37.149L33.8952 16.7137H31.3374Z" fill="#0A6297"/>
<path d="M44.4309 13.114C44.4309 15.6913 42.6126 16.8708 40.7334 16.8708C38.6802 16.8708 37.1055 15.5166 37.1055 13.245C37.1055 10.9735 38.5932 9.5144 40.8465 9.5144C42.9954 9.5144 44.4309 10.9997 44.4309 13.114ZM39.3501 13.1839C39.3501 14.3895 39.8547 15.2982 40.7856 15.2982C41.6295 15.2982 42.1776 14.4507 42.1776 13.1839C42.1776 12.1354 41.7774 11.0696 40.7856 11.0696C39.7416 11.0696 39.3501 12.1529 39.3501 13.1839Z" fill="#0A6297"/>
<path d="M45.7797 11.9957C45.7797 10.956 45.7535 10.2833 45.7188 9.68045H47.5979L47.6676 10.9735H47.7284C48.0851 9.9513 48.9465 9.52319 49.6251 9.52319C49.8252 9.52319 49.9296 9.52319 50.0862 9.5494V11.6113C49.9296 11.5851 49.7382 11.5501 49.4946 11.5501C48.6942 11.5501 48.146 11.9782 48.0068 12.6597C47.9807 12.7995 47.9633 12.9742 47.9633 13.149V16.7223H45.7797V11.9957V11.9957Z" fill="#0A6297"/>
<path d="M53.3663 12.6422H53.3924C53.549 12.3539 53.723 12.0656 53.897 11.7947L55.3151 9.68044H57.9425L55.4282 12.5286L58.2992 16.7223H55.6196L53.9231 13.8304L53.3663 14.5206V16.7223H51.1826V6.50024H53.3663V12.6422V12.6422Z" fill="#0A6297"/>
<path d="M63.0141 16.7135L62.8836 16.0058H62.8401C62.379 16.565 61.6656 16.8707 60.8304 16.8707C59.4123 16.8707 58.5684 15.8311 58.5684 14.7128C58.5684 12.8868 60.204 12.0043 62.6835 12.0218V11.917C62.6835 11.5413 62.4834 11.0083 61.4046 11.0083C60.6912 11.0083 59.9256 11.253 59.4645 11.5413L59.0643 10.1259C59.5515 9.85509 60.5085 9.50562 61.7874 9.50562C64.1277 9.50562 64.8672 10.886 64.8672 12.546V14.9923C64.8672 15.6651 64.8933 16.3203 64.9716 16.7047H63.0141V16.7135ZM62.7531 13.3935C61.6047 13.376 60.7173 13.6556 60.7173 14.5031C60.7173 15.0622 61.0914 15.3418 61.5786 15.3418C62.1267 15.3418 62.5704 14.9836 62.7096 14.538C62.7357 14.4244 62.7531 14.2934 62.7531 14.1623V13.3935Z" fill="#0A6297"/>
<path d="M66.5809 14.8002C66.9811 15.0448 67.8163 15.3331 68.4601 15.3331C69.1213 15.3331 69.391 15.106 69.391 14.739C69.391 14.3721 69.1735 14.2061 68.3557 13.9352C66.9115 13.446 66.346 12.6509 66.3634 11.8209C66.3634 10.5104 67.4857 9.5144 69.217 9.5144C70.0348 9.5144 70.7656 9.69788 71.1919 9.9163L70.8004 11.4278C70.4872 11.253 69.8869 11.0259 69.2779 11.0259C68.7472 11.0259 68.4427 11.2443 68.4427 11.6025C68.4427 11.9345 68.7124 12.1092 69.5737 12.4063C70.9048 12.8693 71.4703 13.5421 71.479 14.5818C71.479 15.8923 70.4437 16.8533 68.4427 16.8533C67.5292 16.8533 66.7114 16.6524 66.1807 16.3641L66.5809 14.8002Z" fill="#0A6297"/>
<path d="M72.8104 14.8002C73.2106 15.0448 74.0458 15.3331 74.6896 15.3331C75.3508 15.3331 75.6205 15.106 75.6205 14.739C75.6205 14.3721 75.403 14.2061 74.5852 13.9352C73.141 13.446 72.5755 12.6509 72.5929 11.8209C72.5929 10.5104 73.7152 9.5144 75.4465 9.5144C76.2643 9.5144 76.9951 9.69788 77.4214 9.9163L77.0299 11.4278C76.7167 11.253 76.1164 11.0259 75.5074 11.0259C74.9767 11.0259 74.6722 11.2443 74.6722 11.6025C74.6722 11.9345 74.9419 12.1092 75.8032 12.4063C77.1343 12.8693 77.6998 13.5421 77.7085 14.5818C77.7085 15.8923 76.6732 16.8533 74.6722 16.8533C73.7587 16.8533 72.9409 16.6524 72.4102 16.3641L72.8104 14.8002Z" fill="#0A6297"/>
<path d="M80.7277 13.8915C80.7973 14.8002 81.6847 15.2283 82.7026 15.2283C83.4508 15.2283 84.0511 15.1234 84.6427 14.94L84.9298 16.4252C84.2164 16.7135 83.3377 16.8533 82.3894 16.8533C80.0056 16.8533 78.6484 15.4729 78.6484 13.2712C78.6484 11.4889 79.7533 9.5144 82.1893 9.5144C84.4513 9.5144 85.3126 11.288 85.3126 13.0266C85.3126 13.4023 85.2691 13.7343 85.243 13.8915H80.7277ZM83.2942 12.3975C83.2942 11.8646 83.068 10.9735 82.0588 10.9735C81.1453 10.9735 80.7712 11.8122 80.7103 12.3975H83.2942Z" fill="#0A6297"/>
</svg>
