<svg width="42" height="42" viewBox="0 0 42 42" fill="none" xmlns="http://www.w3.org/2000/svg">
<path d="M26.6 20.1884L22.1 15.2174L17.1 19.6812L21.6 24.7536L26.6 20.1884Z" fill="#137ABE"/>
<path d="M13.5 11.1594L18 16.1304L23 11.6667L18.5 6.69565L13.5 11.1594Z" fill="#137ABE"/>
<path d="M30.1 28.8116L25.6 23.8406L20.6 28.4058L25.1 33.3768L30.1 28.8116Z" fill="#137ABE"/>
<path d="M24.9 37.1304L16.7 27.8986L19 25.8696L13.2 19.3768L15.5 17.3478L9.7 10.8551L18.8 2.63768L21.7 5.78261L26.7 1.42029L29.6 4.46377L31.5 2.73913C31.1 2.53623 30.6 2.23188 30.2 2.02899C27.3 0.811594 24.2 0 20.9 0C9.4 0 0 9.43478 0 21C0 32.5652 9.4 42 21 42C24.8 42 28.3 40.9855 31.3 39.2609C32.3 38.6522 33.2 38.0435 34.1 37.4348L29.9 32.6667L24.9 37.1304Z" fill="#137ABE"/>
<path d="M22.7 8.72464L26 12.4783L29.8 9.13043L26.4 5.37681L22.7 8.72464Z" fill="#137ABE"/>
<path d="M33.2 16.6377L29.8 12.8841L26.1 16.3333L29.5 19.9855L33.2 16.6377Z" fill="#137ABE"/>
<path d="M36.4 24.5507L33 20.7971L29.3 24.1449L32.7 28L36.4 24.5507Z" fill="#137ABE"/>
<path d="M36.6 12.1739L34.1 14.4058L36.4 16.942L38.8 14.7101L36.6 12.1739Z" fill="#137ABE"/>
<path d="M37.3 21.8116L39.5 24.3478L42 22.1159L39.7 19.5797L37.3 21.8116Z" fill="#137ABE"/>
<path d="M30.9 7L33.2 9.53623L35.6 7.30435L33.4 4.76812L30.9 7Z" fill="#137ABE"/>
<path d="M32.6 31.7536L36 35.5072L39.7 32.1594L36.3 28.4058L32.6 31.7536Z" fill="#137ABE"/>
</svg>
