<svg width="24" height="24" viewBox="0 0 24 24" fill="none" xmlns="http://www.w3.org/2000/svg">
<path d="M23.9588 9.95789C23.8334 9.22312 23.1435 8.73328 22.2027 8.73328C21.8891 8.73328 21.6382 8.73328 21.3246 8.73328C20.7601 8.67205 20.6347 8.85574 20.6347 9.28436C20.6347 11.4274 20.6347 13.5093 20.6347 15.6523C20.6347 16.7545 19.5057 17.9179 18.1886 18.1628C14.0491 19.0812 9.90966 19.9385 5.77017 20.8569C5.33114 20.9794 4.82939 20.9794 4.32764 20.9794C4.13948 20.9794 3.82588 20.8569 3.76316 20.6732C3.70045 20.5508 3.8886 20.3059 4.01404 20.1834C4.2022 20.0609 4.45308 19.9385 4.70396 19.816C5.45659 19.5711 6.27193 19.3262 7.02456 19.0812C10.0978 18.1016 13.1711 17.1219 16.2443 16.0809C17.6242 15.6523 18.3768 14.7339 18.3768 13.5705C18.4395 9.89666 18.3768 6.1616 18.3768 2.48776C18.3768 1.87546 18.0632 1.38562 17.3733 1.14069C16.5579 0.834541 15.8053 1.07946 15.1154 1.38561C10.725 3.40622 6.39737 5.42683 2.00701 7.44744C0.752622 8.05975 0 8.91697 0 10.1416C0 13.6317 0 17.1219 0 20.612C0 20.7957 -1.53133e-05 20.9794 0.0627041 21.1019C0.50174 22.2652 1.6307 23 3.13597 23C6.20922 23 9.28246 23 12.3557 23C15.429 23 18.4395 23 21.5128 23C22.2027 23 22.7671 22.8775 23.2689 22.4489C23.8961 21.9591 23.8961 21.2855 23.8961 20.6732C23.8961 17.2443 23.8961 13.8766 23.8961 10.4477C24.0215 10.3865 24.0215 10.1416 23.9588 9.95789ZM11.164 8.85575C11.4776 8.05975 12.1676 7.5699 13.1711 7.44744C13.861 7.38621 14.4255 7.75359 14.5509 8.3659C14.6763 9.28436 13.5474 10.3865 12.3557 10.3865C11.4149 10.3865 10.8505 9.71297 11.164 8.85575Z" fill="#FBC02D"/>
</svg>
